<?xml version="1.0" standalone="no"?>
<!DOCTYPE svg PUBLIC "-//W3C//DTD SVG 1.1//EN" "http://www.w3.org/Graphics/SVG/1.1/DTD/svg11.dtd" >
<svg xmlns="http://www.w3.org/2000/svg" xmlns:xlink="http://www.w3.org/1999/xlink" version="1.1">
<metadata>
Created by FontForge 20170731 at Sat May  8 12:57:54 2021
 By Aleksey,,,
Copyright (c) 2008 by Dino dos Santos _DSType. All rights reserved.
</metadata>
<defs>
<font id="PreloSlab-Black" horiz-adv-x="1228" >
  <font-face 
    font-family="Prelo Slab Black"
    font-weight="400"
    font-stretch="normal"
    units-per-em="2048"
    panose-1="2 0 5 3 4 0 0 2 0 4"
    ascent="1536"
    descent="-512"
    x-height="1024"
    cap-height="1393"
    bbox="-113 -557 2376 1946"
    underline-thickness="102"
    underline-position="-307"
    unicode-range="U+0020-FB04"
  />
<missing-glyph horiz-adv-x="1208" 
d="M143 1024h922v-1024h-922v1024zM588 510l-422 483v-960zM623 510l419 -473v952zM190 999l416 -469l414 469h-830zM606 492l-411 -467h821z" />
    <glyph glyph-name="ff" unicode="ff" horiz-adv-x="1320" 
d="M758 287v491h-266v-491h81v-287h-532v287h102v491h-123v226l123 20v100q0 157 81 233.5t268 76.5q87 0 194 -21l-31 -266q-52 10 -82 10q-44 0 -62.5 -23t-18.5 -71v-39h266v100q0 157 80.5 233.5t267.5 76.5q87 0 194 -21l-30 -266q-52 10 -82 10q-44 0 -63 -23t-19 -71
v-39h184v-246h-184v-491h102v-287h-532v287h82z" />
    <glyph glyph-name="fi" unicode="fi" 
d="M1106 287h102v-287h-532v287h82v491h-266v-491h81v-287h-532v287h102v491h-123v226l123 20v39q0 65 11.5 117t43 101t83 81.5t136 52t197.5 19.5q90 0 227.5 -20.5t192.5 -41.5l-30 -246q-264 31 -349 31q-54 0 -89 -8.5t-50 -24t-19.5 -29t-4.5 -32.5v-39h614v-737z" />
    <glyph glyph-name="fl" unicode="fl" 
d="M1106 287h102v-287h-532v287h82v864q-47 6 -103 6q-54 0 -89 -8t-50 -23.5t-19.5 -29t-4.5 -33.5v-39h184v-246h-184v-491h81v-287h-532v287h102v491h-123v226l123 20v39q0 65 11.5 117t43 101t83 81.5t136 52t197.5 19.5q143 0 246 -21h246v-1126z" />
    <glyph glyph-name="ffi" unicode="ffi" horiz-adv-x="1843" 
d="M1720 287h103v-287h-533v287h82v491h-266v-491h82v-287h-512v287h82v491h-266v-491h81v-287h-532v287h102v491h-123v226l123 20v100q0 157 81 233.5t268 76.5q87 0 194 -21l-31 -266q-52 10 -82 10q-44 0 -62.5 -23t-18.5 -71v-39h266v39q0 65 11.5 117t43 101t83 81.5
t136 52t197.5 19.5q90 0 227.5 -20.5t192.5 -41.5l-31 -246q-6 1 -42.5 5.5t-68 8t-75 8t-85.5 7t-77 2.5q-54 0 -89.5 -8.5t-50 -24t-19.5 -29t-5 -32.5v-39h614v-737z" />
    <glyph glyph-name="ffl" unicode="ffl" horiz-adv-x="1843" 
d="M758 778h-266v-491h81v-287h-532v287h102v491h-123v226l123 20v100q0 157 81 233.5t268 76.5q87 0 194 -21l-31 -266q-52 10 -82 10q-44 0 -62.5 -23t-18.5 -71v-39h266v39q0 65 11.5 117t43 101t83 81.5t136 52t197.5 19.5q143 0 246 -21h245v-1126h103v-287h-533v287
h82v864q-47 6 -102 6q-54 0 -89 -8t-50.5 -23.5t-20 -29t-4.5 -33.5v-39h184v-246h-184v-491h82v-287h-512v287h82v491z" />
    <glyph glyph-name="T_h" unicode="Th" horiz-adv-x="2170" 
d="M20 1393h1414v-492h4q121 143 303 143q149 0 228 -94.5t79 -253.5v-409h102v-287h-532v287h82v327q0 75 -30.5 109.5t-92.5 34.5q-59 0 -143 -41v-430h82v-287h-533v287h102v819h-307v-819h103v-287h-574v287h103v819h-103v-102h-287v389z" />
    <glyph glyph-name="T_h.caron" unicode="&#x164;h" horiz-adv-x="2170" 
d="M20 1393h1414v-492h4q121 143 303 143q149 0 228 -94.5t79 -253.5v-409h102v-287h-532v287h82v327q0 75 -30.5 109.5t-92.5 34.5q-59 0 -143 -41v-430h82v-287h-533v287h102v819h-307v-819h103v-287h-574v287h103v819h-103v-102h-287v389zM446 1782l144 -99l143 99h185
l-226 -287h-205l-225 287h184z" />
    <glyph glyph-name="T_h.commaaccent" unicode="&#x162;h" horiz-adv-x="2170" 
d="M20 1393h1414v-492h4q121 143 303 143q149 0 228 -94.5t79 -253.5v-409h102v-287h-532v287h82v327q0 75 -30.5 109.5t-92.5 34.5q-59 0 -143 -41v-430h82v-287h-533v287h102v819h-307v-819h103v-287h-574v287h103v819h-103v-102h-287v389zM608 -553h-102l61 205h-143v266
h348v-266z" />
    <glyph glyph-name="f_f_j" unicode="ffj" horiz-adv-x="1781" 
d="M1372 778h-266v-491h82v-287h-512v287h82v491h-266v-491h81v-287h-532v287h102v491h-123v226l123 20v100q0 157 81 233.5t268 76.5q87 0 194 -21l-31 -266q-52 10 -82 10q-44 0 -62.5 -23t-18.5 -71v-39h266v39q0 65 11.5 117t43 101t83 81.5t136 52t197.5 19.5
q90 0 227.5 -20.5t192.5 -41.5l-31 -246q-6 1 -42.5 5.5t-68 8t-75 8t-85.5 7t-77 2.5q-54 0 -89.5 -8.5t-50 -24t-19.5 -29t-5 -32.5v-39h614v-1126q0 -82 -14.5 -138.5t-51.5 -101.5t-107 -66.5t-175 -21.5q-92 0 -194 20l30 267q57 -11 82 -11q47 0 64.5 14.5t17.5 59.5
v858z" />
    <glyph glyph-name="f_j" unicode="fj" horiz-adv-x="1167" 
d="M758 778h-266v-491h81v-287h-532v287h102v491h-123v226l123 20v39q0 65 11.5 117t43 101t83 81.5t136 52t197.5 19.5q90 0 227.5 -20.5t192.5 -41.5l-30 -246q-264 31 -349 31q-54 0 -89 -8.5t-50 -24t-19.5 -29t-4.5 -32.5v-39h614v-1126q0 -82 -14.5 -138.5
t-51.5 -101.5t-107 -66.5t-175 -21.5q-93 0 -195 20l31 267q57 -11 82 -11q47 0 64.5 14.5t17.5 59.5v858z" />
    <glyph glyph-name=".notdef" horiz-adv-x="1208" 
d="M143 1024h922v-1024h-922v1024zM588 510l-422 483v-960zM623 510l419 -473v952zM190 999l416 -469l414 469h-830zM606 492l-411 -467h821z" />
    <glyph glyph-name=".null" horiz-adv-x="0" 
 />
    <glyph glyph-name="nonmarkingreturn" horiz-adv-x="682" 
 />
    <glyph glyph-name="space" unicode=" " horiz-adv-x="368" 
 />
    <glyph glyph-name="exclam" unicode="!" horiz-adv-x="471" 
d="M61 328h349v-328h-349v328zM61 1434h349l-21 -983h-307z" />
    <glyph glyph-name="quotedbl" unicode="&#x22;" horiz-adv-x="880" 
d="M61 1393h349l-41 -410h-267zM471 1393h348l-41 -410h-266z" />
    <glyph glyph-name="numbersign" unicode="#" horiz-adv-x="1255" 
d="M354 1024h246l-20 -184h163l21 184h246l-21 -184h205l-23 -226h-204l-23 -204h205l-23 -226h-204l-21 -184h-246l21 184h-164l-20 -184h-246l20 184h-205l23 226h205l22 204h-205l23 226h205zM557 614l-22 -204h163l23 204h-164z" />
    <glyph glyph-name="dollar" unicode="$" horiz-adv-x="1269" 
d="M82 451h287v-132q181 -32 266 -32q164 0 164 102q0 15 -4 28t-14 24t-20 20t-29 18t-34 15t-42 14.5t-46 14t-52.5 15t-55.5 15.5q-197 59 -298.5 168.5t-101.5 282.5q0 99 36.5 175.5t102 124.5t148.5 74.5t184 32.5v186h144v-186q193 -9 430 -80v-389h-287v143
q-126 21 -225 21q-64 0 -103.5 -24t-39.5 -68q0 -53 58 -87t198 -67q440 -101 440 -430q0 -106 -36 -188.5t-100.5 -136t-148.5 -83.5t-186 -38v-189h-144v187q-258 7 -491 79v390z" />
    <glyph glyph-name="percent" unicode="%" horiz-adv-x="1556" 
d="M1270 1393l-758 -1393h-225l757 1393h226zM369 782q-149 0 -228.5 84t-79.5 232t79.5 231.5t228.5 83.5t228 -83.5t79 -231.5t-79 -232t-228 -84zM369 954q92 0 92 144q0 143 -92 143q-93 0 -93 -143q0 -144 93 -144zM1188 -20q-149 0 -228 83.5t-79 231.5t79 231.5
t228 83.5t228 -83.5t79 -231.5t-79 -231.5t-228 -83.5zM1188 152q92 0 92 143t-92 143t-92 -143t92 -143z" />
    <glyph glyph-name="ampersand" unicode="&#x26;" horiz-adv-x="1443" 
d="M1075 1053q0 -82 -51 -162.5t-186 -163.5l194 -180q52 95 64 170h327q-26 -207 -168 -402l148 -151l-225 -246l-168 174q-187 -112 -426 -112q-265 0 -394 107.5t-129 287.5q0 108 61.5 197.5t231.5 195.5q-74 94 -101.5 155.5t-27.5 127.5q0 87 37 157.5t99.5 114
t140.5 67t164 23.5q192 0 300.5 -95.5t108.5 -264.5zM604 276q107 0 193 39l-267 279q-100 -71 -100 -164q0 -74 53 -114t121 -40zM563 1065q0 -67 76 -152q109 78 109 152q0 54 -24 83.5t-69 29.5q-43 0 -67.5 -30t-24.5 -83z" />
    <glyph glyph-name="quotesingle" unicode="'" horiz-adv-x="471" 
d="M61 1393h349l-41 -410h-267z" />
    <glyph glyph-name="parenleft" unicode="(" horiz-adv-x="675" 
d="M61 696q0 266 92.5 519t276.5 464h225q-131 -236 -188 -477.5t-57 -505.5q0 -257 56.5 -494t188.5 -489h-225q-182 209 -275.5 466t-93.5 517z" />
    <glyph glyph-name="parenright" unicode=")" horiz-adv-x="675" 
d="M614 696q0 -260 -93 -517t-275 -466h-226q132 252 189 489.5t57 493.5q0 540 -246 983h226q183 -211 275.5 -464t92.5 -519z" />
    <glyph glyph-name="asterisk" unicode="*" horiz-adv-x="839" 
d="M348 1153l-26 240h196l-26 -240l227 102l59 -192l-239 -21l159 -172l-153 -118l-127 227l-123 -227l-154 118l160 172l-240 21l58 192z" />
    <glyph glyph-name="plus" unicode="+" horiz-adv-x="1024" 
d="M655 993v-307h308v-287h-308v-307h-286v307h-308v287h308v307h286z" />
    <glyph glyph-name="comma" unicode="," horiz-adv-x="471" 
d="M246 -266h-103l62 266h-144v328h349v-328z" />
    <glyph glyph-name="hyphen" unicode="-" horiz-adv-x="1024" 
d="M61 686h902v-287h-902v287z" />
    <glyph glyph-name="period" unicode="." horiz-adv-x="471" 
d="M61 328h349v-328h-349v328z" />
    <glyph glyph-name="slash" unicode="/" horiz-adv-x="1105" 
d="M1085 1393l-757 -1393h-308l758 1393h307z" />
    <glyph glyph-name="zero" unicode="0" horiz-adv-x="1167" 
d="M584 1126q-95 0 -134.5 -107t-39.5 -312q0 -441 174 -441t174 441q0 205 -39.5 312t-134.5 107zM584 -20q-128 0 -225 38t-156.5 102t-96.5 159.5t-51 198t-14 229.5t14 227.5t51 192.5t96.5 153t156 97t225.5 36t225 -36t156 -97t96.5 -153t50.5 -192.5t14 -227.5
q0 -90 -7 -166.5t-24 -152t-44 -135.5t-69 -112t-98 -87t-132 -54.5t-168 -19.5z" />
    <glyph glyph-name="one" unicode="1" horiz-adv-x="798" 
d="M573 287h205v-287h-758v287h205v778h-205v246l390 92h163v-1116z" />
    <glyph glyph-name="two" unicode="2" horiz-adv-x="1085" 
d="M778 389h287v-389h-1045v328q244 149 379.5 254.5t185.5 179.5t50 149q0 185 -205 185q-61 0 -123 -11v-81h-287v307q143 56 250.5 79t241.5 23q238 0 365 -119t127 -311q0 -84 -24.5 -161.5t-65 -140.5t-106.5 -129.5t-133.5 -120t-162.5 -120.5v-4h266v82z" />
    <glyph glyph-name="three" unicode="3" horiz-adv-x="1064" 
d="M20 82v307h287v-106q89 -17 185 -17q94 0 144 42.5t50 101.5q0 80 -54 111.5t-161 31.5h-195v287h179q65 0 108 14.5t61.5 41.5t24.5 51t6 57q0 55 -44 88.5t-119 33.5q-88 0 -175 -20v-102h-286v307q234 102 522 102q89 0 168.5 -23t143.5 -67.5t101.5 -117t37.5 -163.5
q0 -214 -222 -307v-4q134 -39 198 -132t64 -210q0 -197 -141.5 -303t-390.5 -106q-144 0 -251.5 21.5t-240.5 80.5z" />
    <glyph glyph-name="four" unicode="4" horiz-adv-x="1167" 
d="M375 655h260v379h-4q-74 -128 -125.5 -204t-130.5 -175zM635 287v82h-615v286q196 214 268 306q161 203 265 442h430v-748h164v-286h-164v-82h102v-287h-553v287h103z" />
    <glyph glyph-name="five" unicode="5" horiz-adv-x="1105" 
d="M1024 1393v-389h-287v81h-354l-10 -213l4 -2q106 62 252 62q202 0 319 -118t117 -343q0 -243 -144 -367t-409 -124q-124 0 -232 22t-239 80v287h287v-88q80 -15 164 -15q107 0 155.5 53t48.5 132q0 26 -5 50.5t-19 49.5t-35 43t-56 29.5t-79 11.5q-65 0 -104.5 -14
t-90.5 -48l-246 21l21 799h942z" />
    <glyph glyph-name="six" unicode="6" horiz-adv-x="1126" 
d="M389 825l4 -2q48 50 117.5 79.5t144.5 29.5q200 0 315 -126.5t115 -354.5q0 -219 -138 -345t-367 -126q-135 0 -240.5 52t-169.5 141t-96.5 201t-32.5 240q0 133 17.5 244t48.5 192.5t77 144.5t99 103.5t118 67t131.5 37t141.5 10.5q190 0 370 -61v-348h-286v122h-53
q-40 0 -77.5 -6t-83 -25t-79 -50.5t-55.5 -88t-21 -131.5zM420 573q-10 -54 -6 -108.5t16.5 -98.5t47 -72t85.5 -28q68 0 111 48t43 137q0 34 -7 63.5t-23.5 57t-48.5 43.5t-77 16q-69 0 -141 -58z" />
    <glyph glyph-name="seven" unicode="7" horiz-adv-x="1003" 
d="M20 1393h963v-246q-72 -131 -108.5 -201t-95.5 -195.5t-93.5 -224.5t-71.5 -238.5t-61 -287.5h-389q46 261 163.5 551t276.5 530v4h-297v-81h-287v389z" />
    <glyph glyph-name="eight" unicode="8" horiz-adv-x="1126" 
d="M864 735v-4q125 -67 183.5 -150.5t58.5 -191.5q0 -86 -31 -156t-83 -116.5t-124 -78t-150.5 -45t-164.5 -13.5q-82 0 -156.5 11.5t-144 39.5t-120.5 69.5t-81.5 106t-30.5 145.5q0 227 238 330v4q-197 118 -197 338q0 97 44.5 174t118.5 122.5t163 69t186 23.5
q71 0 140 -14t133 -44t112.5 -73t77.5 -105t29 -135q0 -103 -49.5 -175.5t-151.5 -131.5zM379 389q0 -62 49.5 -107.5t146.5 -45.5q88 0 130.5 34t42.5 88q0 29 -12.5 53.5t-28 41t-45 33.5t-48.5 25t-55.5 22.5t-48.5 19.5q-57 -25 -94 -68t-37 -96zM553 1157
q-67 0 -105 -38.5t-38 -84.5q0 -66 59 -112.5t137 -63.5q45 18 78 61.5t33 94.5q0 59 -41.5 101t-122.5 42z" />
    <glyph glyph-name="nine" unicode="9" horiz-adv-x="1126" 
d="M737 567l-4 2q-48 -50 -117 -79t-145 -29q-200 0 -315 126.5t-115 354.5q0 219 138.5 345t367.5 126q135 0 240.5 -52t169 -141.5t96 -201.5t32.5 -240q0 -185 -34 -326.5t-90.5 -229.5t-139.5 -143.5t-172 -77t-196 -21.5q-191 0 -371 61v348h287v-123h53q40 0 77.5 6
t83 25t78.5 50.5t55 88t21 131.5zM707 819q10 54 6 108.5t-17 98.5t-47.5 72t-85.5 28q-68 0 -110.5 -47.5t-42.5 -136.5q0 -27 4 -50.5t14.5 -48t27.5 -42t45 -28.5t64 -11q71 0 142 57z" />
    <glyph glyph-name="colon" unicode=":" horiz-adv-x="471" 
d="M61 328h349v-328h-349v328zM61 942h349v-328h-349v328z" />
    <glyph glyph-name="semicolon" unicode=";" horiz-adv-x="471" 
d="M61 942h349v-328h-349v328zM246 -266h-103l62 266h-144v328h349v-328z" />
    <glyph glyph-name="less" unicode="&#x3c;" horiz-adv-x="983" 
d="M61 614l861 430v-307l-492 -225l492 -225v-307l-861 430v204z" />
    <glyph glyph-name="equal" unicode="=" horiz-adv-x="1024" 
d="M61 891h902v-287h-902v287zM61 481h902v-286h-902v286z" />
    <glyph glyph-name="greater" unicode="&#x3e;" horiz-adv-x="983" 
d="M61 1044l861 -430v-204l-861 -430v307l492 225l-492 225v307z" />
    <glyph glyph-name="question" unicode="?" horiz-adv-x="983" 
d="M41 942v389q91 38 217.5 60t243.5 22q103 0 183 -25t127 -64t77.5 -92.5t41.5 -103.5t11 -104q0 -92 -34 -164t-82 -117t-96 -82.5t-82 -79.5t-34 -89v-62h-307v62q0 82 20 147t52.5 107t65.5 72t68 59t50 51q21 32 21 59q0 31 -13.5 52t-38 30.5t-48 12.5t-54.5 3
q-37 0 -102 -10v-133h-287zM287 328h348v-328h-348v328z" />
    <glyph glyph-name="at" unicode="@" horiz-adv-x="1658" 
d="M506 903q178 41 346 41q87 0 145 -11t103.5 -39.5t66.5 -82t21 -135.5v-328q73 0 123.5 49t71 116.5t20.5 143.5q0 216 -151.5 350t-381.5 134q-270 0 -441 -173.5t-171 -449.5q0 -160 71 -291t199.5 -207.5t288.5 -76.5l-20 -189q-163 0 -304 58.5t-240 160
t-155.5 242.5t-56.5 303q0 176 62.5 328.5t171.5 259.5t262.5 168t330.5 61q206 0 377 -83t272 -236.5t101 -347.5q0 -110 -32 -206t-92 -169.5t-154 -115.5t-210 -42h-212v80h-3q-46 -53 -96.5 -73.5t-124.5 -20.5q-113 0 -175 73t-62 179q0 61 23 108t57.5 74t81.5 44
t88 22.5t84 5.5h127v32q0 40 -30 52t-97 12q-18 0 -64 -4v-60h-221v244zM918 356v115h-111q-33 0 -56.5 -18.5t-23.5 -55.5t24.5 -54t55.5 -17q26 0 59 9t52 21z" />
    <glyph glyph-name="A" unicode="A" horiz-adv-x="1433" 
d="M266 1393h707l327 -1106h113v-287h-614v287h100l-29 133h-327l-37 -133h108v-287h-594v287h127l246 819h-127v287zM719 1065h-2l-101 -379h191z" />
    <glyph glyph-name="B" unicode="B" horiz-adv-x="1290" 
d="M1014 727v-4q108 -38 171.5 -120.5t63.5 -213.5q0 -186 -121 -287.5t-350 -101.5h-758v287h103v819h-103v287h717q231 0 351 -91t120 -268q0 -105 -53.5 -186.5t-140.5 -120.5zM717 573h-225v-286h225q65 0 104 35t39 108t-39 108t-104 35zM819 983q0 56 -31.5 89.5
t-91.5 33.5h-204v-246h204q60 0 91.5 33.5t31.5 89.5z" />
    <glyph glyph-name="C" unicode="C" horiz-adv-x="1249" 
d="M922 430h286v-369q-151 -45 -270 -63t-252 -18q-645 0 -645 727q0 125 18.5 227t64.5 193t118 153t184.5 97.5t259.5 35.5q132 0 251 -18.5t271 -63.5v-368h-286v145q-111 18 -205 18q-143 0 -215 -111t-72 -308q0 -211 72 -326t215 -115q103 0 205 19v145z" />
    <glyph glyph-name="D" unicode="D" horiz-adv-x="1351" 
d="M20 1393h646q147 0 259.5 -33.5t185 -92.5t118 -147t64 -188t18.5 -225t-18.5 -227t-64.5 -193.5t-118 -153t-184.5 -97.5t-259.5 -36h-646v287h103v819h-103v287zM492 287h174q63 0 109 20t74 53.5t44.5 88.5t22.5 115.5t6 142.5t-6 140.5t-22.5 110t-44.5 82.5
t-73.5 48.5t-109.5 17.5h-174v-819z" />
    <glyph glyph-name="E" unicode="E" horiz-adv-x="1167" 
d="M20 1393h1106v-389h-286v102h-348v-246h532v-287h-532v-286h348v102h286v-389h-1106v287h103v819h-103v287z" />
    <glyph glyph-name="F" unicode="F" horiz-adv-x="1136" 
d="M20 1393h1086v-389h-287v102h-327v-287h512v-287h-512v-245h102v-287h-574v287h103v819h-103v287z" />
    <glyph glyph-name="G" unicode="G" horiz-adv-x="1269" 
d="M430 707q0 -420 287 -420q55 0 123 6v158h-164v286h532v-676q-151 -45 -270 -63t-252 -18q-645 0 -645 727q0 125 18.5 227t64.5 193t118 153t184.5 97.5t259.5 35.5q132 0 251 -18.5t271 -63.5v-368h-286v145q-111 18 -205 18q-143 0 -215 -111t-72 -308z" />
    <glyph glyph-name="H" unicode="H" horiz-adv-x="1392" 
d="M799 287h102v286h-409v-286h102v-287h-574v287h103v819h-103v287h574v-287h-102v-246h409v246h-102v287h573v-287h-102v-819h102v-287h-573v287z" />
    <glyph glyph-name="I" unicode="I" horiz-adv-x="614" 
d="M20 287h103v819h-103v287h574v-287h-102v-819h102v-287h-574v287z" />
    <glyph glyph-name="J" unicode="J" horiz-adv-x="798" 
d="M205 1393h573v-287h-102v-715q0 -209 -108.5 -310t-301.5 -101q-144 0 -246 20l31 287q68 -11 113 -11q28 0 49 3.5t44.5 14.5t36.5 35.5t13 61.5v715h-102v287z" />
    <glyph glyph-name="K" unicode="K" horiz-adv-x="1392" 
d="M20 1393h574v-287h-102v-328l315 328h-70v287h615v-287h-105l-325 -318l364 -501h86v-287h-635v287h82l-174 245l-153 -145v-100h102v-287h-574v287h103v819h-103v287z" />
    <glyph glyph-name="L" unicode="L" horiz-adv-x="1126" 
d="M819 389h287v-389h-1086v287h103v819h-103v287h574v-287h-102v-819h327v102z" />
    <glyph glyph-name="M" unicode="M" horiz-adv-x="1720" 
d="M1157 1393h543v-287h-103v-819h103v-287h-574v287h103v450h-4l-248 -737h-234l-278 737h-4v-450h112v-287h-553v287h103v819h-103v287h553l308 -779h4z" />
    <glyph glyph-name="N" unicode="N" horiz-adv-x="1413" 
d="M840 1393h553v-287h-103v-1106h-379l-446 727h-4v-440h112v-287h-553v287h103v819h-103v287h461l467 -779h4v492h-112v287z" />
    <glyph glyph-name="O" unicode="O" horiz-adv-x="1372" 
d="M686 1126q-63 0 -109 -19.5t-74 -53.5t-44.5 -88.5t-22.5 -115t-6 -142.5q0 -83 6 -145t22.5 -120t44.5 -95t74 -59t109 -22t109 22t74 59t44.5 95t22.5 120t6 145q0 82 -6 142.5t-22.5 115t-44.5 88.5t-74 53.5t-109 19.5zM686 -20q-645 0 -645 727q0 125 18.5 227
t64.5 193t118 153t184.5 97.5t259.5 35.5t259.5 -35.5t184.5 -97.5t118 -153t64.5 -193t18.5 -227q0 -727 -645 -727z" />
    <glyph glyph-name="P" unicode="P" horiz-adv-x="1269" 
d="M20 1393h717q232 0 362 -120t130 -341t-130 -341t-362 -120h-245v-184h102v-287h-574v287h103v819h-103v287zM492 1106v-348h204q67 0 110.5 43.5t43.5 130.5t-43.5 130.5t-110.5 43.5h-204z" />
    <glyph glyph-name="Q" unicode="Q" horiz-adv-x="1372" 
d="M41 707q0 125 18.5 227t64.5 193t118 153t184.5 97.5t259.5 35.5t259.5 -35.5t184.5 -97.5t118 -153t64.5 -193t18.5 -227q0 -264 -108 -417t-291 -177q0 -14 41.5 -19.5t106.5 -3.5t115 5t95 7v-327q-239 -28 -418 25.5t-258 179.5q-126 9 -224.5 51.5t-163.5 108.5
t-107 157t-60 191.5t-18 218.5zM686 1126q-63 0 -109 -19.5t-74 -53.5t-44.5 -88.5t-22.5 -115t-6 -142.5q0 -83 6 -145t22.5 -120t44.5 -95t74 -59t109 -22t109 22t74 59t44.5 95t22.5 120t6 145q0 82 -6 142.5t-22.5 115t-44.5 88.5t-74 53.5t-109 19.5z" />
    <glyph glyph-name="R" unicode="R" horiz-adv-x="1331" 
d="M20 1393h717q233 0 362.5 -115.5t129.5 -335.5q0 -137 -59 -240.5t-166 -148.5l223 -266h84v-287h-594v287h43l-162 205h-106v-205h102v-287h-574v287h103v819h-103v287zM492 1106v-328h204q68 0 111 39t43 125t-43 125t-111 39h-204z" />
    <glyph glyph-name="S" unicode="S" horiz-adv-x="1187" 
d="M41 451h287v-132q181 -32 266 -32q164 0 164 102q0 15 -4 28t-14 24t-20 20t-29 18t-34 15t-42 14.5t-46 14t-52.5 15t-55.5 15.5q-420 125 -420 451q0 107 42 187.5t117 128t168.5 70.5t204.5 23q125 0 243 -18.5t269 -63.5v-389h-286v143q-126 21 -226 21
q-64 0 -103.5 -24t-39.5 -68q0 -52 65.5 -86t211.5 -68q440 -101 440 -430q0 -116 -42.5 -203.5t-119 -140.5t-175 -79.5t-216.5 -26.5q-281 0 -553 81v390z" />
    <glyph glyph-name="T" unicode="T" horiz-adv-x="1187" 
d="M20 1393h1147v-389h-286v102h-103v-819h103v-287h-574v287h103v819h-103v-102h-287v389z" />
    <glyph glyph-name="U" unicode="U" horiz-adv-x="1392" 
d="M799 1393h573v-287h-102v-614q0 -135 -43 -235t-121.5 -160t-180.5 -88.5t-229 -28.5t-228.5 28.5t-180 88.5t-121.5 160t-43 235v614h-103v287h574v-287h-102v-614q0 -226 204 -226q205 0 205 226v614h-102v287z" />
    <glyph glyph-name="V" unicode="V" horiz-adv-x="1413" 
d="M799 1393h594v-287h-107l-344 -1116h-471l-354 1116h-97v287h615v-287h-113l203 -737h2l184 737h-112v287z" />
    <glyph glyph-name="W" unicode="W" horiz-adv-x="2007" 
d="M20 1393h615v-287h-105l123 -676h2l185 963h389l203 -963h2l106 676h-106v287h553v-287h-89l-249 -1116h-492l-151 727h-5l-131 -727h-491l-266 1116h-93v287z" />
    <glyph glyph-name="X" unicode="X" horiz-adv-x="1433" 
d="M840 1393h553v-287h-82l-318 -420l307 -399h113v-287h-686v287h86l-156 227l-151 -227h88v-287h-574v287h103l317 420l-307 399h-92v287h666v-287h-84l157 -221l148 221h-88v287z" />
    <glyph glyph-name="Y" unicode="Y" horiz-adv-x="1351" 
d="M860 287h103v-287h-574v287h103v123l-347 696h-125v287h635v-287h-118l168 -358h4l165 358h-116v287h573v-287h-106l-365 -696v-123z" />
    <glyph glyph-name="Z" unicode="Z" horiz-adv-x="1146" 
d="M82 1393h1003v-267l-593 -835v-4h327v102h287v-389h-1065v266l604 836v4h-276v-102h-287v389z" />
    <glyph glyph-name="bracketleft" unicode="[" horiz-adv-x="614" 
d="M430 -82h164v-205h-533v1966h533v-204h-164v-1557z" />
    <glyph glyph-name="backslash" unicode="\" horiz-adv-x="1105" 
d="M778 0l-758 1393h308l757 -1393h-307z" />
    <glyph glyph-name="bracketright" unicode="]" horiz-adv-x="614" 
d="M20 -82h164v1557h-164v204h533v-1966h-533v205z" />
    <glyph glyph-name="asciicircum" unicode="^" horiz-adv-x="778" 
d="M389 1245l-143 -201h-185l226 390h205l225 -390h-185z" />
    <glyph glyph-name="underscore" unicode="_" horiz-adv-x="1024" 
d="M61 -123h902v-205h-902v205z" />
    <glyph glyph-name="grave" unicode="`" horiz-adv-x="593" 
d="M307 1147l-205 287h287l103 -287h-185z" />
    <glyph glyph-name="a" unicode="a" horiz-adv-x="1095" 
d="M379 676h-287v317q253 51 451 51q88 0 151.5 -8.5t118.5 -31.5t88.5 -61.5t52.5 -100t19 -146.5v-409h102v-287h-450v102h-4q-107 -122 -283 -122q-137 0 -222 88t-85 239q0 77 29.5 137.5t74 95t104.5 57t113.5 30.5t108.5 8h164v41q0 52 -38.5 67t-125.5 15
q-24 0 -82 -4v-78zM625 287v143h-109q-25 0 -38.5 -0.5t-35.5 -5.5t-33.5 -14t-20.5 -27.5t-9 -44.5q0 -49 31.5 -70.5t70.5 -21.5q38 0 79.5 12t64.5 29z" />
    <glyph glyph-name="b" unicode="b" horiz-adv-x="1146" 
d="M20 1147v287h451v-512h4q43 54 115 88t147 34q369 0 369 -532q0 -112 -21 -205t-65.5 -168t-121.5 -117t-181 -42q-69 0 -140.5 29.5t-121.5 82.5h-4l-62 -92h-369v287h103v860h-103zM737 512q0 118 -32 182t-111 64q-64 0 -123 -41v-410q59 -41 123 -41q79 0 111 64
t32 182z" />
    <glyph glyph-name="c" unicode="c" horiz-adv-x="983" 
d="M963 676h-287v80q-29 2 -82 2q-84 0 -134 -58t-50 -188t50 -188t134 -58q51 0 79.5 1.5t86.5 10.5t141 29l62 -276q-202 -51 -369 -51q-124 0 -218.5 24t-157.5 68t-103 111t-57 147t-17 182t17 182t57 147t103 111t157.5 68t218.5 24q167 0 369 -51v-317z" />
    <glyph glyph-name="d" unicode="d" horiz-adv-x="1146" 
d="M573 1147v287h451v-1147h102v-287h-450v102h-4q-43 -54 -115 -88t-147 -34q-369 0 -369 532q0 112 21 205t65.5 168t121.5 117t181 42q69 0 134.5 -29.5t107.5 -82.5h4v215h-103zM410 512q0 -118 32 -182t111 -64q64 0 123 41v410q-59 41 -123 41q-79 0 -111 -64
t-32 -182z" />
    <glyph glyph-name="e" unicode="e" horiz-adv-x="1085" 
d="M1040 430h-630q7 -76 70.5 -120t164.5 -44q175 0 318 41l41 -276q-178 -51 -410 -51q-151 0 -259 36.5t-172 107.5t-93 166t-29 222t29 222t93 166t172 107.5t259 36.5q95 0 169 -16.5t124.5 -45.5t85 -73.5t52.5 -94.5t24 -115t3.5 -128t-12.5 -141zM573 778
q-149 0 -163 -133h286q8 67 -17.5 100t-105.5 33z" />
    <glyph glyph-name="f" unicode="f" horiz-adv-x="706" 
d="M41 0v287h102v491h-123v226l123 20v82q0 82 14.5 138.5t52 101.5t107.5 66.5t175 21.5q87 0 194 -21l-31 -266q-52 10 -82 10q-47 0 -64 -14t-17 -58v-61h184v-246h-184v-491h102v-287h-553z" />
    <glyph glyph-name="g" unicode="g" horiz-adv-x="1136" 
d="M317 -102q0 -80 118 -91q24 -2 97 -2q216 0 216 86q0 28 -22 46.5t-60 21.5l-328 21q-2 -5 -7 -16.5t-7.5 -17.5t-4.5 -19t-2 -29zM543 584q52 0 82 24t30 88t-30 88.5t-82 24.5t-82.5 -24.5t-30.5 -88.5t30 -88t83 -24zM164 27v4q-66 46 -81.5 115t29.5 141t144 119v4
q-76 38 -120 115.5t-44 170.5q0 177 120.5 262.5t330.5 85.5q85 0 153 -20h400v-205h-131v-4q18 -61 18 -119q0 -90 -32.5 -157.5t-92 -109t-138.5 -61.5t-177 -20q-55 0 -113 17q-51 -92 29 -95l319 -14q156 -6 247 -83.5t91 -213.5q0 -205 -154.5 -297t-480.5 -92
q-243 0 -352 64.5t-109 201.5q0 65 34 110.5t110 80.5z" />
    <glyph glyph-name="h" unicode="h" horiz-adv-x="1208" 
d="M655 0v287h82v327q0 75 -30.5 109.5t-92.5 34.5q-59 0 -143 -41v-430h82v-287h-533v287h103v860h-103v287h451v-533h4q121 143 303 143q149 0 228 -94.5t79 -253.5v-409h103v-287h-533z" />
    <glyph glyph-name="i" unicode="i" horiz-adv-x="593" 
d="M20 737v287h451v-737h102v-287h-553v287h103v450h-103zM123 1434h348v-308h-348v308z" />
    <glyph glyph-name="j" unicode="j" horiz-adv-x="552" 
d="M20 737v287h472v-1126q0 -82 -14.5 -138.5t-52 -101.5t-107.5 -66.5t-175 -21.5q-92 0 -194 20l31 267q57 -11 81 -11q47 0 64.5 14.5t17.5 59.5v817h-123zM143 1434h349v-308h-349v308z" />
    <glyph glyph-name="k" unicode="k" 
d="M20 1147v287h451v-865l225 168h-61v287h553v-287h-103l-172 -127l228 -323h67v-287h-553v287h47l-84 135l-147 -115v-20h102v-287h-553v287h103v860h-103z" />
    <glyph glyph-name="l" unicode="l" horiz-adv-x="593" 
d="M20 1147v287h451v-1147h102v-287h-553v287h103v860h-103z" />
    <glyph glyph-name="m" unicode="m" horiz-adv-x="1822" 
d="M655 0v287h82v342q-8 129 -123 129q-59 0 -143 -41v-430h82v-287h-533v287h103v450h-103v287h451v-123h4q86 105 215 133q48 10 88 10q98 0 166 -42t103 -117q79 91 161.5 125t184.5 34q149 0 228 -94.5t79 -253.5v-409h102v-287h-532v287h82v327q0 73 -33 108.5
t-90 35.5q-60 0 -144 -41v-86v-344h82v-287h-512z" />
    <glyph glyph-name="n" unicode="n" horiz-adv-x="1208" 
d="M655 0v287h82v327q0 75 -30.5 109.5t-92.5 34.5q-59 0 -143 -41v-430h82v-287h-533v287h103v450h-103v287h451v-123h4q121 143 303 143q149 0 228 -94.5t79 -253.5v-409h103v-287h-533z" />
    <glyph glyph-name="o" unicode="o" horiz-adv-x="1126" 
d="M563 758q-87 0 -120 -58.5t-33 -187.5t33 -187.5t120 -58.5t120.5 58.5t33.5 187.5t-33.5 187.5t-120.5 58.5zM563 -20q-274 0 -398 137.5t-124 394.5t124 394.5t398 137.5t398 -137.5t124 -394.5t-124 -394.5t-398 -137.5z" />
    <glyph glyph-name="p" unicode="p" horiz-adv-x="1146" 
d="M20 737v287h451v-102h4q43 54 115 88t147 34q369 0 369 -532q0 -112 -21 -205t-65.5 -168t-121.5 -117t-181 -42q-69 0 -134.5 29.5t-107.5 82.5h-4v-215h102v-287h-553v287h103v860h-103zM737 512q0 118 -32 182t-111 64q-64 0 -123 -41v-410q59 -41 123 -41
q79 0 111 64t32 182z" />
    <glyph glyph-name="q" unicode="q" horiz-adv-x="1085" 
d="M573 -410v287h103v225h-4q-43 -54 -115 -88t-147 -34q-369 0 -369 532q0 112 21 205t65.5 168t121.5 117t181 42q69 0 140.5 -29.5t121.5 -82.5h4l62 102h266v-1157h102v-287h-553zM410 512q0 -118 32 -182t111 -64q64 0 123 41v410q-59 41 -123 41q-79 0 -111 -64
t-32 -182z" />
    <glyph glyph-name="r" unicode="r" horiz-adv-x="819" 
d="M20 737v287h451v-164h4q39 77 124 130.5t200 53.5v-327q-226 0 -328 -41v-389h102v-287h-553v287h103v450h-103z" />
    <glyph glyph-name="s" unicode="s" horiz-adv-x="983" 
d="M911 676h-286v82q-71 10 -144 10q-51 0 -76.5 -8.5t-25.5 -32.5q0 -27 82 -44q20 -4 31 -7q14 -3 44 -10q39 -9 60.5 -14t61.5 -16t63.5 -20.5t58.5 -26t56.5 -33t46 -40.5t38 -51t22.5 -62t9 -75q0 -178 -114.5 -263t-315.5 -85q-289 0 -491 51v317h286v-82
q83 -10 164 -10q123 0 123 47q0 10 -6 17t-20.5 11.5t-26 6.5t-35 5t-35.5 5q-80 13 -142 30.5t-122 46.5t-99 67.5t-63 95.5t-24 129q0 175 112 251t318 76q248 0 450 -51v-317z" />
    <glyph glyph-name="t" unicode="t" horiz-adv-x="768" 
d="M143 289v489h-123v226l123 20l41 287h308v-287h225v-246h-225v-428q0 -94 122 -94q30 0 82 10l31 -266q-102 -20 -235 -20q-187 0 -268 76t-81 233z" />
    <glyph glyph-name="u" unicode="u" horiz-adv-x="1208" 
d="M20 737v287h451v-614q0 -73 33 -108.5t90 -35.5q59 0 143 41v430h-102v287h450v-737h103v-287h-451v123h-4q-121 -143 -303 -143q-149 0 -228 94.5t-79 253.5v409h-103z" />
    <glyph glyph-name="v" unicode="v" horiz-adv-x="1183" 
d="M678 737v287h485v-287h-63l-295 -747h-420l-291 747h-74v287h545v-287h-84l146 -403h4l125 403h-78z" />
    <glyph glyph-name="w" unicode="w" horiz-adv-x="1654" 
d="M1149 737v287h485v-287h-71l-220 -747h-374l-142 442h-4l-116 -442h-373l-246 747h-68v287h545v-287h-102l92 -362h4l154 649h286l166 -670h4l56 383h-76z" />
    <glyph glyph-name="x" unicode="x" horiz-adv-x="1243" 
d="M760 737v287h442v-287h-53l-268 -239l245 -211h97v-287h-631v287h57l-119 94l-110 -94h61v-287h-461v287h70l264 252l-235 198h-78v287h612v-287h-57l115 -92l106 92h-57z" />
    <glyph glyph-name="y" unicode="y" horiz-adv-x="1183" 
d="M678 737v287h485v-287h-63l-316 -737q-30 -71 -63 -129.5t-78 -116t-95.5 -97t-116 -63.5t-138.5 -24q-111 0 -209 20l29 277q52 -10 102 -10q151 0 188 123l-307 757h-76v287h545v-287h-84l146 -424h4l125 424h-78z" />
    <glyph glyph-name="z" unicode="z" horiz-adv-x="962" 
d="M41 1024h870v-266l-460 -488v-4h204v82h287v-348h-922v266l472 488v4h-164v-82h-287v348z" />
    <glyph glyph-name="braceleft" unicode="{" horiz-adv-x="696" 
d="M553 41q0 -54 5.5 -89t13.5 -54.5t26 -28.5t33 -10.5t45 -1.5v-144q-81 0 -126.5 2t-112.5 10t-104 27t-76 51t-56 84.5t-17 124.5q0 63 10.5 195t10.5 192q0 31 -0.5 46.5t-2 39t-5.5 35t-10.5 28t-17 24.5t-25.5 17.5t-35.5 15t-47.5 9.5v164q27 4 47.5 9.5t35.5 15
t25.5 17.5t17 24.5t10.5 28t5.5 35t2 39t0.5 46.5q0 60 -10.5 192t-10.5 195q0 72 17 124.5t56 84.5t76 51t104 27t112.5 10t126.5 2v-143q-30 0 -45 -1.5t-33 -10.5t-26 -28.5t-13.5 -54.5t-5.5 -89q0 -62 14.5 -205t14.5 -207q0 -59 -16.5 -101t-50 -68.5t-69 -42
t-90.5 -30.5v-4q43 -12 72.5 -23t61 -30t50 -43t30.5 -61t12 -84q0 -64 -14.5 -207t-14.5 -205z" />
    <glyph glyph-name="bar" unicode="|" horiz-adv-x="348" 
d="M287 -205h-226v1802h226v-1802z" />
    <glyph glyph-name="braceright" unicode="}" horiz-adv-x="696" 
d="M143 1352q0 54 -5.5 89t-13.5 54.5t-26 28.5t-33 10.5t-45 1.5v143q81 0 126.5 -2t112.5 -10t104 -27t76 -51t56 -84.5t17 -124.5q0 -63 -10 -195t-10 -192q0 -36 0.5 -52.5t3 -43t8 -38.5t15.5 -28.5t25.5 -24.5t38 -16t52.5 -12v-164q-30 -4 -52.5 -12t-38 -16
t-25.5 -24.5t-15.5 -28.5t-8 -38.5t-3 -43t-0.5 -52.5q0 -60 10 -192t10 -195q0 -72 -17 -124.5t-56 -84.5t-76 -51t-104 -27t-112.5 -10t-126.5 -2v144q30 0 45 1.5t33 10.5t26 28.5t13.5 54.5t5.5 89q0 62 -14 205t-14 207q0 59 16 100.5t50 68t69 42t90 30.5v4
q-43 12 -72.5 23t-60.5 30.5t-49.5 43.5t-30.5 61t-12 84q0 64 14 207t14 205z" />
    <glyph glyph-name="asciitilde" unicode="~" horiz-adv-x="942" 
d="M295 584q-63 0 -127 -72l-107 82q43 115 104.5 170t121.5 55q55 0 199.5 -35.5t175.5 -35.5h12h13t12.5 0.5t14 2t13.5 4t15.5 6.5t15.5 9.5t18 13t19 17.5l86 -105q-70 -147 -174 -172q-14 -4 -45 -4q-39 0 -183.5 32t-183.5 32z" />
    <glyph glyph-name="exclamdown" unicode="&#xa1;" horiz-adv-x="471" 
d="M410 696h-349v328h349v-328zM410 -410h-349l21 983h307z" />
    <glyph glyph-name="cent" unicode="&#xa2;" horiz-adv-x="1044" 
d="M717 -205h-144v187q-237 11 -374.5 152.5t-137.5 377.5q0 235 138 377t374 153v187h144v-191q119 -11 266 -75l-41 -267q-130 48 -225 58v-486q98 10 225 60l41 -267q-147 -64 -266 -75v-191zM430 512q0 -194 143 -238v474q-143 -40 -143 -236z" />
    <glyph glyph-name="sterling" unicode="&#xa3;" horiz-adv-x="1187" 
d="M881 614h-410v-307h389v82h287v-389h-1127v307h103v307h-103v164h103v226q0 108 39 188t110 127.5t161.5 70.5t201.5 23q125 0 243 -18.5t269 -63.5v-389h-287v143q-126 21 -225 21q-164 0 -164 -129v-199h410v-164z" />
    <glyph glyph-name="currency" unicode="&#xa4;" horiz-adv-x="1050" 
d="M205 510q0 138 98 233l-160 185l17 16l162 -184q90 74 204 74q113 0 203 -74l160 184l18 -16l-159 -183q102 -96 102 -235q0 -68 -26.5 -129t-73.5 -105l155 -176l-18 -18l-158 178q-88 -72 -203 -72q-116 0 -204 72l-156 -178l-19 18l156 176q-98 95 -98 234zM229 510
q0 -122 87.5 -209.5t209.5 -87.5t210.5 88t88.5 209q0 122 -88.5 210.5t-210.5 88.5q-121 0 -209 -88.5t-88 -210.5z" />
    <glyph glyph-name="yen" unicode="&#xa5;" horiz-adv-x="1351" 
d="M860 287h103v-287h-574v287h103v112h-308v164h226l-285 543h-105v287h635v-287h-98l148 -318h4l145 318h-96v287h573v-287h-106l-285 -543h227v-164h-307v-112z" />
    <glyph glyph-name="brokenbar" unicode="&#xa6;" horiz-adv-x="348" 
d="M287 778h-226v819h226v-819zM287 -205h-226v819h226v-819z" />
    <glyph glyph-name="section" unicode="&#xa7;" 
d="M1167 737q0 -207 -147 -325q127 -121 127 -310q0 -107 -42.5 -187.5t-117 -128t-168.5 -70.5t-205 -23q-148 0 -281.5 39t-230.5 104l144 287q205 -103 368 -103q144 0 144 82q0 27 -21.5 49t-60.5 38t-78.5 27t-90.5 24q-17 4 -26 6q-203 48 -311.5 151t-108.5 279
q0 206 148 325q-127 115 -127 310q0 107 42 187.5t117 128t168.5 70.5t204.5 23q148 0 281.5 -39t230.5 -104l-143 -287q-205 103 -369 103q-143 0 -143 -82q0 -27 21.5 -49t60.5 -38t78.5 -27t90.5 -24l14 -3.5t12 -2.5q203 -48 311 -150.5t108 -279.5zM522 848
q-12 -10 -26 -27q-45 -52 -45 -125q0 -40 40 -63.5t115 -44.5q17 -4 51 -12.5l50 -12.5q71 63 71 154q0 17 -7.5 31.5t-25 26t-32.5 19.5t-44.5 17t-46 13.5t-52.5 12.5t-48 11z" />
    <glyph glyph-name="dieresis" unicode="&#xa8;" horiz-adv-x="983" 
d="M102 1434h308v-287h-308v287zM573 1434h308v-287h-308v287z" />
    <glyph glyph-name="copyright" unicode="&#xa9;" horiz-adv-x="1566" 
d="M61 696q0 196 96.5 361t262.5 260.5t362 95.5q197 0 363 -95.5t263 -260.5t97 -361t-97 -361t-263 -260t-363 -95t-362.5 95t-262 260t-96.5 361zM215 696q0 -154 76 -286t206.5 -209.5t284.5 -77.5t285.5 77.5t208 209.5t76.5 286q0 115 -45.5 219.5t-122 180t-182 120
t-220.5 44.5q-154 0 -284.5 -75t-206.5 -205t-76 -284zM809 877q-164 0 -164 -172q0 -101 44.5 -147t119.5 -46q96 0 188 61l74 -153q-122 -88 -276 -88q-171 0 -271 97.5t-100 275.5q0 170 100 261t271 91q154 0 276 -88l-74 -154q-94 62 -188 62z" />
    <glyph glyph-name="ordfeminine" unicode="&#xaa;" horiz-adv-x="567" 
d="M201 1217h-150v159q132 27 230 27q113 0 165 -36.5t52 -137.5v-199h49v-149h-232v51h-2q-41 -49 -94 -58q-24 -4 -43 -4q-59 0 -96.5 31.5t-50.5 81.5q-9 36 -9 51q0 48 21.5 83t57 52t69 24t68.5 7h79v19q0 17 -11 24.5t-23 8.5t-43 1h-37v-36zM315 1028v66h-49h-17.5
t-16 -2t-16 -6t-9 -13t-4.5 -22q0 -22 15 -32.5t32 -10.5q42 0 65 20z" />
    <glyph glyph-name="guillemotleft" unicode="&#xab;" horiz-adv-x="1495" 
d="M61 614l656 430v-368l-287 -164l287 -164v-368l-656 430v204zM778 614l656 430v-368l-287 -164l287 -164v-368l-656 430v204z" />
    <glyph glyph-name="logicalnot" unicode="&#xac;" horiz-adv-x="1208" 
d="M102 686h1004v-491h-287v204h-717v287z" />
    <glyph glyph-name="uni00AD" unicode="&#xad;" horiz-adv-x="1105" 
d="M102 686h902v-287h-902v287z" />
    <glyph glyph-name="registered" unicode="&#xae;" horiz-adv-x="1566" 
d="M1130 344h-253l-113 195h-64v-195h-206v705h303q140 0 221.5 -65.5t81.5 -188.5q0 -79 -32.5 -135t-88.5 -85zM700 866v-145h97q92 0 92 74q0 71 -92 71h-97zM61 696q0 196 96.5 361t262.5 260.5t362 95.5q197 0 363 -95.5t263 -260.5t97 -361t-97 -361t-263 -260
t-363 -95t-362.5 95t-262 260t-96.5 361zM215 696q0 -154 76 -286t206.5 -209.5t284.5 -77.5t285.5 77.5t208 209.5t76.5 286q0 115 -45.5 219.5t-122 180t-182 120t-220.5 44.5q-154 0 -284.5 -75t-206.5 -205t-76 -284z" />
    <glyph glyph-name="macron" unicode="&#xaf;" horiz-adv-x="778" 
d="M102 1393h574v-246h-574v246z" />
    <glyph glyph-name="degree" unicode="&#xb0;" horiz-adv-x="532" 
d="M61 1188q0 85 60 145t145 60t145 -60t60 -145t-60 -145t-145 -60t-145 60t-60 145zM186 1188q0 -34 23 -57t57 -23t57 23t23 57t-23 57t-57 23t-57 -23t-23 -57z" />
    <glyph glyph-name="plusminus" unicode="&#xb1;" horiz-adv-x="1024" 
d="M61 287h308v143h-308v287h308v307h286v-307h308v-287h-308v-143h308v-287h-902v287z" />
    <glyph glyph-name="twosuperior" unicode="&#xb2;" horiz-adv-x="567" 
d="M399 1305h148v-199h-527v170q178 107 242 168t64 117q0 88 -101 88q-15 0 -55 -4v-39h-150v155q72 28 126 39.5t122 11.5q120 0 184 -59.5t64 -155.5q0 -52 -17 -97t-52.5 -86t-74 -73t-96.5 -73v-2h123v39z" />
    <glyph glyph-name="threesuperior" unicode="&#xb3;" horiz-adv-x="557" 
d="M20 1147v156h150v-52q31 -6 88 -6q44 0 68 19.5t24 48.5q0 38 -25.5 52.5t-76.5 14.5h-98v148h90q32 0 52.5 7t29.5 20t11.5 24t2.5 27q0 27 -21.5 42t-56.5 15q-43 0 -84 -8v-49h-149v155q119 51 266 51q94 0 159.5 -48t65.5 -138q0 -103 -108 -151v-2q66 -20 97.5 -67
t31.5 -106q0 -98 -72 -151t-197 -53q-72 0 -126 10.5t-122 40.5z" />
    <glyph glyph-name="acute" unicode="&#xb4;" horiz-adv-x="593" 
d="M492 1434l-205 -287h-185l103 287h287z" />
    <glyph glyph-name="mu" unicode="&#xb5;" horiz-adv-x="1208" 
d="M20 737v287h451v-614q0 -73 33 -108.5t90 -35.5q59 0 143 41v430h-102v287h450v-737h103v-287h-451v123h-4q-49 -57 -119 -98q-63 -37 -143 -43v-43q0 -54 -6 -98.5t-20.5 -88t-40.5 -75.5t-63.5 -56.5t-92.5 -37.5t-125 -13q-41 0 -64 2q-74 7 -131 18l31 267
q57 -11 82 -11q44 0 63 23.5t19 71.5v796h-103z" />
    <glyph glyph-name="paragraph" unicode="&#xb6;" horiz-adv-x="1157" 
d="M784 0v1270h-122v-666h-189q-185 0 -298.5 109t-113.5 286q0 183 112.5 288.5t299.5 105.5h623v-123h-168v-1147h168v-123h-207h-105z" />
    <glyph glyph-name="periodcentered" unicode="&#xb7;" horiz-adv-x="471" 
d="M61 676h349v-328h-349v328z" />
    <glyph glyph-name="cedilla" unicode="&#xb8;" horiz-adv-x="602" 
d="M207 -164v164h123v-102q170 -28 170 -152q0 -77 -58 -121.5t-161 -44.5q-93 0 -179 25l19 106q44 -8 88 -8q37 0 58.5 15.5t21.5 45.5q0 48 -82 72z" />
    <glyph glyph-name="onesuperior" unicode="&#xb9;" horiz-adv-x="423" 
d="M303 1255h100v-149h-380v149h100v377h-103v127l199 49h84v-553z" />
    <glyph glyph-name="ordmasculine" unicode="&#xba;" horiz-adv-x="567" 
d="M285 1253q-42 0 -58 -27t-16 -89t16 -89.5t58 -27.5q40 0 55.5 27.5t15.5 89.5t-15.5 89t-55.5 27zM285 870q-265 0 -265 267q0 129 63 197.5t202 68.5q262 0 262 -266q0 -267 -262 -267z" />
    <glyph glyph-name="guillemotright" unicode="&#xbb;" horiz-adv-x="1495" 
d="M61 1044l656 -430v-204l-656 -430v368l287 164l-287 164v368zM778 1044l656 -430v-204l-656 -430v368l287 164l-287 164v368z" />
    <glyph glyph-name="onequarter" unicode="&#xbc;" horiz-adv-x="1638" 
d="M1284 1393l-758 -1393h-102l758 1393h102zM406 846h100v-150h-381v150h100v377h-102v127l199 49h84v-553zM1133 332h120v178h-2q-63 -107 -118 -178zM1253 150v32h-305v150q75 82 107 118.5t77.5 105.5t79.5 146h224v-370h80v-150h-80v-32h49v-150h-281v150h49z" />
    <glyph glyph-name="onehalf" unicode="&#xbd;" horiz-adv-x="1638" 
d="M1212 1393l-757 -1393h-103l758 1393h102zM406 846h100v-150h-381v150h100v377h-102v127l199 49h84v-553zM1368 199h148v-199h-527v170q178 107 241.5 168t63.5 117q0 88 -100 88q-15 0 -55 -4v-39h-150v155q73 29 127 40.5t121 11.5q120 0 184 -59.5t64 -155.5
q0 -98 -60 -172t-180 -158v-2h123v39z" />
    <glyph glyph-name="threequarters" unicode="&#xbe;" horiz-adv-x="1638" 
d="M1305 1393l-758 -1393h-103l758 1393h103zM123 737v156h149v-51q31 -6 88 -6q44 0 68.5 19t24.5 48q0 38 -26 53t-77 15h-98v147h90q32 0 52.5 7t29.5 20t11.5 24t2.5 27q0 27 -21.5 42t-56.5 15q-43 0 -84 -8v-49h-149v156q119 51 266 51q94 0 159.5 -48t65.5 -138
q0 -104 -108 -152v-2q66 -20 97.5 -66.5t31.5 -105.5q0 -98 -71.5 -151.5t-196.5 -53.5q-72 0 -126 10.5t-122 40.5zM1133 332h120v178h-2q-63 -107 -118 -178zM1253 150v32h-305v150q75 82 107 118.5t77.5 105.5t79.5 146h224v-370h80v-150h-80v-32h49v-150h-281v150h49z
" />
    <glyph glyph-name="questiondown" unicode="&#xbf;" horiz-adv-x="1024" 
d="M963 82v-389q-91 -38 -217.5 -60t-243.5 -22q-103 0 -183 25t-127.5 64t-78 92.5t-41.5 103.5t-11 104q0 92 34 164t82 117t96 82.5t82 79.5t34 89v62h307v-62q0 -82 -20.5 -148t-51 -105t-66.5 -73.5t-66.5 -57t-51 -51.5t-20.5 -60t13.5 -52t38 -30.5t47.5 -12.5t54 -3
q38 0 103 10v133h287zM717 696h-348v328h348v-328z" />
    <glyph glyph-name="Agrave" unicode="&#xc0;" horiz-adv-x="1433" 
d="M592 1495l-205 287h287l102 -287h-184zM266 1393h707l327 -1106h113v-287h-614v287h100l-29 133h-327l-37 -133h108v-287h-594v287h127l246 819h-127v287zM719 1065h-2l-101 -379h191z" />
    <glyph glyph-name="Aacute" unicode="&#xc1;" horiz-adv-x="1433" 
d="M1038 1782l-204 -287h-185l103 287h286zM266 1393h707l327 -1106h113v-287h-614v287h100l-29 133h-327l-37 -133h108v-287h-594v287h127l246 819h-127v287zM719 1065h-2l-101 -379h191z" />
    <glyph glyph-name="Acircumflex" unicode="&#xc2;" horiz-adv-x="1433" 
d="M698 1593l-143 -98h-184l225 287h205l225 -287h-184zM266 1393h707l327 -1106h113v-287h-614v287h100l-29 133h-327l-37 -133h108v-287h-594v287h127l246 819h-127v287zM719 1065h-2l-101 -379h191z" />
    <glyph glyph-name="Atilde" unicode="&#xc3;" horiz-adv-x="1433" 
d="M573 1546q-63 0 -127 -71l-106 81q43 115 104 170.5t121 55.5q55 0 148.5 -36t124.5 -36h12h13t12.5 0.5t14 2t13.5 4t15.5 6.5t15.5 9.5t18 13t19 17.5l86 -104q-70 -147 -174 -172q-14 -4 -45 -4q-39 0 -132.5 31.5t-132.5 31.5zM266 1393h707l327 -1106h113v-287h-614
v287h100l-29 133h-327l-37 -133h108v-287h-594v287h127l246 819h-127v287zM719 1065h-2l-101 -379h191z" />
    <glyph glyph-name="Adieresis" unicode="&#xc4;" horiz-adv-x="1433" 
d="M324 1782h307v-287h-307v287zM795 1782h307v-287h-307v287zM266 1393h707l327 -1106h113v-287h-614v287h100l-29 133h-327l-37 -133h108v-287h-594v287h127l246 819h-127v287zM719 1065h-2l-101 -379h191z" />
    <glyph glyph-name="Aring" unicode="&#xc5;" horiz-adv-x="1433" 
d="M494 1679q0 85 59.5 145t144.5 60t145 -60t60 -145t-60 -144.5t-145 -59.5t-144.5 59.5t-59.5 144.5zM618 1679q0 -34 23 -57t57 -23t57 23t23 57t-23 57t-57 23t-57 -23t-23 -57zM266 1393h707l327 -1106h113v-287h-614v287h100l-29 133h-327l-37 -133h108v-287h-594
v287h127l246 819h-127v287zM719 1065h-2l-101 -379h191z" />
    <glyph glyph-name="AE" unicode="&#xc6;" horiz-adv-x="1875" 
d="M518 1106h-129v287h1446v-389h-287v102h-348v-246h533v-287h-533v-286h348v102h287v-389h-1004v276h-337q-39 -104 -72 -184l-35 -92h-367v287h130zM827 1063l-211 -500h215v500h-4z" />
    <glyph glyph-name="Ccedilla" unicode="&#xc7;" horiz-adv-x="1249" 
d="M627 -164v146q-586 32 -586 725q0 125 18.5 227t64.5 193t118 153t184.5 97.5t259.5 35.5q132 0 251 -18.5t271 -63.5v-368h-286v145q-111 18 -205 18q-143 0 -215 -111t-72 -308q0 -211 72 -326t215 -115q103 0 205 19v145h286v-369q-239 -73 -458 -79v-84
q170 -28 170 -152q0 -77 -58 -121.5t-162 -44.5q-92 0 -178 25l19 106q44 -8 88 -8q37 0 58.5 15.5t21.5 45.5q0 48 -82 72z" />
    <glyph glyph-name="Egrave" unicode="&#xc8;" horiz-adv-x="1167" 
d="M567 1495l-205 287h287l103 -287h-185zM20 1393h1106v-389h-286v102h-348v-246h532v-287h-532v-286h348v102h286v-389h-1106v287h103v819h-103v287z" />
    <glyph glyph-name="Eacute" unicode="&#xc9;" horiz-adv-x="1167" 
d="M889 1782l-205 -287h-184l102 287h287zM20 1393h1106v-389h-286v102h-348v-246h532v-287h-532v-286h348v102h286v-389h-1106v287h103v819h-103v287z" />
    <glyph glyph-name="Ecircumflex" unicode="&#xca;" horiz-adv-x="1167" 
d="M643 1593l-143 -98h-185l226 287h204l226 -287h-185zM20 1393h1106v-389h-286v102h-348v-246h532v-287h-532v-286h348v102h286v-389h-1106v287h103v819h-103v287z" />
    <glyph glyph-name="Edieresis" unicode="&#xcb;" horiz-adv-x="1167" 
d="M227 1782h308v-287h-308v287zM698 1782h308v-287h-308v287zM20 1393h1106v-389h-286v102h-348v-246h532v-287h-532v-286h348v102h286v-389h-1106v287h103v819h-103v287z" />
    <glyph glyph-name="Igrave" unicode="&#xcc;" horiz-adv-x="614" 
d="M236 1495l-205 287h286l103 -287h-184zM20 287h103v819h-103v287h574v-287h-102v-819h102v-287h-574v287z" />
    <glyph glyph-name="Iacute" unicode="&#xcd;" horiz-adv-x="614" 
d="M582 1782l-205 -287h-184l102 287h287zM20 287h103v819h-103v287h574v-287h-102v-819h102v-287h-574v287z" />
    <glyph glyph-name="Icircumflex" unicode="&#xce;" horiz-adv-x="614" 
d="M307 1593l-143 -98h-184l225 287h205l225 -287h-184zM20 287h103v819h-103v287h574v-287h-102v-819h102v-287h-574v287z" />
    <glyph glyph-name="Idieresis" unicode="&#xcf;" horiz-adv-x="614" 
d="M-82 1782h307v-287h-307v287zM389 1782h307v-287h-307v287zM20 287h103v819h-103v287h574v-287h-102v-819h102v-287h-574v287z" />
    <glyph glyph-name="Eth" unicode="&#xd0;" horiz-adv-x="1351" 
d="M20 1393h646q147 0 259.5 -33.5t185 -92.5t118 -147t64 -188t18.5 -225t-18.5 -227t-64.5 -193.5t-118 -153t-184.5 -97.5t-259.5 -36h-646v287h103v317h-103v205h103v297h-103v287zM492 287h174q63 0 109 20t74 53.5t44.5 88.5t22.5 115.5t6 142.5t-6 140.5t-22.5 110
t-44.5 82.5t-73.5 48.5t-109.5 17.5h-174v-297h204v-205h-204v-317z" />
    <glyph glyph-name="Ntilde" unicode="&#xd1;" horiz-adv-x="1413" 
d="M600 1546q-63 0 -127 -71l-106 81q43 115 104 170.5t121 55.5q55 0 148 -36t124 -36h12h13t12.5 0.5t14 2t13.5 4t15.5 6.5t15.5 9.5t18 13t19 17.5l86 -104q-70 -147 -174 -172q-14 -4 -45 -4q-39 0 -132 31.5t-132 31.5zM840 1393h553v-287h-103v-1106h-379l-446 727
h-4v-440h112v-287h-553v287h103v819h-103v287h461l467 -779h4v492h-112v287z" />
    <glyph glyph-name="Ograve" unicode="&#xd2;" horiz-adv-x="1372" 
d="M637 1495l-205 287h287l102 -287h-184zM686 1126q-63 0 -109 -19.5t-74 -53.5t-44.5 -88.5t-22.5 -115t-6 -142.5q0 -83 6 -145t22.5 -120t44.5 -95t74 -59t109 -22t109 22t74 59t44.5 95t22.5 120t6 145q0 82 -6 142.5t-22.5 115t-44.5 88.5t-74 53.5t-109 19.5z
M686 -20q-645 0 -645 727q0 125 18.5 227t64.5 193t118 153t184.5 97.5t259.5 35.5t259.5 -35.5t184.5 -97.5t118 -153t64.5 -193t18.5 -227q0 -727 -645 -727z" />
    <glyph glyph-name="Oacute" unicode="&#xd3;" horiz-adv-x="1372" 
d="M975 1782l-205 -287h-184l102 287h287zM686 1126q-63 0 -109 -19.5t-74 -53.5t-44.5 -88.5t-22.5 -115t-6 -142.5q0 -83 6 -145t22.5 -120t44.5 -95t74 -59t109 -22t109 22t74 59t44.5 95t22.5 120t6 145q0 82 -6 142.5t-22.5 115t-44.5 88.5t-74 53.5t-109 19.5z
M686 -20q-645 0 -645 727q0 125 18.5 227t64.5 193t118 153t184.5 97.5t259.5 35.5t259.5 -35.5t184.5 -97.5t118 -153t64.5 -193t18.5 -227q0 -727 -645 -727z" />
    <glyph glyph-name="Ocircumflex" unicode="&#xd4;" horiz-adv-x="1372" 
d="M688 1593l-143 -98h-185l226 287h205l225 -287h-185zM686 1126q-63 0 -109 -19.5t-74 -53.5t-44.5 -88.5t-22.5 -115t-6 -142.5q0 -83 6 -145t22.5 -120t44.5 -95t74 -59t109 -22t109 22t74 59t44.5 95t22.5 120t6 145q0 82 -6 142.5t-22.5 115t-44.5 88.5t-74 53.5
t-109 19.5zM686 -20q-645 0 -645 727q0 125 18.5 227t64.5 193t118 153t184.5 97.5t259.5 35.5t259.5 -35.5t184.5 -97.5t118 -153t64.5 -193t18.5 -227q0 -727 -645 -727z" />
    <glyph glyph-name="Otilde" unicode="&#xd5;" horiz-adv-x="1372" 
d="M559 1546q-63 0 -127 -71l-106 81q43 115 104 170.5t121 55.5q55 0 148 -36t124 -36h12h13t12.5 0.5t14 2t13.5 4t15.5 6.5t15.5 9.5t18 13t19 17.5l86 -104q-70 -147 -174 -172q-14 -4 -45 -4q-39 0 -132 31.5t-132 31.5zM686 1126q-63 0 -109 -19.5t-74 -53.5
t-44.5 -88.5t-22.5 -115t-6 -142.5q0 -83 6 -145t22.5 -120t44.5 -95t74 -59t109 -22t109 22t74 59t44.5 95t22.5 120t6 145q0 82 -6 142.5t-22.5 115t-44.5 88.5t-74 53.5t-109 19.5zM686 -20q-645 0 -645 727q0 125 18.5 227t64.5 193t118 153t184.5 97.5t259.5 35.5
t259.5 -35.5t184.5 -97.5t118 -153t64.5 -193t18.5 -227q0 -727 -645 -727z" />
    <glyph glyph-name="Odieresis" unicode="&#xd6;" horiz-adv-x="1372" 
d="M305 1782h307v-287h-307v287zM776 1782h307v-287h-307v287zM686 1126q-63 0 -109 -19.5t-74 -53.5t-44.5 -88.5t-22.5 -115t-6 -142.5q0 -83 6 -145t22.5 -120t44.5 -95t74 -59t109 -22t109 22t74 59t44.5 95t22.5 120t6 145q0 82 -6 142.5t-22.5 115t-44.5 88.5
t-74 53.5t-109 19.5zM686 -20q-645 0 -645 727q0 125 18.5 227t64.5 193t118 153t184.5 97.5t259.5 35.5t259.5 -35.5t184.5 -97.5t118 -153t64.5 -193t18.5 -227q0 -727 -645 -727z" />
    <glyph glyph-name="multiply" unicode="&#xd7;" horiz-adv-x="1077" 
d="M1016 817l-275 -274l275 -275l-203 -202l-274 274l-275 -274l-203 202l275 275l-275 274l203 203l275 -275l274 275z" />
    <glyph glyph-name="Oslash" unicode="&#xd8;" horiz-adv-x="1372" 
d="M686 -20q-253 0 -407 110l-136 -172l-102 82l143 180q-143 179 -143 527q0 125 18.5 227t64.5 193t118 153t184.5 97.5t259.5 35.5q241 0 395 -98l146 184l102 -82l-149 -188q151 -170 151 -522q0 -727 -645 -727zM686 287q63 0 109 20t74 53.5t44.5 88.5t22.5 115.5
t6 142.5q0 126 -16 202l-428 -542q59 -80 188 -80zM686 1106q-64 0 -109.5 -17.5t-73.5 -48.5t-44.5 -82.5t-22.5 -110t-6 -140.5q0 -131 12 -199l424 534q-61 64 -180 64z" />
    <glyph glyph-name="Ugrave" unicode="&#xd9;" horiz-adv-x="1392" 
d="M606 1495l-205 287h287l103 -287h-185zM799 1393h573v-287h-102v-614q0 -135 -43 -235t-121.5 -160t-180.5 -88.5t-229 -28.5t-228.5 28.5t-180 88.5t-121.5 160t-43 235v614h-103v287h574v-287h-102v-614q0 -226 204 -226q205 0 205 226v614h-102v287z" />
    <glyph glyph-name="Uacute" unicode="&#xda;" horiz-adv-x="1392" 
d="M987 1782l-205 -287h-184l102 287h287zM799 1393h573v-287h-102v-614q0 -135 -43 -235t-121.5 -160t-180.5 -88.5t-229 -28.5t-228.5 28.5t-180 88.5t-121.5 160t-43 235v614h-103v287h574v-287h-102v-614q0 -226 204 -226q205 0 205 226v614h-102v287z" />
    <glyph glyph-name="Ucircumflex" unicode="&#xdb;" horiz-adv-x="1392" 
d="M696 1593l-143 -98h-184l225 287h205l225 -287h-184zM799 1393h573v-287h-102v-614q0 -135 -43 -235t-121.5 -160t-180.5 -88.5t-229 -28.5t-228.5 28.5t-180 88.5t-121.5 160t-43 235v614h-103v287h574v-287h-102v-614q0 -226 204 -226q205 0 205 226v614h-102v287z" />
    <glyph glyph-name="Udieresis" unicode="&#xdc;" horiz-adv-x="1392" 
d="M305 1782h307v-287h-307v287zM776 1782h307v-287h-307v287zM799 1393h573v-287h-102v-614q0 -135 -43 -235t-121.5 -160t-180.5 -88.5t-229 -28.5t-228.5 28.5t-180 88.5t-121.5 160t-43 235v614h-103v287h574v-287h-102v-614q0 -226 204 -226q205 0 205 226v614h-102
v287z" />
    <glyph glyph-name="Yacute" unicode="&#xdd;" horiz-adv-x="1351" 
d="M1012 1782l-205 -287h-184l102 287h287zM860 287h103v-287h-574v287h103v123l-347 696h-125v287h635v-287h-118l168 -358h4l165 358h-116v287h573v-287h-106l-365 -696v-123z" />
    <glyph glyph-name="Thorn" unicode="&#xde;" horiz-adv-x="1269" 
d="M492 1157h245q232 0 362 -120t130 -341t-130 -340.5t-362 -119.5h-245v-236h-472v287h103v819h-103v287h472v-236zM492 870v-348h204q67 0 110.5 43.5t43.5 130.5t-43.5 130.5t-110.5 43.5h-204z" />
    <glyph glyph-name="germandbls" unicode="&#xdf;" horiz-adv-x="1320" 
d="M143 287v491h-123v226l123 20q0 94 29 166.5t77 118t115.5 74.5t138 40t152.5 11q81 0 147 -8t128 -29.5t104 -55.5t67 -88.5t25 -126.5q0 -57 -23 -106.5t-56 -83t-66.5 -63t-56.5 -58.5t-23 -57q0 -36 18.5 -54.5t63.5 -37.5q94 -36 157 -78.5t94.5 -88.5t43.5 -87
t12 -90q0 -92 -38.5 -160t-105.5 -106.5t-146.5 -57t-172.5 -18.5q-139 0 -264 40l41 267q124 -41 215 -41q103 0 103 71q0 26 -21 51t-44.5 39.5t-62.5 36.5t-53 31q-50 30 -77.5 50.5t-50.5 48.5t-31.5 62t-8.5 83q0 48 15.5 90t37.5 72.5t44 59t37.5 60.5t15.5 64
q0 94 -98 94q-133 0 -133 -196v-963h-451v287h102z" />
    <glyph glyph-name="agrave" unicode="&#xe0;" horiz-adv-x="1095" 
d="M379 676h-287v317q253 51 451 51q88 0 151.5 -8.5t118.5 -31.5t88.5 -61.5t52.5 -100t19 -146.5v-409h102v-287h-450v102h-4q-107 -122 -283 -122q-137 0 -222 88t-85 239q0 77 29.5 137.5t74 95t104.5 57t113.5 30.5t108.5 8h164v41q0 52 -38.5 67t-125.5 15
q-24 0 -82 -4v-78zM625 287v143h-109q-25 0 -38.5 -0.5t-35.5 -5.5t-33.5 -14t-20.5 -27.5t-9 -44.5q0 -49 31.5 -70.5t70.5 -21.5q38 0 79.5 12t64.5 29zM481 1147l-205 287h287l103 -287h-185z" />
    <glyph glyph-name="aacute" unicode="&#xe1;" horiz-adv-x="1095" 
d="M379 676h-287v317q253 51 451 51q88 0 151.5 -8.5t118.5 -31.5t88.5 -61.5t52.5 -100t19 -146.5v-409h102v-287h-450v102h-4q-107 -122 -283 -122q-137 0 -222 88t-85 239q0 77 29.5 137.5t74 95t104.5 57t113.5 30.5t108.5 8h164v41q0 52 -38.5 67t-125.5 15
q-24 0 -82 -4v-78zM625 287v143h-109q-25 0 -38.5 -0.5t-35.5 -5.5t-33.5 -14t-20.5 -27.5t-9 -44.5q0 -49 31.5 -70.5t70.5 -21.5q38 0 79.5 12t64.5 29zM831 1434l-204 -287h-185l103 287h286z" />
    <glyph glyph-name="acircumflex" unicode="&#xe2;" horiz-adv-x="1095" 
d="M379 676h-287v317q253 51 451 51q88 0 151.5 -8.5t118.5 -31.5t88.5 -61.5t52.5 -100t19 -146.5v-409h102v-287h-450v102h-4q-107 -122 -283 -122q-137 0 -222 88t-85 239q0 77 29.5 137.5t74 95t104.5 57t113.5 30.5t108.5 8h164v41q0 52 -38.5 67t-125.5 15
q-24 0 -82 -4v-78zM625 287v143h-109q-25 0 -38.5 -0.5t-35.5 -5.5t-33.5 -14t-20.5 -27.5t-9 -44.5q0 -49 31.5 -70.5t70.5 -21.5q38 0 79.5 12t64.5 29zM553 1245l-143 -98h-185l226 287h204l226 -287h-185z" />
    <glyph glyph-name="atilde" unicode="&#xe3;" horiz-adv-x="1095" 
d="M379 676h-287v317q253 51 451 51q88 0 151.5 -8.5t118.5 -31.5t88.5 -61.5t52.5 -100t19 -146.5v-409h102v-287h-450v102h-4q-107 -122 -283 -122q-137 0 -222 88t-85 239q0 77 29.5 137.5t74 95t104.5 57t113.5 30.5t108.5 8h164v41q0 52 -38.5 67t-125.5 15
q-24 0 -82 -4v-78zM625 287v143h-109q-25 0 -38.5 -0.5t-35.5 -5.5t-33.5 -14t-20.5 -27.5t-9 -44.5q0 -49 31.5 -70.5t70.5 -21.5q38 0 79.5 12t64.5 29zM418 1198q-63 0 -127 -72l-107 82q43 115 104.5 170.5t121.5 55.5q55 0 148 -36t124 -36h12h13t12.5 0.5t14 2t13.5 4
t15.5 6.5t15.5 9.5t18 13t19 17.5l86 -104q-70 -147 -174 -172q-14 -4 -45 -4q-39 0 -132 31.5t-132 31.5z" />
    <glyph glyph-name="adieresis" unicode="&#xe4;" horiz-adv-x="1095" 
d="M379 676h-287v317q253 51 451 51q88 0 151.5 -8.5t118.5 -31.5t88.5 -61.5t52.5 -100t19 -146.5v-409h102v-287h-450v102h-4q-107 -122 -283 -122q-137 0 -222 88t-85 239q0 77 29.5 137.5t74 95t104.5 57t113.5 30.5t108.5 8h164v41q0 52 -38.5 67t-125.5 15
q-24 0 -82 -4v-78zM625 287v143h-109q-25 0 -38.5 -0.5t-35.5 -5.5t-33.5 -14t-20.5 -27.5t-9 -44.5q0 -49 31.5 -70.5t70.5 -21.5q38 0 79.5 12t64.5 29zM162 1434h307v-287h-307v287zM633 1434h307v-287h-307v287z" />
    <glyph glyph-name="aring" unicode="&#xe5;" horiz-adv-x="1095" 
d="M379 676h-287v317q253 51 451 51q88 0 151.5 -8.5t118.5 -31.5t88.5 -61.5t52.5 -100t19 -146.5v-409h102v-287h-450v102h-4q-107 -122 -283 -122q-137 0 -222 88t-85 239q0 77 29.5 137.5t74 95t104.5 57t113.5 30.5t108.5 8h164v41q0 52 -38.5 67t-125.5 15
q-24 0 -82 -4v-78zM625 287v143h-109q-25 0 -38.5 -0.5t-35.5 -5.5t-33.5 -14t-20.5 -27.5t-9 -44.5q0 -49 31.5 -70.5t70.5 -21.5q38 0 79.5 12t64.5 29zM348 1331q0 85 60 145t145 60t145 -60t60 -145t-60 -145t-145 -60t-145 60t-60 145zM473 1331q0 -34 23 -57t57 -23
t57 23t23 57t-23 57t-57 23t-57 -23t-23 -57z" />
    <glyph glyph-name="ae" unicode="&#xe6;" horiz-adv-x="1669" 
d="M461 758q-24 0 -82 -4v-78h-287v317q260 51 426 51q113 0 190.5 -13.5t147.5 -49.5q123 63 322 63q95 0 169 -16.5t124.5 -45.5t85 -73.5t52.5 -94.5t24 -115t3.5 -128t-12.5 -141h-620q8 -77 66.5 -120.5t158.5 -43.5q174 0 317 41l41 -276q-178 -51 -409 -51
q-177 0 -289.5 47t-177.5 141q-96 -111 -183 -149.5t-190 -38.5q-99 0 -170 46t-104 119t-33 162q0 64 20 117t55.5 87.5t78 59.5t92.5 38.5t94.5 19.5t89.5 6h164v20q0 67 -34.5 85t-129.5 18zM481 246q38 0 79.5 12t64.5 29v143h-144q-102 0 -102 -92q0 -49 31.5 -70.5
t70.5 -21.5zM1157 778q-139 0 -153 -133h276q8 67 -17.5 100t-105.5 33z" />
    <glyph glyph-name="ccedilla" unicode="&#xe7;" horiz-adv-x="983" 
d="M410 512q0 -130 50 -188t134 -58q51 0 79.5 1.5t86.5 10.5t141 29l62 -276q-185 -48 -353 -51v-82q170 -28 170 -152q0 -77 -58 -121.5t-161 -44.5q-92 0 -178 25l18 106q44 -8 88 -8q37 0 58.5 15.5t21.5 45.5q0 60 -82 72v150q-124 11 -211 52.5t-138 111t-74 158
t-23 204.5q0 102 17 182t57 147t103 111t157.5 68t218.5 24q167 0 369 -51v-317h-287v80q-29 2 -82 2q-84 0 -134 -58t-50 -188z" />
    <glyph glyph-name="egrave" unicode="&#xe8;" horiz-adv-x="1085" 
d="M1040 430h-630q7 -76 70.5 -120t164.5 -44q175 0 318 41l41 -276q-178 -51 -410 -51q-151 0 -259 36.5t-172 107.5t-93 166t-29 222t29 222t93 166t172 107.5t259 36.5q95 0 169 -16.5t124.5 -45.5t85 -73.5t52.5 -94.5t24 -115t3.5 -128t-12.5 -141zM573 778
q-149 0 -163 -133h286q8 67 -17.5 100t-105.5 33zM502 1147l-205 287h287l102 -287h-184z" />
    <glyph glyph-name="eacute" unicode="&#xe9;" horiz-adv-x="1085" 
d="M1040 430h-630q7 -76 70.5 -120t164.5 -44q175 0 318 41l41 -276q-178 -51 -410 -51q-151 0 -259 36.5t-172 107.5t-93 166t-29 222t29 222t93 166t172 107.5t259 36.5q95 0 169 -16.5t124.5 -45.5t85 -73.5t52.5 -94.5t24 -115t3.5 -128t-12.5 -141zM573 778
q-149 0 -163 -133h286q8 67 -17.5 100t-105.5 33zM913 1434l-204 -287h-185l103 287h286z" />
    <glyph glyph-name="ecircumflex" unicode="&#xea;" horiz-adv-x="1085" 
d="M1040 430h-630q7 -76 70.5 -120t164.5 -44q175 0 318 41l41 -276q-178 -51 -410 -51q-151 0 -259 36.5t-172 107.5t-93 166t-29 222t29 222t93 166t172 107.5t259 36.5q95 0 169 -16.5t124.5 -45.5t85 -73.5t52.5 -94.5t24 -115t3.5 -128t-12.5 -141zM573 778
q-149 0 -163 -133h286q8 67 -17.5 100t-105.5 33zM592 1245l-143 -98h-185l225 287h205l226 -287h-185z" />
    <glyph glyph-name="edieresis" unicode="&#xeb;" horiz-adv-x="1085" 
d="M1040 430h-630q7 -76 70.5 -120t164.5 -44q175 0 318 41l41 -276q-178 -51 -410 -51q-151 0 -259 36.5t-172 107.5t-93 166t-29 222t29 222t93 166t172 107.5t259 36.5q95 0 169 -16.5t124.5 -45.5t85 -73.5t52.5 -94.5t24 -115t3.5 -128t-12.5 -141zM573 778
q-149 0 -163 -133h286q8 67 -17.5 100t-105.5 33zM193 1434h307v-287h-307v287zM664 1434h307v-287h-307v287z" />
    <glyph glyph-name="igrave" unicode="&#xec;" horiz-adv-x="593" 
d="M20 737v287h451v-737h102v-287h-553v287h103v450h-103zM156 1147l-205 287h287l102 -287h-184z" />
    <glyph glyph-name="iacute" unicode="&#xed;" horiz-adv-x="593" 
d="M20 737v287h451v-737h102v-287h-553v287h103v450h-103zM598 1434l-205 -287h-184l102 287h287z" />
    <glyph glyph-name="icircumflex" unicode="&#xee;" horiz-adv-x="593" 
d="M256 1245l-143 -98h-185l226 287h204l226 -287h-185zM20 737v287h451v-737h102v-287h-553v287h103v450h-103z" />
    <glyph glyph-name="idieresis" unicode="&#xef;" horiz-adv-x="593" 
d="M23 737v287h450v-737h102v-287h-552v287h102v450h-102zM-113 1434h308v-287h-308v287zM358 1434h308v-287h-308v287z" />
    <glyph glyph-name="eth" unicode="&#xf0;" horiz-adv-x="1126" 
d="M754 1352l145 145l115 -115l-125 -125q196 -193 196 -643q0 -128 -32.5 -240t-96 -201t-169 -141t-240.5 -52q-229 0 -367.5 126t-138.5 345q0 228 115 354.5t315 126.5q75 0 144.5 -29.5t117.5 -79.5l4 2q3 136 -69 211l-86 -88l-115 117l51 51q-58 10 -96 10
q-138 0 -297 -61l-41 266q108 46 189 64t180 18q173 0 301 -61zM707 573q-72 58 -142 58q-36 0 -64 -11t-45 -28.5t-27.5 -42t-14.5 -48t-4 -50.5q0 -89 43 -137t110 -48q51 0 85.5 28t47.5 72t17 98.5t-6 108.5z" />
    <glyph glyph-name="ntilde" unicode="&#xf1;" horiz-adv-x="1208" 
d="M655 0v287h82v327q0 75 -30.5 109.5t-92.5 34.5q-59 0 -143 -41v-430h82v-287h-533v287h103v450h-103v287h451v-123h4q121 143 303 143q149 0 228 -94.5t79 -253.5v-409h103v-287h-533zM483 1198q-63 0 -127 -72l-106 82q43 115 104 170.5t121 55.5q55 0 148.5 -36
t124.5 -36h12h13t12.5 0.5t14 2t13.5 4t15.5 6.5t15.5 9.5t18 13t19 17.5l86 -104q-70 -147 -174 -172q-14 -4 -45 -4q-39 0 -132.5 31.5t-132.5 31.5z" />
    <glyph glyph-name="ograve" unicode="&#xf2;" horiz-adv-x="1126" 
d="M563 758q-87 0 -120 -58.5t-33 -187.5t33 -187.5t120 -58.5t120.5 58.5t33.5 187.5t-33.5 187.5t-120.5 58.5zM563 -20q-274 0 -398 137.5t-124 394.5t124 394.5t398 137.5t398 -137.5t124 -394.5t-124 -394.5t-398 -137.5zM489 1147l-204 287h286l103 -287h-185z" />
    <glyph glyph-name="oacute" unicode="&#xf3;" horiz-adv-x="1126" 
d="M563 758q-87 0 -120 -58.5t-33 -187.5t33 -187.5t120 -58.5t120.5 58.5t33.5 187.5t-33.5 187.5t-120.5 58.5zM563 -20q-274 0 -398 137.5t-124 394.5t124 394.5t398 137.5t398 -137.5t124 -394.5t-124 -394.5t-398 -137.5zM866 1434l-204 -287h-185l103 287h286z" />
    <glyph glyph-name="ocircumflex" unicode="&#xf4;" horiz-adv-x="1126" 
d="M563 758q-87 0 -120 -58.5t-33 -187.5t33 -187.5t120 -58.5t120.5 58.5t33.5 187.5t-33.5 187.5t-120.5 58.5zM563 -20q-274 0 -398 137.5t-124 394.5t124 394.5t398 137.5t398 -137.5t124 -394.5t-124 -394.5t-398 -137.5zM563 1245l-143 -98h-184l225 287h205l225 -287
h-184z" />
    <glyph glyph-name="otilde" unicode="&#xf5;" horiz-adv-x="1126" 
d="M563 758q-87 0 -120 -58.5t-33 -187.5t33 -187.5t120 -58.5t120.5 58.5t33.5 187.5t-33.5 187.5t-120.5 58.5zM563 -20q-274 0 -398 137.5t-124 394.5t124 394.5t398 137.5t398 -137.5t124 -394.5t-124 -394.5t-398 -137.5zM438 1198q-63 0 -127 -72l-106 82
q43 115 104 170.5t121 55.5q55 0 148 -36t124 -36h12h13t12.5 0.5t14.5 2t14 4t15.5 6.5t15.5 9.5t18 13t19 17.5l86 -104q-70 -147 -174 -172q-14 -4 -46 -4q-39 0 -132 31.5t-132 31.5z" />
    <glyph glyph-name="odieresis" unicode="&#xf6;" horiz-adv-x="1126" 
d="M563 758q-87 0 -120 -58.5t-33 -187.5t33 -187.5t120 -58.5t120.5 58.5t33.5 187.5t-33.5 187.5t-120.5 58.5zM563 -20q-274 0 -398 137.5t-124 394.5t124 394.5t398 137.5t398 -137.5t124 -394.5t-124 -394.5t-398 -137.5zM174 1434h307v-287h-307v287zM645 1434h307
v-287h-307v287z" />
    <glyph glyph-name="divide" unicode="&#xf7;" horiz-adv-x="1024" 
d="M61 645h902v-205h-902v205zM358 338h308v-287h-308v287zM358 1034h308v-286h-308v286z" />
    <glyph glyph-name="oslash" unicode="&#xf8;" horiz-adv-x="1126" 
d="M563 -20q-187 0 -309 67l-111 -129l-102 82l111 131q-111 131 -111 381q0 257 124 394.5t398 137.5q189 0 309 -69l111 131l102 -82l-112 -131q112 -132 112 -381q0 -257 -124 -394.5t-398 -137.5zM563 266q87 0 120.5 58.5t33.5 187.5q0 30 -4 76l-248 -293
q36 -29 98 -29zM563 758q-87 0 -120 -58.5t-33 -187.5q0 -53 2 -76l247 291q-36 31 -96 31z" />
    <glyph glyph-name="ugrave" unicode="&#xf9;" horiz-adv-x="1208" 
d="M20 737v287h451v-614q0 -73 33 -108.5t90 -35.5q59 0 143 41v430h-102v287h450v-737h103v-287h-451v123h-4q-121 -143 -303 -143q-149 0 -228 94.5t-79 253.5v409h-103zM500 1147l-205 287h287l102 -287h-184z" />
    <glyph glyph-name="uacute" unicode="&#xfa;" horiz-adv-x="1208" 
d="M20 737v287h451v-614q0 -73 33 -108.5t90 -35.5q59 0 143 41v430h-102v287h450v-737h103v-287h-451v123h-4q-121 -143 -303 -143q-149 0 -228 94.5t-79 253.5v409h-103zM907 1434l-205 -287h-184l103 287h286z" />
    <glyph glyph-name="ucircumflex" unicode="&#xfb;" horiz-adv-x="1208" 
d="M20 737v287h451v-614q0 -73 33 -108.5t90 -35.5q59 0 143 41v430h-102v287h450v-737h103v-287h-451v123h-4q-121 -143 -303 -143q-149 0 -228 94.5t-79 253.5v409h-103zM606 1245l-143 -98h-184l225 287h205l225 -287h-184z" />
    <glyph glyph-name="udieresis" unicode="&#xfc;" horiz-adv-x="1208" 
d="M20 737v287h451v-614q0 -73 33 -108.5t90 -35.5q59 0 143 41v430h-102v287h450v-737h103v-287h-451v123h-4q-121 -143 -303 -143q-149 0 -228 94.5t-79 253.5v409h-103zM215 1434h307v-287h-307v287zM686 1434h307v-287h-307v287z" />
    <glyph glyph-name="yacute" unicode="&#xfd;" horiz-adv-x="1187" 
d="M678 737v287h485v-287h-63l-316 -737q-30 -71 -63 -129.5t-78 -116t-95.5 -97t-116 -63.5t-138.5 -24q-111 0 -209 20l29 277q52 -10 102 -10q151 0 188 123l-307 757h-76v287h545v-287h-84l146 -424h4l125 424h-78zM926 1434l-205 -287h-184l102 287h287z" />
    <glyph glyph-name="thorn" unicode="&#xfe;" horiz-adv-x="1146" 
d="M20 1147v287h451v-512h4q43 54 115 88t147 34q369 0 369 -532q0 -112 -21 -205t-65.5 -168t-121.5 -117t-181 -42q-69 0 -134.5 29.5t-107.5 82.5h-4v-215h102v-287h-553v287h103v1270h-103zM737 512q0 118 -32 182t-111 64q-64 0 -123 -41v-410q59 -41 123 -41
q79 0 111 64t32 182z" />
    <glyph glyph-name="ydieresis" unicode="&#xff;" horiz-adv-x="1187" 
d="M678 737v287h485v-287h-63l-316 -737q-30 -71 -63 -129.5t-78 -116t-95.5 -97t-116 -63.5t-138.5 -24q-111 0 -209 20l29 277q52 -10 102 -10q151 0 188 123l-307 757h-76v287h545v-287h-84l146 -424h4l125 424h-78zM233 1434h308v-287h-308v287zM705 1434h307v-287h-307
v287z" />
    <glyph glyph-name="Amacron" unicode="&#x100;" horiz-adv-x="1433" 
d="M410 1741h573v-246h-573v246zM266 1393h707l327 -1106h113v-287h-614v287h100l-29 133h-327l-37 -133h108v-287h-594v287h127l246 819h-127v287zM719 1065h-2l-101 -379h191z" />
    <glyph glyph-name="amacron" unicode="&#x101;" horiz-adv-x="1095" 
d="M379 676h-287v317q253 51 451 51q88 0 151.5 -8.5t118.5 -31.5t88.5 -61.5t52.5 -100t19 -146.5v-409h102v-287h-450v102h-4q-107 -122 -283 -122q-137 0 -222 88t-85 239q0 77 29.5 137.5t74 95t104.5 57t113.5 30.5t108.5 8h164v41q0 52 -38.5 67t-125.5 15
q-24 0 -82 -4v-78zM625 287v143h-109q-25 0 -38.5 -0.5t-35.5 -5.5t-33.5 -14t-20.5 -27.5t-9 -44.5q0 -49 31.5 -70.5t70.5 -21.5q38 0 79.5 12t64.5 29zM258 1393h573v-246h-573v246z" />
    <glyph glyph-name="Abreve" unicode="&#x102;" horiz-adv-x="1433" 
d="M698 1692q60 0 108 26t71 84h137q-36 -307 -316 -307q-279 0 -315 307h137q44 -110 178 -110zM266 1393h707l327 -1106h113v-287h-614v287h100l-29 133h-327l-37 -133h108v-287h-594v287h127l246 819h-127v287zM719 1065h-2l-101 -379h191z" />
    <glyph glyph-name="abreve" unicode="&#x103;" horiz-adv-x="1095" 
d="M379 676h-287v317q253 51 451 51q88 0 151.5 -8.5t118.5 -31.5t88.5 -61.5t52.5 -100t19 -146.5v-409h102v-287h-450v102h-4q-107 -122 -283 -122q-137 0 -222 88t-85 239q0 77 29.5 137.5t74 95t104.5 57t113.5 30.5t108.5 8h164v41q0 52 -38.5 67t-125.5 15
q-24 0 -82 -4v-78zM625 287v143h-109q-25 0 -38.5 -0.5t-35.5 -5.5t-33.5 -14t-20.5 -27.5t-9 -44.5q0 -49 31.5 -70.5t70.5 -21.5q38 0 79.5 12t64.5 29zM557 1343q133 0 178 111h137q-36 -307 -315 -307t-315 307h137q45 -111 178 -111z" />
    <glyph glyph-name="Aogonek" unicode="&#x104;" horiz-adv-x="1433" 
d="M1280 -281l10 -79q-34 -27 -93.5 -43.5t-111.5 -16.5q-105 0 -169 49t-64 123q0 142 176 248h-229v287h100l-29 133h-327l-37 -133h108v-287h-594v287h127l246 819h-127v287h707l327 -1106h113v-287h-221q-109 -90 -109 -186q0 -52 32.5 -80.5t90.5 -28.5q36 0 74 14z
M719 1065h-2l-101 -379h191z" />
    <glyph glyph-name="aogonek" unicode="&#x105;" horiz-adv-x="1095" 
d="M877 -281l10 -79q-34 -27 -93.5 -43.5t-111.5 -16.5q-105 0 -169 49t-64 123q0 142 176 248v102h-4q-57 -67 -122.5 -94.5t-160.5 -27.5q-99 0 -170 46t-104 119t-33 162q0 77 29.5 137.5t74 95t104.5 57t113.5 30.5t108.5 8h164v41q0 52 -38.5 67t-125.5 15
q-24 0 -82 -4v-78h-287v317q253 51 451 51q88 0 151.5 -8.5t118.5 -31.5t88.5 -61.5t52.5 -100t19 -146.5v-409h102v-287h-287q-108 -89 -108 -186q0 -52 32.5 -80.5t90.5 -28.5q36 0 74 14zM625 287v143h-144q-102 0 -102 -92q0 -49 31.5 -70.5t70.5 -21.5q38 0 79.5 12
t64.5 29z" />
    <glyph glyph-name="Cacute" unicode="&#x106;" horiz-adv-x="1249" 
d="M987 1782l-205 -287h-184l102 287h287zM922 430h286v-369q-151 -45 -270 -63t-252 -18q-645 0 -645 727q0 125 18.5 227t64.5 193t118 153t184.5 97.5t259.5 35.5q132 0 251 -18.5t271 -63.5v-368h-286v145q-111 18 -205 18q-143 0 -215 -111t-72 -308q0 -211 72 -326
t215 -115q103 0 205 19v145z" />
    <glyph glyph-name="cacute" unicode="&#x107;" horiz-adv-x="983" 
d="M963 676h-287v80q-29 2 -82 2q-84 0 -134 -58t-50 -188t50 -188t134 -58q51 0 79.5 1.5t86.5 10.5t141 29l62 -276q-202 -51 -369 -51q-124 0 -218.5 24t-157.5 68t-103 111t-57 147t-17 182t17 182t57 147t103 111t157.5 68t218.5 24q167 0 369 -51v-317zM868 1434
l-204 -287h-185l103 287h286z" />
    <glyph glyph-name="Ccircumflex" unicode="&#x108;" horiz-adv-x="1249" 
d="M729 1593l-143 -98h-185l226 287h204l226 -287h-185zM922 430h286v-369q-151 -45 -270 -63t-252 -18q-645 0 -645 727q0 125 18.5 227t64.5 193t118 153t184.5 97.5t259.5 35.5q132 0 251 -18.5t271 -63.5v-368h-286v145q-111 18 -205 18q-143 0 -215 -111t-72 -308
q0 -211 72 -326t215 -115q103 0 205 19v145z" />
    <glyph glyph-name="ccircumflex" unicode="&#x109;" horiz-adv-x="983" 
d="M963 676h-287v80q-29 2 -82 2q-84 0 -134 -58t-50 -188t50 -188t134 -58q51 0 79.5 1.5t86.5 10.5t141 29l62 -276q-202 -51 -369 -51q-124 0 -218.5 24t-157.5 68t-103 111t-57 147t-17 182t17 182t57 147t103 111t157.5 68t218.5 24q167 0 369 -51v-317zM565 1245
l-143 -98h-184l225 287h205l225 -287h-184z" />
    <glyph glyph-name="Cdotaccent" unicode="&#x10a;" horiz-adv-x="1249" 
d="M557 1782h307v-287h-307v287zM922 430h286v-369q-151 -45 -270 -63t-252 -18q-645 0 -645 727q0 125 18.5 227t64.5 193t118 153t184.5 97.5t259.5 35.5q132 0 251 -18.5t271 -63.5v-368h-286v145q-111 18 -205 18q-143 0 -215 -111t-72 -308q0 -211 72 -326t215 -115
q103 0 205 19v145z" />
    <glyph glyph-name="cdotaccent" unicode="&#x10b;" horiz-adv-x="983" 
d="M963 676h-287v80q-29 2 -82 2q-84 0 -134 -58t-50 -188t50 -188t134 -58q51 0 79.5 1.5t86.5 10.5t141 29l62 -276q-202 -51 -369 -51q-124 0 -218.5 24t-157.5 68t-103 111t-57 147t-17 182t17 182t57 147t103 111t157.5 68t218.5 24q167 0 369 -51v-317zM426 1434h307
v-287h-307v287z" />
    <glyph glyph-name="Ccaron" unicode="&#x10c;" horiz-adv-x="1249" 
d="M569 1782l144 -99l143 99h184l-225 -287h-205l-225 287h184zM922 430h286v-369q-151 -45 -270 -63t-252 -18q-645 0 -645 727q0 125 18.5 227t64.5 193t118 153t184.5 97.5t259.5 35.5q132 0 251 -18.5t271 -63.5v-368h-286v145q-111 18 -205 18q-143 0 -215 -111
t-72 -308q0 -211 72 -326t215 -115q103 0 205 19v145z" />
    <glyph glyph-name="ccaron" unicode="&#x10d;" horiz-adv-x="983" 
d="M963 676h-287v80q-29 2 -82 2q-84 0 -134 -58t-50 -188t50 -188t134 -58q51 0 79.5 1.5t86.5 10.5t141 29l62 -276q-202 -51 -369 -51q-124 0 -218.5 24t-157.5 68t-103 111t-57 147t-17 182t17 182t57 147t103 111t157.5 68t218.5 24q167 0 369 -51v-317zM449 1434
l143 -99l143 99h185l-226 -287h-205l-225 287h185z" />
    <glyph glyph-name="Dcaron" unicode="&#x10e;" horiz-adv-x="1351" 
d="M496 1782l143 -99l143 99h185l-226 -287h-204l-226 287h185zM20 1393h646q147 0 259.5 -33.5t185 -92.5t118 -147t64 -188t18.5 -225t-18.5 -227t-64.5 -193.5t-118 -153t-184.5 -97.5t-259.5 -36h-646v287h103v819h-103v287zM492 287h174q63 0 109 20t74 53.5t44.5 88.5
t22.5 115.5t6 142.5t-6 140.5t-22.5 110t-44.5 82.5t-73.5 48.5t-109.5 17.5h-174v-819z" />
    <glyph glyph-name="dcaron" unicode="&#x10f;" horiz-adv-x="1146" 
d="M573 1147v287h451v-1147h102v-287h-450v102h-4q-43 -54 -115 -88t-147 -34q-369 0 -369 532q0 112 21 205t65.5 168t121.5 117t181 42q69 0 134.5 -29.5t107.5 -82.5h4v215h-103zM410 512q0 -118 32 -182t111 -64q64 0 123 41v410q-59 41 -123 41q-79 0 -111 -64
t-32 -182zM1249 1229h-102l61 205h-143v266h348v-266z" />
    <glyph glyph-name="Dcroat" unicode="&#x110;" horiz-adv-x="1351" 
d="M20 1393h646q147 0 259.5 -33.5t185 -92.5t118 -147t64 -188t18.5 -225t-18.5 -227t-64.5 -193.5t-118 -153t-184.5 -97.5t-259.5 -36h-646v287h103v317h-103v205h103v297h-103v287zM492 287h174q63 0 109 20t74 53.5t44.5 88.5t22.5 115.5t6 142.5t-6 140.5t-22.5 110
t-44.5 82.5t-73.5 48.5t-109.5 17.5h-174v-297h204v-205h-204v-317z" />
    <glyph glyph-name="dcroat" unicode="&#x111;" horiz-adv-x="1146" 
d="M676 1434h348v-123h102v-205h-102v-819h102v-287h-450v102h-4q-68 -71 -135.5 -96.5t-147.5 -25.5q-89 0 -157.5 43.5t-109 119.5t-61 169t-20.5 200q0 112 21 205t65.5 168t121.5 117t181 42q69 0 134.5 -29.5t107.5 -82.5h4v174h-103v205h103v123zM410 512
q0 -118 32 -182t111 -64q64 0 123 41v410q-59 41 -123 41q-79 0 -111 -64t-32 -182z" />
    <glyph glyph-name="Emacron" unicode="&#x112;" horiz-adv-x="1167" 
d="M322 1741h573v-246h-573v246zM20 1393h1106v-389h-286v102h-348v-246h532v-287h-532v-286h348v102h286v-389h-1106v287h103v819h-103v287z" />
    <glyph glyph-name="emacron" unicode="&#x113;" horiz-adv-x="1085" 
d="M1040 430h-630q7 -76 70.5 -120t164.5 -44q175 0 318 41l41 -276q-178 -51 -410 -51q-151 0 -259 36.5t-172 107.5t-93 166t-29 222t29 222t93 166t172 107.5t259 36.5q95 0 169 -16.5t124.5 -45.5t85 -73.5t52.5 -94.5t24 -115t3.5 -128t-12.5 -141zM573 778
q-149 0 -163 -133h286q8 67 -17.5 100t-105.5 33zM293 1393h573v-246h-573v246z" />
    <glyph glyph-name="Ebreve" unicode="&#x114;" horiz-adv-x="1167" 
d="M664 1692q134 0 178 110h137q-36 -307 -315 -307q-280 0 -316 307h137q23 -58 71 -84t108 -26zM20 1393h1106v-389h-286v102h-348v-246h532v-287h-532v-286h348v102h286v-389h-1106v287h103v819h-103v287z" />
    <glyph glyph-name="ebreve" unicode="&#x115;" horiz-adv-x="1085" 
d="M1040 430h-630q7 -76 70.5 -120t164.5 -44q175 0 318 41l41 -276q-178 -51 -410 -51q-151 0 -259 36.5t-172 107.5t-93 166t-29 222t29 222t93 166t172 107.5t259 36.5q95 0 169 -16.5t124.5 -45.5t85 -73.5t52.5 -94.5t24 -115t3.5 -128t-12.5 -141zM573 778
q-149 0 -163 -133h286q8 67 -17.5 100t-105.5 33zM586 1343q133 0 178 111h137q-36 -307 -315 -307q-280 0 -316 307h138q45 -111 178 -111z" />
    <glyph glyph-name="Edotaccent" unicode="&#x116;" horiz-adv-x="1167" 
d="M461 1782h307v-287h-307v287zM20 1393h1106v-389h-286v102h-348v-246h532v-287h-532v-286h348v102h286v-389h-1106v287h103v819h-103v287z" />
    <glyph glyph-name="edotaccent" unicode="&#x117;" horiz-adv-x="1085" 
d="M1040 430h-630q7 -76 70.5 -120t164.5 -44q175 0 318 41l41 -276q-178 -51 -410 -51q-151 0 -259 36.5t-172 107.5t-93 166t-29 222t29 222t93 166t172 107.5t259 36.5q95 0 169 -16.5t124.5 -45.5t85 -73.5t52.5 -94.5t24 -115t3.5 -128t-12.5 -141zM573 778
q-149 0 -163 -133h286q8 67 -17.5 100t-105.5 33zM430 1434h307v-287h-307v287z" />
    <glyph glyph-name="Eogonek" unicode="&#x118;" horiz-adv-x="1167" 
d="M20 1393h1106v-389h-286v102h-348v-246h532v-287h-532v-286h348v102h286v-389q-108 -89 -108 -186q0 -52 32.5 -80.5t90.5 -28.5q35 0 73 14l11 -79q-34 -27 -93.5 -43.5t-111.5 -16.5q-105 0 -169.5 49t-64.5 123q0 141 177 248h-943v287h103v819h-103v287z" />
    <glyph glyph-name="eogonek" unicode="&#x119;" horiz-adv-x="1085" 
d="M1092 -250l10 -80q-34 -27 -93.5 -43t-111.5 -16q-105 0 -169 49t-64 123q0 116 114 205q-84 -8 -184 -8q-151 0 -259 36.5t-172 107.5t-93 166t-29 222t29 222t93 166t172 107.5t259 36.5q95 0 169 -16.5t124.5 -45.5t85 -73.5t52.5 -94.5t24 -115t3.5 -128t-12.5 -141
h-620q8 -77 66.5 -120.5t158.5 -43.5q175 0 318 41l41 -276q-109 -90 -109 -187q0 -52 32.5 -80t90.5 -28q36 0 74 14zM573 778q-139 0 -153 -133h276q8 67 -17.5 100t-105.5 33z" />
    <glyph glyph-name="Ecaron" unicode="&#x11a;" horiz-adv-x="1167" 
d="M485 1782l144 -99l143 99h184l-225 -287h-205l-225 287h184zM20 1393h1106v-389h-286v102h-348v-246h532v-287h-532v-286h348v102h286v-389h-1106v287h103v819h-103v287z" />
    <glyph glyph-name="ecaron" unicode="&#x11b;" horiz-adv-x="1085" 
d="M1040 430h-630q7 -76 70.5 -120t164.5 -44q175 0 318 41l41 -276q-178 -51 -410 -51q-151 0 -259 36.5t-172 107.5t-93 166t-29 222t29 222t93 166t172 107.5t259 36.5q95 0 169 -16.5t124.5 -45.5t85 -73.5t52.5 -94.5t24 -115t3.5 -128t-12.5 -141zM573 778
q-149 0 -163 -133h286q8 67 -17.5 100t-105.5 33zM434 1434l144 -99l143 99h184l-225 -287h-205l-225 287h184z" />
    <glyph glyph-name="Gcircumflex" unicode="&#x11c;" horiz-adv-x="1269" 
d="M748 1593l-144 -98h-184l225 287h205l225 -287h-184zM430 707q0 -420 287 -420q55 0 123 6v158h-164v286h532v-676q-151 -45 -270 -63t-252 -18q-645 0 -645 727q0 125 18.5 227t64.5 193t118 153t184.5 97.5t259.5 35.5q132 0 251 -18.5t271 -63.5v-368h-286v145
q-111 18 -205 18q-143 0 -215 -111t-72 -308z" />
    <glyph glyph-name="gcircumflex" unicode="&#x11d;" horiz-adv-x="1136" 
d="M317 -102q0 -80 118 -91q24 -2 97 -2q216 0 216 86q0 28 -22 46.5t-60 21.5l-328 21q-2 -5 -7 -16.5t-7.5 -17.5t-4.5 -19t-2 -29zM543 584q52 0 82 24t30 88t-30 88.5t-82 24.5t-82.5 -24.5t-30.5 -88.5t30 -88t83 -24zM164 27v4q-66 46 -81.5 115t29.5 141t144 119v4
q-76 38 -120 115.5t-44 170.5q0 177 120.5 262.5t330.5 85.5q85 0 153 -20h400v-205h-131v-4q18 -61 18 -119q0 -90 -32.5 -157.5t-92 -109t-138.5 -61.5t-177 -20q-55 0 -113 17q-51 -92 29 -95l319 -14q156 -6 247 -83.5t91 -213.5q0 -205 -154.5 -297t-480.5 -92
q-243 0 -352 64.5t-109 201.5q0 65 34 110.5t110 80.5zM573 1245l-143 -98h-184l225 287h205l225 -287h-184z" />
    <glyph glyph-name="Gbreve" unicode="&#x11e;" horiz-adv-x="1269" 
d="M723 1692q134 0 178 110h137q-36 -307 -315 -307t-315 307h137q44 -110 178 -110zM430 707q0 -420 287 -420q55 0 123 6v158h-164v286h532v-676q-151 -45 -270 -63t-252 -18q-645 0 -645 727q0 125 18.5 227t64.5 193t118 153t184.5 97.5t259.5 35.5q132 0 251 -18.5
t271 -63.5v-368h-286v145q-111 18 -205 18q-143 0 -215 -111t-72 -308z" />
    <glyph glyph-name="gbreve" unicode="&#x11f;" horiz-adv-x="1136" 
d="M317 -102q0 -80 118 -91q24 -2 97 -2q216 0 216 86q0 28 -22 46.5t-60 21.5l-328 21q-2 -5 -7 -16.5t-7.5 -17.5t-4.5 -19t-2 -29zM543 584q52 0 82 24t30 88t-30 88.5t-82 24.5t-82.5 -24.5t-30.5 -88.5t30 -88t83 -24zM164 27v4q-66 46 -81.5 115t29.5 141t144 119v4
q-76 38 -120 115.5t-44 170.5q0 177 120.5 262.5t330.5 85.5q85 0 153 -20h400v-205h-131v-4q18 -61 18 -119q0 -90 -32.5 -157.5t-92 -109t-138.5 -61.5t-177 -20q-55 0 -113 17q-51 -92 29 -95l319 -14q156 -6 247 -83.5t91 -213.5q0 -205 -154.5 -297t-480.5 -92
q-243 0 -352 64.5t-109 201.5q0 65 34 110.5t110 80.5zM586 1343q133 0 178 111h137q-36 -307 -315 -307q-280 0 -316 307h138q45 -111 178 -111z" />
    <glyph glyph-name="Gdotaccent" unicode="&#x120;" horiz-adv-x="1269" 
d="M561 1782h307v-287h-307v287zM430 707q0 -420 287 -420q55 0 123 6v158h-164v286h532v-676q-151 -45 -270 -63t-252 -18q-645 0 -645 727q0 125 18.5 227t64.5 193t118 153t184.5 97.5t259.5 35.5q132 0 251 -18.5t271 -63.5v-368h-286v145q-111 18 -205 18
q-143 0 -215 -111t-72 -308z" />
    <glyph glyph-name="gdotaccent" unicode="&#x121;" horiz-adv-x="1136" 
d="M317 -102q0 -80 118 -91q24 -2 97 -2q216 0 216 86q0 28 -22 46.5t-60 21.5l-328 21q-2 -5 -7 -16.5t-7.5 -17.5t-4.5 -19t-2 -29zM543 584q52 0 82 24t30 88t-30 88.5t-82 24.5t-82.5 -24.5t-30.5 -88.5t30 -88t83 -24zM164 27v4q-66 46 -81.5 115t29.5 141t144 119v4
q-76 38 -120 115.5t-44 170.5q0 177 120.5 262.5t330.5 85.5q85 0 153 -20h400v-205h-131v-4q18 -61 18 -119q0 -90 -32.5 -157.5t-92 -109t-138.5 -61.5t-177 -20q-55 0 -113 17q-51 -92 29 -95l319 -14q156 -6 247 -83.5t91 -213.5q0 -205 -154.5 -297t-480.5 -92
q-243 0 -352 64.5t-109 201.5q0 65 34 110.5t110 80.5zM401 1434h308v-287h-308v287z" />
    <glyph glyph-name="Gcommaaccent" unicode="&#x122;" horiz-adv-x="1269" 
d="M430 707q0 -420 287 -420q55 0 123 6v158h-164v286h532v-676q-151 -45 -270 -63t-252 -18q-645 0 -645 727q0 125 18.5 227t64.5 193t118 153t184.5 97.5t259.5 35.5q132 0 251 -18.5t271 -63.5v-368h-286v145q-111 18 -205 18q-143 0 -215 -111t-72 -308zM715 -553h-103
l62 205h-144v266h349v-266z" />
    <glyph glyph-name="gcommaaccent" unicode="&#x123;" horiz-adv-x="1136" 
d="M317 -102q0 -80 118 -91q24 -2 97 -2q216 0 216 86q0 28 -22 46.5t-60 21.5l-328 21q-2 -5 -7 -16.5t-7.5 -17.5t-4.5 -19t-2 -29zM543 584q52 0 82 24t30 88t-30 88.5t-82 24.5t-82.5 -24.5t-30.5 -88.5t30 -88t83 -24zM164 27v4q-66 46 -81.5 115t29.5 141t144 119v4
q-76 38 -120 115.5t-44 170.5q0 177 120.5 262.5t330.5 85.5q85 0 153 -20h400v-205h-131v-4q18 -61 18 -119q0 -90 -32.5 -157.5t-92 -109t-138.5 -61.5t-177 -20q-55 0 -113 17q-51 -92 29 -95l319 -14q156 -6 247 -83.5t91 -213.5q0 -205 -154.5 -297t-480.5 -92
q-243 0 -352 64.5t-109 201.5q0 65 34 110.5t110 80.5zM557 1741h102l-61 -266h143v-328h-348v328z" />
    <glyph glyph-name="Hcircumflex" unicode="&#x124;" horiz-adv-x="1392" 
d="M696 1593l-143 -98h-184l225 287h205l225 -287h-184zM799 287h102v286h-409v-286h102v-287h-574v287h103v819h-103v287h574v-287h-102v-246h409v246h-102v287h573v-287h-102v-819h102v-287h-573v287z" />
    <glyph glyph-name="hcircumflex" unicode="&#x125;" horiz-adv-x="1208" 
d="M655 0v287h82v327q0 75 -30.5 109.5t-92.5 34.5q-59 0 -143 -41v-430h82v-287h-533v287h103v860h-103v287h451v-533h4q121 143 303 143q149 0 228 -94.5t79 -253.5v-409h103v-287h-533zM246 1634l-144 -98h-184l225 287h205l225 -287h-184z" />
    <glyph glyph-name="Hbar" unicode="&#x126;" horiz-adv-x="1392" 
d="M799 287h102v286h-409v-286h102v-287h-574v287h103v635h-103v102h103v82h-103v287h574v-287h-102v-82h409v82h-102v287h573v-287h-102v-82h102v-102h-102v-635h102v-287h-573v287zM492 860h409v62h-409v-62z" />
    <glyph glyph-name="hbar" unicode="&#x127;" horiz-adv-x="1208" 
d="M655 0v287h82v327q0 75 -30.5 109.5t-92.5 34.5q-59 0 -143 -41v-430h82v-287h-533v287h103v819h-103v205h103v123h348v-123h102v-205h-102v-205h4q86 105 215 133q48 10 88 10q149 0 228 -94.5t79 -253.5v-409h103v-287h-533z" />
    <glyph glyph-name="Itilde" unicode="&#x128;" horiz-adv-x="614" 
d="M182 1546q-63 0 -127 -71l-106 81q43 115 104 170.5t121 55.5q55 0 148 -36t124 -36h12h13t12.5 0.5t14.5 2t14 4t15.5 6.5t15.5 9.5t18 13t19 17.5l86 -104q-70 -147 -174 -172q-14 -4 -46 -4q-39 0 -132 31.5t-132 31.5zM20 287h103v819h-103v287h574v-287h-102v-819
h102v-287h-574v287z" />
    <glyph glyph-name="itilde" unicode="&#x129;" horiz-adv-x="593" 
d="M20 737v287h451v-737h102v-287h-553v287h103v450h-103zM131 1198q-63 0 -127 -72l-106 82q43 115 104 170.5t121 55.5q55 0 148 -36t124 -36h12h13t12.5 0.5t14 2t13.5 4t15.5 6.5t15.5 9.5t18 13t19 17.5l86 -104q-70 -147 -174 -172q-14 -4 -45 -4q-39 0 -132 31.5
t-132 31.5z" />
    <glyph glyph-name="Imacron" unicode="&#x12a;" horiz-adv-x="614" 
d="M20 1741h574v-246h-574v246zM20 287h103v819h-103v287h574v-287h-102v-819h102v-287h-574v287z" />
    <glyph glyph-name="imacron" unicode="&#x12b;" horiz-adv-x="593" 
d="M20 737v287h451v-737h102v-287h-553v287h103v450h-103zM-41 1393h573v-246h-573v246z" />
    <glyph glyph-name="Ibreve" unicode="&#x12c;" horiz-adv-x="614" 
d="M307 1692q134 0 178 110h138q-36 -307 -316 -307q-279 0 -315 307h137q44 -110 178 -110zM20 287h103v819h-103v287h574v-287h-102v-819h102v-287h-574v287z" />
    <glyph glyph-name="ibreve" unicode="&#x12d;" horiz-adv-x="593" 
d="M20 737v287h451v-737h102v-287h-553v287h103v450h-103zM256 1343q133 0 178 111h137q-36 -307 -315 -307t-315 307h137q45 -111 178 -111z" />
    <glyph glyph-name="Iogonek" unicode="&#x12e;" horiz-adv-x="614" 
d="M489 -281l11 -79q-34 -27 -93.5 -43.5t-111.5 -16.5q-105 0 -169.5 49t-64.5 123q0 141 177 248h-218v287h103v819h-103v287h574v-287h-102v-819h102v-287h-193q-108 -89 -108 -186q0 -52 32.5 -80.5t90.5 -28.5q35 0 73 14z" />
    <glyph glyph-name="iogonek" unicode="&#x12f;" horiz-adv-x="593" 
d="M489 -281l11 -79q-34 -27 -93.5 -43.5t-111.5 -16.5q-105 0 -169.5 49t-64.5 123q0 141 177 248h-218v287h103v450h-103v287h451v-737h102v-287h-172q-108 -89 -108 -186q0 -52 32.5 -80.5t90.5 -28.5q35 0 73 14zM123 1434h348v-308h-348v308z" />
    <glyph glyph-name="Idotaccent" unicode="&#x130;" horiz-adv-x="614" 
d="M154 1782h307v-287h-307v287zM20 287h103v819h-103v287h574v-287h-102v-819h102v-287h-574v287z" />
    <glyph glyph-name="dotlessi" unicode="&#x131;" horiz-adv-x="593" 
d="M20 737v287h451v-737h102v-287h-553v287h103v450h-103z" />
    <glyph glyph-name="IJ" unicode="&#x132;" horiz-adv-x="1413" 
d="M20 287h103v819h-103v287h574v-287h-102v-819h102v-287h-574v287zM819 1393h574v-287h-103v-715q0 -209 -108 -310t-301 -101q-144 0 -246 20l31 287q68 -11 112 -11q28 0 49 3.5t45 14.5t37 35.5t13 61.5v715h-103v287z" />
    <glyph glyph-name="ij" unicode="&#x133;" horiz-adv-x="1064" 
d="M20 737v287h451v-737h102v-287h-553v287h103v450h-103zM123 1434h348v-308h-348v308zM532 737v287h472v-1126q0 -82 -14.5 -138.5t-52 -101.5t-107.5 -66.5t-175 -21.5q-92 0 -194 20l31 267q57 -11 81 -11q47 0 64.5 14.5t17.5 59.5v817h-123zM655 1434h349v-308h-349
v308z" />
    <glyph glyph-name="Jcircumflex" unicode="&#x134;" horiz-adv-x="798" 
d="M492 1593l-144 -98h-184l225 287h205l225 -287h-184zM205 1393h573v-287h-102v-715q0 -209 -108.5 -310t-301.5 -101q-144 0 -246 20l31 287q68 -11 113 -11q28 0 49 3.5t44.5 14.5t36.5 35.5t13 61.5v715h-102v287z" />
    <glyph glyph-name="jcircumflex" unicode="&#x135;" horiz-adv-x="552" 
d="M20 737v287h472v-1126q0 -82 -14.5 -138.5t-52 -101.5t-107.5 -66.5t-175 -21.5q-92 0 -194 20l31 267q57 -11 81 -11q47 0 64.5 14.5t17.5 59.5v817h-123zM266 1245l-143 -98h-184l225 287h205l225 -287h-184z" />
    <glyph glyph-name="Kcommaaccent" unicode="&#x136;" horiz-adv-x="1392" 
d="M678 -539h-103l62 205h-143v266h348v-266zM20 1393h574v-287h-102v-328l315 328h-70v287h615v-287h-105l-325 -318l364 -501h86v-287h-635v287h82l-174 245l-153 -145v-100h102v-287h-574v287h103v819h-103v287z" />
    <glyph glyph-name="kcommaaccent" unicode="&#x137;" 
d="M20 1147v287h451v-865l225 168h-61v287h553v-287h-103l-172 -127l228 -323h67v-287h-553v287h47l-84 135l-147 -115v-20h102v-287h-553v287h103v860h-103zM625 -553h-103l62 205h-144v266h348v-266z" />
    <glyph glyph-name="kgreenlandic" unicode="&#x138;" 
d="M20 737v287h451v-455l225 168h-41v287h533v-287h-103l-172 -127l228 -323h67v-287h-553v287h47l-84 135l-147 -115v-20h102v-287h-553v287h103v450h-103z" />
    <glyph glyph-name="Lacute" unicode="&#x139;" horiz-adv-x="1126" 
d="M598 1782l-205 -287h-184l102 287h287zM819 389h287v-389h-1086v287h103v819h-103v287h574v-287h-102v-819h327v102z" />
    <glyph glyph-name="lacute" unicode="&#x13a;" horiz-adv-x="593" 
d="M20 1147v287h451v-1147h102v-287h-553v287h103v860h-103zM594 1823l-205 -287h-184l102 287h287z" />
    <glyph glyph-name="Lcommaaccent" unicode="&#x13b;" horiz-adv-x="1126" 
d="M596 -537h-102l61 205h-143v266h348v-266zM819 389h287v-389h-1086v287h103v819h-103v287h574v-287h-102v-819h327v102z" />
    <glyph glyph-name="lcommaaccent" unicode="&#x13c;" horiz-adv-x="593" 
d="M20 1147v287h451v-1147h102v-287h-553v287h103v860h-103zM307 -553h-102l61 205h-143v266h348v-266z" />
    <glyph glyph-name="Lcaron" unicode="&#x13d;" horiz-adv-x="1126" 
d="M850 922h-102l61 204h-143v267h348v-267zM819 389h287v-389h-1086v287h103v819h-103v287h574v-287h-102v-819h327v102z" />
    <glyph glyph-name="lcaron" unicode="&#x13e;" horiz-adv-x="593" 
d="M20 1147v287h451v-1147h102v-287h-553v287h103v860h-103zM696 1229h-102l61 205h-143v266h348v-266z" />
    <glyph glyph-name="Ldot" unicode="&#x13f;" horiz-adv-x="1126" 
d="M635 922h307v-287h-307v287zM819 389h287v-389h-1086v287h103v819h-103v287h574v-287h-102v-819h327v102z" />
    <glyph glyph-name="ldot" unicode="&#x140;" horiz-adv-x="839" 
d="M20 1147v287h451v-1147h102v-287h-553v287h103v860h-103zM512 881h307v-287h-307v287z" />
    <glyph glyph-name="Lslash" unicode="&#x141;" horiz-adv-x="1126" 
d="M20 686l103 29v391h-103v287h574v-287h-102v-285l102 29v-164l-102 -29v-370h327v102h287v-389h-1086v287h103v264l-103 -29v164z" />
    <glyph glyph-name="lslash" unicode="&#x142;" horiz-adv-x="593" 
d="M20 1147v287h451v-574l102 31v-164l-102 -31v-409h102v-287h-553v287h103v307l-103 -31v164l103 31v389h-103z" />
    <glyph glyph-name="Nacute" unicode="&#x143;" horiz-adv-x="1413" 
d="M999 1782l-204 -287h-185l103 287h286zM840 1393h553v-287h-103v-1106h-379l-446 727h-4v-440h112v-287h-553v287h103v819h-103v287h461l467 -779h4v492h-112v287z" />
    <glyph glyph-name="nacute" unicode="&#x144;" horiz-adv-x="1208" 
d="M655 0v287h82v327q0 75 -30.5 109.5t-92.5 34.5q-59 0 -143 -41v-430h82v-287h-533v287h103v450h-103v287h451v-123h4q121 143 303 143q149 0 228 -94.5t79 -253.5v-409h103v-287h-533zM883 1434l-205 -287h-184l102 287h287z" />
    <glyph glyph-name="Ncommaaccent" unicode="&#x145;" horiz-adv-x="1413" 
d="M735 -553h-102l61 205h-143v266h348v-266zM840 1393h553v-287h-103v-1106h-379l-446 727h-4v-440h112v-287h-553v287h103v819h-103v287h461l467 -779h4v492h-112v287z" />
    <glyph glyph-name="ncommaaccent" unicode="&#x146;" horiz-adv-x="1208" 
d="M655 0v287h82v327q0 75 -30.5 109.5t-92.5 34.5q-59 0 -143 -41v-430h82v-287h-533v287h103v450h-103v287h451v-123h4q121 143 303 143q149 0 228 -94.5t79 -253.5v-409h103v-287h-533zM621 -553h-103l62 205h-144v266h348v-266z" />
    <glyph glyph-name="Ncaron" unicode="&#x147;" horiz-adv-x="1413" 
d="M580 1782l143 -99l143 99h185l-226 -287h-204l-226 287h185zM840 1393h553v-287h-103v-1106h-379l-446 727h-4v-440h112v-287h-553v287h103v819h-103v287h461l467 -779h4v492h-112v287z" />
    <glyph glyph-name="ncaron" unicode="&#x148;" horiz-adv-x="1208" 
d="M655 0v287h82v327q0 75 -30.5 109.5t-92.5 34.5q-59 0 -143 -41v-430h82v-287h-533v287h103v450h-103v287h451v-123h4q121 143 303 143q149 0 228 -94.5t79 -253.5v-409h103v-287h-533zM465 1434l143 -99l144 99h184l-225 -287h-205l-225 287h184z" />
    <glyph glyph-name="napostrophe" unicode="&#x149;" horiz-adv-x="1208" 
d="M655 0v287h82v327q0 75 -30.5 109.5t-92.5 34.5q-59 0 -143 -41v-430h82v-287h-533v287h103v450h-103v287h451v-123h4q121 143 303 143q149 0 228 -94.5t79 -253.5v-409h103v-287h-533zM303 1128h-102l61 205h-143v266h348v-266z" />
    <glyph glyph-name="Eng" unicode="&#x14a;" horiz-adv-x="1413" 
d="M1290 1106v-1126q0 -346 -274 -400q-58 -10 -115 -10q-164 0 -266 20l31 308q68 -11 112 -11q28 0 49 3.5t45 14t37 34.5t13 61l-58 86l-399 610h-4v-409h112v-287h-553v287h103v819h-103v287h472l456 -738h4v451h-112v287h553v-287h-103z" />
    <glyph glyph-name="eng" unicode="&#x14b;" horiz-adv-x="1146" 
d="M737 -61v675q0 75 -30.5 109.5t-92.5 34.5q-59 0 -143 -41v-430h82v-287h-533v287h103v450h-103v287h451v-123h4q121 143 303 143q149 0 228 -94.5t79 -253.5v-757q0 -54 -6 -98.5t-20.5 -88t-40.5 -75.5t-63.5 -56.5t-92.5 -37.5t-125 -13q-92 0 -194 20l30 267
q57 -11 82 -11q44 0 63 23t19 70z" />
    <glyph glyph-name="Omacron" unicode="&#x14c;" horiz-adv-x="1372" 
d="M406 1741h573v-246h-573v246zM686 1126q-63 0 -109 -19.5t-74 -53.5t-44.5 -88.5t-22.5 -115t-6 -142.5q0 -83 6 -145t22.5 -120t44.5 -95t74 -59t109 -22t109 22t74 59t44.5 95t22.5 120t6 145q0 82 -6 142.5t-22.5 115t-44.5 88.5t-74 53.5t-109 19.5zM686 -20
q-645 0 -645 727q0 125 18.5 227t64.5 193t118 153t184.5 97.5t259.5 35.5t259.5 -35.5t184.5 -97.5t118 -153t64.5 -193t18.5 -227q0 -727 -645 -727z" />
    <glyph glyph-name="omacron" unicode="&#x14d;" horiz-adv-x="1126" 
d="M563 758q-87 0 -120 -58.5t-33 -187.5t33 -187.5t120 -58.5t120.5 58.5t33.5 187.5t-33.5 187.5t-120.5 58.5zM563 -20q-274 0 -398 137.5t-124 394.5t124 394.5t398 137.5t398 -137.5t124 -394.5t-124 -394.5t-398 -137.5zM276 1393h574v-246h-574v246z" />
    <glyph glyph-name="Obreve" unicode="&#x14e;" horiz-adv-x="1372" 
d="M686 1692q134 0 178 110h137q-36 -307 -315 -307t-315 307h137q44 -110 178 -110zM686 1126q-63 0 -109 -19.5t-74 -53.5t-44.5 -88.5t-22.5 -115t-6 -142.5q0 -83 6 -145t22.5 -120t44.5 -95t74 -59t109 -22t109 22t74 59t44.5 95t22.5 120t6 145q0 82 -6 142.5
t-22.5 115t-44.5 88.5t-74 53.5t-109 19.5zM686 -20q-645 0 -645 727q0 125 18.5 227t64.5 193t118 153t184.5 97.5t259.5 35.5t259.5 -35.5t184.5 -97.5t118 -153t64.5 -193t18.5 -227q0 -727 -645 -727z" />
    <glyph glyph-name="obreve" unicode="&#x14f;" horiz-adv-x="1126" 
d="M563 758q-87 0 -120 -58.5t-33 -187.5t33 -187.5t120 -58.5t120.5 58.5t33.5 187.5t-33.5 187.5t-120.5 58.5zM563 -20q-274 0 -398 137.5t-124 394.5t124 394.5t398 137.5t398 -137.5t124 -394.5t-124 -394.5t-398 -137.5zM563 1343q133 0 178 111h138
q-36 -307 -316 -307q-279 0 -315 307h137q45 -111 178 -111z" />
    <glyph glyph-name="Ohungarumlaut" unicode="&#x150;" horiz-adv-x="1372" 
d="M801 1782l-205 -287h-184l102 287h287zM1149 1782l-205 -287h-184l102 287h287zM686 1126q-63 0 -109 -19.5t-74 -53.5t-44.5 -88.5t-22.5 -115t-6 -142.5q0 -83 6 -145t22.5 -120t44.5 -95t74 -59t109 -22t109 22t74 59t44.5 95t22.5 120t6 145q0 82 -6 142.5t-22.5 115
t-44.5 88.5t-74 53.5t-109 19.5zM686 -20q-645 0 -645 727q0 125 18.5 227t64.5 193t118 153t184.5 97.5t259.5 35.5t259.5 -35.5t184.5 -97.5t118 -153t64.5 -193t18.5 -227q0 -727 -645 -727z" />
    <glyph glyph-name="ohungarumlaut" unicode="&#x151;" horiz-adv-x="1126" 
d="M563 758q-87 0 -120 -58.5t-33 -187.5t33 -187.5t120 -58.5t120.5 58.5t33.5 187.5t-33.5 187.5t-120.5 58.5zM563 -20q-274 0 -398 137.5t-124 394.5t124 394.5t398 137.5t398 -137.5t124 -394.5t-124 -394.5t-398 -137.5zM657 1434l-204 -287h-185l103 287h286z
M1006 1434l-205 -287h-185l103 287h287z" />
    <glyph glyph-name="OE" unicode="&#x152;" horiz-adv-x="2007" 
d="M686 1126q-63 0 -109 -19.5t-74 -53.5t-44.5 -88.5t-22.5 -115t-6 -142.5q0 -83 6 -145t22.5 -120t44.5 -95t74 -59t109 -22t109 22t74 59t44.5 95t22.5 120t6 145q0 82 -6 142.5t-22.5 115t-44.5 88.5t-74 53.5t-109 19.5zM1966 0h-1083q-95 -20 -197 -20
q-147 0 -260 37.5t-185 102t-117.5 159t-64 198.5t-18.5 230q0 125 18.5 227t64.5 193t118 153t184.5 97.5t259.5 35.5q105 0 203 -20h1077v-389h-287v102h-348v-246h533v-287h-533v-286h348v102h287v-389z" />
    <glyph glyph-name="oe" unicode="&#x153;" horiz-adv-x="1763" 
d="M1718 430h-620q8 -77 66.5 -120.5t158.5 -43.5q174 0 317 41l41 -276q-178 -51 -409 -51q-234 0 -367 88q-127 -88 -342 -88q-274 0 -398 137.5t-124 394.5t124 394.5t398 137.5q213 0 342 -90q131 90 367 90q95 0 169 -16.5t124.5 -45.5t85 -73.5t52.5 -94.5t24 -115
t3.5 -128t-12.5 -141zM563 758q-87 0 -120 -58.5t-33 -187.5t33 -187.5t120 -58.5t120.5 58.5t33.5 187.5t-33.5 187.5t-120.5 58.5zM1251 778q-139 0 -153 -133h276q8 67 -17.5 100t-105.5 33z" />
    <glyph glyph-name="Racute" unicode="&#x154;" horiz-adv-x="1331" 
d="M926 1782l-205 -287h-184l102 287h287zM20 1393h717q233 0 362.5 -115.5t129.5 -335.5q0 -137 -59 -240.5t-166 -148.5l223 -266h84v-287h-594v287h43l-162 205h-106v-205h102v-287h-574v287h103v819h-103v287zM492 1106v-328h204q68 0 111 39t43 125t-43 125t-111 39
h-204z" />
    <glyph glyph-name="racute" unicode="&#x155;" horiz-adv-x="819" 
d="M20 737v287h451v-164h4q39 77 124 130.5t200 53.5v-327q-226 0 -328 -41v-389h102v-287h-553v287h103v450h-103zM592 1434l-205 -287h-184l102 287h287z" />
    <glyph glyph-name="Rcommaaccent" unicode="&#x156;" horiz-adv-x="1331" 
d="M678 -541h-103l62 205h-143v266h348v-266zM20 1393h717q233 0 362.5 -115.5t129.5 -335.5q0 -137 -59 -240.5t-166 -148.5l223 -266h84v-287h-594v287h43l-162 205h-106v-205h102v-287h-574v287h103v819h-103v287zM492 1106v-328h204q68 0 111 39t43 125t-43 125t-111 39
h-204z" />
    <glyph glyph-name="rcommaaccent" unicode="&#x157;" horiz-adv-x="819" 
d="M20 737v287h451v-164h4q39 77 124 130.5t200 53.5v-327q-226 0 -328 -41v-389h102v-287h-553v287h103v450h-103zM307 -553h-102l61 205h-143v266h348v-266z" />
    <glyph glyph-name="Rcaron" unicode="&#x158;" horiz-adv-x="1331" 
d="M498 1782l143 -99l143 99h185l-226 -287h-204l-226 287h185zM20 1393h717q233 0 362.5 -115.5t129.5 -335.5q0 -137 -59 -240.5t-166 -148.5l223 -266h84v-287h-594v287h43l-162 205h-106v-205h102v-287h-574v287h103v819h-103v287zM492 1106v-328h204q68 0 111 39
t43 125t-43 125t-111 39h-204z" />
    <glyph glyph-name="rcaron" unicode="&#x159;" horiz-adv-x="819" 
d="M20 737v287h451v-164h4q39 77 124 130.5t200 53.5v-327q-226 0 -328 -41v-389h102v-287h-553v287h103v450h-103zM287 1434l143 -99l143 99h185l-226 -287h-204l-226 287h185z" />
    <glyph glyph-name="Sacute" unicode="&#x15a;" horiz-adv-x="1187" 
d="M879 1782l-205 -287h-185l103 287h287zM41 451h287v-132q181 -32 266 -32q164 0 164 102q0 15 -4 28t-14 24t-20 20t-29 18t-34 15t-42 14.5t-46 14t-52.5 15t-55.5 15.5q-420 125 -420 451q0 107 42 187.5t117 128t168.5 70.5t204.5 23q125 0 243 -18.5t269 -63.5v-389
h-286v143q-126 21 -226 21q-64 0 -103.5 -24t-39.5 -68q0 -52 65.5 -86t211.5 -68q440 -101 440 -430q0 -116 -42.5 -203.5t-119 -140.5t-175 -79.5t-216.5 -26.5q-281 0 -553 81v390z" />
    <glyph glyph-name="sacute" unicode="&#x15b;" horiz-adv-x="983" 
d="M911 676h-286v82q-71 10 -144 10q-51 0 -76.5 -8.5t-25.5 -32.5q0 -27 82 -44q20 -4 31 -7q14 -3 44 -10q39 -9 60.5 -14t61.5 -16t63.5 -20.5t58.5 -26t56.5 -33t46 -40.5t38 -51t22.5 -62t9 -75q0 -178 -114.5 -263t-315.5 -85q-289 0 -491 51v317h286v-82
q83 -10 164 -10q123 0 123 47q0 10 -6 17t-20.5 11.5t-26 6.5t-35 5t-35.5 5q-80 13 -142 30.5t-122 46.5t-99 67.5t-63 95.5t-24 129q0 175 112 251t318 76q248 0 450 -51v-317zM786 1434l-204 -287h-185l103 287h286z" />
    <glyph glyph-name="Scircumflex" unicode="&#x15c;" horiz-adv-x="1187" 
d="M612 1593l-143 -98h-184l225 287h205l225 -287h-184zM41 451h287v-132q181 -32 266 -32q164 0 164 102q0 15 -4 28t-14 24t-20 20t-29 18t-34 15t-42 14.5t-46 14t-52.5 15t-55.5 15.5q-420 125 -420 451q0 107 42 187.5t117 128t168.5 70.5t204.5 23q125 0 243 -18.5
t269 -63.5v-389h-286v143q-126 21 -226 21q-64 0 -103.5 -24t-39.5 -68q0 -52 65.5 -86t211.5 -68q440 -101 440 -430q0 -116 -42.5 -203.5t-119 -140.5t-175 -79.5t-216.5 -26.5q-281 0 -553 81v390z" />
    <glyph glyph-name="scircumflex" unicode="&#x15d;" horiz-adv-x="983" 
d="M911 676h-286v82q-71 10 -144 10q-51 0 -76.5 -8.5t-25.5 -32.5q0 -27 82 -44q20 -4 31 -7q14 -3 44 -10q39 -9 60.5 -14t61.5 -16t63.5 -20.5t58.5 -26t56.5 -33t46 -40.5t38 -51t22.5 -62t9 -75q0 -178 -114.5 -263t-315.5 -85q-289 0 -491 51v317h286v-82
q83 -10 164 -10q123 0 123 47q0 10 -6 17t-20.5 11.5t-26 6.5t-35 5t-35.5 5q-80 13 -142 30.5t-122 46.5t-99 67.5t-63 95.5t-24 129q0 175 112 251t318 76q248 0 450 -51v-317zM504 1245l-144 -98h-184l225 287h205l225 -287h-184z" />
    <glyph glyph-name="Scedilla" unicode="&#x15e;" horiz-adv-x="1187" 
d="M504 -164v146q-236 10 -463 79v390h287v-132q181 -32 266 -32q164 0 164 102q0 15 -4 28t-14 24t-20 20t-29 18t-34 15t-42 14.5t-46 14t-52.5 15t-55.5 15.5q-420 125 -420 451q0 107 42 187.5t117 128t168.5 70.5t204.5 23q125 0 243 -18.5t269 -63.5v-389h-286v143
q-126 21 -226 21q-64 0 -103.5 -24t-39.5 -68q0 -52 65.5 -86t211.5 -68q440 -101 440 -430q0 -112 -40 -198t-111.5 -139t-164 -81t-204.5 -32v-82q170 -28 170 -152q0 -77 -58 -121.5t-161 -44.5q-93 0 -179 25l19 106q44 -8 88 -8q37 0 58.5 15.5t21.5 45.5q0 48 -82 72z
" />
    <glyph glyph-name="scedilla" unicode="&#x15f;" horiz-adv-x="983" 
d="M418 -164v146q-233 10 -387 49v317h286v-82q83 -10 164 -10q123 0 123 47q0 10 -6 17t-20.5 11.5t-26 6.5t-35 5t-35.5 5q-80 13 -142 30.5t-122 46.5t-99 67.5t-63 95.5t-24 129q0 175 112 251t318 76q248 0 450 -51v-317h-286v82q-71 10 -144 10q-51 0 -76.5 -8.5
t-25.5 -32.5q0 -27 82 -44q20 -4 31 -7q14 -3 44 -10q39 -9 60.5 -14t61.5 -16t63.5 -20.5t58.5 -26t56.5 -33t46 -40.5t38 -51t22.5 -62t9 -75q0 -173 -109 -258t-302 -90v-82q170 -28 170 -152q0 -77 -58 -121.5t-161 -44.5q-93 0 -179 25l19 106q44 -8 88 -8
q37 0 58.5 15.5t21.5 45.5q0 48 -82 72z" />
    <glyph glyph-name="Scaron" unicode="&#x160;" horiz-adv-x="1187" 
d="M451 1782l143 -99l143 99h185l-226 -287h-204l-226 287h185zM41 451h287v-132q181 -32 266 -32q164 0 164 102q0 15 -4 28t-14 24t-20 20t-29 18t-34 15t-42 14.5t-46 14t-52.5 15t-55.5 15.5q-420 125 -420 451q0 107 42 187.5t117 128t168.5 70.5t204.5 23
q125 0 243 -18.5t269 -63.5v-389h-286v143q-126 21 -226 21q-64 0 -103.5 -24t-39.5 -68q0 -52 65.5 -86t211.5 -68q440 -101 440 -430q0 -116 -42.5 -203.5t-119 -140.5t-175 -79.5t-216.5 -26.5q-281 0 -553 81v390z" />
    <glyph glyph-name="scaron" unicode="&#x161;" horiz-adv-x="983" 
d="M911 676h-286v82q-71 10 -144 10q-51 0 -76.5 -8.5t-25.5 -32.5q0 -27 82 -44q20 -4 31 -7q14 -3 44 -10q39 -9 60.5 -14t61.5 -16t63.5 -20.5t58.5 -26t56.5 -33t46 -40.5t38 -51t22.5 -62t9 -75q0 -178 -114.5 -263t-315.5 -85q-289 0 -491 51v317h286v-82
q83 -10 164 -10q123 0 123 47q0 10 -6 17t-20.5 11.5t-26 6.5t-35 5t-35.5 5q-80 13 -142 30.5t-122 46.5t-99 67.5t-63 95.5t-24 129q0 175 112 251t318 76q248 0 450 -51v-317zM367 1434l143 -99l143 99h185l-226 -287h-204l-226 287h185z" />
    <glyph glyph-name="Tcommaaccent" unicode="&#x162;" horiz-adv-x="1187" 
d="M604 -553h-102l61 205h-143v266h348v-266zM20 1393h1147v-389h-286v102h-103v-819h103v-287h-574v287h103v819h-103v-102h-287v389z" />
    <glyph glyph-name="tcommaaccent" unicode="&#x163;" horiz-adv-x="768" 
d="M143 289v489h-123v226l123 20l41 287h308v-287h225v-246h-225v-428q0 -94 122 -94q30 0 82 10l31 -266q-102 -20 -235 -20q-187 0 -268 76t-81 233zM426 -553h-102l61 205h-143v266h348v-266z" />
    <glyph glyph-name="Tcaron" unicode="&#x164;" horiz-adv-x="1187" 
d="M455 1782l143 -99l143 99h185l-226 -287h-204l-226 287h185zM20 1393h1147v-389h-286v102h-103v-819h103v-287h-574v287h103v819h-103v-102h-287v389z" />
    <glyph glyph-name="tcaron" unicode="&#x165;" horiz-adv-x="768" 
d="M143 289v489h-123v226l123 20l41 287h308v-287h225v-246h-225v-428q0 -94 122 -94q30 0 82 10l31 -266q-102 -20 -235 -20q-187 0 -268 76t-81 233zM676 1188h-103l62 205h-143v266h348v-266z" />
    <glyph glyph-name="Tbar" unicode="&#x166;" horiz-adv-x="1187" 
d="M20 1393h1147v-389h-286v102h-103v-369h144v-205h-144v-245h103v-287h-574v287h103v245h-144v205h144v369h-103v-102h-287v389z" />
    <glyph glyph-name="tbar" unicode="&#x167;" horiz-adv-x="768" 
d="M143 451h-123v204h123v123h-123v226l123 20l41 287h308v-287h225v-246h-225v-123h204v-204h-204v-101q0 -94 122 -94q30 0 82 10l31 -266q-102 -20 -235 -20q-187 0 -268 76t-81 233v162z" />
    <glyph glyph-name="Utilde" unicode="&#x168;" horiz-adv-x="1392" 
d="M573 1546q-63 0 -127 -71l-106 81q43 115 104 170.5t121 55.5q55 0 148.5 -36t124.5 -36h12h13t12.5 0.5t14 2t13.5 4t15.5 6.5t15.5 9.5t18 13t19 17.5l86 -104q-70 -147 -174 -172q-14 -4 -45 -4q-39 0 -132.5 31.5t-132.5 31.5zM799 1393h573v-287h-102v-614
q0 -135 -43 -235t-121.5 -160t-180.5 -88.5t-229 -28.5t-228.5 28.5t-180 88.5t-121.5 160t-43 235v614h-103v287h574v-287h-102v-614q0 -226 204 -226q205 0 205 226v614h-102v287z" />
    <glyph glyph-name="utilde" unicode="&#x169;" horiz-adv-x="1208" 
d="M20 737v287h451v-614q0 -73 33 -108.5t90 -35.5q59 0 143 41v430h-102v287h450v-737h103v-287h-451v123h-4q-121 -143 -303 -143q-149 0 -228 94.5t-79 253.5v409h-103zM475 1198q-63 0 -127 -72l-106 82q43 115 104 170.5t121 55.5q55 0 148 -36t124 -36h12h13t12.5 0.5
t14 2t13.5 4t15.5 6.5t15.5 9.5t18 13t19 17.5l86 -104q-70 -147 -174 -172q-14 -4 -45 -4q-39 0 -132 31.5t-132 31.5z" />
    <glyph glyph-name="Umacron" unicode="&#x16a;" horiz-adv-x="1392" 
d="M410 1741h573v-246h-573v246zM799 1393h573v-287h-102v-614q0 -135 -43 -235t-121.5 -160t-180.5 -88.5t-229 -28.5t-228.5 28.5t-180 88.5t-121.5 160t-43 235v614h-103v287h574v-287h-102v-614q0 -226 204 -226q205 0 205 226v614h-102v287z" />
    <glyph glyph-name="umacron" unicode="&#x16b;" horiz-adv-x="1208" 
d="M20 737v287h451v-614q0 -73 33 -108.5t90 -35.5q59 0 143 41v430h-102v287h450v-737h103v-287h-451v123h-4q-121 -143 -303 -143q-149 0 -228 94.5t-79 253.5v409h-103zM297 1393h573v-246h-573v246z" />
    <glyph glyph-name="Ubreve" unicode="&#x16c;" horiz-adv-x="1392" 
d="M698 1692q60 0 108 26t71 84h137q-36 -307 -316 -307q-279 0 -315 307h137q44 -110 178 -110zM799 1393h573v-287h-102v-614q0 -135 -43 -235t-121.5 -160t-180.5 -88.5t-229 -28.5t-228.5 28.5t-180 88.5t-121.5 160t-43 235v614h-103v287h574v-287h-102v-614
q0 -226 204 -226q205 0 205 226v614h-102v287z" />
    <glyph glyph-name="ubreve" unicode="&#x16d;" horiz-adv-x="1208" 
d="M20 737v287h451v-614q0 -73 33 -108.5t90 -35.5q59 0 143 41v430h-102v287h450v-737h103v-287h-451v123h-4q-121 -143 -303 -143q-149 0 -228 94.5t-79 253.5v409h-103zM600 1343q133 0 178 111h137q-36 -307 -315 -307t-315 307h137q45 -111 178 -111z" />
    <glyph glyph-name="Uring" unicode="&#x16e;" horiz-adv-x="1392" 
d="M496 1679q0 85 59.5 145t144.5 60t145 -60t60 -145t-60 -144.5t-145 -59.5t-144.5 59.5t-59.5 144.5zM621 1679q0 -34 22.5 -57t56.5 -23t57 23t23 57t-23 57t-57 23t-56.5 -23t-22.5 -57zM799 1393h573v-287h-102v-614q0 -135 -43 -235t-121.5 -160t-180.5 -88.5
t-229 -28.5t-228.5 28.5t-180 88.5t-121.5 160t-43 235v614h-103v287h574v-287h-102v-614q0 -226 204 -226q205 0 205 226v614h-102v287z" />
    <glyph glyph-name="uring" unicode="&#x16f;" horiz-adv-x="1208" 
d="M20 737v287h451v-614q0 -73 33 -108.5t90 -35.5q59 0 143 41v430h-102v287h450v-737h103v-287h-451v123h-4q-121 -143 -303 -143q-149 0 -228 94.5t-79 253.5v409h-103zM399 1331q0 85 60 145t145 60t145 -60t60 -145t-60 -145t-145 -60t-145 60t-60 145zM524 1331
q0 -34 23 -57t57 -23t57 23t23 57t-23 57t-57 23t-57 -23t-23 -57z" />
    <glyph glyph-name="Uhungarumlaut" unicode="&#x170;" horiz-adv-x="1392" 
d="M805 1782l-205 -287h-184l102 287h287zM1153 1782l-205 -287h-184l102 287h287zM799 1393h573v-287h-102v-614q0 -135 -43 -235t-121.5 -160t-180.5 -88.5t-229 -28.5t-228.5 28.5t-180 88.5t-121.5 160t-43 235v614h-103v287h574v-287h-102v-614q0 -226 204 -226
q205 0 205 226v614h-102v287z" />
    <glyph glyph-name="uhungarumlaut" unicode="&#x171;" horiz-adv-x="1208" 
d="M20 737v287h451v-614q0 -73 33 -108.5t90 -35.5q59 0 143 41v430h-102v287h450v-737h103v-287h-451v123h-4q-121 -143 -303 -143q-149 0 -228 94.5t-79 253.5v409h-103zM721 1434l-205 -287h-184l102 287h287zM1069 1434l-205 -287h-184l102 287h287z" />
    <glyph glyph-name="Uogonek" unicode="&#x172;" horiz-adv-x="1392" 
d="M799 1393h573v-287h-102v-614q0 -101 -25 -183t-69.5 -140t-108.5 -98.5t-140.5 -61.5t-166.5 -27q-86 -80 -86 -168q0 -52 32.5 -80.5t90.5 -28.5q35 0 73 14l11 -79q-34 -27 -93.5 -43.5t-111.5 -16.5q-105 0 -169.5 49t-64.5 123q0 130 152 234q-106 10 -190.5 44.5
t-148 94.5t-98 153t-34.5 214v614h-103v287h574v-287h-102v-614q0 -226 204 -226q205 0 205 226v614h-102v287z" />
    <glyph glyph-name="uogonek" unicode="&#x173;" horiz-adv-x="1208" 
d="M1085 287h103v-287h-287q-108 -89 -108 -186q0 -52 32.5 -80.5t89.5 -28.5q36 0 74 14l10 -79q-34 -27 -93 -43.5t-111 -16.5q-105 0 -169.5 49t-64.5 123q0 142 176 248v123h-4q-121 -143 -303 -143q-149 0 -228 94.5t-79 253.5v409h-103v287h451v-614q0 -73 33 -108.5
t90 -35.5q59 0 143 41v430h-102v287h450v-737z" />
    <glyph glyph-name="Wcircumflex" unicode="&#x174;" horiz-adv-x="2007" 
d="M1001 1593l-143 -98h-184l225 287h205l225 -287h-184zM20 1393h615v-287h-105l123 -676h2l185 963h389l203 -963h2l106 676h-106v287h553v-287h-89l-249 -1116h-492l-151 727h-5l-131 -727h-491l-266 1116h-93v287z" />
    <glyph glyph-name="wcircumflex" unicode="&#x175;" horiz-adv-x="1658" 
d="M1149 737v287h485v-287h-71l-220 -747h-374l-142 442h-4l-116 -442h-373l-246 747h-68v287h545v-287h-102l92 -362h4l154 649h286l166 -670h4l56 383h-76zM850 1245l-143 -98h-185l226 287h204l226 -287h-185z" />
    <glyph glyph-name="Ycircumflex" unicode="&#x176;" horiz-adv-x="1351" 
d="M709 1593l-144 -98h-184l225 287h205l225 -287h-184zM860 287h103v-287h-574v287h103v123l-347 696h-125v287h635v-287h-118l168 -358h4l165 358h-116v287h573v-287h-106l-365 -696v-123z" />
    <glyph glyph-name="ycircumflex" unicode="&#x177;" horiz-adv-x="1187" 
d="M678 737v287h485v-287h-63l-316 -737q-30 -71 -63 -129.5t-78 -116t-95.5 -97t-116 -63.5t-138.5 -24q-111 0 -209 20l29 277q52 -10 102 -10q151 0 188 123l-307 757h-76v287h545v-287h-84l146 -424h4l125 424h-78zM625 1245l-144 -98h-184l225 287h205l225 -287h-184z
" />
    <glyph glyph-name="Ydieresis" unicode="&#x178;" horiz-adv-x="1351" 
d="M317 1782h308v-287h-308v287zM788 1782h308v-287h-308v287zM860 287h103v-287h-574v287h103v123l-347 696h-125v287h635v-287h-118l168 -358h4l165 358h-116v287h573v-287h-106l-365 -696v-123z" />
    <glyph glyph-name="Zacute" unicode="&#x179;" horiz-adv-x="1146" 
d="M860 1782l-205 -287h-184l102 287h287zM82 1393h1003v-267l-593 -835v-4h327v102h287v-389h-1065v266l604 836v4h-276v-102h-287v389z" />
    <glyph glyph-name="zacute" unicode="&#x17a;" horiz-adv-x="962" 
d="M41 1024h870v-266l-460 -488v-4h204v82h287v-348h-922v266l472 488v4h-164v-82h-287v348zM760 1434l-205 -287h-184l102 287h287z" />
    <glyph glyph-name="Zdotaccent" unicode="&#x17b;" horiz-adv-x="1146" 
d="M416 1782h307v-287h-307v287zM82 1393h1003v-267l-593 -835v-4h327v102h287v-389h-1065v266l604 836v4h-276v-102h-287v389z" />
    <glyph glyph-name="zdotaccent" unicode="&#x17c;" horiz-adv-x="962" 
d="M41 1024h870v-266l-460 -488v-4h204v82h287v-348h-922v266l472 488v4h-164v-82h-287v348zM342 1434h307v-287h-307v287z" />
    <glyph glyph-name="Zcaron" unicode="&#x17d;" horiz-adv-x="1146" 
d="M449 1782l143 -99l143 99h185l-226 -287h-205l-225 287h185zM82 1393h1003v-267l-593 -835v-4h327v102h287v-389h-1065v266l604 836v4h-276v-102h-287v389z" />
    <glyph glyph-name="zcaron" unicode="&#x17e;" horiz-adv-x="962" 
d="M41 1024h870v-266l-460 -488v-4h204v82h287v-348h-922v266l472 488v4h-164v-82h-287v348zM373 1434l143 -99l143 99h185l-226 -287h-204l-226 287h185z" />
    <glyph glyph-name="longs" unicode="&#x17f;" horiz-adv-x="686" 
d="M143 -59v1183q0 157 81 233.5t268 76.5q87 0 194 -21l-31 -266q-52 10 -82 10q-44 0 -62.5 -23t-18.5 -71v-1124q0 -66 -8.5 -117.5t-32 -100.5t-61.5 -81t-100.5 -51t-146.5 -19q-92 0 -194 20l31 267q57 -11 81 -11q44 0 63 23.5t19 71.5z" />
    <glyph glyph-name="florin" unicode="&#x192;" horiz-adv-x="942" 
d="M297 -59v837h-123v226l123 20v100q0 157 80.5 233.5t267.5 76.5q88 0 195 -21l-31 -266q-52 10 -82 10q-44 0 -63 -23t-19 -71v-39h184v-246h-184v-839q0 -54 -6 -98.5t-20.5 -88t-40.5 -75.5t-63.5 -56.5t-92.5 -37.5t-125 -13q-93 0 -195 20l31 267q57 -11 82 -11
q44 0 63 23.5t19 71.5z" />
    <glyph glyph-name="AEacute" unicode="&#x1fc;" horiz-adv-x="1875" 
d="M1329 1782l-205 -287h-184l102 287h287zM518 1106h-129v287h1446v-389h-287v102h-348v-246h533v-287h-533v-286h348v102h287v-389h-1004v276h-337q-39 -104 -72 -184l-35 -92h-367v287h130zM827 1063l-211 -500h215v500h-4z" />
    <glyph glyph-name="aeacute" unicode="&#x1fd;" horiz-adv-x="1669" 
d="M1192 1434l-205 -287h-184l102 287h287zM461 758q-24 0 -82 -4v-78h-287v317q260 51 426 51q113 0 190.5 -13.5t147.5 -49.5q123 63 322 63q95 0 169 -16.5t124.5 -45.5t85 -73.5t52.5 -94.5t24 -115t3.5 -128t-12.5 -141h-620q8 -77 66.5 -120.5t158.5 -43.5
q174 0 317 41l41 -276q-178 -51 -409 -51q-177 0 -289.5 47t-177.5 141q-96 -111 -183 -149.5t-190 -38.5q-99 0 -170 46t-104 119t-33 162q0 64 20 117t55.5 87.5t78 59.5t92.5 38.5t94.5 19.5t89.5 6h164v20q0 67 -34.5 85t-129.5 18zM481 246q38 0 79.5 12t64.5 29v143
h-144q-102 0 -102 -92q0 -49 31.5 -70.5t70.5 -21.5zM1157 778q-139 0 -153 -133h276q8 67 -17.5 100t-105.5 33z" />
    <glyph glyph-name="Oslashacute" unicode="&#x1fe;" horiz-adv-x="1372" 
d="M977 1782l-205 -287h-184l102 287h287zM686 -20q-253 0 -407 110l-136 -172l-102 82l143 180q-143 179 -143 527q0 125 18.5 227t64.5 193t118 153t184.5 97.5t259.5 35.5q241 0 395 -98l146 184l102 -82l-149 -188q151 -170 151 -522q0 -727 -645 -727zM686 287
q63 0 109 20t74 53.5t44.5 88.5t22.5 115.5t6 142.5q0 126 -16 202l-428 -542q59 -80 188 -80zM686 1106q-64 0 -109.5 -17.5t-73.5 -48.5t-44.5 -82.5t-22.5 -110t-6 -140.5q0 -131 12 -199l424 534q-61 64 -180 64z" />
    <glyph glyph-name="oslashacute" unicode="&#x1ff;" horiz-adv-x="1126" 
d="M862 1434l-205 -287h-184l102 287h287zM563 -20q-187 0 -309 67l-111 -129l-102 82l111 131q-111 131 -111 381q0 257 124 394.5t398 137.5q189 0 309 -69l111 131l102 -82l-112 -131q112 -132 112 -381q0 -257 -124 -394.5t-398 -137.5zM563 266q87 0 120.5 58.5
t33.5 187.5q0 30 -4 76l-248 -293q36 -29 98 -29zM563 758q-87 0 -120 -58.5t-33 -187.5q0 -53 2 -76l247 291q-36 31 -96 31z" />
    <glyph glyph-name="Scommaaccent" unicode="&#x218;" horiz-adv-x="1187" 
d="M606 -553h-102l61 205h-143v266h348v-266zM41 451h287v-132q181 -32 266 -32q164 0 164 102q0 15 -4 28t-14 24t-20 20t-29 18t-34 15t-42 14.5t-46 14t-52.5 15t-55.5 15.5q-420 125 -420 451q0 107 42 187.5t117 128t168.5 70.5t204.5 23q125 0 243 -18.5t269 -63.5
v-389h-286v143q-126 21 -226 21q-64 0 -103.5 -24t-39.5 -68q0 -52 65.5 -86t211.5 -68q440 -101 440 -430q0 -116 -42.5 -203.5t-119 -140.5t-175 -79.5t-216.5 -26.5q-281 0 -553 81v390z" />
    <glyph glyph-name="scommaaccent" unicode="&#x219;" horiz-adv-x="983" 
d="M911 676h-286v82q-71 10 -144 10q-51 0 -76.5 -8.5t-25.5 -32.5q0 -27 82 -44q20 -4 31 -7q14 -3 44 -10q39 -9 60.5 -14t61.5 -16t63.5 -20.5t58.5 -26t56.5 -33t46 -40.5t38 -51t22.5 -62t9 -75q0 -178 -114.5 -263t-315.5 -85q-289 0 -491 51v317h286v-82
q83 -10 164 -10q123 0 123 47q0 10 -6 17t-20.5 11.5t-26 6.5t-35 5t-35.5 5q-80 13 -142 30.5t-122 46.5t-99 67.5t-63 95.5t-24 129q0 175 112 251t318 76q248 0 450 -51v-317zM510 -553h-102l61 205h-143v266h348v-266z" />
    <glyph glyph-name="uni021A" unicode="&#x21a;" horiz-adv-x="1187" 
d="M602 -547h-102l61 205h-143v266h348v-266zM20 1393h1147v-389h-286v102h-103v-819h103v-287h-574v287h103v819h-103v-102h-287v389z" />
    <glyph glyph-name="uni021B" unicode="&#x21b;" horiz-adv-x="768" 
d="M143 289v489h-123v226l123 20l41 287h308v-287h225v-246h-225v-428q0 -94 122 -94q30 0 82 10l31 -266q-102 -20 -235 -20q-187 0 -268 76t-81 233zM449 -557h-103l62 205h-144v266h348v-266z" />
    <glyph glyph-name="circumflex" unicode="&#x2c6;" horiz-adv-x="860" 
d="M430 1245l-143 -98h-185l226 287h204l226 -287h-185z" />
    <glyph glyph-name="caron" unicode="&#x2c7;" horiz-adv-x="860" 
d="M287 1434l143 -99l143 99h185l-226 -287h-204l-226 287h185z" />
    <glyph glyph-name="uni02C9" unicode="&#x2c9;" horiz-adv-x="901" 
d="M102 1393h697v-246h-697v246z" />
    <glyph glyph-name="breve" unicode="&#x2d8;" horiz-adv-x="835" 
d="M418 1343q133 0 178 111h137q-36 -307 -315 -307q-280 0 -316 307h138q45 -111 178 -111z" />
    <glyph glyph-name="dotaccent" unicode="&#x2d9;" horiz-adv-x="512" 
d="M102 1434h308v-287h-308v287z" />
    <glyph glyph-name="ring" unicode="&#x2da;" horiz-adv-x="614" 
d="M102 1331q0 85 60 145t145 60t145 -60t60 -145t-60 -145t-145 -60t-145 60t-60 145zM227 1331q0 -34 23 -57t57 -23t57 23t23 57t-23 57t-57 23t-57 -23t-23 -57z" />
    <glyph glyph-name="ogonek" unicode="&#x2db;" horiz-adv-x="643" 
d="M530 -281l11 -79q-34 -27 -93.5 -43.5t-111.5 -16.5q-105 0 -169.5 49t-64.5 123q0 141 177 248h163q-108 -89 -108 -186q0 -52 32.5 -80.5t90.5 -28.5q35 0 73 14z" />
    <glyph glyph-name="tilde" unicode="&#x2dc;" horiz-adv-x="921" 
d="M336 1198q-63 0 -127 -72l-107 82q43 115 104.5 170.5t121.5 55.5q55 0 148 -36t124 -36h12h13t12.5 0.5t14 2t13.5 4t15.5 6.5t15.5 9.5t18 13t19 17.5l86 -104q-70 -147 -174 -172q-14 -4 -45 -4q-39 0 -132 31.5t-132 31.5z" />
    <glyph glyph-name="hungarumlaut" unicode="&#x2dd;" horiz-adv-x="942" 
d="M492 1434l-205 -287h-185l103 287h287zM840 1434l-205 -287h-184l102 287h287z" />
    <glyph glyph-name="uni037E" unicode="&#x37e;" horiz-adv-x="471" 
d="M61 676h349v-328h-349v328z" />
    <glyph glyph-name="tonos" unicode="&#x384;" horiz-adv-x="593" 
d="M492 1393l-205 -287h-185l103 287h287z" />
    <glyph glyph-name="dieresistonos" unicode="&#x385;" horiz-adv-x="1290" 
d="M860 1495l-225 -348h-184l102 348h307zM102 1434h308v-287h-308v287zM881 1434h307v-287h-307v287z" />
    <glyph glyph-name="anoteleia" unicode="&#x387;" horiz-adv-x="983" 
d="M102 1434h308v-287h-308v287zM573 1434h308v-287h-308v287z" />
    <glyph glyph-name="uni03BC" unicode="&#x3bc;" horiz-adv-x="1208" 
d="M20 737v287h451v-614q0 -73 33 -108.5t90 -35.5q59 0 143 41v430h-102v287h450v-737h103v-287h-451v123h-4q-49 -57 -119 -98q-63 -37 -143 -43v-43q0 -54 -6 -98.5t-20.5 -88t-40.5 -75.5t-63.5 -56.5t-92.5 -37.5t-125 -13q-41 0 -64 2q-74 7 -131 18l31 267
q57 -11 82 -11q44 0 63 23.5t19 71.5v796h-103z" />
    <glyph glyph-name="pi" unicode="&#x3c0;" horiz-adv-x="1208" 
d="M655 287h82v450h-266v-450h82v-287h-533v287h103v450h-103v287h1168v-287h-103v-450h103v-287h-533v287z" />
    <glyph glyph-name="uni03C2" unicode="&#x3c2;" horiz-adv-x="1050" 
d="M205 510q0 138 98 233l-160 185l17 16l162 -184q90 74 204 74q113 0 203 -74l160 184l18 -16l-159 -183q102 -96 102 -235q0 -68 -26.5 -129t-73.5 -105l155 -176l-18 -18l-158 178q-88 -72 -203 -72q-116 0 -204 72l-156 -178l-19 18l156 176q-98 95 -98 234zM229 510
q0 -122 87.5 -209.5t209.5 -87.5t210.5 88t88.5 209q0 122 -88.5 210.5t-210.5 88.5q-121 0 -209 -88.5t-88 -210.5z" />
    <glyph glyph-name="sigma" unicode="&#x3c3;" horiz-adv-x="1050" 
d="M205 510q0 138 98 233l-160 185l17 16l162 -184q90 74 204 74q113 0 203 -74l160 184l18 -16l-159 -183q102 -96 102 -235q0 -68 -26.5 -129t-73.5 -105l155 -176l-18 -18l-158 178q-88 -72 -203 -72q-116 0 -204 72l-156 -178l-19 18l156 176q-98 95 -98 234zM229 510
q0 -122 87.5 -209.5t209.5 -87.5t210.5 88t88.5 209q0 122 -88.5 210.5t-210.5 88.5q-121 0 -209 -88.5t-88 -210.5z" />
    <glyph glyph-name="Wgrave" unicode="&#x1e80;" horiz-adv-x="2007" 
d="M944 1495l-205 287h287l102 -287h-184zM20 1393h615v-287h-105l123 -676h2l185 963h389l203 -963h2l106 676h-106v287h553v-287h-89l-249 -1116h-492l-151 727h-5l-131 -727h-491l-266 1116h-93v287z" />
    <glyph glyph-name="wgrave" unicode="&#x1e81;" horiz-adv-x="1658" 
d="M1149 737v287h485v-287h-71l-220 -747h-374l-142 442h-4l-116 -442h-373l-246 747h-68v287h545v-287h-102l92 -362h4l154 649h286l166 -670h4l56 383h-76zM750 1147l-205 287h286l103 -287h-184z" />
    <glyph glyph-name="Wacute" unicode="&#x1e82;" horiz-adv-x="2007" 
d="M1311 1782l-205 -287h-184l102 287h287zM20 1393h615v-287h-105l123 -676h2l185 963h389l203 -963h2l106 676h-106v287h553v-287h-89l-249 -1116h-492l-151 727h-5l-131 -727h-491l-266 1116h-93v287z" />
    <glyph glyph-name="wacute" unicode="&#x1e83;" horiz-adv-x="1658" 
d="M1149 737v287h485v-287h-71l-220 -747h-374l-142 442h-4l-116 -442h-373l-246 747h-68v287h545v-287h-102l92 -362h4l154 649h286l166 -670h4l56 383h-76zM1155 1430l-205 -287h-184l102 287h287z" />
    <glyph glyph-name="Wdieresis" unicode="&#x1e84;" horiz-adv-x="2007" 
d="M643 1782h307v-287h-307v287zM1114 1782h307v-287h-307v287zM20 1393h615v-287h-105l123 -676h2l185 963h389l203 -963h2l106 676h-106v287h553v-287h-89l-249 -1116h-492l-151 727h-5l-131 -727h-491l-266 1116h-93v287z" />
    <glyph glyph-name="wdieresis" unicode="&#x1e85;" horiz-adv-x="1658" 
d="M1149 737v287h485v-287h-71l-220 -747h-374l-142 442h-4l-116 -442h-373l-246 747h-68v287h545v-287h-102l92 -362h4l154 649h286l166 -670h4l56 383h-76zM461 1434h307v-287h-307v287zM932 1434h307v-287h-307v287z" />
    <glyph glyph-name="Ygrave" unicode="&#x1ef2;" horiz-adv-x="1351" 
d="M621 1495l-205 287h286l103 -287h-184zM860 287h103v-287h-574v287h103v123l-347 696h-125v287h635v-287h-118l168 -358h4l165 358h-116v287h573v-287h-106l-365 -696v-123z" />
    <glyph glyph-name="ygrave" unicode="&#x1ef3;" horiz-adv-x="1187" 
d="M678 737v287h485v-287h-63l-316 -737q-30 -71 -63 -129.5t-78 -116t-95.5 -97t-116 -63.5t-138.5 -24q-111 0 -209 20l29 277q52 -10 102 -10q151 0 188 123l-307 757h-76v287h545v-287h-84l146 -424h4l125 424h-78zM520 1147l-205 287h287l103 -287h-185z" />
    <glyph glyph-name="figuredash" unicode="&#x2012;" 
d="M61 686h1106v-287h-1106v287z" />
    <glyph glyph-name="endash" unicode="&#x2013;" 
d="M61 686h1106v-287h-1106v287z" />
    <glyph glyph-name="emdash" unicode="&#x2014;" horiz-adv-x="1433" 
d="M61 686h1311v-287h-1311v287z" />
    <glyph glyph-name="quoteleft" unicode="&#x2018;" horiz-adv-x="471" 
d="M225 1393h103l-62 -267h144v-327h-349v327z" />
    <glyph glyph-name="quoteright" unicode="&#x2019;" horiz-adv-x="471" 
d="M246 799h-103l62 266h-144v328h349v-328z" />
    <glyph glyph-name="quotesinglbase" unicode="&#x201a;" horiz-adv-x="471" 
d="M246 -266h-103l62 266h-144v328h349v-328z" />
    <glyph glyph-name="quotedblleft" unicode="&#x201c;" horiz-adv-x="921" 
d="M676 1393h102l-61 -267h143v-327h-348v327zM225 1393h103l-62 -267h144v-327h-349v327z" />
    <glyph glyph-name="quotedblright" unicode="&#x201d;" horiz-adv-x="921" 
d="M246 799h-103l62 266h-144v328h349v-328zM696 799h-102l61 266h-143v328h348v-328z" />
    <glyph glyph-name="quotedblbase" unicode="&#x201e;" horiz-adv-x="921" 
d="M246 -266h-103l62 266h-144v328h349v-328zM696 -266h-102l61 266h-143v328h348v-328z" />
    <glyph glyph-name="dagger" unicode="&#x2020;" horiz-adv-x="1187" 
d="M1126 696l-368 21l20 -717h-368l20 717l-369 -21v328l369 -20l-20 430h368l-20 -430l368 20v-328z" />
    <glyph glyph-name="daggerdbl" unicode="&#x2021;" horiz-adv-x="1187" 
d="M430 614v205l-369 -20v327l369 -20l-20 328h368l-20 -328l368 20v-327l-368 20v-205l368 21v-328l-368 21l20 -328h-368l20 328l-369 -21v328z" />
    <glyph glyph-name="bullet" unicode="&#x2022;" horiz-adv-x="471" 
d="M61 676h349v-328h-349v328z" />
    <glyph glyph-name="onedotenleader" unicode="&#x2024;" horiz-adv-x="471" 
d="M61 328h349v-328h-349v328z" />
    <glyph glyph-name="twodotenleader" unicode="&#x2025;" horiz-adv-x="880" 
d="M61 328h349v-328h-349v328zM471 328h348v-328h-348v328z" />
    <glyph glyph-name="ellipsis" unicode="&#x2026;" horiz-adv-x="1372" 
d="M102 328h349v-328h-349v328zM512 328h348v-328h-348v328zM922 328h348v-328h-348v328z" />
    <glyph glyph-name="perthousand" unicode="&#x2030;" horiz-adv-x="2273" 
d="M1270 1393l-758 -1393h-225l757 1393h226zM369 782q-149 0 -228.5 84t-79.5 232t79.5 231.5t228.5 83.5t228 -83.5t79 -231.5t-79 -232t-228 -84zM369 954q92 0 92 144q0 143 -92 143q-93 0 -93 -143q0 -144 93 -144zM1188 -20q-149 0 -228 83.5t-79 231.5t79 231.5
t228 83.5t228 -83.5t79 -231.5t-79 -231.5t-228 -83.5zM1188 152q92 0 92 143t-92 143t-92 -143t92 -143zM1905 -20q-149 0 -228.5 83.5t-79.5 231.5t79.5 231.5t228.5 83.5t228 -83.5t79 -231.5t-79 -231.5t-228 -83.5zM1905 152q92 0 92 143t-92 143q-93 0 -93 -143
t93 -143z" />
    <glyph glyph-name="guilsinglleft" unicode="&#x2039;" horiz-adv-x="778" 
d="M61 614l656 430v-368l-287 -164l287 -164v-368l-656 430v204z" />
    <glyph glyph-name="guilsinglright" unicode="&#x203a;" horiz-adv-x="778" 
d="M61 1044l656 -430v-204l-656 -430v368l287 164l-287 164v368z" />
    <glyph glyph-name="exclamdbl" unicode="&#x203c;" horiz-adv-x="880" 
d="M61 328h349v-328h-349v328zM61 1434h349l-21 -983h-307zM471 328h348v-328h-348v328zM471 1434h348l-20 -983h-307z" />
    <glyph glyph-name="fraction" unicode="&#x2044;" horiz-adv-x="1105" 
d="M1085 1393l-757 -1393h-308l758 1393h307z" />
    <glyph glyph-name="zerosuperior" unicode="&#x2070;" horiz-adv-x="587" 
d="M295 1663q-84 0 -84 -203q0 -215 84 -215q82 0 82 215q0 203 -82 203zM295 1096q-81 0 -136.5 27.5t-85 80t-41.5 114t-12 142.5q0 80 12 140t41.5 110t85 76t136.5 26q80 0 135 -26t84 -76t41 -110t12 -140q0 -81 -12 -142.5t-41 -114t-84 -80t-135 -27.5z" />
    <glyph glyph-name="foursuperior" unicode="&#x2074;" horiz-adv-x="608" 
d="M205 1438h121v178h-2q-60 -102 -119 -178zM326 1255v33h-306v150q61 66 82 90t62.5 75.5t68 98.5t52.5 106h223v-370h80v-150h-80v-33h49v-149h-281v149h50z" />
    <glyph glyph-name="fivesuperior" unicode="&#x2075;" horiz-adv-x="557" 
d="M516 1802v-198h-147v38h-172l-4 -96h2q52 27 122 27q101 0 160.5 -59t59.5 -173q0 -121 -72.5 -183t-206.5 -62q-121 0 -238 51v145h150v-43q50 -4 78 -4q51 0 74.5 25t23.5 61q0 35 -22 61.5t-72 26.5q-49 0 -94 -26l-127 10l10 399h475z" />
    <glyph glyph-name="sixsuperior" unicode="&#x2076;" horiz-adv-x="567" 
d="M201 1522l2 -2q50 53 129 53q99 0 157 -64t58 -178q0 -109 -69.5 -172t-184.5 -63q-132 0 -202.5 91.5t-70.5 225.5q0 399 320 399q94 0 186 -30v-178h-149v61q-6 -2 -23 -2q-155 0 -153 -141zM217 1391q-4 -36 -2.5 -68.5t19 -55t49.5 -22.5t52.5 22.5t20.5 63.5
q0 35 -17 59.5t-56 24.5q-32 0 -66 -24z" />
    <glyph glyph-name="sevensuperior" unicode="&#x2077;" horiz-adv-x="526" 
d="M20 1802h486v-127q-45 -82 -67.5 -127t-54.5 -120t-53 -152.5t-36 -169.5h-203q24 132 81 274t136 260v2h-141v-38h-148v198z" />
    <glyph glyph-name="eightsuperior" unicode="&#x2078;" horiz-adv-x="587" 
d="M451 1475v-2q116 -66 116 -170q0 -55 -23.5 -96t-64 -64.5t-88 -35t-102.5 -11.5q-71 0 -128.5 16t-99 59.5t-41.5 110.5q0 114 115 164v2q-94 60 -94 168q0 65 39.5 111t96 65.5t122.5 19.5q61 0 115.5 -19t93.5 -63t39 -104q0 -95 -96 -151zM207 1303q0 -30 23.5 -52
t70.5 -22q40 0 60 16t20 41q0 16 -6.5 29t-22.5 23.5t-26 15.5t-32.5 13.5t-27.5 10.5q-26 -11 -42.5 -31t-16.5 -44zM289 1679q-32 0 -50 -18.5t-18 -38.5q0 -32 29 -54.5t65 -29.5q21 8 36.5 28.5t15.5 45.5q0 27 -19.5 47t-58.5 20z" />
    <glyph glyph-name="ninesuperior" unicode="&#x2079;" horiz-adv-x="567" 
d="M367 1386l-2 3q-49 -52 -129 -52q-100 0 -158 63t-58 177q0 109 69.5 172t186.5 63q132 0 201.5 -91.5t69.5 -225.5q0 -399 -318 -399q-97 0 -188 30v179h149v-62q6 2 23 2q156 0 154 141zM350 1518q4 36 3 68t-18.5 54.5t-49.5 22.5t-53 -22.5t-21 -63.5q0 -34 17.5 -59
t56.5 -25q29 0 65 25z" />
    <glyph glyph-name="parenleftsuperior" unicode="&#x207d;" horiz-adv-x="342" 
d="M20 1454q0 280 185 492h117q-121 -220 -121 -492q0 -257 121 -491h-117q-91 104 -138 232.5t-47 258.5z" />
    <glyph glyph-name="parenrightsuperior" unicode="&#x207e;" horiz-adv-x="342" 
d="M322 1454q0 -130 -47 -258.5t-138 -232.5h-117q121 234 121 491q0 272 -121 492h117q185 -212 185 -492z" />
    <glyph glyph-name="nsuperior" unicode="&#x207f;" horiz-adv-x="624" 
d="M336 881v149h39v156q0 67 -60 67q-25 0 -65 -16v-207h39v-149h-269v149h50v213h-50v150h230v-62h2q60 72 149 72q74 0 114 -47.5t40 -126.5v-199h49v-149h-268z" />
    <glyph glyph-name="zeroinferior" unicode="&#x2080;" horiz-adv-x="587" 
d="M295 147q-84 0 -84 -202q0 -215 84 -215q82 0 82 215q0 202 -82 202zM295 -420q-81 0 -136.5 28t-85 80.5t-41.5 114t-12 142.5q0 80 12 140t41.5 110t85 76t136.5 26q80 0 135 -26t84 -76t41 -110t12 -140q0 -81 -12 -142.5t-41 -114t-84 -80.5t-135 -28z" />
    <glyph glyph-name="oneinferior" unicode="&#x2081;" horiz-adv-x="423" 
d="M303 -260h100v-150h-380v150h100v377h-103v127l199 49h84v-553z" />
    <glyph glyph-name="twoinferior" unicode="&#x2082;" horiz-adv-x="567" 
d="M399 -211h148v-199h-527v170q178 107 242 168t64 117q0 88 -101 88q-15 0 -55 -4v-39h-150v156q72 28 126 39.5t122 11.5q120 0 184 -59.5t64 -155.5q0 -98 -60 -172t-180 -158v-2h123v39z" />
    <glyph glyph-name="threeinferior" unicode="&#x2083;" horiz-adv-x="557" 
d="M20 -369v156h150v-51q31 -6 88 -6q44 0 68 19t24 48q0 38 -25.5 53t-76.5 15h-98v147h90q32 0 52.5 7t29.5 20t11.5 24t2.5 27q0 27 -21.5 42t-56.5 15q-43 0 -84 -8v-49h-149v156q119 51 266 51q94 0 159.5 -48t65.5 -138q0 -104 -108 -152v-2q66 -20 97.5 -66.5
t31.5 -105.5q0 -98 -72 -151.5t-197 -53.5q-72 0 -126 10.5t-122 40.5z" />
    <glyph glyph-name="fourinferior" unicode="&#x2084;" horiz-adv-x="608" 
d="M205 -78h121v178h-2q-60 -102 -119 -178zM326 -260v33h-306v149q59 64 82 90t63 76.5t67 98t53 106.5h223v-371h80v-149h-80v-33h49v-150h-281v150h50z" />
    <glyph glyph-name="fiveinferior" unicode="&#x2085;" horiz-adv-x="557" 
d="M516 287v-199h-147v39h-172l-4 -96h2q50 26 122 26q102 0 161 -58.5t59 -172.5q0 -121 -72.5 -183.5t-206.5 -62.5q-121 0 -238 51v146h150v-43q50 -4 78 -4q51 0 74.5 25t23.5 61q0 35 -22 61.5t-72 26.5q-48 0 -94 -27l-127 10l10 400h475z" />
    <glyph glyph-name="sixinferior" unicode="&#x2086;" horiz-adv-x="567" 
d="M201 6l2 -2q50 53 129 53q99 0 157 -63.5t58 -177.5q0 -109 -69.5 -172.5t-184.5 -63.5q-132 0 -202.5 92t-70.5 226q0 399 320 399q91 0 186 -31v-178h-149v62q-9 -3 -23 -3q-155 0 -153 -141zM217 -125q-4 -36 -2.5 -68t19 -54.5t49.5 -22.5t52.5 22.5t20.5 63.5
q0 35 -17 59.5t-56 24.5q-30 0 -66 -25z" />
    <glyph glyph-name="seveninferior" unicode="&#x2087;" horiz-adv-x="526" 
d="M20 287h486v-127q-44 -81 -67 -127t-55 -120.5t-53 -152.5t-36 -170h-203q24 132 81 274.5t136 260.5v2h-141v-39h-148v199z" />
    <glyph glyph-name="eightinferior" unicode="&#x2088;" horiz-adv-x="587" 
d="M451 -41v-2q116 -66 116 -170q0 -55 -23.5 -96t-64 -64.5t-88 -35t-102.5 -11.5q-52 0 -97.5 10t-85.5 30.5t-63 58t-23 88.5q0 113 115 163v2q-94 60 -94 168q0 65 39.5 111t96 66t122.5 20q61 0 115.5 -19t93.5 -63t39 -104q0 -96 -96 -152zM207 -213q0 -30 23.5 -52
t70.5 -22q40 0 60 16.5t20 41.5q0 16 -6.5 29t-22.5 23.5t-26 15.5t-32.5 13.5t-27.5 10.5q-26 -11 -42.5 -31.5t-16.5 -44.5zM289 164q-32 0 -50 -18.5t-18 -39.5q0 -32 29 -54t65 -29q22 8 37 28t15 45q0 27 -19.5 47.5t-58.5 20.5z" />
    <glyph glyph-name="nineinferior" unicode="&#x2089;" horiz-adv-x="567" 
d="M367 -129l-2 2q-48 -51 -129 -51q-100 0 -158 62.5t-58 176.5q0 109 70 172.5t186 63.5q132 0 201.5 -91.5t69.5 -225.5q0 -400 -318 -400q-93 0 -188 31v178h149v-61q6 2 23 2q156 0 154 141zM350 2q4 36 3 68t-18.5 54.5t-49.5 22.5t-53 -22.5t-21 -63.5
q0 -34 17.5 -59t56.5 -25q29 0 65 25z" />
    <glyph glyph-name="parenleftinferior" unicode="&#x208d;" horiz-adv-x="342" 
d="M20 -61q0 279 185 491h117q-121 -220 -121 -491q0 -258 121 -492h-117q-91 104 -138 233t-47 259z" />
    <glyph glyph-name="parenrightinferior" unicode="&#x208e;" horiz-adv-x="342" 
d="M322 -61q0 -130 -47 -259t-138 -233h-117q121 234 121 492q0 271 -121 491h117q185 -212 185 -491z" />
    <glyph glyph-name="colonmonetary" unicode="&#x20a1;" horiz-adv-x="1249" 
d="M922 430h286v-369q-146 -44 -256 -61v-205h-143v189q-82 -4 -123 -4q-21 0 -41 2v-187h-143v203q-461 94 -461 709q0 135 23 244t74.5 202.5t143 155.5t220.5 88v200h143v-186q6 0 20 1t21 1q41 0 123 -4v188h143v-204q125 -22 256 -62v-368h-286v145q-111 18 -205 18
q-143 0 -215 -111t-72 -308q0 -211 72 -326t215 -115q103 0 205 19v145z" />
    <glyph glyph-name="franc" unicode="&#x20a3;" horiz-adv-x="1331" 
d="M20 625h105q-2 27 -2 82v61h-103v164h121q86 481 627 481q132 0 251 -18.5t271 -63.5v-368h-286v145q-111 18 -205 18q-188 0 -256 -194h256v-164h-285q-2 -20 -2 -61q0 -57 2 -82h285v-164h-254q67 -195 254 -195q103 0 205 19v145h286v-369q-151 -45 -270 -63t-252 -18
q-529 0 -623 481h-125v164z" />
    <glyph glyph-name="lira" unicode="&#x20a4;" horiz-adv-x="1331" 
d="M20 625h105q-2 27 -2 82v61h-103v164h121q86 481 627 481q132 0 251 -18.5t271 -63.5v-368h-286v145q-111 18 -205 18q-188 0 -256 -194h256v-164h-285q-2 -20 -2 -61q0 -57 2 -82h285v-164h-254q67 -195 254 -195q103 0 205 19v145h286v-369q-151 -45 -270 -63t-252 -18
q-529 0 -623 481h-125v164z" />
    <glyph glyph-name="peseta" unicode="&#x20a7;" horiz-adv-x="1331" 
d="M20 625h105q-2 27 -2 82v61h-103v164h121q86 481 627 481q132 0 251 -18.5t271 -63.5v-368h-286v145q-111 18 -205 18q-188 0 -256 -194h256v-164h-285q-2 -20 -2 -61q0 -57 2 -82h285v-164h-254q67 -195 254 -195q103 0 205 19v145h286v-369q-151 -45 -270 -63t-252 -18
q-529 0 -623 481h-125v164z" />
    <glyph glyph-name="Euro" unicode="&#x20ac;" horiz-adv-x="1331" 
d="M20 625h105q-2 27 -2 82v61h-103v164h121q86 481 627 481q132 0 251 -18.5t271 -63.5v-368h-286v145q-111 18 -205 18q-188 0 -256 -194h256v-164h-285q-2 -20 -2 -61q0 -57 2 -82h285v-164h-254q67 -195 254 -195q103 0 205 19v145h286v-369q-151 -45 -270 -63t-252 -18
q-529 0 -623 481h-125v164z" />
    <glyph glyph-name="litre" unicode="&#x2113;" horiz-adv-x="919" 
d="M86 319l-25 23l193 203v497q0 209 82 310q85 102 205 102q90 0 143 -55t53 -148q0 -106 -63 -229q-62 -126 -264 -360v-345q0 -155 47 -217q45 -59 123 -59q72 0 131 59q63 57 110 211h37q-44 -172 -139 -260q-74 -71 -182 -71q-89 0 -159.5 49.5t-101.5 134.5
q-22 68 -22 219v106zM410 1112v-395q274 318 274 495q0 85 -39 134t-98 49q-58 0 -98 -58q-39 -56 -39 -225z" />
    <glyph glyph-name="afii61352" unicode="&#x2116;" horiz-adv-x="2138" 
d="M1776 717q-165 0 -253.5 92.5t-88.5 255.5t88.5 255.5t253.5 92.5t253.5 -92.5t88.5 -255.5t-88.5 -255.5t-253.5 -92.5zM1434 655h684v-204h-684v204zM1776 905q102 0 102 160t-102 160q-103 0 -103 -160t103 -160zM840 1393h553v-287h-103v-1106h-389l-436 696h-4v-409
h112v-287h-553v287h103v819h-103v287h472l456 -738h4v451h-112v287z" />
    <glyph glyph-name="trademark" unicode="&#x2122;" horiz-adv-x="1638" 
d="M14 1393h648v-219h-170v36h-52v-352h62v-170h-328v170h62v352h-52v-36h-170v219zM1274 1393h350v-170h-61v-365h61v-170h-328v170h50v209h-3l-131 -379h-143l-139 379h-2v-209h55v-170h-301v170h59v365h-59v170h350l129 -361z" />
    <glyph glyph-name="Omega" unicode="&#x2126;" horiz-adv-x="1372" 
d="M686 1413q204 0 352 -81.5t220.5 -219t72.5 -313.5q0 -77 -19.5 -152t-59 -144.5t-106 -126t-153.5 -89.5v-41h338v-246h-583v430q47 17 79 39.5t60 63.5t41.5 107t13.5 159q0 154 -63 230.5t-193 76.5t-193 -76.5t-63 -230.5q0 -93 14 -159t42 -107t60 -63.5t79 -39.5
v-430h-584v246h338v41q-87 33 -153.5 89.5t-106 126t-59 144.5t-19.5 152q0 176 72.5 313.5t220.5 219t352 81.5z" />
    <glyph glyph-name="estimated" unicode="&#x212e;" horiz-adv-x="1507" 
d="M1446 715h-1081v-482q167 -159 389 -159q334 0 516 321l94 -53q-132 -187 -266 -274q-137 -88 -344 -88q-314 0 -500 210q-193 205 -193 525q0 322 193 530q194 209 500 209q278 0 479 -186q201 -192 213 -553zM365 813h778v387q-169 158 -391 158q-226 0 -387 -158v-387
z" />
    <glyph glyph-name="onethird" unicode="&#x2153;" horiz-adv-x="1638" 
d="M1223 1393l-758 -1393h-103l758 1393h103zM406 846h100v-150h-381v150h100v377h-102v127l199 49h84v-553zM999 41v156h150v-52q31 -6 88 -6q44 0 68 19.5t24 48.5q0 38 -25.5 52.5t-76.5 14.5h-99v148h91q32 0 52.5 7t29.5 20t11.5 24t2.5 27q0 27 -21.5 42t-56.5 15
q-43 0 -84 -8v-49h-149v155q122 52 266 52q93 0 159 -48.5t66 -138.5q0 -102 -109 -151v-2q67 -21 98.5 -67t31.5 -105q0 -98 -72 -151.5t-197 -53.5q-72 0 -126 10.5t-122 40.5z" />
    <glyph glyph-name="twothirds" unicode="&#x2154;" horiz-adv-x="1638" 
d="M1264 1393l-758 -1393h-103l758 1393h103zM999 41v156h150v-52q31 -6 88 -6q44 0 68 19.5t24 48.5q0 38 -25.5 52.5t-76.5 14.5h-99v148h91q32 0 52.5 7t29.5 20t11.5 24t2.5 27q0 27 -21.5 42t-56.5 15q-43 0 -84 -8v-49h-149v155q122 52 266 52q93 0 159 -48.5
t66 -138.5q0 -102 -109 -151v-2q67 -21 98.5 -67t31.5 -105q0 -98 -72 -151.5t-197 -53.5q-72 0 -126 10.5t-122 40.5zM502 895h147v-199h-526v170q178 107 241.5 168t63.5 117q0 88 -100 88q-16 0 -56 -4v-39h-149v156q72 28 126 39.5t122 11.5q120 0 183.5 -59.5
t63.5 -155.5q0 -99 -60 -173t-179 -157v-2h123v39z" />
    <glyph glyph-name="oneeighth" unicode="&#x215b;" horiz-adv-x="1638" 
d="M1223 1393l-758 -1393h-103l758 1393h103zM406 846h100v-150h-381v150h100v377h-102v127l199 49h84v-553zM1399 369v-2q117 -67 117 -170q0 -72 -42 -120.5t-102.5 -67.5t-134.5 -19q-71 0 -128.5 16t-98.5 59.5t-41 110.5q0 114 114 164v2q-94 60 -94 168q0 65 39.5 111
t96 66t122.5 20q61 0 115.5 -19.5t93.5 -63.5t39 -104q0 -95 -96 -151zM1155 197q0 -30 23.5 -52t70.5 -22q40 0 60 16t20 41q0 16 -6.5 29t-22.5 23.5t-26 15.5t-32.5 13.5t-27.5 10.5q-26 -11 -42.5 -31t-16.5 -44zM1237 573q-32 0 -50 -18.5t-18 -38.5q0 -32 29.5 -54.5
t65.5 -29.5q21 8 36 28.5t15 45.5q0 27 -19.5 47t-58.5 20z" />
    <glyph glyph-name="threeeighths" unicode="&#x215c;" horiz-adv-x="1638" 
d="M1243 1393l-758 -1393h-102l758 1393h102zM1399 369v-2q117 -67 117 -170q0 -72 -42 -120.5t-102.5 -67.5t-134.5 -19q-71 0 -128.5 16t-98.5 59.5t-41 110.5q0 114 114 164v2q-94 60 -94 168q0 65 39.5 111t96 66t122.5 20q61 0 115.5 -19.5t93.5 -63.5t39 -104
q0 -95 -96 -151zM1155 197q0 -30 23.5 -52t70.5 -22q40 0 60 16t20 41q0 16 -6.5 29t-22.5 23.5t-26 15.5t-32.5 13.5t-27.5 10.5q-26 -11 -42.5 -31t-16.5 -44zM1237 573q-32 0 -50 -18.5t-18 -38.5q0 -32 29.5 -54.5t65.5 -29.5q21 8 36 28.5t15 45.5q0 27 -19.5 47
t-58.5 20zM123 737v156h149v-51q31 -6 88 -6q44 0 68.5 19t24.5 48q0 38 -26 53t-77 15h-98v147h90q32 0 52.5 7t29.5 20t11.5 24t2.5 27q0 27 -21.5 42t-56.5 15q-43 0 -84 -8v-49h-149v156q119 51 266 51q94 0 159.5 -48t65.5 -138q0 -104 -108 -152v-2q66 -20 97.5 -66.5
t31.5 -105.5q0 -98 -71.5 -151.5t-196.5 -53.5q-72 0 -126 10.5t-122 40.5z" />
    <glyph glyph-name="fiveeighths" unicode="&#x215d;" horiz-adv-x="1638" 
d="M1243 1393l-758 -1393h-102l758 1393h102zM1399 369v-2q117 -67 117 -170q0 -72 -42 -120.5t-102.5 -67.5t-134.5 -19q-71 0 -128.5 16t-98.5 59.5t-41 110.5q0 114 114 164v2q-94 60 -94 168q0 65 39.5 111t96 66t122.5 20q61 0 115.5 -19.5t93.5 -63.5t39 -104
q0 -95 -96 -151zM1155 197q0 -30 23.5 -52t70.5 -22q40 0 60 16t20 41q0 16 -6.5 29t-22.5 23.5t-26 15.5t-32.5 13.5t-27.5 10.5q-26 -11 -42.5 -31t-16.5 -44zM1237 573q-32 0 -50 -18.5t-18 -38.5q0 -32 29.5 -54.5t65.5 -29.5q21 8 36 28.5t15 45.5q0 27 -19.5 47
t-58.5 20zM618 1393v-199h-147v39h-172l-4 -96h2q50 26 123 26q101 0 160 -58.5t59 -172.5q0 -121 -72.5 -183.5t-206.5 -62.5q-120 0 -237 51v146h149v-43q50 -4 78 -4q51 0 75 25.5t24 60.5t-22.5 61.5t-72.5 26.5q-48 0 -94 -27l-127 10l10 400h475z" />
    <glyph glyph-name="seveneighths" unicode="&#x215e;" horiz-adv-x="1638" 
d="M1161 1393l-758 -1393h-102l758 1393h102zM1399 369v-2q117 -67 117 -170q0 -72 -42 -120.5t-102.5 -67.5t-134.5 -19q-71 0 -128.5 16t-98.5 59.5t-41 110.5q0 114 114 164v2q-94 60 -94 168q0 65 39.5 111t96 66t122.5 20q61 0 115.5 -19.5t93.5 -63.5t39 -104
q0 -95 -96 -151zM1155 197q0 -30 23.5 -52t70.5 -22q40 0 60 16t20 41q0 16 -6.5 29t-22.5 23.5t-26 15.5t-32.5 13.5t-27.5 10.5q-26 -11 -42.5 -31t-16.5 -44zM1237 573q-32 0 -50 -18.5t-18 -38.5q0 -32 29.5 -54.5t65.5 -29.5q21 8 36 28.5t15 45.5q0 27 -19.5 47
t-58.5 20zM123 1393h485v-127q-44 -81 -67 -127t-55 -120.5t-53 -152.5t-36 -170h-202q24 132 81 274.5t136 260.5v2h-142v-39h-147v199z" />
    <glyph glyph-name="partialdiff" unicode="&#x2202;" horiz-adv-x="1173" 
d="M791 823l4 2q12 75 -2.5 131.5t-43 88t-71.5 50.5t-79.5 25t-76.5 6q-139 0 -305 -61l-4 266q114 46 198 64t183 18q75 0 139.5 -11t126.5 -36.5t108 -67t84.5 -103.5t56 -145t22 -191.5t-16.5 -244.5q-18 -128 -66.5 -240t-125 -201t-189.5 -141t-248 -52
q-228 0 -348 126t-90 345q32 228 165 354.5t333 126.5q75 0 140.5 -29.5t105.5 -79.5zM729 573q-65 58 -133 58q-85 0 -128 -53t-52 -127q-13 -89 23 -137t104 -48q51 0 89 27t58 73.5t29.5 97.5t9.5 109z" />
    <glyph glyph-name="Delta" unicode="&#x2206;" horiz-adv-x="1286" 
d="M602 1454l582 -1454h-1082zM535 922l-265 -779h559z" />
    <glyph glyph-name="product" unicode="&#x220f;" horiz-adv-x="1392" 
d="M799 287h102v819h-409v-819h102v-287h-574v287h103v819h-103v287h1352v-287h-102v-819h102v-287h-573v287z" />
    <glyph glyph-name="summation" unicode="&#x2211;" horiz-adv-x="1064" 
d="M1024 389v-389h-1004v266l289 430l-289 430v267h1004v-389h-287v102h-256v-4l289 -406l-289 -405v-4h256v102h287z" />
    <glyph glyph-name="minus" unicode="&#x2212;" horiz-adv-x="1024" 
d="M61 686h902v-287h-902v287z" />
    <glyph glyph-name="uni2215" unicode="&#x2215;" horiz-adv-x="1105" 
d="M1085 1393l-757 -1393h-308l758 1393h307z" />
    <glyph glyph-name="uni2219" unicode="&#x2219;" horiz-adv-x="471" 
d="M61 676h349v-328h-349v328z" />
    <glyph glyph-name="radical" unicode="&#x221a;" horiz-adv-x="1638" 
d="M102 594v205h652l112 -430h4l297 1065h369l-465 -1444h-426l-211 604h-332z" />
    <glyph glyph-name="infinity" unicode="&#x221e;" horiz-adv-x="1390" 
d="M371 397q57 0 109 33.5t85 77.5q-31 38 -87.5 72t-102.5 34q-54 0 -81.5 -30.5t-27.5 -75.5q0 -47 25.5 -79t79.5 -32zM686 373q-49 -65 -139.5 -116.5t-202.5 -51.5q-133 0 -214 86t-81 221t84.5 221t235.5 86q112 0 186.5 -39.5t155.5 -122.5q61 73 139.5 117.5
t196.5 44.5q133 0 213.5 -86t80.5 -221q0 -128 -87.5 -217.5t-231.5 -89.5q-97 0 -173 33.5t-163 134.5zM1020 625q-54 0 -105 -30.5t-90 -80.5q28 -39 86.5 -72.5t108.5 -33.5t77 31t27 75q0 46 -25 78.5t-79 32.5z" />
    <glyph glyph-name="integral" unicode="&#x222b;" horiz-adv-x="737" 
d="M195 -59v1183q0 157 80.5 233.5t267.5 76.5q87 0 194 -21l-30 -266q-52 10 -82 10q-44 0 -63 -23t-19 -71v-1124q0 -54 -6 -98.5t-20.5 -88t-40.5 -75.5t-63.5 -56.5t-92.5 -37.5t-125 -13q-93 0 -195 20l31 267q57 -11 82 -11q44 0 63 23.5t19 71.5z" />
    <glyph glyph-name="approxequal" unicode="&#x2248;" horiz-adv-x="1024" 
d="M336 666q-63 0 -127 -72l-107 82q43 115 104.5 170t121.5 55q55 0 199 -36t175 -36h10.5h12t11.5 0.5t12.5 1.5t12 3t13.5 4.5t13.5 6.5t15.5 9.5t15.5 12.5t17.5 16l86 -105q-70 -147 -174 -172q-14 -4 -46 -4q-39 0 -183 32t-183 32zM336 256q-63 0 -127 -72l-107 82
q43 115 104.5 170.5t121.5 55.5q55 0 199 -36t175 -36h12h13t12.5 0.5t14.5 2t14 4t15.5 6.5t15.5 9.5t18 13t19 17.5l86 -104q-70 -147 -174 -172q-14 -4 -46 -4q-39 0 -183 31.5t-183 31.5z" />
    <glyph glyph-name="notequal" unicode="&#x2260;" horiz-adv-x="1024" 
d="M61 481h345l67 123h-412v287h568l190 348h144l-191 -348h191v-287h-347l-67 -123h414v-286h-570l-188 -349h-144l189 349h-189v286z" />
    <glyph glyph-name="lessequal" unicode="&#x2264;" horiz-adv-x="983" 
d="M61 717l861 327v-245l-492 -164l492 -164v-246l-861 328v164zM61 205h861v-205h-861v205z" />
    <glyph glyph-name="greaterequal" unicode="&#x2265;" horiz-adv-x="983" 
d="M61 1044l861 -327v-164l-861 -328v246l492 164l-492 164v245zM61 205h861v-205h-861v205z" />
    <glyph glyph-name="lozenge" unicode="&#x25ca;" horiz-adv-x="966" 
d="M469 -61l-408 766l408 765h29l407 -765l-407 -766h-29zM342 705l141 -263l142 263l-142 262z" />
    <glyph glyph-name="undercommaaccent" unicode="&#xf005;" horiz-adv-x="471" 
d="M246 -553h-103l62 205h-144v266h349v-266z" />
    <glyph glyph-name="Abreve.small" unicode="&#xf66d;" horiz-adv-x="1310" 
d="M655 1507q134 0 179 111h137q-36 -307 -316 -307q-279 0 -315 307h137q45 -111 178 -111zM227 1198h674l283 -922h102v-276h-575v276h86l-19 84h-266l-23 -84h91v-276h-555v276h114l199 646h-111v276zM655 862h-4l-67 -246h131z" />
    <glyph glyph-name="Amacron.small" unicode="&#xf66e;" horiz-adv-x="1310" 
d="M369 1556h573v-245h-573v245zM227 1198h674l283 -922h102v-276h-575v276h86l-19 84h-266l-23 -84h91v-276h-555v276h114l199 646h-111v276zM655 862h-4l-67 -246h131z" />
    <glyph glyph-name="AEacute.small" unicode="&#xf670;" horiz-adv-x="1708" 
d="M444 922h-112v276h1337v-356h-278v80h-281v-168h467v-277h-467v-201h281v78h278v-354h-919v188h-312l-76 -188h-333v276h116zM748 881l-179 -416h181v416h-2zM1223 1597l-205 -286h-184l102 286h287z" />
    <glyph glyph-name="Cacute.small" unicode="&#xf671;" horiz-adv-x="1144" 
d="M825 389h279v-336q-138 -41 -246 -57t-229 -16q-590 0 -590 628q0 108 17 196.5t59 167.5t108.5 132t169 84t236.5 31q122 0 229.5 -16t245.5 -56v-338h-279v123q-88 10 -168 10q-115 0 -177 -87.5t-62 -246.5q0 -171 61.5 -261.5t177.5 -90.5q86 0 168 14v119zM954 1597
l-204 -286h-185l103 286h286z" />
    <glyph glyph-name="Ccaron.small" unicode="&#xf672;" horiz-adv-x="1144" 
d="M825 389h279v-336q-138 -41 -246 -57t-229 -16q-590 0 -590 628q0 108 17 196.5t59 167.5t108.5 132t169 84t236.5 31q122 0 229.5 -16t245.5 -56v-338h-279v123q-88 10 -168 10q-115 0 -177 -87.5t-62 -246.5q0 -171 61.5 -261.5t177.5 -90.5q86 0 168 14v119zM526 1597
l144 -98l143 98h184l-225 -286h-205l-225 286h184z" />
    <glyph glyph-name="Ccircumflex.small" unicode="&#xf673;" horiz-adv-x="1144" 
d="M825 389h279v-336q-138 -41 -246 -57t-229 -16q-590 0 -590 628q0 108 17 196.5t59 167.5t108.5 132t169 84t236.5 31q122 0 229.5 -16t245.5 -56v-338h-279v123q-88 10 -168 10q-115 0 -177 -87.5t-62 -246.5q0 -171 61.5 -261.5t177.5 -90.5q86 0 168 14v119zM651 1389
l-143 -99h-184l225 287h205l225 -287h-184z" />
    <glyph glyph-name="Cdotaccent.small" unicode="&#xf674;" horiz-adv-x="1144" 
d="M825 389h279v-336q-138 -41 -246 -57t-229 -16q-590 0 -590 628q0 108 17 196.5t59 167.5t108.5 132t169 84t236.5 31q122 0 229.5 -16t245.5 -56v-338h-279v123q-88 10 -168 10q-115 0 -177 -87.5t-62 -246.5q0 -171 61.5 -261.5t177.5 -90.5q86 0 168 14v119zM502 1597
h307v-286h-307v286z" />
    <glyph glyph-name="Dcaron.small" unicode="&#xf675;" horiz-adv-x="1236" 
d="M25 1198h583q135 0 237.5 -28.5t169 -79t108 -126t58.5 -162t17 -194.5q0 -109 -17 -197t-59 -166t-108 -131t-169 -83.5t-237 -30.5h-583v276h88v646h-88v276zM473 276h135q53 0 90.5 15t61 40.5t36.5 69t18 91.5t5 116q0 85 -8 139t-30.5 96t-64.5 60.5t-108 18.5h-135
v-646zM453 1597l143 -98l143 98h185l-226 -286h-204l-226 286h185z" />
    <glyph glyph-name="Ebreve.small" unicode="&#xf677;" horiz-adv-x="1071" 
d="M25 1198h1007v-358h-278v82h-281v-168h467v-277h-467v-201h281v82h278v-358h-1007v276h88v646h-88v276zM559 1507q133 0 178 111h137q-36 -307 -315 -307t-315 307h137q45 -111 178 -111z" />
    <glyph glyph-name="Ecaron.small" unicode="&#xf678;" horiz-adv-x="1071" 
d="M25 1198h1007v-358h-278v82h-281v-168h467v-277h-467v-201h281v82h278v-358h-1007v276h88v646h-88v276zM410 1597l143 -98l143 98h185l-226 -286h-204l-226 286h185z" />
    <glyph glyph-name="Edotaccent.small" unicode="&#xf679;" horiz-adv-x="1071" 
d="M25 1198h1007v-358h-278v82h-281v-168h467v-277h-467v-201h281v82h278v-358h-1007v276h88v646h-88v276zM389 1597h307v-286h-307v286z" />
    <glyph glyph-name="Emacron.small" unicode="&#xf67a;" horiz-adv-x="1071" 
d="M25 1198h1007v-358h-278v82h-281v-168h467v-277h-467v-201h281v82h278v-358h-1007v276h88v646h-88v276zM270 1556h574v-245h-574v245z" />
    <glyph glyph-name="Gbreve.small" unicode="&#xf67d;" horiz-adv-x="1163" 
d="M418 608q0 -171 59.5 -251.5t179.5 -80.5q45 0 88 7v82h-131v276h490v-596q-139 -38 -245.5 -51.5t-229.5 -13.5q-135 0 -238 32.5t-169 88.5t-107.5 137t-58.5 171t-17 199q0 108 17 196.5t59 167.5t108.5 132t169 84t236.5 31q122 0 229.5 -16t245.5 -56v-338h-279v123
q-88 10 -168 10q-115 0 -177 -87.5t-62 -246.5zM653 1507q133 0 178 111h138q-36 -307 -316 -307q-279 0 -315 307h137q45 -111 178 -111z" />
    <glyph glyph-name="Gcircumflex.small" unicode="&#xf67e;" horiz-adv-x="1163" 
d="M418 608q0 -171 59.5 -251.5t179.5 -80.5q45 0 88 7v82h-131v276h490v-596q-139 -38 -245.5 -51.5t-229.5 -13.5q-135 0 -238 32.5t-169 88.5t-107.5 137t-58.5 171t-17 199q0 108 17 196.5t59 167.5t108.5 132t169 84t236.5 31q122 0 229.5 -16t245.5 -56v-338h-279v123
q-88 10 -168 10q-115 0 -177 -87.5t-62 -246.5zM653 1389l-143 -99h-184l225 287h205l225 -287h-184z" />
    <glyph glyph-name="Gcommaaccent.small" unicode="&#xf67f;" horiz-adv-x="1163" 
d="M418 608q0 -171 59.5 -251.5t179.5 -80.5q45 0 88 7v82h-131v276h490v-596q-139 -38 -245.5 -51.5t-229.5 -13.5q-135 0 -238 32.5t-169 88.5t-107.5 137t-58.5 171t-17 199q0 108 17 196.5t59 167.5t108.5 132t169 84t236.5 31q122 0 229.5 -16t245.5 -56v-338h-279v123
q-88 10 -168 10q-115 0 -177 -87.5t-62 -246.5zM653 -553h-102l61 205h-143v266h348v-266z" />
    <glyph glyph-name="Gdotaccent.small" unicode="&#xf680;" horiz-adv-x="1163" 
d="M418 608q0 -171 59.5 -251.5t179.5 -80.5q45 0 88 7v82h-131v276h490v-596q-139 -38 -245.5 -51.5t-229.5 -13.5q-135 0 -238 32.5t-169 88.5t-107.5 137t-58.5 171t-17 199q0 108 17 196.5t59 167.5t108.5 132t169 84t236.5 31q122 0 229.5 -16t245.5 -56v-338h-279v123
q-88 10 -168 10q-115 0 -177 -87.5t-62 -246.5zM500 1597h307v-286h-307v286z" />
    <glyph glyph-name="Hcircumflex.small" unicode="&#xf682;" horiz-adv-x="1273" 
d="M715 276h86v201h-328v-201h86v-276h-534v276h88v646h-88v276h534v-276h-86v-168h328v168h-86v276h534v-276h-88v-646h88v-276h-534v276zM649 1389l-143 -99h-184l225 287h205l225 -287h-184z" />
    <glyph glyph-name="Ibreve.small" unicode="&#xf683;" horiz-adv-x="583" 
d="M25 276h88v646h-88v276h534v-276h-86v-646h86v-276h-534v276zM291 1507q133 0 178 111h137q-36 -307 -315 -307q-280 0 -316 307h138q45 -111 178 -111z" />
    <glyph glyph-name="Imacron.small" unicode="&#xf685;" horiz-adv-x="583" 
d="M25 276h88v646h-88v276h534v-276h-86v-646h86v-276h-534v276zM4 1556h574v-245h-574v245z" />
    <glyph glyph-name="Itilde.small" unicode="&#xf687;" horiz-adv-x="583" 
d="M25 276h88v646h-88v276h534v-276h-86v-646h86v-276h-534v276zM166 1362q-63 0 -127 -72l-107 82q43 115 104.5 170t121.5 55q55 0 148 -35.5t124 -35.5h12h13t12.5 0.5t14 2t13.5 4t15.5 6.5t15.5 9.5t18 13t19 17.5l86 -104q-70 -147 -174 -172q-17 -5 -45 -5
q-39 0 -132 32t-132 32z" />
    <glyph glyph-name="Jcircumflex.small" unicode="&#xf688;" horiz-adv-x="749" 
d="M190 1198h535v-276h-86v-578q0 -183 -102.5 -273.5t-280.5 -90.5q-137 0 -229 20l28 274q66 -8 101 -8q18 0 25.5 0.5t25.5 2t28 6.5t21.5 13t17 22.5t5.5 33.5v578h-89v276zM451 1389l-144 -99h-184l225 287h205l225 -287h-184z" />
    <glyph glyph-name="Kcommaaccent.small" unicode="&#xf689;" horiz-adv-x="1273" 
d="M25 1198h534v-276h-86v-242l240 242h-51v276h569v-276h-88l-289 -258l326 -388h69v-276h-587v276h53l-131 154l-111 -106v-48h86v-276h-534v276h88v646h-88v276zM627 -553h-103l62 205h-144v266h349v-266z" />
    <glyph glyph-name="Lacute.small" unicode="&#xf68a;" horiz-adv-x="1034" 
d="M733 358h279v-358h-987v276h88v646h-88v276h534v-276h-86v-646h260v82zM582 1597l-205 -286h-184l102 286h287z" />
    <glyph glyph-name="Lcaron.small" unicode="&#xf68b;" horiz-adv-x="1034" 
d="M733 358h279v-358h-987v276h88v646h-88v276h534v-276h-86v-646h260v82zM819 727h-102l61 205h-143v266h348v-266z" />
    <glyph glyph-name="Lcommaaccent.small" unicode="&#xf68c;" horiz-adv-x="1034" 
d="M733 358h279v-358h-987v276h88v646h-88v276h534v-276h-86v-646h260v82zM569 -553h-102l61 205h-143v266h348v-266z" />
    <glyph glyph-name="Ldot.small" unicode="&#xf68d;" horiz-adv-x="1034" 
d="M733 358h279v-358h-987v276h88v646h-88v276h534v-276h-86v-646h260v82zM594 819h307v-287h-307v287z" />
    <glyph glyph-name="Nacute.small" unicode="&#xf68e;" horiz-adv-x="1292" 
d="M754 1198h514v-276h-88v-922h-318l-416 588l-4 -21v-291h97v-276h-514v276h88v646h-88v276h387l434 -627l4 21v330h-96v276zM971 1597l-205 -286h-184l102 286h287z" />
    <glyph glyph-name="Ncaron.small" unicode="&#xf68f;" horiz-adv-x="1292" 
d="M754 1198h514v-276h-88v-922h-318l-416 588l-4 -21v-291h97v-276h-514v276h88v646h-88v276h387l434 -627l4 21v330h-96v276zM504 1597l143 -98l144 98h184l-225 -286h-205l-226 286h185z" />
    <glyph glyph-name="Ncommaaccent.small" unicode="&#xf690;" horiz-adv-x="1292" 
d="M754 1198h514v-276h-88v-922h-318l-416 588l-4 -21v-291h97v-276h-514v276h88v646h-88v276h387l434 -627l4 21v330h-96v276zM647 -553h-102l61 205h-143v266h348v-266z" />
    <glyph glyph-name="Obreve.small" unicode="&#xf691;" horiz-adv-x="1255" 
d="M629 942q-124 0 -167.5 -80.5t-43.5 -253.5q0 -86 8.5 -145.5t30.5 -108.5t65 -73.5t107 -24.5t106 24.5t64 73.5t30.5 109t8.5 145q0 67 -5 116t-18.5 92t-36.5 69.5t-60.5 41.5t-88.5 15zM629 -20q-590 0 -590 628q0 108 17 196.5t59 167.5t108.5 132t169 84t236.5 31
q133 0 235.5 -31t168.5 -84t108 -132t59 -167.5t17 -196.5q0 -628 -588 -628zM627 1507q133 0 178 111h137q-36 -307 -315 -307q-280 0 -316 307h138q45 -111 178 -111z" />
    <glyph glyph-name="Ohungarumlaut.small" unicode="&#xf692;" horiz-adv-x="1255" 
d="M629 942q-124 0 -167.5 -80.5t-43.5 -253.5q0 -86 8.5 -145.5t30.5 -108.5t65 -73.5t107 -24.5t106 24.5t64 73.5t30.5 109t8.5 145q0 67 -5 116t-18.5 92t-36.5 69.5t-60.5 41.5t-88.5 15zM629 -20q-590 0 -590 628q0 108 17 196.5t59 167.5t108.5 132t169 84t236.5 31
q133 0 235.5 -31t168.5 -84t108 -132t59 -167.5t17 -196.5q0 -628 -588 -628zM758 1597l-205 -286h-184l102 286h287zM1106 1597l-205 -286h-184l102 286h287z" />
    <glyph glyph-name="Omacron.small" unicode="&#xf693;" horiz-adv-x="1255" 
d="M629 942q-124 0 -167.5 -80.5t-43.5 -253.5q0 -86 8.5 -145.5t30.5 -108.5t65 -73.5t107 -24.5t106 24.5t64 73.5t30.5 109t8.5 145q0 67 -5 116t-18.5 92t-36.5 69.5t-60.5 41.5t-88.5 15zM629 -20q-590 0 -590 628q0 108 17 196.5t59 167.5t108.5 132t169 84t236.5 31
q133 0 235.5 -31t168.5 -84t108 -132t59 -167.5t17 -196.5q0 -628 -588 -628zM340 1556h573v-245h-573v245z" />
    <glyph glyph-name="Oslashacute.small" unicode="&#xf694;" horiz-adv-x="1255" 
d="M956 1597l-204 -286h-185l103 286h286zM629 -20q-220 0 -367 90l-119 -144l-100 78l127 150q-131 157 -131 454q0 108 17 196.5t59 167.5t108.5 132t169 84t236.5 31q204 0 354 -80l127 153l100 -78l-133 -157q140 -150 140 -449q0 -628 -588 -628zM629 276q123 0 166 80
t43 252q0 50 -9 142l-354 -414q51 -60 154 -60zM629 924q-125 0 -168 -73t-43 -243q0 -55 4 -137l350 406q-50 47 -143 47z" />
    <glyph glyph-name="Racute.small" unicode="&#xf695;" horiz-adv-x="1218" 
d="M850 1597l-205 -286h-184l102 286h287zM25 1198h647q216 0 334 -99.5t118 -295.5q0 -116 -49.5 -204t-140.5 -132l186 -191h74v-276h-563v276h74l-127 132h-105v-132h80v-276h-528v276h88v646h-88v276zM473 922v-238h160q121 0 121 119t-121 119h-160z" />
    <glyph glyph-name="Rcaron.small" unicode="&#xf696;" horiz-adv-x="1218" 
d="M451 1597l143 -98l143 98h185l-226 -286h-204l-226 286h185zM25 1198h647q216 0 334 -99.5t118 -295.5q0 -116 -49.5 -204t-140.5 -132l186 -191h74v-276h-563v276h74l-127 132h-105v-132h80v-276h-528v276h88v646h-88v276zM473 922v-238h160q121 0 121 119t-121 119
h-160z" />
    <glyph glyph-name="Rcommaaccent.small" unicode="&#xf697;" horiz-adv-x="1218" 
d="M604 -553h-102l61 205h-143v266h348v-266zM25 1198h647q216 0 334 -99.5t118 -295.5q0 -116 -49.5 -204t-140.5 -132l186 -191h74v-276h-563v276h74l-127 132h-105v-132h80v-276h-528v276h88v646h-88v276zM473 922v-238h160q121 0 121 119t-121 119h-160z" />
    <glyph glyph-name="Sacute.small" unicode="&#xf698;" horiz-adv-x="1089" 
d="M39 410h278v-109q171 -25 228 -25q62 0 94.5 13.5t32.5 50.5q0 13 -5.5 23.5t-19 19.5t-27 15.5t-39.5 14.5t-46.5 13.5t-58 15.5t-64.5 17q-375 111 -375 395q0 94 39 166t107.5 114.5t154 63.5t186.5 21q221 0 467 -72v-359h-278v121q-120 15 -189 15q-44 0 -75 -15
t-31 -45q0 -32 51.5 -55t183.5 -53q398 -89 398 -377q0 -103 -39 -181t-109 -125t-160 -70t-198 -23q-250 0 -506 75v355zM838 1597l-205 -286h-184l102 286h287z" />
    <glyph glyph-name="Scircumflex.small" unicode="&#xf69a;" horiz-adv-x="1089" 
d="M39 410h278v-109q171 -25 228 -25q62 0 94.5 13.5t32.5 50.5q0 13 -5.5 23.5t-19 19.5t-27 15.5t-39.5 14.5t-46.5 13.5t-58 15.5t-64.5 17q-375 111 -375 395q0 94 39 166t107.5 114.5t154 63.5t186.5 21q221 0 467 -72v-359h-278v121q-120 15 -189 15q-44 0 -75 -15
t-31 -45q0 -32 51.5 -55t183.5 -53q398 -89 398 -377q0 -103 -39 -181t-109 -125t-160 -70t-198 -23q-250 0 -506 75v355zM567 1389l-143 -99h-184l225 287h205l225 -287h-184z" />
    <glyph glyph-name="Scommaaccent.small" unicode="&#xf69b;" horiz-adv-x="1089" 
d="M39 410h278v-109q171 -25 228 -25q62 0 94.5 13.5t32.5 50.5q0 13 -5.5 23.5t-19 19.5t-27 15.5t-39.5 14.5t-46.5 13.5t-58 15.5t-64.5 17q-375 111 -375 395q0 94 39 166t107.5 114.5t154 63.5t186.5 21q221 0 467 -72v-359h-278v121q-120 15 -189 15q-44 0 -75 -15
t-31 -45q0 -32 51.5 -55t183.5 -53q398 -89 398 -377q0 -103 -39 -181t-109 -125t-160 -70t-198 -23q-250 0 -506 75v355zM573 -553h-102l61 205h-143v266h348v-266z" />
    <glyph glyph-name="Tcaron.small" unicode="&#xf69d;" horiz-adv-x="1089" 
d="M18 1198h1053v-358h-280v82h-66v-646h86v-276h-532v276h86v646h-66v-82h-281v358zM401 1597l144 -98l143 98h184l-225 -286h-205l-225 286h184z" />
    <glyph glyph-name="Tcommaaccent.small" unicode="&#xf69e;" horiz-adv-x="1089" 
d="M18 1198h1053v-358h-280v82h-66v-646h86v-276h-532v276h86v646h-66v-82h-281v358zM555 -553h-102l61 205h-143v266h348v-266z" />
    <glyph glyph-name="Ubreve.small" unicode="&#xf69f;" horiz-adv-x="1273" 
d="M715 1198h534v-276h-88v-500q0 -116 -40 -203t-112 -138t-165 -76t-207 -25t-207 25t-165 76t-112 138t-40 203v500h-88v276h534v-276h-86v-500q0 -88 41.5 -127t122.5 -39t122.5 39t41.5 127v500h-86v276zM637 1507q133 0 178 111h137q-36 -307 -315 -307t-315 307h137
q45 -111 178 -111z" />
    <glyph glyph-name="Uhungarumlaut.small" unicode="&#xf6a0;" horiz-adv-x="1273" 
d="M715 1198h534v-276h-88v-500q0 -116 -40 -203t-112 -138t-165 -76t-207 -25t-207 25t-165 76t-112 138t-40 203v500h-88v276h534v-276h-86v-500q0 -88 41.5 -127t122.5 -39t122.5 39t41.5 127v500h-86v276zM788 1597l-204 -286h-185l103 286h286zM1137 1597l-205 -286
h-184l102 286h287z" />
    <glyph glyph-name="Umacron.small" unicode="&#xf6a1;" horiz-adv-x="1273" 
d="M715 1198h534v-276h-88v-500q0 -116 -40 -203t-112 -138t-165 -76t-207 -25t-207 25t-165 76t-112 138t-40 203v500h-88v276h534v-276h-86v-500q0 -88 41.5 -127t122.5 -39t122.5 39t41.5 127v500h-86v276zM350 1556h574v-245h-574v245z" />
    <glyph glyph-name="Uring.small" unicode="&#xf6a3;" horiz-adv-x="1273" 
d="M715 1198h534v-276h-88v-500q0 -116 -40 -203t-112 -138t-165 -76t-207 -25t-207 25t-165 76t-112 138t-40 203v500h-88v276h534v-276h-86v-500q0 -88 41.5 -127t122.5 -39t122.5 39t41.5 127v500h-86v276zM432 1495q0 85 60 145t145 60t145 -60t60 -145t-60 -145
t-145 -60t-145 60t-60 145zM557 1495q0 -34 23 -57t57 -23t57 23t23 57t-23 57t-57 23t-57 -23t-23 -57z" />
    <glyph glyph-name="Utilde.small" unicode="&#xf6a4;" horiz-adv-x="1273" 
d="M715 1198h534v-276h-88v-500q0 -116 -40 -203t-112 -138t-165 -76t-207 -25t-207 25t-165 76t-112 138t-40 203v500h-88v276h534v-276h-86v-500q0 -88 41.5 -127t122.5 -39t122.5 39t41.5 127v500h-86v276zM512 1362q-63 0 -127 -72l-106 82q43 115 104 170t121 55
q55 0 148 -35.5t124 -35.5h12h13t12.5 0.5t14 2t13.5 4t15.5 6.5t15.5 9.5t18 13t19 17.5l86 -104q-70 -147 -174 -172q-18 -5 -45 -5q-39 0 -132 32t-132 32z" />
    <glyph glyph-name="Wacute.small" unicode="&#xf6a5;" horiz-adv-x="1826" 
d="M25 1198h571v-276h-98l106 -508h2l148 784h379l167 -784h3l88 508h-101v276h512v-276h-88l-203 -930h-469l-122 573h-5l-110 -573h-469l-223 930h-88v276zM1229 1597l-205 -286h-184l102 286h287z" />
    <glyph glyph-name="Wcircumflex.small" unicode="&#xf6a6;" horiz-adv-x="1826" 
d="M25 1198h571v-276h-98l106 -508h2l148 784h379l167 -784h3l88 508h-101v276h512v-276h-88l-203 -930h-469l-122 573h-5l-110 -573h-469l-223 930h-88v276zM913 1389l-143 -99h-184l225 287h205l225 -287h-184z" />
    <glyph glyph-name="Wdieresis.small" unicode="&#xf6a7;" horiz-adv-x="1826" 
d="M25 1198h571v-276h-98l106 -508h2l148 784h379l167 -784h3l88 508h-101v276h512v-276h-88l-203 -930h-469l-122 573h-5l-110 -573h-469l-223 930h-88v276zM524 1597h307v-286h-307v286zM995 1597h308v-286h-308v286z" />
    <glyph glyph-name="Wgrave.small" unicode="&#xf6a8;" horiz-adv-x="1826" 
d="M25 1198h571v-276h-98l106 -508h2l148 784h379l167 -784h3l88 508h-101v276h512v-276h-88l-203 -930h-469l-122 573h-5l-110 -573h-469l-223 930h-88v276zM821 1311l-205 286h287l103 -286h-185z" />
    <glyph glyph-name="Ycircumflex.small" unicode="&#xf6a9;" horiz-adv-x="1236" 
d="M799 276h86v-276h-533v276h86v78l-309 568h-104v276h591v-276h-86l117 -256h4l105 256h-76v276h532v-276h-96l-317 -568v-78zM618 1389l-143 -99h-184l225 287h205l225 -287h-184z" />
    <glyph glyph-name="Ygrave.small" unicode="&#xf6aa;" horiz-adv-x="1236" 
d="M799 276h86v-276h-533v276h86v78l-309 568h-104v276h591v-276h-86l117 -256h4l105 256h-76v276h532v-276h-96l-317 -568v-78zM535 1311l-205 286h286l103 -286h-184z" />
    <glyph glyph-name="Zacute.small" unicode="&#xf6ab;" horiz-adv-x="1052" 
d="M80 1198h913v-256l-514 -661v-5h252v78h279v-354h-969v256l524 662v4h-207v-80h-278v356zM809 1597l-205 -286h-184l102 286h287z" />
    <glyph glyph-name="Zdotaccent.small" unicode="&#xf6ac;" horiz-adv-x="1052" 
d="M80 1198h913v-256l-514 -661v-5h252v78h279v-354h-969v256l524 662v4h-207v-80h-278v356zM373 1597h307v-286h-307v286z" />
    <glyph glyph-name="Idotaccent.small" unicode="&#xf6ad;" horiz-adv-x="583" 
d="M25 276h88v646h-88v276h534v-276h-86v-646h86v-276h-534v276zM137 1597h307v-286h-307v286z" />
    <glyph glyph-name="dotlessj" unicode="&#xf6be;" horiz-adv-x="552" 
d="M20 737v287h472v-1126q0 -82 -14.5 -138.5t-52 -101.5t-107.5 -66.5t-175 -21.5q-92 0 -194 20l31 267q57 -11 81 -11q47 0 64.5 14.5t17.5 59.5v817h-123z" />
    <glyph glyph-name="commaaccent" unicode="&#xf6c3;" horiz-adv-x="471" 
d="M246 -553h-103l62 205h-144v266h349v-266z" />
    <glyph glyph-name="Acute" unicode="&#xf6c9;" horiz-adv-x="593" 
d="M492 1782l-205 -287h-185l103 287h287z" />
    <glyph glyph-name="Caron" unicode="&#xf6ca;" horiz-adv-x="860" 
d="M287 1782l143 -99l143 99h185l-226 -287h-204l-226 287h185z" />
    <glyph glyph-name="Dieresis" unicode="&#xf6cb;" horiz-adv-x="983" 
d="M102 1782h308v-287h-308v287zM573 1782h308v-287h-308v287z" />
    <glyph glyph-name="DieresisAcute" unicode="&#xf6cc;" horiz-adv-x="1290" 
d="M860 1843l-225 -348h-184l102 348h307zM102 1782h308v-287h-308v287zM881 1782h307v-287h-307v287z" />
    <glyph glyph-name="DieresisGrave" unicode="&#xf6cd;" horiz-adv-x="1290" 
d="M655 1495l-225 348h307l103 -348h-185zM881 1782h307v-287h-307v287zM102 1782h308v-287h-308v287z" />
    <glyph glyph-name="Grave" unicode="&#xf6ce;" horiz-adv-x="593" 
d="M307 1495l-205 287h287l103 -287h-185z" />
    <glyph glyph-name="Hungarumlaut" unicode="&#xf6cf;" horiz-adv-x="942" 
d="M492 1782l-205 -287h-185l103 287h287zM840 1782l-205 -287h-184l102 287h287z" />
    <glyph glyph-name="Macron" unicode="&#xf6d0;" horiz-adv-x="778" 
d="M102 1741h574v-246h-574v246z" />
    <glyph glyph-name="cyrBreve" unicode="&#xf6d1;" horiz-adv-x="835" 
d="M418 1692q134 0 178 110h137q-36 -307 -315 -307q-280 0 -316 307h138q44 -110 178 -110z" />
    <glyph glyph-name="cyrFlex" unicode="&#xf6d2;" horiz-adv-x="860" 
d="M430 1593l-143 -98h-185l226 287h204l226 -287h-185z" />
    <glyph glyph-name="dblGrave" unicode="&#xf6d3;" horiz-adv-x="942" 
d="M655 1495l-204 287h286l103 -287h-185zM307 1495l-205 287h287l103 -287h-185z" />
    <glyph glyph-name="cyrbreve" unicode="&#xf6d4;" horiz-adv-x="835" 
d="M418 1343q133 0 178 111h137q-36 -307 -315 -307q-280 0 -316 307h138q45 -111 178 -111z" />
    <glyph glyph-name="cyrflex" unicode="&#xf6d5;" horiz-adv-x="860" 
d="M430 1245l-143 -98h-185l226 287h204l226 -287h-185z" />
    <glyph glyph-name="dblgrave" unicode="&#xf6d6;" horiz-adv-x="942" 
d="M655 1147l-204 287h286l103 -287h-185zM307 1147l-205 287h287l103 -287h-185z" />
    <glyph glyph-name="dieresisacute" unicode="&#xf6d7;" horiz-adv-x="1290" 
d="M860 1495l-225 -348h-184l102 348h307zM102 1434h308v-287h-308v287zM881 1434h307v-287h-307v287z" />
    <glyph glyph-name="dieresisgrave" unicode="&#xf6d8;" horiz-adv-x="1290" 
d="M655 1147l-225 348h307l103 -348h-185zM881 1434h307v-287h-307v287zM102 1434h308v-287h-308v287z" />
    <glyph glyph-name="rupiah" unicode="&#xf6dd;" horiz-adv-x="2396" 
d="M1290 737v287h451v-102h4q43 54 115 88t147 34q369 0 369 -532q0 -112 -21 -205t-65.5 -168t-121.5 -117t-181 -42q-69 0 -134.5 29.5t-107.5 82.5h-4v-215h102v-287h-553v287h103v123h-676v287h43l-162 205h-106v-205h102v-287h-574v287h103v819h-103v287h717
q233 0 362.5 -115.5t129.5 -335.5q0 -137 -59 -240.5t-166 -148.5l223 -266h166v450h-103zM2007 512q0 118 -32 182t-111 64q-64 0 -123 -41v-410q59 -41 123 -41q79 0 111 64t32 182zM492 1106v-328h204q68 0 111 39t43 125t-43 125t-111 39h-204z" />
    <glyph glyph-name="threequartersemdash" unicode="&#xf6de;" horiz-adv-x="1433" 
d="M61 686h1311v-287h-1311v287z" />
    <glyph glyph-name="asuperior" unicode="&#xf6e9;" horiz-adv-x="567" 
d="M201 1217h-150v159q132 27 230 27q113 0 165 -36.5t52 -137.5v-199h49v-149h-232v51h-2q-41 -49 -94 -58q-24 -4 -43 -4q-59 0 -96.5 31.5t-50.5 81.5q-9 36 -9 51q0 48 21.5 83t57 52t69 24t68.5 7h79v19q0 17 -11 24.5t-23 8.5t-43 1h-37v-36zM315 1028v66h-49h-17.5
t-16 -2t-16 -6t-9 -13t-4.5 -22q0 -22 15 -32.5t32 -10.5q42 0 65 20z" />
    <glyph glyph-name="bsuperior" unicode="&#xf6ea;" horiz-adv-x="585" 
d="M20 1448v149h230v-256h2q22 28 57 45t72 17q184 0 184 -266q0 -56 -10.5 -102.5t-32.5 -84.5t-60.5 -59t-90.5 -21q-33 0 -69 15t-60 41h-2l-33 -45h-187v149h50v418h-50zM375 1137q0 57 -15 86.5t-53 29.5q-35 0 -57 -18v-197q22 -18 57 -18q68 0 68 117z" />
    <glyph glyph-name="dsuperior" unicode="&#xf6eb;" horiz-adv-x="585" 
d="M285 1448v149h231v-567h49v-149h-229v51h-2q-22 -27 -57.5 -44.5t-71.5 -17.5q-185 0 -185 267q0 76 18 133.5t63.5 95t113.5 37.5q73 0 119 -55h2v100h-51zM211 1137q0 -117 68 -117q35 0 57 18v197q-23 18 -57 18q-38 0 -53 -29.5t-15 -86.5z" />
    <glyph glyph-name="esuperior" unicode="&#xf6ec;" horiz-adv-x="550" 
d="M524 1094h-307q4 -35 33 -54.5t76 -19.5q85 0 157 20l23 -143q-87 -27 -207 -27q-149 0 -214 68.5t-65 198.5t65 198t214 68q66 0 112 -15.5t70.5 -43t37 -66.5t11.5 -85t-6 -99zM289 1266q-63 0 -72 -62h129q3 32 -9 47t-48 15z" />
    <glyph glyph-name="isuperior" unicode="&#xf6ed;" horiz-adv-x="321" 
d="M20 1243v150h230v-363h51v-149h-281v149h50v213h-50zM70 1597h180v-155h-180v155z" />
    <glyph glyph-name="lsuperior" unicode="&#xf6ee;" horiz-adv-x="321" 
d="M20 1448v149h230v-567h51v-149h-281v149h50v418h-50z" />
    <glyph glyph-name="msuperior" unicode="&#xf6ef;" horiz-adv-x="931" 
d="M336 881v149h39v164q-3 59 -58 59q-27 0 -67 -16v-207h39v-149h-269v149h50v213h-50v150h230v-62h2q45 54 104 66q21 6 45 6q98 0 136 -80q40 46 80.5 63t91.5 17q74 0 113.5 -47.5t39.5 -126.5v-199h49v-149h-268v149h39v156q0 67 -59 67q-30 0 -66 -16v-43v-164h39
v-149h-260z" />
    <glyph glyph-name="osuperior" unicode="&#xf6f0;" horiz-adv-x="567" 
d="M285 1253q-42 0 -58 -27t-16 -89t16 -89.5t58 -27.5q40 0 55.5 27.5t15.5 89.5t-15.5 89t-55.5 27zM285 870q-265 0 -265 267q0 129 63 197.5t202 68.5q262 0 262 -266q0 -267 -262 -267z" />
    <glyph glyph-name="rsuperior" unicode="&#xf6f1;" horiz-adv-x="432" 
d="M20 1243v150h230v-82h2q19 39 60.5 65.5t99.5 26.5v-170q-113 0 -162 -19v-184h49v-149h-279v149h50v213h-50z" />
    <glyph glyph-name="ssuperior" unicode="&#xf6f2;" horiz-adv-x="507" 
d="M465 1217h-150v38q-10 1 -24 2t-23.5 2t-17.5 1q-47 0 -47 -17q0 -4 1.5 -6.5t6.5 -4.5t10 -3t14.5 -3.5t18.5 -4.5q101 -21 138 -38q95 -43 95 -136q0 -90 -58.5 -133.5t-158.5 -43.5q-147 0 -250 27v160h150v-39q62 -4 78 -4q57 0 57 18q0 5 -3 8t-9.5 4.5t-12.5 2.5
t-16 2t-16 2q-50 8 -88 20.5t-71.5 33.5t-51 54.5t-17.5 77.5q0 166 218 166q124 0 227 -27v-159z" />
    <glyph glyph-name="tsuperior" unicode="&#xf6f3;" horiz-adv-x="397" 
d="M80 1024v242h-60v116l60 11l20 143h160v-143h111v-127h-111v-209q0 -43 59 -43q20 0 41 6l17 -139q-61 -11 -121 -11q-94 0 -135 38t-41 116z" />
    <glyph glyph-name="Brevesmall" unicode="&#xf6f4;" horiz-adv-x="835" 
d="M418 1507q133 0 178 111h137q-36 -307 -315 -307q-280 0 -316 307h138q45 -111 178 -111z" />
    <glyph glyph-name="Caronsmall" unicode="&#xf6f5;" horiz-adv-x="860" 
d="M287 1597l143 -98l143 98h185l-226 -286h-204l-226 286h185z" />
    <glyph glyph-name="Circumflexsmall" unicode="&#xf6f6;" horiz-adv-x="860" 
d="M430 1389l-143 -99h-185l226 287h204l226 -287h-185z" />
    <glyph glyph-name="Dotaccentsmall" unicode="&#xf6f7;" horiz-adv-x="512" 
d="M102 1597h308v-286h-308v286z" />
    <glyph glyph-name="Hungarumlautsmall" unicode="&#xf6f8;" horiz-adv-x="942" 
d="M492 1597l-205 -286h-185l103 286h287zM840 1597l-205 -286h-184l102 286h287z" />
    <glyph glyph-name="Lslashsmall" unicode="&#xf6f9;" horiz-adv-x="1034" 
d="M25 592l88 22v308h-88v276h534v-276h-86v-205l86 22v-157l-86 -23v-283h260v78h279v-354h-987v276h88v181l-88 -23v158z" />
    <glyph glyph-name="OEsmall" unicode="&#xf6fa;" horiz-adv-x="1814" 
d="M629 938q-65 0 -107 -21t-64.5 -66t-31 -101.5t-8.5 -141.5q0 -68 5 -118t18.5 -96t37 -74.5t61 -45t89.5 -16.5q63 0 105.5 24t64.5 72.5t30.5 107t8.5 142.5q0 86 -8.5 143t-30.5 102.5t-64 67t-106 21.5zM1776 0h-875v41q-65 -33 -143.5 -47t-128.5 -14
q-134 0 -237 32.5t-169 88t-108 136.5t-59 171.5t-17 199.5q0 108 17 196.5t59 167.5t108.5 132t169 84t236.5 31q52 0 132 -14.5t140 -47.5v41h875v-356h-279v80h-280v-168h466v-277h-466v-201h280v78h279v-354z" />
    <glyph glyph-name="Ogoneksmall" unicode="&#xf6fb;" horiz-adv-x="643" 
d="M530 -281l11 -79q-34 -27 -93.5 -43.5t-111.5 -16.5q-105 0 -169.5 49t-64.5 123q0 141 177 248h163q-108 -89 -108 -186q0 -52 32.5 -80.5t90.5 -28.5q35 0 73 14z" />
    <glyph glyph-name="Ringsmall" unicode="&#xf6fc;" horiz-adv-x="614" 
d="M102 1495q0 85 60 145t145 60t145 -60t60 -145t-60 -145t-145 -60t-145 60t-60 145zM227 1495q0 -34 23 -57t57 -23t57 23t23 57t-23 57t-57 23t-57 -23t-23 -57z" />
    <glyph glyph-name="Scaronsmall" unicode="&#xf6fd;" horiz-adv-x="1089" 
d="M39 410h278v-109q171 -25 228 -25q62 0 94.5 13.5t32.5 50.5q0 13 -5.5 23.5t-19 19.5t-27 15.5t-39.5 14.5t-46.5 13.5t-58 15.5t-64.5 17q-375 111 -375 395q0 94 39 166t107.5 114.5t154 63.5t186.5 21q221 0 467 -72v-359h-278v121q-120 15 -189 15q-44 0 -75 -15
t-31 -45q0 -32 51.5 -55t183.5 -53q398 -89 398 -377q0 -103 -39 -181t-109 -125t-160 -70t-198 -23q-250 0 -506 75v355zM410 1597l143 -98l143 98h185l-226 -286h-204l-226 286h185z" />
    <glyph glyph-name="Tildesmall" unicode="&#xf6fe;" horiz-adv-x="921" 
d="M336 1362q-63 0 -127 -72l-107 82q43 115 104.5 170t121.5 55q55 0 148 -35.5t124 -35.5h12h13t12.5 0.5t14 2t13.5 4t15.5 6.5t15.5 9.5t18 13t19 17.5l86 -104q-70 -147 -174 -172q-18 -5 -45 -5q-39 0 -132 32t-132 32z" />
    <glyph glyph-name="Zcaronsmall" unicode="&#xf6ff;" horiz-adv-x="1052" 
d="M80 1198h913v-256l-514 -661v-5h252v78h279v-354h-969v256l524 662v4h-207v-80h-278v356zM383 1597l143 -98l144 98h184l-225 -286h-205l-225 286h184z" />
    <glyph glyph-name="exclamsmall" unicode="&#xf721;" horiz-adv-x="471" 
d="M61 328h349v-328h-349v328zM61 1229h349l-21 -778h-307z" />
    <glyph glyph-name="dollaroldstyle" unicode="&#xf724;" horiz-adv-x="1044" 
d="M614 -266h-184v205h184v-205zM614 1085h-184v205h184v-205zM911 676h-286v82q-71 10 -144 10q-51 0 -76.5 -8.5t-25.5 -32.5q0 -27 82 -44q20 -4 31 -7q14 -3 44 -10q39 -9 60.5 -14t61.5 -16t63.5 -20.5t58.5 -26t56.5 -33t46 -40.5t38 -51t22.5 -62t9 -75
q0 -178 -114.5 -263t-315.5 -85q-289 0 -491 51v317h286v-82q83 -10 164 -10q123 0 123 47q0 10 -6 17t-20.5 11.5t-26 6.5t-35 5t-35.5 5q-80 13 -142 30.5t-122 46.5t-99 67.5t-63 95.5t-24 129q0 175 112 251t318 76q248 0 450 -51v-317z" />
    <glyph glyph-name="ampersandsmall" unicode="&#xf726;" horiz-adv-x="1853" 
d="M1208 289v141h-768q19 -82 73 -123t153 -41q111 0 297 62l41 -267q-190 -81 -390 -81q-254 0 -403.5 143.5t-149.5 388.5t149.5 388.5t403.5 143.5q215 0 326 -107t129 -292h139l41 379h307v-379h226v-215h-226v-80q0 -94 123 -94q30 0 82 10l31 -266q-102 -20 -236 -20
q-187 0 -267.5 76t-80.5 233zM594 778q-59 0 -103 -34t-51 -99h277q8 63 -23.5 98t-99.5 35z" />
    <glyph glyph-name="questionsmall" unicode="&#xf73f;" horiz-adv-x="983" 
d="M328 928v-78h-287v276q89 48 220.5 85.5t240.5 37.5q103 0 182.5 -20.5t127.5 -52t78 -76t41 -87.5t11 -91q0 -69 -18 -122.5t-47 -85.5t-64 -57t-70 -43t-64 -36.5t-47 -45t-18 -61.5v-41h-307v62q0 71 15.5 123.5t39.5 81.5t53.5 49.5t59.5 31.5t54 22t39.5 28t15.5 42
q0 72 -154 72q-46 0 -102 -14zM287 0v328h348v-328h-348z" />
    <glyph glyph-name="Gravesmall" unicode="&#xf760;" horiz-adv-x="593" 
d="M307 1311l-205 286h287l103 -286h-185z" />
    <glyph glyph-name="Asmall" unicode="&#xf761;" horiz-adv-x="1310" 
d="M227 1198h674l283 -922h102v-276h-575v276h86l-19 84h-266l-23 -84h91v-276h-555v276h114l199 646h-111v276zM655 862h-4l-67 -246h131z" />
    <glyph glyph-name="Bsmall" unicode="&#xf762;" horiz-adv-x="1181" 
d="M936 627v-2q207 -77 207 -287q0 -162 -111 -250t-321 -88h-686v276h88v646h-88v276h649q212 0 322 -77.5t110 -231.5q0 -87 -47 -156t-123 -106zM653 479h-180v-203h178q50 0 81.5 24.5t31.5 78.5q0 100 -111 100zM727 838q0 38 -24 61t-70 23h-160v-166h160
q45 0 69.5 23t24.5 59z" />
    <glyph glyph-name="Csmall" unicode="&#xf763;" horiz-adv-x="1144" 
d="M825 389h279v-336q-138 -41 -246 -57t-229 -16q-590 0 -590 628q0 108 17 196.5t59 167.5t108.5 132t169 84t236.5 31q122 0 229.5 -16t245.5 -56v-338h-279v123q-88 10 -168 10q-115 0 -177 -87.5t-62 -246.5q0 -171 61.5 -261.5t177.5 -90.5q86 0 168 14v119z" />
    <glyph glyph-name="Dsmall" unicode="&#xf764;" horiz-adv-x="1236" 
d="M25 1198h583q135 0 237.5 -28.5t169 -79t108 -126t58.5 -162t17 -194.5q0 -109 -17 -197t-59 -166t-108 -131t-169 -83.5t-237 -30.5h-583v276h88v646h-88v276zM473 276h135q53 0 90.5 15t61 40.5t36.5 69t18 91.5t5 116q0 85 -8 139t-30.5 96t-64.5 60.5t-108 18.5h-135
v-646z" />
    <glyph glyph-name="Esmall" unicode="&#xf765;" horiz-adv-x="1071" 
d="M25 1198h1007v-358h-278v82h-281v-168h467v-277h-467v-201h281v82h278v-358h-1007v276h88v646h-88v276z" />
    <glyph glyph-name="Fsmall" unicode="&#xf766;" horiz-adv-x="1042" 
d="M25 1198h989v-358h-279v82h-262v-203h449v-277h-449v-166h86v-276h-534v276h88v646h-88v276z" />
    <glyph glyph-name="Gsmall" unicode="&#xf767;" horiz-adv-x="1163" 
d="M418 608q0 -171 59.5 -251.5t179.5 -80.5q45 0 88 7v82h-131v276h490v-596q-139 -38 -245.5 -51.5t-229.5 -13.5q-135 0 -238 32.5t-169 88.5t-107.5 137t-58.5 171t-17 199q0 108 17 196.5t59 167.5t108.5 132t169 84t236.5 31q122 0 229.5 -16t245.5 -56v-338h-279v123
q-88 10 -168 10q-115 0 -177 -87.5t-62 -246.5z" />
    <glyph glyph-name="Hsmall" unicode="&#xf768;" horiz-adv-x="1273" 
d="M715 276h86v201h-328v-201h86v-276h-534v276h88v646h-88v276h534v-276h-86v-168h328v168h-86v276h534v-276h-88v-646h88v-276h-534v276z" />
    <glyph glyph-name="Ismall" unicode="&#xf769;" horiz-adv-x="583" 
d="M25 276h88v646h-88v276h534v-276h-86v-646h86v-276h-534v276z" />
    <glyph glyph-name="Jsmall" unicode="&#xf76a;" horiz-adv-x="749" 
d="M190 1198h535v-276h-86v-578q0 -183 -102.5 -273.5t-280.5 -90.5q-137 0 -229 20l28 274q66 -8 101 -8q18 0 25.5 0.5t25.5 2t28 6.5t21.5 13t17 22.5t5.5 33.5v578h-89v276z" />
    <glyph glyph-name="Ksmall" unicode="&#xf76b;" horiz-adv-x="1273" 
d="M25 1198h534v-276h-86v-242l240 242h-51v276h569v-276h-88l-289 -258l326 -388h69v-276h-587v276h53l-131 154l-111 -106v-48h86v-276h-534v276h88v646h-88v276z" />
    <glyph glyph-name="Lsmall" unicode="&#xf76c;" horiz-adv-x="1034" 
d="M733 358h279v-358h-987v276h88v646h-88v276h534v-276h-86v-646h260v82z" />
    <glyph glyph-name="Msmall" unicode="&#xf76d;" horiz-adv-x="1568" 
d="M1036 1198h508v-276h-88v-646h88v-276h-518v276h70v332h-2l-217 -608h-185l-246 608h-4v-332h78v-276h-495v276h88v646h-88v276h516l264 -647h4z" />
    <glyph glyph-name="Nsmall" unicode="&#xf76e;" horiz-adv-x="1292" 
d="M754 1198h514v-276h-88v-922h-318l-416 588l-4 -21v-291h97v-276h-514v276h88v646h-88v276h387l434 -627l4 21v330h-96v276z" />
    <glyph glyph-name="Osmall" unicode="&#xf76f;" horiz-adv-x="1255" 
d="M629 942q-124 0 -167.5 -80.5t-43.5 -253.5q0 -86 8.5 -145.5t30.5 -108.5t65 -73.5t107 -24.5t106 24.5t64 73.5t30.5 109t8.5 145q0 67 -5 116t-18.5 92t-36.5 69.5t-60.5 41.5t-88.5 15zM629 -20q-590 0 -590 628q0 108 17 196.5t59 167.5t108.5 132t169 84t236.5 31
q133 0 235.5 -31t168.5 -84t108 -132t59 -167.5t17 -196.5q0 -628 -588 -628z" />
    <glyph glyph-name="Psmall" unicode="&#xf770;" horiz-adv-x="1163" 
d="M25 1198h647q215 0 333.5 -105t118.5 -302q0 -196 -119 -302t-333 -106h-199v-107h86v-276h-534v276h88v646h-88v276zM473 922v-263h160q51 0 86 32.5t35 99.5t-35 99t-86 32h-160z" />
    <glyph glyph-name="Qsmall" unicode="&#xf771;" horiz-adv-x="1255" 
d="M39 608q0 108 17 196.5t59 167.5t108.5 132t169 84t236.5 31q133 0 235.5 -31t168.5 -84t108 -132t59 -167.5t17 -196.5q0 -221 -96.5 -346.5t-252.5 -148.5q-2 -8 22 -10.5t66 -1t81 4.5t83.5 6.5t57.5 4.5v-316q-219 -25 -383 23t-236 158q-113 9 -202 46t-148.5 93.5
t-98 134.5t-55 164.5t-16.5 187.5zM629 942q-124 0 -167.5 -80.5t-43.5 -253.5q0 -68 5 -118t18.5 -96t37 -74.5t61 -45t89.5 -16.5q51 0 88.5 16.5t60.5 45.5t36.5 74.5t18.5 95.5t5 118q0 67 -5 116t-18.5 92t-36.5 69.5t-60.5 41.5t-88.5 15z" />
    <glyph glyph-name="Rsmall" unicode="&#xf772;" horiz-adv-x="1218" 
d="M25 1198h647q216 0 334 -99.5t118 -295.5q0 -116 -49.5 -204t-140.5 -132l186 -191h74v-276h-563v276h74l-127 132h-105v-132h80v-276h-528v276h88v646h-88v276zM473 922v-238h160q121 0 121 119t-121 119h-160z" />
    <glyph glyph-name="Ssmall" unicode="&#xf773;" horiz-adv-x="1089" 
d="M39 410h278v-109q171 -25 228 -25q62 0 94.5 13.5t32.5 50.5q0 13 -5.5 23.5t-19 19.5t-27 15.5t-39.5 14.5t-46.5 13.5t-58 15.5t-64.5 17q-375 111 -375 395q0 94 39 166t107.5 114.5t154 63.5t186.5 21q221 0 467 -72v-359h-278v121q-120 15 -189 15q-44 0 -75 -15
t-31 -45q0 -32 51.5 -55t183.5 -53q398 -89 398 -377q0 -103 -39 -181t-109 -125t-160 -70t-198 -23q-250 0 -506 75v355z" />
    <glyph glyph-name="Tsmall" unicode="&#xf774;" horiz-adv-x="1089" 
d="M18 1198h1053v-358h-280v82h-66v-646h86v-276h-532v276h86v646h-66v-82h-281v358z" />
    <glyph glyph-name="Usmall" unicode="&#xf775;" horiz-adv-x="1273" 
d="M715 1198h534v-276h-88v-500q0 -116 -40 -203t-112 -138t-165 -76t-207 -25t-207 25t-165 76t-112 138t-40 203v500h-88v276h534v-276h-86v-500q0 -88 41.5 -127t122.5 -39t122.5 39t41.5 127v500h-86v276z" />
    <glyph glyph-name="Vsmall" unicode="&#xf776;" horiz-adv-x="1292" 
d="M717 1198h551v-276h-97l-297 -930h-448l-305 930h-96v276h571v-276h-92l160 -568h2l143 568h-92v276z" />
    <glyph glyph-name="Wsmall" unicode="&#xf777;" horiz-adv-x="1826" 
d="M25 1198h571v-276h-98l106 -508h2l148 784h379l167 -784h3l88 508h-101v276h512v-276h-88l-203 -930h-469l-122 573h-5l-110 -573h-469l-223 930h-88v276z" />
    <glyph glyph-name="Xsmall" unicode="&#xf778;" horiz-adv-x="1310" 
d="M756 1198h512v-276h-78l-277 -328l263 -318h110v-276h-643v276h66l-103 144l-108 -144h59v-276h-532v276h100l270 318l-266 328h-86v276h623v-276h-70l111 -148l110 148h-61v276z" />
    <glyph glyph-name="Ysmall" unicode="&#xf779;" horiz-adv-x="1236" 
d="M799 276h86v-276h-533v276h86v78l-309 568h-104v276h591v-276h-86l117 -256h4l105 256h-76v276h532v-276h-96l-317 -568v-78z" />
    <glyph glyph-name="Zsmall" unicode="&#xf77a;" horiz-adv-x="1052" 
d="M80 1198h913v-256l-514 -661v-5h252v78h279v-354h-969v256l524 662v4h-207v-80h-278v356z" />
    <glyph glyph-name="exclamdownsmall" unicode="&#xf7a1;" horiz-adv-x="471" 
d="M410 901h-349v328h349v-328zM410 0h-349l21 778h307z" />
    <glyph glyph-name="centoldstyle" unicode="&#xf7a2;" horiz-adv-x="1044" 
d="M696 -266h-184v205h184v-205zM696 1085h-184v205h184v-205zM696 676v80q-29 2 -82 2q-84 0 -134 -58t-50 -188t50 -188t134 -58q51 0 79.5 1.5t87 10.5t141.5 29l61 -276q-202 -51 -369 -51q-124 0 -218.5 24t-157.5 68t-103 111t-57 147t-17 182t17 182t57 147t103 111
t157.5 68t218.5 24q167 0 369 -51v-317h-287z" />
    <glyph glyph-name="Dieresissmall" unicode="&#xf7a8;" horiz-adv-x="983" 
d="M102 1597h308v-286h-308v286zM573 1597h308v-286h-308v286z" />
    <glyph glyph-name="Macronsmall" unicode="&#xf7af;" horiz-adv-x="778" 
d="M102 1556h574v-245h-574v245z" />
    <glyph glyph-name="Acutesmall" unicode="&#xf7b4;" horiz-adv-x="593" 
d="M492 1597l-205 -286h-185l103 286h287z" />
    <glyph glyph-name="Cedillasmall" unicode="&#xf7b8;" horiz-adv-x="602" 
d="M207 -164v164h123v-102q170 -28 170 -152q0 -77 -58 -121.5t-161 -44.5q-93 0 -179 25l19 106q44 -8 88 -8q37 0 58.5 15.5t21.5 45.5q0 48 -82 72z" />
    <glyph glyph-name="questiondownsmall" unicode="&#xf7bf;" horiz-adv-x="983" 
d="M655 301v78h287v-277q-89 -48 -220.5 -85t-240.5 -37q-103 0 -182.5 20.5t-127.5 52t-78 76t-41 87.5t-11 91q0 69 18 122.5t47 85.5t64 57t70 43t64 36.5t47 45t18 61.5v41h307v-62q0 -71 -15.5 -123.5t-39.5 -82t-53.5 -49.5t-59.5 -31.5t-54 -22.5t-39.5 -28
t-15.5 -42q0 -71 154 -71q46 0 102 14zM696 1229v-328h-348v328h348z" />
    <glyph glyph-name="Agravesmall" unicode="&#xf7e0;" horiz-adv-x="1310" 
d="M512 1311l-205 286h287l102 -286h-184zM227 1198h674l283 -922h102v-276h-575v276h86l-19 84h-266l-23 -84h91v-276h-555v276h114l199 646h-111v276zM655 862h-4l-67 -246h131z" />
    <glyph glyph-name="Aacutesmall" unicode="&#xf7e1;" horiz-adv-x="1310" 
d="M901 1597l-205 -286h-184l102 286h287zM227 1198h674l283 -922h102v-276h-575v276h86l-19 84h-266l-23 -84h91v-276h-555v276h114l199 646h-111v276zM655 862h-4l-67 -246h131z" />
    <glyph glyph-name="Acircumflexsmall" unicode="&#xf7e2;" horiz-adv-x="1310" 
d="M645 1389l-143 -99h-185l226 287h205l225 -287h-185zM227 1198h674l283 -922h102v-276h-575v276h86l-19 84h-266l-23 -84h91v-276h-555v276h114l199 646h-111v276zM655 862h-4l-67 -246h131z" />
    <glyph glyph-name="Atildesmall" unicode="&#xf7e3;" horiz-adv-x="1310" 
d="M526 1362q-63 0 -127 -72l-106 82q43 115 104 170t121 55q55 0 148.5 -35.5t124.5 -35.5h12h13t12.5 0.5t14 2t13.5 4t15.5 6.5t15.5 9.5t18 13t19 17.5l86 -104q-70 -147 -174 -172q-17 -5 -45 -5q-39 0 -132.5 32t-132.5 32zM227 1198h674l283 -922h102v-276h-575v276
h86l-19 84h-266l-23 -84h91v-276h-555v276h114l199 646h-111v276zM655 862h-4l-67 -246h131z" />
    <glyph glyph-name="Adieresissmall" unicode="&#xf7e4;" horiz-adv-x="1310" 
d="M266 1597h307v-286h-307v286zM737 1597h307v-286h-307v286zM227 1198h674l283 -922h102v-276h-575v276h86l-19 84h-266l-23 -84h91v-276h-555v276h114l199 646h-111v276zM655 862h-4l-67 -246h131z" />
    <glyph glyph-name="Aringsmall" unicode="&#xf7e5;" horiz-adv-x="1310" 
d="M451 1495q0 85 59.5 145t144.5 60t145 -60t60 -145t-60 -145t-145 -60t-144.5 60t-59.5 145zM575 1495q0 -34 23 -57t57 -23t57 23t23 57t-23 57t-57 23t-57 -23t-23 -57zM227 1198h674l283 -922h102v-276h-575v276h86l-19 84h-266l-23 -84h91v-276h-555v276h114l199 646
h-111v276zM655 862h-4l-67 -246h131z" />
    <glyph glyph-name="AEsmall" unicode="&#xf7e6;" horiz-adv-x="1708" 
d="M444 922h-112v276h1337v-356h-278v80h-281v-168h467v-277h-467v-201h281v78h278v-354h-919v188h-312l-76 -188h-333v276h116zM748 881l-179 -416h181v416h-2z" />
    <glyph glyph-name="Ccedillasmall" unicode="&#xf7e7;" horiz-adv-x="1144" 
d="M571 -143v127q-532 32 -532 624q0 108 17 196.5t59 167.5t108.5 132t169 84t236.5 31q122 0 229.5 -16t245.5 -56v-338h-279v123q-88 10 -168 10q-115 0 -177 -87.5t-62 -246.5q0 -171 61.5 -260.5t177.5 -89.5q84 0 168 12v119h279v-334q-221 -65 -414 -71v-70
q22 -4 36.5 -7.5t38.5 -14t39 -23t26.5 -35.5t11.5 -51q0 -68 -52.5 -105.5t-148.5 -37.5q-91 0 -164 20l19 102q29 -6 75 -6q66 0 66 45q0 10 -3.5 18t-12.5 14t-14.5 9t-19 8t-16.5 7z" />
    <glyph glyph-name="Egravesmall" unicode="&#xf7e8;" horiz-adv-x="1071" 
d="M25 1198h1007v-358h-278v82h-281v-168h467v-277h-467v-201h281v82h278v-358h-1007v276h88v646h-88v276zM442 1311l-204 286h286l103 -286h-185z" />
    <glyph glyph-name="Eacutesmall" unicode="&#xf7e9;" horiz-adv-x="1071" 
d="M25 1198h1007v-358h-278v82h-281v-168h467v-277h-467v-201h281v82h278v-358h-1007v276h88v646h-88v276zM813 1597l-205 -286h-184l102 286h287z" />
    <glyph glyph-name="Ecircumflexsmall" unicode="&#xf7ea;" horiz-adv-x="1071" 
d="M25 1198h1007v-358h-278v82h-281v-168h467v-277h-467v-201h281v82h278v-358h-1007v276h88v646h-88v276zM547 1389l-144 -99h-184l225 287h205l225 -287h-184z" />
    <glyph glyph-name="Edieresissmall" unicode="&#xf7eb;" horiz-adv-x="1071" 
d="M25 1198h1007v-358h-278v82h-281v-168h467v-277h-467v-201h281v82h278v-358h-1007v276h88v646h-88v276zM160 1597h307v-286h-307v286zM631 1597h307v-286h-307v286z" />
    <glyph glyph-name="Igravesmall" unicode="&#xf7ec;" horiz-adv-x="583" 
d="M25 276h88v646h-88v276h534v-276h-86v-646h86v-276h-534v276zM225 1311l-205 286h287l103 -286h-185z" />
    <glyph glyph-name="Iacutesmall" unicode="&#xf7ed;" horiz-adv-x="583" 
d="M25 276h88v646h-88v276h534v-276h-86v-646h86v-276h-534v276zM567 1597l-205 -286h-184l103 286h286z" />
    <glyph glyph-name="Icircumflexsmall" unicode="&#xf7ee;" horiz-adv-x="583" 
d="M25 276h88v646h-88v276h534v-276h-86v-646h86v-276h-534v276zM291 1389l-144 -99h-184l225 287h205l225 -287h-184z" />
    <glyph glyph-name="Idieresissmall" unicode="&#xf7ef;" horiz-adv-x="583" 
d="M25 276h88v646h-88v276h534v-276h-86v-646h86v-276h-534v276zM-98 1597h307v-286h-307v286zM373 1597h307v-286h-307v286z" />
    <glyph glyph-name="Ntildesmall" unicode="&#xf7f1;" horiz-adv-x="1292" 
d="M754 1198h514v-276h-88v-922h-318l-416 588l-4 -21v-291h97v-276h-514v276h88v646h-88v276h387l434 -627l4 21v330h-96v276zM541 1362q-63 0 -127 -72l-107 82q43 115 104 170t121 55q55 0 148.5 -35.5t124.5 -35.5h12h13t12.5 0.5t14 2t13.5 4t15.5 6.5t15.5 9.5t18 13
t19 17.5l86 -104q-70 -147 -174 -172q-17 -5 -45 -5q-39 0 -132 32t-132 32z" />
    <glyph glyph-name="Ogravesmall" unicode="&#xf7f2;" horiz-adv-x="1255" 
d="M629 942q-124 0 -167.5 -80.5t-43.5 -253.5q0 -86 8.5 -145.5t30.5 -108.5t65 -73.5t107 -24.5t106 24.5t64 73.5t30.5 109t8.5 145q0 67 -5 116t-18.5 92t-36.5 69.5t-60.5 41.5t-88.5 15zM629 -20q-590 0 -590 628q0 108 17 196.5t59 167.5t108.5 132t169 84t236.5 31
q133 0 235.5 -31t168.5 -84t108 -132t59 -167.5t17 -196.5q0 -628 -588 -628zM520 1311l-205 286h287l103 -286h-185z" />
    <glyph glyph-name="Oacutesmall" unicode="&#xf7f3;" horiz-adv-x="1255" 
d="M629 942q-124 0 -167.5 -80.5t-43.5 -253.5q0 -86 8.5 -145.5t30.5 -108.5t65 -73.5t107 -24.5t106 24.5t64 73.5t30.5 109t8.5 145q0 67 -5 116t-18.5 92t-36.5 69.5t-60.5 41.5t-88.5 15zM629 -20q-590 0 -590 628q0 108 17 196.5t59 167.5t108.5 132t169 84t236.5 31
q133 0 235.5 -31t168.5 -84t108 -132t59 -167.5t17 -196.5q0 -628 -588 -628zM930 1597l-205 -286h-184l102 286h287z" />
    <glyph glyph-name="Ocircumflexsmall" unicode="&#xf7f4;" horiz-adv-x="1255" 
d="M629 942q-124 0 -167.5 -80.5t-43.5 -253.5q0 -86 8.5 -145.5t30.5 -108.5t65 -73.5t107 -24.5t106 24.5t64 73.5t30.5 109t8.5 145q0 67 -5 116t-18.5 92t-36.5 69.5t-60.5 41.5t-88.5 15zM629 -20q-590 0 -590 628q0 108 17 196.5t59 167.5t108.5 132t169 84t236.5 31
q133 0 235.5 -31t168.5 -84t108 -132t59 -167.5t17 -196.5q0 -628 -588 -628zM627 1389l-144 -99h-184l225 287h205l225 -287h-184z" />
    <glyph glyph-name="Otildesmall" unicode="&#xf7f5;" horiz-adv-x="1255" 
d="M629 942q-124 0 -167.5 -80.5t-43.5 -253.5q0 -86 8.5 -145.5t30.5 -108.5t65 -73.5t107 -24.5t106 24.5t64 73.5t30.5 109t8.5 145q0 67 -5 116t-18.5 92t-36.5 69.5t-60.5 41.5t-88.5 15zM629 -20q-590 0 -590 628q0 108 17 196.5t59 167.5t108.5 132t169 84t236.5 31
q133 0 235.5 -31t168.5 -84t108 -132t59 -167.5t17 -196.5q0 -628 -588 -628zM502 1362q-63 0 -127 -72l-107 82q43 115 104.5 170t121.5 55q55 0 148 -35.5t124 -35.5h12h13t12.5 0.5t14 2t13.5 4t15.5 6.5t15.5 9.5t18 13t19 17.5l86 -104q-70 -147 -174 -172
q-17 -5 -45 -5q-39 0 -132 32t-132 32z" />
    <glyph glyph-name="Odieresissmall" unicode="&#xf7f6;" horiz-adv-x="1255" 
d="M629 942q-124 0 -167.5 -80.5t-43.5 -253.5q0 -86 8.5 -145.5t30.5 -108.5t65 -73.5t107 -24.5t106 24.5t64 73.5t30.5 109t8.5 145q0 67 -5 116t-18.5 92t-36.5 69.5t-60.5 41.5t-88.5 15zM629 -20q-590 0 -590 628q0 108 17 196.5t59 167.5t108.5 132t169 84t236.5 31
q133 0 235.5 -31t168.5 -84t108 -132t59 -167.5t17 -196.5q0 -628 -588 -628zM238 1597h307v-286h-307v286zM709 1597h307v-286h-307v286z" />
    <glyph glyph-name="Oslashsmall" unicode="&#xf7f8;" horiz-adv-x="1255" 
d="M629 -20q-220 0 -367 90l-119 -144l-100 78l127 150q-131 157 -131 454q0 108 17 196.5t59 167.5t108.5 132t169 84t236.5 31q204 0 354 -80l127 153l100 -78l-133 -157q140 -150 140 -449q0 -628 -588 -628zM629 276q123 0 166 80t43 252q0 50 -9 142l-354 -414
q51 -60 154 -60zM629 924q-125 0 -168 -73t-43 -243q0 -55 4 -137l350 406q-50 47 -143 47z" />
    <glyph glyph-name="Ugravesmall" unicode="&#xf7f9;" horiz-adv-x="1273" 
d="M715 1198h534v-276h-88v-500q0 -116 -40 -203t-112 -138t-165 -76t-207 -25t-207 25t-165 76t-112 138t-40 203v500h-88v276h534v-276h-86v-500q0 -88 41.5 -127t122.5 -39t122.5 39t41.5 127v500h-86v276zM555 1311l-205 286h287l102 -286h-184z" />
    <glyph glyph-name="Uacutesmall" unicode="&#xf7fa;" horiz-adv-x="1273" 
d="M715 1198h534v-276h-88v-500q0 -116 -40 -203t-112 -138t-165 -76t-207 -25t-207 25t-165 76t-112 138t-40 203v500h-88v276h534v-276h-86v-500q0 -88 41.5 -127t122.5 -39t122.5 39t41.5 127v500h-86v276zM961 1597l-205 -286h-185l103 286h287z" />
    <glyph glyph-name="Ucircumflexsmall" unicode="&#xf7fb;" horiz-adv-x="1273" 
d="M715 1198h534v-276h-88v-500q0 -116 -40 -203t-112 -138t-165 -76t-207 -25t-207 25t-165 76t-112 138t-40 203v500h-88v276h534v-276h-86v-500q0 -88 41.5 -127t122.5 -39t122.5 39t41.5 127v500h-86v276zM637 1389l-143 -99h-185l226 287h204l226 -287h-185z" />
    <glyph glyph-name="Udieresissmall" unicode="&#xf7fc;" horiz-adv-x="1273" 
d="M715 1198h534v-276h-88v-500q0 -116 -40 -203t-112 -138t-165 -76t-207 -25t-207 25t-165 76t-112 138t-40 203v500h-88v276h534v-276h-86v-500q0 -88 41.5 -127t122.5 -39t122.5 39t41.5 127v500h-86v276zM248 1597h307v-286h-307v286zM719 1597h307v-286h-307v286z" />
    <glyph glyph-name="Yacutesmall" unicode="&#xf7fd;" horiz-adv-x="1236" 
d="M799 276h86v-276h-533v276h86v78l-309 568h-104v276h591v-276h-86l117 -256h4l105 256h-76v276h532v-276h-96l-317 -568v-78zM936 1597l-205 -286h-184l102 286h287z" />
    <glyph glyph-name="Ydieresissmall" unicode="&#xf7ff;" horiz-adv-x="1236" 
d="M799 276h86v-276h-533v276h86v78l-309 568h-104v276h591v-276h-86l117 -256h4l105 256h-76v276h532v-276h-96l-317 -568v-78zM229 1597h308v-286h-308v286zM700 1597h308v-286h-308v286z" />
    <glyph glyph-name="Breve" horiz-adv-x="835" 
d="M418 1692q134 0 178 110h137q-36 -307 -315 -307q-280 0 -316 307h138q44 -110 178 -110z" />
    <glyph glyph-name="Cedilla" horiz-adv-x="602" 
d="M207 -164v164h123v-102q170 -28 170 -152q0 -77 -58 -121.5t-161 -44.5q-93 0 -179 25l19 106q44 -8 88 -8q37 0 58.5 15.5t21.5 45.5q0 48 -82 72z" />
    <glyph glyph-name="Circumflex" horiz-adv-x="860" 
d="M430 1593l-143 -98h-185l226 287h204l226 -287h-185z" />
    <glyph glyph-name="commaaccent.cap" horiz-adv-x="471" 
d="M246 -553h-103l62 205h-144v266h349v-266z" />
    <glyph glyph-name="Dotaccent" horiz-adv-x="512" 
d="M102 1782h308v-287h-308v287z" />
    <glyph glyph-name="Ogonek" horiz-adv-x="643" 
d="M530 -281l11 -79q-34 -27 -93.5 -43.5t-111.5 -16.5q-105 0 -169.5 49t-64.5 123q0 141 177 248h163q-108 -89 -108 -186q0 -52 32.5 -80.5t90.5 -28.5q35 0 73 14z" />
    <glyph glyph-name="Ring" horiz-adv-x="614" 
d="M102 1679q0 85 60 145t145 60t145 -60t60 -145t-60 -144.5t-145 -59.5t-145 59.5t-60 144.5zM227 1679q0 -34 23 -57t57 -23t57 23t23 57t-23 57t-57 23t-57 -23t-23 -57z" />
    <glyph glyph-name="Tilde" horiz-adv-x="921" 
d="M336 1546q-63 0 -127 -71l-107 81q43 115 104.5 170.5t121.5 55.5q55 0 148 -36t124 -36h12h13t12.5 0.5t14 2t13.5 4t15.5 6.5t15.5 9.5t18 13t19 17.5l86 -104q-70 -147 -174 -172q-14 -4 -45 -4q-39 0 -132 31.5t-132 31.5z" />
    <glyph glyph-name="commaaccent.small" horiz-adv-x="471" 
d="M246 -553h-103l62 205h-144v266h349v-266z" />
    <glyph glyph-name="DieresisAcute.small" horiz-adv-x="1290" 
d="M860 1659l-225 -348h-184l102 348h307zM102 1597h308v-286h-308v286zM881 1597h307v-286h-307v286z" />
    <glyph glyph-name="DieresisGrave.small" horiz-adv-x="1290" 
d="M655 1311l-225 348h307l103 -348h-185zM881 1597h307v-286h-307v286zM102 1597h308v-286h-308v286z" />
    <glyph glyph-name="dblGrave.small" horiz-adv-x="942" 
d="M655 1311l-204 286h286l103 -286h-185zM307 1311l-205 286h287l103 -286h-185z" />
    <glyph glyph-name="middot" horiz-adv-x="512" 
d="M102 778h308v-286h-308v286z" />
    <glyph glyph-name="Aogonek.small" horiz-adv-x="1310" 
d="M1157 -236l8 -75q-30 -23 -85 -37t-103 -14q-99 0 -158 44t-59 109q0 56 39.5 110.5t118.5 98.5h-207v276h86l-19 84h-266l-23 -84h91v-276h-555v276h114l199 646h-111v276h674l283 -922h102v-276h-209q-92 -74 -92 -152q0 -44 29.5 -68t81.5 -24q36 0 61 8zM655 862h-2
l-69 -246h131z" />
    <glyph glyph-name="Dcroat.small" horiz-adv-x="1236" 
d="M25 1198h583q135 0 237.5 -28.5t169 -79t108 -126t58.5 -162t17 -194.5q0 -109 -17 -197t-59 -166t-108 -131t-169 -83.5t-237 -30.5h-583v276h88v234h-88v197h88v215h-88v276zM473 276h135q53 0 90.5 15t61 40.5t36.5 69t18 91.5t5 116q0 85 -8 139t-30.5 96t-64.5 60.5
t-108 18.5h-135v-215h182v-197h-182v-234z" />
    <glyph glyph-name="Eogonek.small" horiz-adv-x="1071" 
d="M25 1198h1007v-356h-278v80h-281v-168h467v-277h-467v-201h281v78h278v-354q-92 -74 -92 -152q0 -44 29.5 -68t81.5 -24q36 0 61 8l8 -75q-29 -23 -84 -37t-102 -14q-100 0 -159.5 44t-59.5 109q0 56 39.5 110.5t119.5 98.5h-849v276h88v646h-88v276z" />
    <glyph glyph-name="Hbar.small" horiz-adv-x="1273" 
d="M715 276h86v201h-328v-201h86v-276h-534v276h88v504h-88v78h88v64h-88v276h534v-276h-86v-64h328v64h-86v276h534v-276h-88v-64h88v-78h-88v-504h88v-276h-534v276zM473 713h328v67h-328v-67z" />
    <glyph glyph-name="Iogonek.small" horiz-adv-x="583" 
d="M461 -236l10 -75q-30 -23 -85 -37t-103 -14q-99 0 -158 44t-59 109q0 121 157 209h-198v276h88v646h-88v276h534v-276h-86v-646h86v-276h-176q-92 -74 -92 -152q0 -44 29.5 -68t80.5 -24q37 0 60 8z" />
    <glyph glyph-name="IJ.small" horiz-adv-x="1316" 
d="M25 276h88v646h-88v276h534v-276h-86v-646h86v-276h-534v276zM760 1198h532v-276h-86v-576q0 -183 -102.5 -274.5t-280.5 -91.5q-134 0 -229 20l31 274q62 -8 98 -8q25 0 40 1.5t37.5 8t34 24.5t11.5 46v576h-86v276z" />
    <glyph glyph-name="Scedilla.small" horiz-adv-x="1089" 
d="M457 -143v125q-201 9 -418 73v355h278v-107q185 -27 228 -27q62 0 94.5 13.5t32.5 50.5q0 13 -5.5 23.5t-19 19.5t-27 15.5t-39.5 14.5t-46.5 13.5t-58 15.5t-64.5 17q-375 111 -375 395q0 94 39 166t107.5 114.5t154 63.5t186.5 21q221 0 467 -72v-361h-278v123
q-120 15 -189 15q-44 0 -75 -15t-31 -45q0 -32 51.5 -55t183.5 -53q398 -89 398 -377q0 -99 -37 -175t-102.5 -123t-150 -72t-186.5 -29v-66q22 -4 37 -8t39.5 -14t39.5 -22.5t26.5 -35.5t11.5 -51q0 -68 -52.5 -105.5t-148.5 -37.5q-93 0 -163 20l18 102q29 -6 76 -6
q65 0 65 45q0 10 -3 17.5t-13 14t-14 9t-20 9t-17 6.5z" />
    <glyph glyph-name="Tbar.small" horiz-adv-x="1089" 
d="M18 1198h1053v-356h-280v80h-66v-277h123v-196h-123v-173h86v-276h-532v276h86v173h-123v196h123v277h-66v-80h-281v356z" />
    <glyph glyph-name="Uogonek.small" horiz-adv-x="1273" 
d="M715 1198h534v-276h-88v-500q0 -108 -35 -190.5t-99 -134t-146 -80t-183 -35.5q-71 -60 -71 -134q0 -44 29.5 -68t80.5 -24q35 0 60 8l10 -75q-30 -23 -85.5 -37t-103.5 -14q-99 0 -158 44t-59 109q0 110 136 195q-195 22 -309.5 128.5t-114.5 307.5v500h-88v276h534
v-276h-86v-500q0 -88 41.5 -127t122.5 -39t122.5 39t41.5 127v500h-86v276z" />
    <glyph glyph-name="c_t" horiz-adv-x="1771" 
d="M963 676h-287v80q-29 2 -82 2q-84 0 -134 -58t-50 -188t50 -188t134 -58q51 0 79.5 1.5t86.5 10.5t141 29l62 -276q-202 -51 -369 -51q-124 0 -218.5 24t-157.5 68t-103 111t-57 147t-17 182t17 182t57 147t103 111t157.5 68t218.5 24q167 0 369 -51v-317zM1147 289v489
h-123v226l123 20l41 287h307v-287h225v-246h-225v-428q0 -94 123 -94q30 0 82 10l31 -266q-102 -20 -236 -20q-187 0 -267.5 76t-80.5 233z" />
    <glyph glyph-name="s_p" horiz-adv-x="2099" 
d="M911 676h-286v82q-71 10 -144 10q-51 0 -76.5 -8.5t-25.5 -32.5q0 -27 82 -44q20 -4 31 -7q14 -3 44 -10q39 -9 60.5 -14t61.5 -16t63.5 -20.5t58.5 -26t56.5 -33t46 -40.5t38 -51t22.5 -62t9 -75q0 -178 -114.5 -263t-315.5 -85q-289 0 -491 51v317h286v-82
q83 -10 164 -10q123 0 123 47q0 10 -6 17t-20.5 11.5t-26 6.5t-35 5t-35.5 5q-80 13 -142 30.5t-122 46.5t-99 67.5t-63 95.5t-24 129q0 175 112 251t318 76q248 0 450 -51v-317zM973 737v287h450v-102h4q43 54 115.5 88t147.5 34q368 0 368 -532q0 -112 -21 -205
t-65.5 -168t-121.5 -117t-181 -42q-69 0 -134.5 29.5t-107.5 82.5h-4v-215h103v-287h-553v287h102v860h-102zM1690 512q0 57 -7 99.5t-22.5 76.5t-44.5 52t-70 18q-64 0 -123 -41v-410q59 -41 123 -41q41 0 70 18t44.5 52t22.5 76.5t7 99.5z" />
    <glyph glyph-name="s_t" horiz-adv-x="1761" 
d="M911 676h-286v82q-71 10 -144 10q-51 0 -76.5 -8.5t-25.5 -32.5q0 -27 82 -44q20 -4 31 -7q14 -3 44 -10q39 -9 60.5 -14t61.5 -16t63.5 -20.5t58.5 -26t56.5 -33t46 -40.5t38 -51t22.5 -62t9 -75q0 -178 -114.5 -263t-315.5 -85q-289 0 -491 51v317h286v-82
q83 -10 164 -10q123 0 123 47q0 10 -6 17t-20.5 11.5t-26 6.5t-35 5t-35.5 5q-80 13 -142 30.5t-122 46.5t-99 67.5t-63 95.5t-24 129q0 175 112 251t318 76q248 0 450 -51v-317zM1137 289v489h-123v226l123 20l41 287h307v-287h225v-246h-225v-428q0 -94 123 -94
q30 0 82 10l30 -266q-102 -20 -235 -20q-187 0 -267.5 76t-80.5 233z" />
    <glyph glyph-name="h.superior" horiz-adv-x="624" 
d="M336 881v149h39v156q0 67 -60 67q-25 0 -65 -16v-207h39v-149h-269v149h50v418h-50v149h230v-266h2q60 72 149 72q74 0 114 -47.5t40 -126.5v-199h49v-149h-268z" />
    <glyph glyph-name="Ethsmall" horiz-adv-x="1236" 
d="M25 1198h583q135 0 237.5 -28.5t169 -79t108 -126t58.5 -162t17 -194.5q0 -109 -17 -197t-59 -166t-108 -131t-169 -83.5t-237 -30.5h-583v276h88v234h-88v197h88v215h-88v276zM473 276h135q53 0 90.5 15t61 40.5t36.5 69t18 91.5t5 116q0 85 -8 139t-30.5 96t-64.5 60.5
t-108 18.5h-135v-215h182v-197h-182v-234z" />
    <glyph glyph-name="Thornsmall" horiz-adv-x="1167" 
d="M492 1065h143q232 0 361.5 -120t129.5 -341t-129.5 -341t-361.5 -120h-143v-143h-472v287h103v624h-103v287h472v-133zM492 778v-348h102q67 0 110.5 43.5t43.5 130.5t-43.5 130.5t-110.5 43.5h-102z" />
    <glyph glyph-name="Eng.small" horiz-adv-x="1292" 
d="M1180 -66q0 -183 -102.5 -273.5t-280.5 -90.5q-138 0 -230 20l29 275q66 -8 100 -8h31t31 4t33 11.5t20.5 23t9.5 38.5v66l-375 567h-4v-291h97v-276h-514v276h88v646h-88v276h428l393 -606h4v330h-96v276h514v-276h-88v-988z" />
    <glyph glyph-name="longs_h" horiz-adv-x="1843" 
d="M758 266v885q-47 6 -103 6q-54 0 -89 -8t-50 -23.5t-19.5 -29t-4.5 -33.5v-1124q0 -66 -8.5 -117.5t-32 -100.5t-61.5 -81t-100.5 -51t-146.5 -19q-92 0 -194 20l31 267q57 -11 81 -11q44 0 63 23.5t19 71.5v1122q0 65 11.5 117t43 101t83 81.5t136 52t197.5 19.5
q143 0 246 -21h246v-532h4q121 143 303 143q149 0 228 -94.5t79 -253.5v-410h103v-286h-533v286h82v328q0 75 -30 109t-93 34q-59 0 -143 -41v-430h82v-286h-533v286h103z" />
    <glyph glyph-name="longs_l" 
d="M492 1063v-1124q0 -66 -8.5 -117.5t-32 -100.5t-61.5 -81t-100.5 -51t-146.5 -19q-92 0 -194 20l31 267q57 -11 81 -11q44 0 63 23.5t19 71.5v1122q0 65 11.5 117t43 101t83 81.5t136 52t197.5 19.5q143 0 246 -21h246v-1126h102v-287h-532v287h82v864q-47 6 -103 6
q-54 0 -89 -8t-50 -23.5t-19.5 -29t-4.5 -33.5z" />
    <glyph glyph-name="longs_t" horiz-adv-x="1372" 
d="M143 -59v1183q0 157 81 233.5t268 76.5q87 0 194 -21l-31 -266q-52 10 -82 10q-44 0 -62.5 -23t-18.5 -71v-1124q0 -66 -8.5 -117.5t-32 -100.5t-61.5 -81t-100.5 -51t-146.5 -19q-92 0 -194 20l31 267q57 -11 81 -11q44 0 63 23.5t19 71.5zM748 289v489h-123v226l123 20
l40 287h308v-287h225v-246h-225v-428q0 -94 123 -94q29 0 81 10l31 -266q-102 -20 -235 -20q-187 0 -267.5 76t-80.5 233z" />
    <glyph glyph-name="longs_i" horiz-adv-x="1218" 
d="M143 -59v1183q0 157 81 233.5t268 76.5q87 0 194 -21l-31 -266q-52 10 -82 10q-44 0 -62.5 -23t-18.5 -71v-1124q0 -66 -8.5 -117.5t-32 -100.5t-61.5 -81t-100.5 -51t-146.5 -19q-92 0 -194 20l31 267q57 -11 81 -11q44 0 63 23.5t19 71.5zM645 737v287h451v-737h102
v-287h-553v287h103v450h-103z" />
    <glyph glyph-name="longs_longs" horiz-adv-x="1269" 
d="M143 -59v1183q0 157 81 233.5t268 76.5q87 0 194 -21l-31 -266q-52 10 -82 10q-44 0 -62.5 -23t-18.5 -71v-1124q0 -66 -8.5 -117.5t-32 -100.5t-61.5 -81t-100.5 -51t-146.5 -19q-92 0 -194 20l31 267q57 -11 81 -11q44 0 63 23.5t19 71.5zM727 -59v1183
q0 157 80.5 233.5t267.5 76.5q88 0 195 -21l-31 -266q-52 10 -82 10q-44 0 -63 -23t-19 -71v-1124q0 -54 -6 -98.5t-20.5 -88t-40.5 -75.5t-63.5 -56.5t-92.5 -37.5t-125 -13q-93 0 -195 20l31 267q57 -11 82 -11q44 0 63 23.5t19 71.5z" />
    <glyph glyph-name="zero.slash" horiz-adv-x="1208" 
d="M604 -20q-117 0 -209.5 37.5t-154.5 103t-102.5 158.5t-58.5 199t-18 229t18 227t58.5 193.5t102.5 152t154.5 98t209.5 35.5t209.5 -35.5t154.5 -98t102.5 -152t58.5 -193.5t18 -227t-18 -229t-58.5 -199t-102.5 -158.5t-154.5 -103t-209.5 -37.5zM604 266
q174 0 174 441q0 40 -4 114l-317 -401q43 -154 147 -154zM604 1126q-95 0 -134.5 -107t-39.5 -312q0 -74 2 -107l313 397q-42 129 -141 129z" />
    <glyph glyph-name="zero.fitted" 
d="M614 1126q-55 0 -93 -28.5t-59.5 -85.5t-30.5 -130.5t-9 -174.5t9 -177.5t30.5 -138t59.5 -93.5t93 -32t93.5 32t59.5 93.5t30.5 138t9.5 177.5t-9.5 174.5t-31 130.5t-59.5 85.5t-93 28.5zM614 -20q-133 0 -233.5 38t-162.5 102t-100 159.5t-52.5 198t-14.5 229.5
t14.5 227.5t52.5 192.5t100 153t162 97t234 36t234 -36t162.5 -97t100.5 -153t52.5 -192.5t14.5 -227.5t-14.5 -229.5t-53 -198t-100.5 -159.5t-162.5 -102t-233.5 -38z" />
    <glyph glyph-name="one.fitted" 
d="M791 287h319v-287h-991v287h321v778h-299v246l484 92h166v-1116z" />
    <glyph glyph-name="two.fitted" 
d="M868 389h287v-389h-1083v328q196 112 323.5 197.5t199 154t99 121.5t27.5 110q0 185 -221 185q-70 0 -140 -11v-81h-288v307q147 56 259 79t251 23q248 0 379 -119t131 -311q0 -104 -36.5 -195.5t-112 -174.5t-162 -150.5t-214.5 -151.5v-4h301v82z" />
    <glyph glyph-name="three.fitted" 
d="M82 82v307h289v-106q96 -17 200 -17q107 0 161 42t54 102q0 80 -58.5 111.5t-176.5 31.5h-203v287h187q69 0 115.5 14.5t67.5 41t28.5 51.5t7.5 57q0 55 -48 88.5t-135 33.5q-94 0 -188 -20v-102h-289v307q240 102 539 102q127 0 231.5 -39t172 -125t67.5 -207
q0 -212 -236 -307v-4q141 -39 210 -132.5t69 -209.5q0 -197 -147.5 -303t-407.5 -106q-149 0 -261.5 21.5t-248.5 80.5z" />
    <glyph glyph-name="four.fitted" 
d="M385 655h291v379h-4q-77 -121 -135.5 -198t-151.5 -181zM676 287v82h-647v286q201 209 267 287q183 215 296 461h434v-748h174v-286h-174v-82h109v-287h-570v287h111z" />
    <glyph glyph-name="five.fitted" 
d="M1102 1393v-389h-289v81h-383l-12 -213l4 -2q114 62 268 62q211 0 334 -118t123 -343q0 -242 -150.5 -366.5t-425.5 -124.5q-130 0 -242 22t-247 80v287h289v-88q89 -15 180 -15q115 0 170 53.5t55 131.5q0 34 -10 64t-33 58.5t-66.5 45t-103.5 16.5q-69 0 -113 -14
t-98 -48l-248 21l23 799h975z" />
    <glyph glyph-name="six.fitted" 
d="M422 825l4 -2q52 51 125.5 80t155.5 29q209 0 329.5 -126.5t120.5 -354.5q0 -219 -144 -345t-382 -126q-141 0 -250.5 52t-175.5 141.5t-99.5 201t-33.5 239.5q0 133 18.5 244t50.5 192.5t79.5 144.5t103 103.5t123 67t136.5 37t148 10.5q197 0 383 -61v-348h-289v122
h-63q-47 0 -88.5 -6t-90 -25t-83 -50.5t-57 -88t-21.5 -131.5zM453 573q-10 -54 -5.5 -108.5t19 -98.5t52.5 -72t95 -28q75 0 123.5 48t48.5 137q0 34 -8 63.5t-26.5 57t-54 43.5t-85.5 16q-80 0 -159 -58z" />
    <glyph glyph-name="seven.fitted" 
d="M76 1393h1079v-246q-59 -102 -83 -143.5t-76 -137t-77 -151.5t-65.5 -151t-64 -173.5t-49.5 -181t-44 -209.5h-391q50 259 175.5 549t293.5 532v4h-412v-81h-286v389z" />
    <glyph glyph-name="eight.fitted" 
d="M918 735v-4q133 -67 196.5 -151t63.5 -191q0 -86 -32 -156t-85.5 -116.5t-128 -78t-156 -45t-172.5 -13.5q-86 0 -163.5 11.5t-150 39.5t-124.5 69.5t-83.5 106t-31.5 145.5q0 226 256 330v4q-213 118 -213 338q0 78 30 143.5t81 110.5t120 76t144.5 45t155.5 14
q75 0 147 -14t138 -44t116 -73t79.5 -105t29.5 -135q0 -103 -53.5 -175.5t-163.5 -131.5zM412 389q0 -62 54 -107.5t161 -45.5q98 0 144 34t46 88q0 25 -8 46t-25.5 38t-34.5 30t-45.5 26t-46.5 20t-50.5 18.5t-45.5 16.5q-65 -25 -107 -68t-42 -96zM604 1157
q-72 0 -116 -38.5t-44 -84.5q0 -67 64 -113t149 -63q53 18 90 61t37 95q0 59 -47 101t-133 42z" />
    <glyph glyph-name="nine.fitted" 
d="M807 567l-4 2q-52 -50 -125.5 -79t-155.5 -29q-209 0 -329.5 126.5t-120.5 354.5q0 219 144 345t382 126q141 0 250.5 -52t175.5 -141.5t99.5 -201.5t33.5 -240q0 -185 -35.5 -326.5t-94.5 -229.5t-145.5 -143.5t-179 -77t-204.5 -21.5q-197 0 -383 61v348h288v-123h64
q47 0 88.5 6t90 25t83 50.5t57 88t21.5 131.5zM776 819q10 54 5.5 108.5t-19.5 98.5t-53 72t-95 28q-76 0 -124 -47.5t-48 -136.5q0 -34 8 -63.5t26.5 -57t54 -43.5t85.5 -16q82 0 160 57z" />
    <glyph glyph-name="zerooldstyle" horiz-adv-x="1167" 
d="M584 758q-73 0 -123.5 -56.5t-50.5 -189.5t50.5 -189.5t123.5 -56.5t123.5 56.5t50.5 189.5t-50.5 189.5t-123.5 56.5zM584 -20q-251 0 -397 138t-146 394t146 394t397 138t396.5 -138t145.5 -394t-145.5 -394t-396.5 -138z" />
    <glyph glyph-name="oneoldstyle" horiz-adv-x="798" 
d="M573 287h205v-287h-758v287h205v409h-205v246l390 92h163v-747z" />
    <glyph glyph-name="twooldstyle" horiz-adv-x="1085" 
d="M778 348h287v-348h-1045v328q45 14 111 34.5t107.5 33.5t97 31t90.5 31.5t76 31t65 33t46.5 34t32 38t9.5 40.5q0 92 -145 92q-67 0 -182 -18v-74h-287v328q87 31 226.5 56t283.5 25q242 0 357.5 -88.5t115.5 -228.5q0 -57 -17.5 -107.5t-39 -86t-68.5 -70t-76.5 -53.5
t-95 -45t-92.5 -35t-98 -31q-17 -5 -25 -8v-4h266v61z" />
    <glyph glyph-name="threeoldstyle" horiz-adv-x="1064" 
d="M20 -287v307h287v-106q84 -16 185 -16q94 0 144 42t50 101q0 80 -54 111.5t-161 31.5h-195v287h179q65 0 108 14.5t61.5 41.5t24.5 51t6 57q0 55 -44 89t-119 34q-84 0 -175 -21v-102h-286v307q234 102 522 102q89 0 168.5 -23t143.5 -67t101.5 -116.5t37.5 -163.5
q0 -214 -222 -307v-5q134 -39 198 -132t64 -210q0 -197 -141.5 -303t-390.5 -106q-144 0 -251.5 21.5t-240.5 80.5z" />
    <glyph glyph-name="fouroldstyle" horiz-adv-x="1167" 
d="M375 287h260v379h-4q-74 -128 -125.5 -204t-130.5 -175zM635 -82v82h-615v287q195 213 266 302q162 205 267 445h430v-747h164v-287h-164v-82h102v-287h-553v287h103z" />
    <glyph glyph-name="fiveoldstyle" horiz-adv-x="1105" 
d="M1024 1024v-389h-287v82h-354l-10 -213l4 -2q104 61 252 61q202 0 319 -118t117 -343q0 -243 -144 -367t-409 -124q-124 0 -232 22t-239 80v287h287v-88q74 -14 164 -14q107 0 155.5 53t48.5 131q0 26 -5 50.5t-19 49.5t-35 43t-56 29.5t-79 11.5q-65 0 -105 -13.5
t-90 -47.5l-246 20l21 799h942z" />
    <glyph glyph-name="sixoldstyle" horiz-adv-x="1126" 
d="M389 825l4 -2q48 50 117.5 79.5t144.5 29.5q200 0 315 -126.5t115 -354.5q0 -219 -138 -345t-367 -126q-135 0 -240.5 52t-169.5 141t-96.5 201t-32.5 240q0 133 17.5 244t48.5 192.5t77 144.5t99 103.5t118 67t131.5 37t141.5 10.5q190 0 370 -61v-348h-286v122h-53
q-40 0 -77.5 -6t-83 -25t-79 -50.5t-55.5 -88t-21 -131.5zM420 573q-10 -54 -6 -108.5t16.5 -98.5t47 -72t85.5 -28q68 0 111 48t43 137q0 34 -7 63.5t-23.5 57t-48.5 43.5t-77 16q-69 0 -141 -58z" />
    <glyph glyph-name="sevenoldstyle" horiz-adv-x="1003" 
d="M20 1024h963v-246q-72 -131 -108.5 -201t-95.5 -195.5t-93.5 -224.5t-71.5 -238.5t-61 -287.5h-389q46 261 163.5 551.5t276.5 530.5v4h-297v-82h-287v389z" />
    <glyph glyph-name="eightoldstyle" horiz-adv-x="1126" 
d="M864 735v-4q125 -67 183.5 -150.5t58.5 -191.5q0 -86 -31 -156t-83 -116.5t-124 -78t-150.5 -45t-164.5 -13.5q-82 0 -156.5 11.5t-144 39.5t-120.5 69.5t-81.5 106t-30.5 145.5q0 227 238 330v4q-197 118 -197 338q0 97 44.5 174t118.5 122.5t163 69t186 23.5
q71 0 140 -14t133 -44t112.5 -73t77.5 -105t29 -135q0 -103 -49.5 -175.5t-151.5 -131.5zM379 389q0 -62 49.5 -107.5t146.5 -45.5q88 0 130.5 34t42.5 88q0 29 -12.5 53.5t-28 41t-45 33.5t-48.5 25t-55.5 22.5t-48.5 19.5q-57 -25 -94 -68t-37 -96zM553 1157
q-67 0 -105 -38.5t-38 -84.5q0 -66 59 -112.5t137 -63.5q45 18 78 61.5t33 94.5q0 59 -41.5 101t-122.5 42z" />
    <glyph glyph-name="nineoldstyle" horiz-adv-x="1126" 
d="M737 199l-4 2q-48 -50 -117.5 -79.5t-144.5 -29.5q-200 0 -315 126.5t-115 354.5q0 219 138.5 345t367.5 126q135 0 240.5 -52t169 -141t96 -201t32.5 -240q0 -185 -34 -326.5t-90.5 -229.5t-139.5 -144t-172 -77.5t-196 -21.5q-191 0 -371 61v348h287v-122h53
q40 0 77.5 6t83 25t78.5 50.5t55 88t21 131.5zM707 451q10 54 6 108.5t-17 98.5t-47.5 72t-85.5 28q-67 0 -110 -48t-43 -137q0 -27 4 -50.5t14.5 -48t27.5 -42t45 -28.5t64 -11q70 0 142 58z" />
    <glyph glyph-name="zero.taboldstyle" 
d="M614 758q-73 0 -123.5 -56.5t-50.5 -189.5t50.5 -189.5t123.5 -56.5t123.5 56.5t50.5 189.5t-50.5 189.5t-123.5 56.5zM614 -20q-251 0 -396.5 138t-145.5 394t145.5 394t396.5 138t397 -138t146 -394t-146 -394t-397 -138z" />
    <glyph glyph-name="one.taboldstyle" 
d="M791 287h319v-287h-991v287h321v409h-299v246l484 92h166v-747z" />
    <glyph glyph-name="two.taboldstyle" 
d="M850 348h287v-348h-1045v328q45 14 111 34.5t107.5 33.5t97 31t90.5 31.5t76 31t65 33t46.5 34t32 38t9.5 40.5q0 92 -145 92q-68 0 -183 -18v-74h-286v328q87 31 226.5 56t283.5 25q242 0 357.5 -88.5t115.5 -228.5q0 -57 -17.5 -107.5t-39 -86t-68.5 -70t-76.5 -53.5
t-95 -45t-92.5 -35t-98 -31q-17 -5 -25 -8v-4h266v61z" />
    <glyph glyph-name="three.taboldstyle" 
d="M82 -287v307h289v-106q91 -16 200 -16q107 0 161 41.5t54 101.5q0 80 -58.5 111.5t-176.5 31.5h-203v287h187q69 0 115.5 14.5t67.5 41t28.5 51.5t7.5 57q0 55 -48 89t-135 34q-89 0 -188 -21v-102h-289v307q240 102 539 102q94 0 177.5 -23t150 -67t105 -116.5
t38.5 -163.5q0 -212 -236 -307v-5q141 -39 210 -132.5t69 -209.5q0 -197 -147.5 -303t-407.5 -106q-149 0 -261.5 21.5t-248.5 80.5z" />
    <glyph glyph-name="four.taboldstyle" 
d="M385 287h291v379h-4q-77 -121 -135.5 -198t-151.5 -181zM676 -82v82h-647v287q201 209 264 283q183 213 294 454q3 5 5 10h434v-747h174v-287h-174v-82h109v-287h-570v287h111z" />
    <glyph glyph-name="five.taboldstyle" 
d="M1102 1024v-389h-289v82h-383l-12 -213l4 -2q112 61 268 61q211 0 334 -118t123 -343q0 -242 -150.5 -366.5t-425.5 -124.5q-130 0 -242 22t-247 80v287h289v-88q83 -14 180 -14q116 0 170.5 53t54.5 131q0 34 -10 64t-33 58.5t-66.5 45t-103.5 16.5q-69 0 -113 -14
t-98 -47l-248 20l23 799h975z" />
    <glyph glyph-name="six.taboldstyle" 
d="M422 825l4 -2q52 51 125.5 80t155.5 29q209 0 329.5 -126.5t120.5 -354.5q0 -219 -144 -345t-382 -126q-141 0 -250.5 52t-175.5 141.5t-99.5 201t-33.5 239.5q0 133 18.5 244t50.5 192.5t79.5 144.5t103 103.5t123 67t136.5 37t148 10.5q197 0 383 -61v-348h-289v122
h-63q-47 0 -88.5 -6t-90 -25t-83 -50.5t-57 -88t-21.5 -131.5zM453 573q-10 -54 -5.5 -108.5t19 -98.5t52.5 -72t95 -28q75 0 123.5 48t48.5 137q0 34 -8 63.5t-26.5 57t-54 43.5t-85.5 16q-80 0 -159 -58z" />
    <glyph glyph-name="seven.taboldstyle" 
d="M76 1024h1079v-246q-59 -102 -83 -143.5t-76 -137t-77 -151.5t-65.5 -151t-64 -173.5t-49.5 -181t-44 -209.5h-391q50 259 175.5 549.5t293.5 532.5v4h-412v-82h-286v389z" />
    </font>
</defs>
</svg>
