<?xml version="1.0" standalone="no"?>
<!DOCTYPE svg PUBLIC "-//W3C//DTD SVG 1.1//EN" "http://www.w3.org/Graphics/SVG/1.1/DTD/svg11.dtd" >
<svg xmlns="http://www.w3.org/2000/svg" xmlns:xlink="http://www.w3.org/1999/xlink" version="1.1">
<metadata>
Created by FontForge 20170731 at Sat May  8 12:57:55 2021
 By Aleksey,,,
Copyright (c) 2008 by Dino dos Santos _DSType. All rights reserved.
</metadata>
<defs>
<font id="PreloSlab-Light" horiz-adv-x="1150" >
  <font-face 
    font-family="Prelo Slab Light"
    font-weight="400"
    font-stretch="normal"
    units-per-em="2048"
    panose-1="2 0 5 3 4 0 0 2 0 4"
    ascent="1536"
    descent="-512"
    x-height="1024"
    cap-height="1393"
    bbox="-119 -553 2267 1946"
    underline-thickness="102"
    underline-position="-307"
    unicode-range="U+0020-FB04"
  />
<missing-glyph horiz-adv-x="1208" 
d="M143 1024h922v-1024h-922v1024zM588 510l-422 483v-960zM623 510l419 -473v952zM190 999l416 -469l414 469h-830zM606 492l-411 -467h821z" />
    <glyph glyph-name="ff" unicode="ff" horiz-adv-x="1298" 
d="M827 86v860h-505v-860h174v-86h-424v86h147v860h-168v70l168 8v86q0 180 64.5 252t208.5 72q41 0 147 -13l-10 -82q-93 11 -117 11q-110 0 -150 -60.5t-40 -193.5v-72h505v86q0 180 64 252t207 72q39 0 149 -13l-12 -82q-90 11 -117 11q-110 0 -149 -60.5t-39 -193.5v-72
h307v-78h-307v-860h178v-86h-424v86h143z" />
    <glyph glyph-name="fi" unicode="fi" horiz-adv-x="1128" 
d="M930 86h147v-86h-393v86h143v860h-505v-860h174v-86h-424v86h147v860h-168v70l168 8v72q0 178 88.5 258t259.5 80q59 0 154.5 -17.5t173.5 -52.5l-14 -76q-156 62 -303 62q-137 0 -196.5 -64t-59.5 -190v-72h608v-938z" />
    <glyph glyph-name="fl" unicode="fl" horiz-adv-x="1128" 
d="M930 86h147v-86h-393v86h143v1204q-143 60 -249 60q-137 0 -196.5 -64t-59.5 -190v-72h307v-78h-307v-860h174v-86h-424v86h147v860h-168v70l168 8v72q0 178 88.5 258t259.5 80q144 0 285 -60h78v-1288z" />
    <glyph glyph-name="ffi" unicode="ffi" horiz-adv-x="1734" 
d="M1536 86h147v-86h-393v86h144v860h-504v-860h174v-86h-420v86h143v860h-505v-860h174v-86h-424v86h147v860h-168v70l168 8v86q0 180 64.5 252t208.5 72q41 0 147 -13l-10 -82q-93 11 -117 11q-110 0 -150 -60.5t-40 -193.5v-72h505v72q0 179 88.5 258.5t260.5 79.5
q57 0 152.5 -17.5t174.5 -52.5l-16 -76q-156 62 -301 62q-139 0 -197.5 -64t-58.5 -190v-72h606v-938z" />
    <glyph glyph-name="ffl" unicode="ffl" horiz-adv-x="1734" 
d="M827 946h-505v-860h174v-86h-424v86h147v860h-168v70l168 8v86q0 180 64.5 252t208.5 72q41 0 147 -13l-10 -82q-93 11 -117 11q-110 0 -150 -60.5t-40 -193.5v-72h505v72q0 179 88.5 258.5t260.5 79.5q141 0 282 -60h78v-1288h147v-86h-393v86h144v1204q-143 60 -248 60
q-139 0 -197.5 -64t-58.5 -190v-72h307v-78h-307v-860h174v-86h-420v86h143v860z" />
    <glyph glyph-name="T_h" unicode="Th" horiz-adv-x="2170" 
d="M113 1393h1151v-523h4q190 174 395 174q307 0 307 -333v-625h150v-86h-396v86h144v604q0 266 -246 266q-169 0 -358 -155v-715h143v-86h-393v86h147v1219h-514v-1219h150v-86h-406v86h150v1219h-342v-164h-86v252z" />
    <glyph glyph-name="T_h.caron" unicode="&#x164;h" horiz-adv-x="2170" 
d="M113 1393h1151v-523h4q190 174 395 174q307 0 307 -333v-625h150v-86h-396v86h144v604q0 266 -246 266q-169 0 -358 -155v-715h143v-86h-393v86h147v1219h-514v-1219h150v-86h-406v86h150v1219h-342v-164h-86v252zM408 1782l188 -226l190 226h62l-213 -287h-76l-213 287
h62z" />
    <glyph glyph-name="T_h.commaaccent" unicode="&#x162;h" horiz-adv-x="2170" 
d="M113 1393h1151v-523h4q190 174 395 174q307 0 307 -333v-625h150v-86h-396v86h144v604q0 266 -246 266q-169 0 -358 -155v-715h143v-86h-393v86h147v1219h-514v-1219h150v-86h-406v86h150v1219h-342v-164h-86v252zM590 -492h-41l31 220h-37v190h102v-190z" />
    <glyph glyph-name="f_f_j" unicode="ffj" horiz-adv-x="1673" 
d="M1434 946h-504v-860h174v-86h-420v86h143v860h-505v-860h174v-86h-424v86h147v860h-168v70l168 8v86q0 180 64.5 252t208.5 72q41 0 147 -13l-10 -82q-93 11 -117 11q-110 0 -150 -60.5t-40 -193.5v-72h505v72q0 179 88.5 258.5t260.5 79.5q57 0 152.5 -17.5t174.5 -52.5
l-16 -76q-156 62 -301 62q-139 0 -197.5 -64t-58.5 -190v-72h606v-1196q0 -140 -62.5 -199t-209.5 -59q-72 0 -148 12l10 82q64 -10 117 -10q109 0 150 41.5t41 146.5v1104z" />
    <glyph glyph-name="f_j" unicode="fj" horiz-adv-x="1067" 
d="M827 946h-505v-860h174v-86h-424v86h147v860h-168v70l168 8v72q0 178 88.5 258t259.5 80q59 0 154.5 -17.5t173.5 -52.5l-14 -76q-156 62 -303 62q-137 0 -196.5 -64t-59.5 -190v-72h608v-1196q0 -140 -63 -199t-210 -59q-73 0 -147 12l10 82q64 -10 117 -10
q108 0 149 41.5t41 146.5v1104z" />
    <glyph glyph-name=".notdef" horiz-adv-x="1208" 
d="M143 1024h922v-1024h-922v1024zM588 510l-422 483v-960zM623 510l419 -473v952zM190 999l416 -469l414 469h-830zM606 492l-411 -467h821z" />
    <glyph glyph-name=".null" horiz-adv-x="0" 
 />
    <glyph glyph-name="nonmarkingreturn" horiz-adv-x="682" 
 />
    <glyph glyph-name="space" unicode=" " horiz-adv-x="368" 
 />
    <glyph glyph-name="exclam" unicode="!" horiz-adv-x="378" 
d="M137 236h103v-236h-103v236zM137 1434h103l-4 -983h-93z" />
    <glyph glyph-name="quotedbl" unicode="&#x22;" horiz-adv-x="788" 
d="M137 1393h103l-11 -256h-82zM547 1393h102l-10 -256h-82z" />
    <glyph glyph-name="numbersign" unicode="#" horiz-adv-x="1255" 
d="M430 1024h78l-29 -262h348l29 262h76l-27 -262h205l-8 -72h-205l-37 -358h205l-8 -72h-205l-29 -260h-75l28 260h-348l-29 -260h-77l28 260h-205l9 72h204l37 358h-205l9 72h204zM473 690l-39 -358h348l39 358h-348z" />
    <glyph glyph-name="dollar" unicode="$" horiz-adv-x="1269" 
d="M158 297h88v-174q202 -51 389 -51q97 0 170 25.5t113 68t59.5 91t19.5 101.5q0 43 -14.5 80.5t-34.5 63.5t-55.5 50.5t-62.5 38.5t-72 29.5t-68 21.5t-65 17q-86 21 -160 53t-141.5 80t-106.5 118.5t-39 154.5q0 88 32.5 155t92 108t136.5 62t173 23v184h52v-184
q209 -6 421 -67v-250h-88v176q-198 49 -362 49q-96 0 -165.5 -20.5t-107 -57.5t-54.5 -80.5t-17 -95.5q0 -58 29 -107.5t69 -81t99.5 -59t102 -41t95.5 -26.5q424 -94 424 -383q0 -181 -122.5 -282t-323.5 -107v-185h-52v185q-239 3 -454 65v252z" />
    <glyph glyph-name="percent" unicode="%" horiz-adv-x="1556" 
d="M1192 1393l-758 -1393h-72l758 1393h72zM371 825q-126 0 -195.5 72.5t-69.5 198.5q0 127 69 198.5t196 71.5q128 0 196 -71.5t68 -198.5q0 -126 -68.5 -198.5t-195.5 -72.5zM371 879q97 0 147.5 57t50.5 160t-50.5 160t-147.5 57q-96 0 -146.5 -57t-50.5 -160t50.5 -160
t146.5 -57zM1184 25q-126 0 -195 72.5t-69 199.5q0 126 69 198t195 72q127 0 195.5 -72t68.5 -198q0 -128 -68.5 -200t-195.5 -72zM1184 80q97 0 147.5 57t50.5 160t-50.5 160t-147.5 57q-96 0 -146.5 -57t-50.5 -160t50.5 -160t146.5 -57z" />
    <glyph glyph-name="ampersand" unicode="&#x26;" horiz-adv-x="1443" 
d="M997 1116q0 -50 -16 -94.5t-55 -92.5t-111.5 -97t-177.5 -97l440 -436q133 158 172 418h97q-17 -130 -67 -259t-136 -229l182 -188l-68 -74l-186 195q-192 -182 -487 -182q-222 0 -337.5 99.5t-115.5 266.5q0 126 78.5 221t279.5 185q-5 6 -30.5 33.5t-36.5 41t-34 42
t-34.5 50.5t-26 51.5t-20.5 60t-6 61.5q0 81 31.5 144.5t84 101t116 56.5t133.5 19q154 0 242.5 -78t88.5 -219zM604 70q242 0 404 159l-463 467q-70 -32 -117 -59t-94.5 -67t-71.5 -92.5t-24 -117.5q0 -36 8 -71.5t32.5 -76t63.5 -71t106.5 -51t155.5 -20.5zM401 1098
q0 -43 12.5 -82t41 -79.5t52 -68t68.5 -73.5q71 31 124.5 62t101 71t73 88t25.5 102q0 56 -19 99t-45.5 65t-62 36t-60.5 17.5t-48 3.5q-63 0 -112.5 -18.5t-77 -45.5t-45 -62t-23 -62.5t-5.5 -52.5z" />
    <glyph glyph-name="quotesingle" unicode="'" horiz-adv-x="378" 
d="M137 1393h103l-11 -256h-82z" />
    <glyph glyph-name="parenleft" unicode="(" horiz-adv-x="675" 
d="M162 696q0 251 90.5 508.5t251.5 474.5h74q-161 -259 -237.5 -498t-76.5 -485q0 -244 76.5 -482t237.5 -501h-74q-161 217 -251.5 475t-90.5 508z" />
    <glyph glyph-name="parenright" unicode=")" horiz-adv-x="675" 
d="M514 696q0 -250 -90.5 -508t-251.5 -475h-76q162 262 239 500t77 483q0 247 -77 485.5t-239 497.5h76q161 -217 251.5 -474.5t90.5 -508.5z" />
    <glyph glyph-name="asterisk" unicode="*" horiz-adv-x="839" 
d="M393 1122l-6 271h66l-9 -271l293 72l19 -64l-297 -51l192 -243l-49 -39l-184 256l-182 -256l-50 39l193 243l-297 51l18 64z" />
    <glyph glyph-name="plus" unicode="+" horiz-adv-x="1024" 
d="M555 915v-329h330v-86h-330v-332h-86v332h-332v86h332v329h86z" />
    <glyph glyph-name="comma" unicode="," horiz-adv-x="378" 
d="M184 -266h-41l31 266h-37v236h103v-236z" />
    <glyph glyph-name="hyphen" unicode="-" horiz-adv-x="1024" 
d="M137 586h748v-86h-748v86z" />
    <glyph glyph-name="period" unicode="." horiz-adv-x="378" 
d="M137 236h103v-236h-103v236z" />
    <glyph glyph-name="slash" unicode="/" horiz-adv-x="1105" 
d="M977 1393l-758 -1393h-92l758 1393h92z" />
    <glyph glyph-name="zero" unicode="0" horiz-adv-x="1167" 
d="M584 1325q-86 0 -150.5 -34.5t-103.5 -91t-63.5 -139t-33 -167t-8.5 -186.5q0 -641 359 -641q358 0 358 641q0 85 -6 156.5t-21 144t-41.5 128t-65 99.5t-95.5 67t-129 23zM584 -20q-108 0 -190.5 39t-134.5 104t-84.5 160t-45 197.5t-12.5 226.5q0 121 12.5 221
t45 192.5t84.5 155t134.5 100t190.5 37.5t190.5 -37.5t134 -100t83.5 -155t44.5 -192t12.5 -221.5q0 -124 -12.5 -226.5t-44.5 -197.5t-83.5 -160t-134 -104t-190.5 -39z" />
    <glyph glyph-name="one" unicode="1" horiz-adv-x="798" 
d="M420 86h266v-86h-635v86h266v1217l-251 -27v74l305 53h49v-1317z" />
    <glyph glyph-name="two" unicode="2" horiz-adv-x="1085" 
d="M885 250h88v-250h-877v104q723 490 723 877q0 86 -25.5 150.5t-61.5 99t-84 55.5t-84.5 27t-71.5 6q-159 0 -308 -74v-149h-88v215q112 51 207 76.5t209 25.5q105 0 186 -33t130 -90.5t73.5 -129t24.5 -154.5q0 -217 -166 -440t-516 -470v-4h641v158z" />
    <glyph glyph-name="three" unicode="3" horiz-adv-x="1064" 
d="M82 74v223h86v-164q134 -67 332 -67q69 0 125 12t93 30t64.5 45t42.5 52.5t23.5 57t11 53.5t2.5 46q0 130 -97 210.5t-294 80.5h-164v86h160q86 0 156 26t113 69t66 96.5t23 111.5q0 35 -6.5 68.5t-27.5 74t-55 70t-95 50t-141 20.5q-161 0 -297 -68v-161h-88v223
q178 94 399 94q198 0 305 -96t107 -266q0 -129 -81 -218t-204 -124v-4q149 -23 237.5 -117t88.5 -230q0 -183 -116 -280.5t-347 -97.5q-257 0 -422 94z" />
    <glyph glyph-name="four" unicode="4" horiz-adv-x="1167" 
d="M205 502h553v786h-4q-188 -379 -549 -786zM758 86v328h-662v88q452 494 633 901h131v-901h209v-88h-209v-328h148v-86h-400v86h150z" />
    <glyph glyph-name="five" unicode="5" horiz-adv-x="1105" 
d="M932 1393v-252h-88v159h-565l-37 -593l4 -2q126 165 334 165q193 0 300 -114t107 -316q0 -218 -128.5 -339t-346.5 -121q-208 0 -410 102v209h86v-152q155 -73 318 -73q170 0 272.5 98t102.5 270q0 65 -17 123t-54 110t-104.5 82.5t-158.5 30.5q-99 0 -175.5 -42.5
t-142.5 -129.5l-79 8l38 777h744z" />
    <glyph glyph-name="six" unicode="6" horiz-adv-x="1126" 
d="M219 717l4 -2q69 100 162.5 158.5t200.5 58.5q200 0 311 -125.5t111 -355.5q0 -216 -121 -343.5t-307 -127.5q-463 0 -463 634q0 176 29 314.5t79 228.5t121.5 148.5t152 83t175.5 24.5q62 0 118.5 -7.5t88.5 -15.5t86 -24v-225h-88v157q-111 27 -197 27q-79 0 -145 -24
t-112 -62.5t-82.5 -92t-58 -108t-36.5 -116t-21 -110t-8 -95.5zM227 625q-3 -93 3.5 -169t28.5 -151t60 -125.5t102 -82t150 -31.5q138 0 234 102.5t96 282.5q0 56 -8 106.5t-31.5 104t-60 92t-98.5 63.5t-142 25q-98 0 -184.5 -60t-149.5 -157z" />
    <glyph glyph-name="seven" unicode="7" horiz-adv-x="1003" 
d="M113 1393h792v-78q-457 -738 -553 -1315h-112q43 285 207.5 654.5t345.5 641.5v4h-594v-159h-86v252z" />
    <glyph glyph-name="eight" unicode="8" horiz-adv-x="1126" 
d="M662 735v-4q84 -33 144 -65.5t113.5 -78t81 -105t27.5 -132.5q0 -172 -122.5 -271t-344.5 -99q-221 0 -343 96.5t-122 265.5q0 74 29 135t83 106t115 76.5t140 59.5v4q-154 55 -240 137.5t-86 212.5q0 157 117.5 248.5t310.5 91.5q189 0 305.5 -91t116.5 -245
q0 -66 -22 -118.5t-68.5 -92.5t-100.5 -69.5t-134 -61.5zM203 350q0 -59 19 -109t59.5 -92t113 -66t170.5 -24q79 0 141 15.5t102.5 42t67 63.5t37.5 77t11 85q0 41 -12.5 77.5t-30 64t-50 54t-59 43.5t-72 38t-73.5 32t-78 29q-72 -24 -127 -50.5t-108 -66t-82 -93.5
t-29 -120zM561 1333q-39 0 -78.5 -6.5t-84.5 -24t-79 -45.5t-56.5 -75.5t-22.5 -108.5q0 -114 89 -185t244 -114q57 19 100 38t84.5 45t68.5 55.5t43 69t16 85.5q0 62 -22.5 110.5t-56.5 77t-79 47t-85.5 25t-80.5 6.5z" />
    <glyph glyph-name="nine" unicode="9" horiz-adv-x="1126" 
d="M905 674l-4 2q-67 -99 -161 -157t-199 -58q-200 0 -312 126t-112 355q0 216 122 343.5t308 127.5q461 0 461 -635q0 -176 -29 -314t-79 -228t-121.5 -148.5t-151.5 -83t-174 -24.5q-90 0 -153 11.5t-140 35.5v223h88v-156q103 -28 196 -28q79 0 145 24t112 62.5t82.5 92
t58 108t36 116t20.5 110t7 95.5zM899 768q3 93 -3.5 169t-28.5 150.5t-60 125t-102 81.5t-150 31q-138 0 -234 -102t-96 -281q0 -56 8 -106.5t31.5 -104t60 -92t98.5 -63.5t142 -25q97 0 184.5 60.5t149.5 156.5z" />
    <glyph glyph-name="colon" unicode=":" horiz-adv-x="378" 
d="M137 236h103v-236h-103v236zM137 942h103v-235h-103v235z" />
    <glyph glyph-name="semicolon" unicode=";" horiz-adv-x="378" 
d="M137 942h103v-235h-103v235zM184 -266h-41l31 266h-37v236h103v-236z" />
    <glyph glyph-name="less" unicode="&#x3c;" horiz-adv-x="983" 
d="M137 545l707 360v-92l-598 -301l598 -303v-92l-707 362v66z" />
    <glyph glyph-name="equal" unicode="=" horiz-adv-x="1024" 
d="M137 791h748v-86h-748v86zM137 381h748v-86h-748v86z" />
    <glyph glyph-name="greater" unicode="&#x3e;" horiz-adv-x="983" 
d="M137 905l707 -360v-66l-707 -362v92l600 303l-600 301v92z" />
    <glyph glyph-name="question" unicode="?" horiz-adv-x="983" 
d="M117 1096v239q201 78 368 78q88 0 156 -21t109.5 -54.5t67.5 -79.5t36 -92t10 -97q0 -76 -22 -137.5t-58 -102t-79 -74t-85.5 -61t-78.5 -55t-58 -65t-22 -82.5v-62h-92v62q0 53 20.5 96.5t53.5 75t73 60.5t81 59.5t75 65.5t57.5 85.5t26.5 112.5q3 63 -17 120
q-54 148 -278 148q-110 0 -256 -55v-164h-88zM362 236h103v-236h-103v236z" />
    <glyph glyph-name="at" unicode="@" horiz-adv-x="1658" 
d="M551 899q143 45 287 45q142 0 208 -56.5t66 -203.5v-481q101 0 180 32t126 80.5t77.5 113t41.5 122.5t11 115q0 180 -94 320t-248 213t-338 73q-163 0 -303 -55t-240 -152.5t-157 -239t-57 -307.5q0 -203 89.5 -363.5t247.5 -249.5t355 -89l-6 -62q-163 0 -304 58.5
t-240 160t-155.5 242.5t-56.5 303q0 176 62.5 328.5t171.5 259.5t262.5 168t330.5 61q206 0 377 -83t272 -236.5t101 -347.5q0 -110 -32.5 -206t-95 -169.5t-161 -115.5t-221.5 -42h-78v80h-4q-110 -94 -264 -94q-120 0 -191 58.5t-71 164.5q0 242 336 242h194v94
q0 98 -46.5 145t-160.5 47q-96 0 -200 -28v-142h-72v197zM1030 272v258h-190q-144 0 -201 -46t-57 -134q0 -76 53.5 -120t155.5 -44q133 0 239 86z" />
    <glyph glyph-name="A" unicode="A" horiz-adv-x="1433" 
d="M473 1393h334l465 -1307h110v-86h-415v86h186l-121 342h-616l-129 -342h174v-86h-410v86h129l455 1219h-162v88zM733 1294h-2l-291 -784h572z" />
    <glyph glyph-name="B" unicode="B" horiz-adv-x="1290" 
d="M887 713v-4q138 -27 211 -118.5t73 -223.5q0 -171 -101 -269t-292 -98h-727v86h148v1219h-148v88h686q190 0 291.5 -96t101.5 -255q0 -127 -62 -213t-181 -116zM731 666h-424v-580h455q143 0 220 75t77 216q0 132 -83.5 210.5t-244.5 78.5zM1018 1028q0 126 -76.5 201.5
t-214.5 75.5h-420v-553h420q141 0 216 71t75 205z" />
    <glyph glyph-name="C" unicode="C" horiz-adv-x="1249" 
d="M1059 291h88v-246q-231 -65 -461 -65q-135 0 -236.5 38t-164 102t-101 159.5t-53 197.5t-14.5 230q0 123 14.5 221.5t53 191.5t101 155.5t164 100t236.5 37.5q233 0 461 -67v-246h-88v178q-198 47 -365 47q-94 0 -168.5 -23t-124.5 -67t-84.5 -99.5t-53 -128t-26.5 -144
t-8 -156.5q0 -90 8 -165t26.5 -150.5t53 -132.5t84.5 -101.5t124.5 -68t168.5 -23.5q169 0 365 49v176z" />
    <glyph glyph-name="D" unicode="D" horiz-adv-x="1351" 
d="M51 1393h623q559 0 559 -686q0 -707 -559 -707h-623v86h148v1219h-148v88zM307 86h367q446 0 446 621q0 101 -11.5 184.5t-42 162.5t-79.5 132.5t-128.5 86t-184.5 32.5h-367v-1219z" />
    <glyph glyph-name="E" unicode="E" horiz-adv-x="1167" 
d="M51 1393h998v-252h-86v164h-656v-537h639v-88h-639v-594h656v164h86v-250h-998v86h148v1219h-148v88z" />
    <glyph glyph-name="F" unicode="F" horiz-adv-x="1136" 
d="M51 1393h977v-252h-86v164h-635v-578h619v-88h-619v-553h148v-86h-404v86h148v1219h-148v88z" />
    <glyph glyph-name="G" unicode="G" horiz-adv-x="1269" 
d="M229 707q0 -102 14 -191t47.5 -172t85.5 -142t133.5 -94.5t184.5 -35.5q196 0 344 100v416h-317v88h426v-572q-103 -56 -212.5 -90t-248.5 -34q-126 0 -224.5 38.5t-162.5 104.5t-105.5 160t-59 198t-17.5 226q0 123 14.5 221.5t53 191.5t101 155.5t164 100t236.5 37.5
q233 0 461 -67v-246h-88v178q-198 47 -365 47q-94 0 -168.5 -23t-124.5 -67t-84.5 -99.5t-53 -128t-26.5 -144t-8 -156.5z" />
    <glyph glyph-name="H" unicode="H" horiz-adv-x="1392" 
d="M936 86h149v594h-778v-594h148v-86h-404v86h148v1219h-148v88h404v-88h-148v-537h778v537h-149v88h405v-88h-149v-1219h149v-86h-405v86z" />
    <glyph glyph-name="I" unicode="I" horiz-adv-x="505" 
d="M51 86h148v1219h-148v88h404v-88h-148v-1219h148v-86h-404v86z" />
    <glyph glyph-name="J" unicode="J" horiz-adv-x="690" 
d="M236 1393h403v-88h-147v-977q0 -192 -71 -270t-216 -78q-85 0 -162 12l10 88q66 -10 125 -10q113 0 159 61t46 197v977h-147v88z" />
    <glyph glyph-name="K" unicode="K" horiz-adv-x="1392" 
d="M51 1393h404v-88h-148v-742l713 742h-176v88h477v-88h-172l-465 -484l494 -735h163v-86h-481v86h182l-440 659l-295 -301v-358h148v-86h-404v86h148v1219h-148v88z" />
    <glyph glyph-name="L" unicode="L" horiz-adv-x="1126" 
d="M956 250h88v-250h-993v86h148v1219h-148v88h404v-88h-148v-1219h649v164z" />
    <glyph glyph-name="M" unicode="M" horiz-adv-x="1720" 
d="M1395 1393h274v-88h-149v-1219h149v-86h-405v86h149v1096h-4l-512 -1182h-74l-520 1182h-4v-1096h152v-86h-400v86h148v1219h-148v88h277l536 -1215h4z" />
    <glyph glyph-name="N" unicode="N" horiz-adv-x="1413" 
d="M963 1393h399v-88h-150v-1305h-108l-801 1194h-4v-1108h152v-86h-400v86h148v1219h-148v88h254l805 -1207h4v1119h-151v88z" />
    <glyph glyph-name="O" unicode="O" horiz-adv-x="1372" 
d="M686 1325q-82 0 -148.5 -18t-113.5 -48.5t-82 -77t-56.5 -97.5t-34.5 -116t-17.5 -126.5t-4.5 -134.5t4.5 -135.5t17.5 -129.5t34.5 -120.5t56.5 -102.5t82 -81.5t113.5 -52t148.5 -19.5q95 0 169 24.5t123 71.5t82 104.5t50 134t24 148t7 158.5q0 73 -4.5 134.5
t-17.5 126.5t-34 116t-56 97.5t-81.5 77t-113 48.5t-148.5 18zM686 -20q-135 0 -236.5 39t-164 103.5t-101 160.5t-53 197.5t-14.5 226.5q0 123 14.5 221.5t53 191.5t101 155.5t164 100t236.5 37.5t236.5 -37.5t163.5 -100t100.5 -155.5t52.5 -191.5t14 -221.5
q0 -125 -14 -226.5t-52.5 -197.5t-100.5 -160.5t-163.5 -103.5t-236.5 -39z" />
    <glyph glyph-name="P" unicode="P" horiz-adv-x="1269" 
d="M51 1393h701q191 0 295 -106.5t104 -278.5q0 -180 -102.5 -281.5t-296.5 -101.5h-445v-539h148v-86h-404v86h148v1219h-148v88zM307 1305v-594h434q143 0 222 77.5t79 219.5q0 135 -80 216t-221 81h-434z" />
    <glyph glyph-name="Q" unicode="Q" horiz-adv-x="1372" 
d="M117 707q0 123 14.5 221.5t53 191.5t101 155.5t164 100t236.5 37.5t236.5 -37.5t163.5 -100t100.5 -155.5t52.5 -191.5t14 -221.5q0 -119 -14 -217t-49 -187t-90.5 -150.5t-142.5 -99t-201 -41.5q42 -67 179.5 -96.5t293.5 -11.5v-99q-191 -23 -347 20t-225 155
q-127 4 -223 45t-155.5 106t-96.5 159.5t-51 194.5t-14 222zM686 1325q-82 0 -148.5 -18t-113.5 -48.5t-82 -77t-56.5 -97.5t-34.5 -116t-17.5 -126.5t-4.5 -134.5t4.5 -135.5t17.5 -129.5t34.5 -120.5t56.5 -102.5t82 -81.5t113.5 -52t148.5 -19.5q95 0 169 24.5t123 71.5
t82 104.5t50 134t24 148t7 158.5q0 73 -4.5 134.5t-17.5 126.5t-34 116t-56 97.5t-81.5 77t-113 48.5t-148.5 18z" />
    <glyph glyph-name="R" unicode="R" horiz-adv-x="1331" 
d="M51 1393h701q190 0 294.5 -112.5t104.5 -285.5q0 -155 -90.5 -260.5t-245.5 -120.5l356 -528h109v-86h-424v86h180l-338 512h-391v-512h148v-86h-404v86h148v1219h-148v88zM307 1305v-619h420q143 0 229 83t86 226q0 136 -81 223t-220 87h-434z" />
    <glyph glyph-name="S" unicode="S" horiz-adv-x="1187" 
d="M117 297h88v-174q202 -51 389 -51q97 0 170 25.5t113 68t59.5 91t19.5 101.5q0 43 -14.5 80.5t-34.5 63.5t-55.5 50.5t-62.5 38.5t-72 29.5t-68 21.5t-65 17q-86 21 -160.5 53t-143 80t-108 118.5t-39.5 154.5q0 91 34.5 159.5t97.5 109t143.5 60t179.5 19.5
q225 0 450 -67v-250h-86v176q-201 49 -364 49q-96 0 -165 -20.5t-106.5 -57.5t-54 -80.5t-16.5 -95.5q0 -58 29.5 -107.5t69.5 -81t100.5 -59t103 -40.5t96.5 -27q424 -94 424 -383q0 -187 -130.5 -288t-344.5 -101q-246 0 -477 65v252z" />
    <glyph glyph-name="T" unicode="T" horiz-adv-x="1187" 
d="M113 1393h962v-252h-88v164h-340v-1219h150v-86h-406v86h150v1219h-342v-164h-86v252z" />
    <glyph glyph-name="U" unicode="U" horiz-adv-x="1392" 
d="M936 1393h405v-88h-149v-813q0 -264 -121.5 -388t-374.5 -124t-375 124t-122 388v813h-148v88h404v-88h-148v-813q0 -43 2 -74.5t10.5 -79t23.5 -82t44.5 -72.5t70.5 -62t104.5 -40t142.5 -16q74 0 133.5 16t98.5 40t67.5 61.5t43.5 73t24 81.5t11 79.5t2 74.5v813h-149
v88z" />
    <glyph glyph-name="V" unicode="V" horiz-adv-x="1413" 
d="M922 1393h440v-88h-111l-467 -1315h-139l-487 1315h-107v88h445v-88h-220l443 -1203h2l420 1203h-219v88z" />
    <glyph glyph-name="W" unicode="W" horiz-adv-x="2007" 
d="M51 1393h445v-88h-220l328 -1174h2l346 1262h119l350 -1262h2l322 1174h-219v88h430v-88h-105l-364 -1315h-146l-335 1210h-5l-331 -1210h-146l-368 1315h-105v88z" />
    <glyph glyph-name="X" unicode="X" horiz-adv-x="1433" 
d="M932 1393h430v-88h-148l-411 -580l457 -639h122v-86h-462v86h196l-407 584l-406 -584h182v-86h-434v86h135l459 645l-409 574h-164v88h458v-88h-151l360 -514l361 514h-168v88z" />
    <glyph glyph-name="Y" unicode="Y" horiz-adv-x="1351" 
d="M729 86h150v-86h-406v86h150v385l-457 834h-115v88h453v-88h-221l399 -727h4l395 727h-217v88h436v-88h-112l-459 -834v-385z" />
    <glyph glyph-name="Z" unicode="Z" horiz-adv-x="1146" 
d="M127 1393h897v-82l-786 -1221v-4h735v164h86v-250h-957v82l791 1218v5h-678v-164h-88v252z" />
    <glyph glyph-name="bracketleft" unicode="[" horiz-adv-x="614" 
d="M246 -221h270v-66h-379v1966h379v-67h-270v-1833z" />
    <glyph glyph-name="backslash" unicode="\" horiz-adv-x="1105" 
d="M885 0l-758 1393h92l758 -1393h-92z" />
    <glyph glyph-name="bracketright" unicode="]" horiz-adv-x="614" 
d="M96 -221h273v1833h-273v67h379v-1966h-379v66z" />
    <glyph glyph-name="asciicircum" unicode="^" horiz-adv-x="778" 
d="M387 1372l-188 -328h-62l213 390h76l213 -390h-61z" />
    <glyph glyph-name="underscore" unicode="_" horiz-adv-x="1024" 
d="M137 -123h748v-67h-748v67z" />
    <glyph glyph-name="grave" unicode="`" horiz-adv-x="593" 
d="M369 1147l-166 287h94l133 -287h-61z" />
    <glyph glyph-name="a" unicode="a" horiz-adv-x="1095" 
d="M264 782h-88v224q184 38 367 38q180 0 266 -74t86 -259v-625h149v-86h-251v102h-5q-78 -61 -153 -90t-168 -30q-56 -3 -109 6q-110 15 -175.5 82.5t-71.5 173.5q-3 42 4 90q35 239 422 239h256v134q0 127 -62 188t-209 61q-115 0 -258 -24v-150zM793 172v334h-242
q-186 0 -264 -58t-78 -172q0 -97 70.5 -156t201.5 -59q181 0 312 111z" />
    <glyph glyph-name="b" unicode="b" horiz-adv-x="1146" 
d="M51 1346v88h250v-512h4q63 56 153 89t187 33q105 0 180.5 -40t119 -114t63.5 -167t20 -211t-21 -212t-65.5 -167t-121 -113t-181.5 -40q-95 0 -185 32.5t-153 87.5h-4l-18 -100h-228v86h148v1260h-148zM922 512q0 94 -15.5 170t-49.5 139.5t-97.5 99t-151.5 35.5
q-91 0 -172.5 -33.5t-134.5 -74.5v-672q51 -42 133 -76t174 -34q71 0 126 24t90 64.5t57.5 99t31.5 121.5t9 137z" />
    <glyph glyph-name="c" unicode="c" horiz-adv-x="1013" 
d="M932 782h-88v148q-111 26 -250 26q-80 0 -143 -23t-105 -62.5t-69.5 -96t-39.5 -121.5t-12 -141q0 -96 20 -174t62 -140.5t115 -97t172 -34.5q163 0 317 40l21 -83q-171 -43 -338 -43q-477 0 -477 532q0 120 26 214.5t81 167t148.5 111.5t221.5 39q167 0 338 -43v-219z
" />
    <glyph glyph-name="d" unicode="d" horiz-adv-x="1146" 
d="M696 1346v88h250v-1348h150v-86h-252v102h-4q-62 -56 -151.5 -89t-186.5 -33q-105 0 -181 40t-119.5 113.5t-64 167t-20.5 211.5q0 117 21 211t65.5 167.5t121 113.5t181.5 40q96 0 184.5 -32.5t149.5 -87.5h4v422h-148zM225 512q0 -94 15.5 -170t49.5 -140.5t97 -100
t150 -35.5q93 0 175.5 34.5t131.5 75.5v672q-50 40 -132 74t-175 34q-87 0 -150 -35.5t-97 -99t-49.5 -139.5t-15.5 -170z" />
    <glyph glyph-name="e" unicode="e" horiz-adv-x="1085" 
d="M967 506h-742q3 -440 398 -440q187 0 319 40l14 -83q-155 -43 -348 -43q-491 0 -491 532q0 120 26 215t81.5 167t149 111t220.5 39q87 0 155 -20.5t110.5 -54t71 -79.5t40.5 -94.5t14 -102.5t-3 -99t-15 -88zM588 963q-337 0 -363 -388h643q10 45 11 89t-6 88.5t-28.5 82
t-54 66.5t-84.5 45.5t-118 16.5z" />
    <glyph glyph-name="f" unicode="f" horiz-adv-x="690" 
d="M72 0v86h147v860h-168v70l168 8v152q0 140 63 199t210 59q41 0 147 -13l-10 -82q-93 11 -117 11q-108 0 -149 -42t-41 -147v-137h276v-78h-276v-860h180v-86h-430z" />
    <glyph glyph-name="g" unicode="g" horiz-adv-x="1136" 
d="M172 -150q0 -206 338 -206q125 0 220 27t152.5 85t57.5 140q0 137 -213 147l-387 20q-85 -52 -126.5 -98.5t-41.5 -114.5zM543 438q132 0 210 70t78 188q0 122 -79 198.5t-209 76.5q-146 0 -221.5 -74.5t-75.5 -200.5q0 -121 79.5 -189.5t217.5 -68.5zM276 82v4
q-91 49 -73.5 148.5t116.5 171.5v4q-81 40 -127.5 112.5t-46.5 173.5q0 162 105 255t293 93q63 0 137 -20h338v-68h-230v-2q142 -77 142 -258q0 -160 -108.5 -247t-278.5 -87q-87 0 -166 29q-46 -45 -66 -99t0 -94.5t80 -43.5l369 -19q287 -16 287 -223
q0 -161 -139.5 -251.5t-426.5 -90.5q-399 0 -399 266q0 141 194 246z" />
    <glyph glyph-name="h" unicode="h" horiz-adv-x="1208" 
d="M762 0v86h143v604q0 266 -246 266q-169 0 -358 -155v-715h143v-86h-393v86h148v1260h-148v88h250v-564h4q190 174 395 174q308 0 308 -333v-625h149v-86h-395z" />
    <glyph glyph-name="i" unicode="i" horiz-adv-x="501" 
d="M51 936v88h250v-938h150v-86h-400v86h148v850h-148zM199 1434h102v-232h-102v232z" />
    <glyph glyph-name="j" unicode="j" horiz-adv-x="460" 
d="M51 936v88h271v-1196q0 -141 -62 -199.5t-209 -58.5q-73 0 -149 12l12 82q61 -10 117 -10q108 0 148 41.5t40 146.5v1094h-168zM219 1434h103v-232h-103v232z" />
    <glyph glyph-name="k" unicode="k" horiz-adv-x="1228" 
d="M51 1346v88h250v-928l567 430h-141v88h430v-88h-168l-338 -256l375 -594h152v-86h-430v86h151l-334 537l-264 -199v-338h150v-86h-400v86h148v1260h-148z" />
    <glyph glyph-name="l" unicode="l" horiz-adv-x="501" 
d="M51 1346v88h250v-1348h150v-86h-400v86h148v1260h-148z" />
    <glyph glyph-name="m" unicode="m" horiz-adv-x="1822" 
d="M717 0v86h143v608q-4 262 -246 262q-48 0 -93 -13.5t-90.5 -43.5t-66.5 -46t-63 -52v-715h143v-86h-393v86h148v850h-148v88h250v-154h4q80 76 156 122t172 50q60 0 104 -8q157 -27 205 -178q184 188 373 188q307 0 307 -333v-625h150v-86h-396v86h144v604
q0 266 -246 266q-47 0 -93.5 -14.5t-91 -43t-70.5 -48.5t-65 -53q9 -70 9 -103v-608h143v-86h-389z" />
    <glyph glyph-name="n" unicode="n" horiz-adv-x="1208" 
d="M762 0v86h143v604q0 266 -246 266q-169 0 -358 -155v-715h143v-86h-393v86h148v850h-148v88h250v-154h4q190 174 395 174q308 0 308 -333v-625h149v-86h-395z" />
    <glyph glyph-name="o" unicode="o" horiz-adv-x="1126" 
d="M563 956q-94 0 -162 -35t-105 -98t-54 -139.5t-17 -171.5q0 -96 17 -172.5t54 -140t105 -98.5t162 -35t162 35t105 98.5t54 140t17 172.5q0 95 -17 171.5t-54 139.5t-105 98t-162 35zM563 -20q-119 0 -206.5 38.5t-139 110.5t-76 167t-24.5 216q0 120 24.5 215t76 167
t139 111t206.5 39t206.5 -39t139 -111t75.5 -167t24 -215q0 -121 -24 -215.5t-75.5 -167t-139 -111t-206.5 -38.5z" />
    <glyph glyph-name="p" unicode="p" horiz-adv-x="1146" 
d="M51 936v88h250v-102h4q63 56 153 89t187 33q105 0 180.5 -40t119 -114t63.5 -167t20 -211t-21 -212t-65.5 -167t-121 -113t-181.5 -40q-95 0 -183 32.5t-151 87.5h-4v-424h150v-86h-400v86h148v1260h-148zM922 512q0 94 -15.5 170t-49.5 139.5t-97.5 99t-151.5 35.5
q-91 0 -172.5 -33.5t-134.5 -74.5v-672q51 -42 133 -76t174 -34q71 0 126 24t90 64.5t57.5 99t31.5 121.5t9 137z" />
    <glyph glyph-name="q" unicode="q" horiz-adv-x="1085" 
d="M696 -410v86h148v426h-4q-62 -56 -151.5 -89t-186.5 -33q-105 0 -181 40t-119.5 113.5t-64 167t-20.5 211.5q0 117 21 211t65.5 167.5t121 113.5t181.5 40q96 0 186 -32.5t154 -87.5h4l18 102h78v-1350h150v-86h-400zM225 512q0 -94 15.5 -170t49.5 -140.5t97 -100
t150 -35.5q93 0 175.5 34.5t131.5 75.5v672q-50 40 -132 74t-175 34q-87 0 -150 -35.5t-97 -99t-49.5 -139.5t-15.5 -170z" />
    <glyph glyph-name="r" unicode="r" horiz-adv-x="819" 
d="M51 936v88h250v-164h4q88 79 195.5 131.5t220.5 52.5v-98q-113 0 -227 -48t-193 -107v-705h180v-86h-430v86h148v850h-148z" />
    <glyph glyph-name="s" unicode="s" horiz-adv-x="983" 
d="M864 782h-86v148q-136 31 -297 31q-69 0 -120.5 -16t-76.5 -37t-39.5 -50t-17 -45.5t-2.5 -32.5q0 -28 5.5 -50t22.5 -46t46 -43.5t79.5 -37.5t119.5 -32q191 -40 283.5 -105t92.5 -192q0 -140 -90 -217t-262 -77q-245 0 -416 43v217h89v-146q129 -31 317 -31
q59 0 105 12t73 32.5t45 42t25 47.5t9.5 41t2.5 30q0 35 -10.5 61.5t-39.5 54.5t-87 50.5t-146 40.5q-67 13 -117 27.5t-99 38.5t-80 55t-50.5 77t-19.5 105q0 127 90 196.5t262 69.5q218 0 389 -43v-219z" />
    <glyph glyph-name="t" unicode="t" horiz-adv-x="768" 
d="M219 303v643h-168v70l168 8l14 287h89v-287h317v-78h-317v-629q0 -132 42.5 -193t157.5 -61q47 0 117 11l10 -82q-73 -12 -157 -12q-144 0 -208.5 71.5t-64.5 251.5z" />
    <glyph glyph-name="u" unicode="u" horiz-adv-x="1208" 
d="M51 936v88h250v-692q0 -121 57.5 -193.5t188.5 -72.5q166 0 358 157v713h-194v88h297v-938h149v-86h-252v154h-4q-190 -174 -395 -174q-307 0 -307 331v625h-148z" />
    <glyph glyph-name="v" unicode="v" horiz-adv-x="1185" 
d="M754 936v88h381v-88h-99l-383 -946h-118l-383 946h-101v88h398v-88h-181l332 -834h4l328 834h-178z" />
    <glyph glyph-name="w" unicode="w" horiz-adv-x="1656" 
d="M1225 936v88h381v-88h-99l-297 -946h-108l-273 856h-4l-258 -856h-108l-309 946h-99v88h398v-88h-191l262 -819h4l269 907h86l278 -913h4l246 825h-182z" />
    <glyph glyph-name="x" unicode="x" horiz-adv-x="1247" 
d="M805 936v88h371v-88h-142l-342 -412l369 -438h135v-86h-418v86h142l-326 397l-318 -397h152v-86h-377v86h121l369 449l-338 401h-131v88h413v-88h-143l297 -363l291 363h-125z" />
    <glyph glyph-name="y" unicode="y" horiz-adv-x="1185" 
d="M754 936v88h381v-88h-99l-397 -1020q-66 -170 -154.5 -258t-212.5 -88q-68 0 -120 12l10 84q58 -10 92 -10q36 0 69 11.5t57.5 28t48.5 45.5t39.5 52t34 61.5t27 59.5t23.5 59l-399 963h-103v88h398v-88h-181l346 -852h4l314 852h-178z" />
    <glyph glyph-name="z" unicode="z" horiz-adv-x="962" 
d="M86 1024h786v-82l-667 -856v-4h604v158h86v-240h-821v82l671 856v4h-571v-160h-88v242z" />
    <glyph glyph-name="braceleft" unicode="{" horiz-adv-x="696" 
d="M369 10q0 -51 8 -91t18.5 -65.5t31.5 -43.5t37 -27t44 -13.5t44 -5t46 -0.5v-51q-84 0 -141 11.5t-104.5 43t-70 92t-22.5 152.5q0 63 10.5 195t10.5 192q0 36 -0.5 55t-3 49.5t-8 47t-16 38t-25.5 33.5t-38 22.5t-53 14.5v72q30 4 53 14.5t38 22.5t25.5 34t16 38.5t8 47
t3 50t0.5 55.5q0 60 -10.5 192t-10.5 195q0 92 22.5 152.5t70 92t104.5 43t141 11.5v-51q-30 0 -46 -0.5t-44 -5t-44 -13.5t-37 -27t-31.5 -43.5t-18.5 -65.5t-8 -91q0 -62 11 -220t11 -222q0 -114 -42 -168.5t-124 -73.5v-4q82 -19 124 -73t42 -168q0 -64 -11 -222.5
t-11 -220.5z" />
    <glyph glyph-name="bar" unicode="|" horiz-adv-x="348" 
d="M209 -205h-72v1802h72v-1802z" />
    <glyph glyph-name="braceright" unicode="}" horiz-adv-x="696" 
d="M328 1382q0 51 -8 91t-19 65.5t-31.5 43.5t-37 27t-45 13.5t-44.5 5t-47 0.5v51q85 0 142 -11.5t104 -43t69.5 -92t22.5 -152.5q0 -63 -10 -195t-10 -192q0 -37 0.5 -55.5t3 -49.5t7.5 -47.5t15.5 -38.5t25.5 -34t38 -22.5t53 -14.5v-72q-26 -4 -47 -11t-35.5 -20
t-25.5 -25t-17.5 -33t-10 -36t-5 -42.5t-2 -44t-0.5 -48.5q0 -60 10 -192t10 -195q0 -92 -22.5 -152.5t-69.5 -92t-104 -43t-142 -11.5v51q31 0 47 0.5t44.5 5t45 13.5t37 27t31.5 43.5t19 65.5t8 91q0 62 -11.5 220.5t-11.5 222.5q0 115 41.5 168.5t124.5 72.5v4
q-83 19 -124.5 73t-41.5 169q0 64 11.5 222t11.5 220z" />
    <glyph glyph-name="asciitilde" unicode="~" horiz-adv-x="942" 
d="M317 690q-25 0 -42.5 -4.5t-53.5 -30t-86 -75.5l-35 28q67 88 113.5 123t99.5 35t196 -63.5t175 -63.5q23 0 40 5t42.5 28.5t50.5 66.5l33 -32q-34 -68 -69 -102.5t-85 -35.5q-5 -1 -43 4q-33 8 -165 62.5t-171 54.5z" />
    <glyph glyph-name="exclamdown" unicode="&#xa1;" horiz-adv-x="378" 
d="M240 788h-103v236h103v-236zM240 -410h-103l6 983h93z" />
    <glyph glyph-name="cent" unicode="&#xa2;" horiz-adv-x="1044" 
d="M647 -205h-51v185q-214 6 -336.5 152t-122.5 380q0 233 123 379.5t336 152.5v185h51v-187q88 -3 155.5 -20t149.5 -51l-14 -82q-94 35 -152.5 49.5t-138.5 17.5v-888q56 0 107 9.5t84.5 21t99.5 36.5l14 -82q-156 -69 -305 -71v-187zM246 512q0 -185 91.5 -310
t258.5 -134v886q-112 -5 -192.5 -67.5t-119 -159.5t-38.5 -215z" />
    <glyph glyph-name="sterling" unicode="&#xa3;" horiz-adv-x="1187" 
d="M803 676h-502v-584h713v158h86v-250h-1004v92h103v584h-103v55h103v334q0 178 122.5 263t327.5 85q247 0 451 -98v-219h-86v147q-168 78 -365 78q-97 0 -167.5 -21t-108.5 -59t-55 -82.5t-17 -99.5v-328h502v-55z" />
    <glyph glyph-name="currency" unicode="&#xa4;" horiz-adv-x="1050" 
d="M205 510q0 138 98 233l-160 185l17 16l162 -184q90 74 204 74q113 0 203 -74l160 184l18 -16l-159 -183q102 -96 102 -235q0 -68 -26.5 -129t-73.5 -105l155 -176l-18 -18l-158 178q-88 -72 -203 -72q-116 0 -204 72l-156 -178l-19 18l156 176q-98 95 -98 234zM229 510
q0 -122 87.5 -209.5t209.5 -87.5t210.5 88t88.5 209q0 122 -88.5 210.5t-210.5 88.5q-121 0 -209 -88.5t-88 -210.5z" />
    <glyph glyph-name="yen" unicode="&#xa5;" horiz-adv-x="1351" 
d="M729 86h150v-86h-406v86h150v375h-363v55h336l-434 789h-111v88h453v-88h-215l393 -717h4l391 717h-213v88h436v-88h-112l-434 -789h336v-55h-361v-375z" />
    <glyph glyph-name="brokenbar" unicode="&#xa6;" horiz-adv-x="348" 
d="M209 778h-72v819h72v-819zM209 -205h-72v819h72v-819z" />
    <glyph glyph-name="section" unicode="&#xa7;" horiz-adv-x="1228" 
d="M1090 676q0 -116 -53.5 -199.5t-149.5 -130.5q198 -116 198 -305q0 -91 -35 -159.5t-97.5 -109t-143.5 -60t-180 -19.5q-271 0 -451 112l45 86q187 -102 406 -102q97 0 167 20.5t107 57t53.5 79t16.5 95.5q0 42 -16 79.5t-41 65.5t-61.5 53.5t-71 42t-77 31.5t-72 23
t-61.5 16q-87 20 -155.5 48t-131.5 72t-97.5 111.5t-34.5 153.5q0 115 53 198t151 130q-200 115 -200 307q0 91 35 159.5t97.5 109t143.5 60t180 19.5q266 0 451 -112l-43 -86q-183 100 -408 100q-97 0 -167 -20.5t-107 -57t-53.5 -78.5t-16.5 -94q0 -214 400 -313
q70 -16 126.5 -35.5t113 -51.5t94.5 -71.5t62 -97t24 -127.5zM614 965q-94 14 -165 45q-93 -37 -138 -111.5t-45 -157.5q0 -41 13 -77t33 -62t51 -48.5t59 -37t65 -28t61.5 -20t55.5 -13.5q95 -22 184 -62q95 39 142 115t47 162q0 30 -6.5 57t-20.5 49.5t-28 41.5
t-38.5 35.5t-42 29t-48 24.5t-47.5 19t-48.5 16t-43.5 12.5t-40 10.5z" />
    <glyph glyph-name="dieresis" unicode="&#xa8;" horiz-adv-x="983" 
d="M178 1434h92v-226h-92v226zM711 1434h92v-226h-92v226z" />
    <glyph glyph-name="copyright" unicode="&#xa9;" horiz-adv-x="1566" 
d="M61 696q0 196 96.5 361t262.5 260.5t362 95.5q197 0 363 -95.5t263 -260.5t97 -361t-97 -361t-263 -260t-363 -95t-362.5 95t-262 260t-96.5 361zM115 696q0 -136 52.5 -259t142 -212t213 -141.5t259.5 -52.5q182 0 336 88.5t244 242t90 334.5t-90 334t-244 241.5
t-336 88.5q-136 0 -259.5 -52.5t-213 -141t-142 -211.5t-52.5 -259zM791 995q-261 0 -261 -290q0 -314 261 -314q121 0 217 62l26 -50q-101 -71 -248 -71q-162 0 -244.5 96t-82.5 277q0 170 82.5 261t244.5 91q145 0 248 -72l-24 -53q-101 63 -219 63z" />
    <glyph glyph-name="ordfeminine" unicode="&#xaa;" horiz-adv-x="573" 
d="M133 1270h-49v112q115 21 186 21q91 0 135 -37t44 -129v-309h73v-47h-131v51h-2q-78 -59 -158 -62q-37 0 -53 2q-56 9 -89 42.5t-36 86.5v48q17 120 213 120h125v64q0 62 -30.5 91.5t-102.5 29.5q-51 0 -125 -13v-71zM391 969v164h-117q-92 0 -130 -28t-38 -85
q0 -47 35.5 -76t98.5 -29q88 0 151 54z" />
    <glyph glyph-name="guillemotleft" unicode="&#xab;" horiz-adv-x="1495" 
d="M137 545l502 315v-108l-393 -240l393 -242v-106l-502 315v66zM854 545l502 315v-108l-393 -240l393 -242v-106l-502 315v66z" />
    <glyph glyph-name="logicalnot" unicode="&#xac;" horiz-adv-x="1208" 
d="M178 586h850v-316h-86v230h-764v86z" />
    <glyph glyph-name="uni00AD" unicode="&#xad;" horiz-adv-x="1105" 
d="M178 586h748v-86h-748v86z" />
    <glyph glyph-name="registered" unicode="&#xae;" horiz-adv-x="1566" 
d="M1079 344h-84l-211 252h-178v-252h-67v705h274q119 0 182.5 -60.5t63.5 -161.5q0 -98 -53 -156.5t-148 -66.5zM606 987v-332h199q184 0 184 172q0 74 -46 117t-130 43h-207zM61 696q0 196 96.5 361t262.5 260.5t362 95.5q197 0 363 -95.5t263 -260.5t97 -361t-97 -361
t-263 -260t-363 -95t-362.5 95t-262 260t-96.5 361zM115 696q0 -136 52.5 -259t142 -212t213 -141.5t259.5 -52.5q182 0 336 88.5t244 242t90 334.5t-90 334t-244 241.5t-336 88.5q-136 0 -259.5 -52.5t-213 -141t-142 -211.5t-52.5 -259z" />
    <glyph glyph-name="macron" unicode="&#xaf;" horiz-adv-x="778" 
d="M147 1300h482v-77h-482v77z" />
    <glyph glyph-name="degree" unicode="&#xb0;" horiz-adv-x="532" 
d="M90 1188q0 72 51.5 124t124.5 52q72 0 124 -52t52 -124q0 -73 -52 -124.5t-124 -51.5q-74 0 -125 51t-51 125zM135 1188q0 -56 37.5 -93.5t93.5 -37.5t93.5 37.5t37.5 93.5t-37.5 93.5t-93.5 37.5t-93.5 -37.5t-37.5 -93.5z" />
    <glyph glyph-name="plusminus" unicode="&#xb1;" horiz-adv-x="1024" 
d="M137 209h332v297h-332v88h332v330h86v-330h330v-88h-330v-297h330v-86h-748v86z" />
    <glyph glyph-name="twosuperior" unicode="&#xb2;" horiz-adv-x="544" 
d="M444 1233h50v-127h-443v57q359 244 359 430q0 53 -17.5 89t-46 51.5t-51.5 21.5t-47 6q-75 0 -150 -37v-73h-47v110q105 51 209 51q103 0 156 -58t53 -146q0 -212 -338 -449v-2h313v76z" />
    <glyph glyph-name="threesuperior" unicode="&#xb3;" horiz-adv-x="548" 
d="M51 1143v112h47v-79q74 -33 162 -33q178 0 178 145q0 64 -47 103t-143 39h-84v49h82q83 0 129.5 43t46.5 104q0 22 -6.5 43t-22.5 43.5t-50.5 36.5t-82.5 14q-76 0 -145 -32v-80h-47v112q85 49 202 49q99 0 153 -48.5t54 -133.5q0 -64 -39.5 -107.5t-101.5 -62.5v-2
q74 -11 118 -58t44 -116q0 -91 -58.5 -139.5t-175.5 -48.5q-131 0 -213 47z" />
    <glyph glyph-name="acute" unicode="&#xb4;" horiz-adv-x="593" 
d="M385 1434l-166 -287h-61l133 287h94z" />
    <glyph glyph-name="mu" unicode="&#xb5;" horiz-adv-x="1208" 
d="M51 936v88h250v-692q0 -121 57.5 -193.5t188.5 -72.5q166 0 358 157v713h-194v88h297v-938h149v-86h-252v154h-4q-170 -156 -348 -164q-189 -9 -252 123v-142q0 -201 -42 -289.5t-163 -105.5q-37 -6 -82 -6q-65 3 -133 12l13 82q61 -10 116 -10q109 0 149 60.5t40 193.5
v1028h-148z" />
    <glyph glyph-name="paragraph" unicode="&#xb6;" horiz-adv-x="1157" 
d="M799 14v1332h-137v-742h-189q-185 0 -298.5 109t-113.5 286q0 183 112.5 288.5t299.5 105.5h545v-47h-168v-1301h168v-45h-318v14h99z" />
    <glyph glyph-name="periodcentered" unicode="&#xb7;" horiz-adv-x="378" 
d="M137 629h103v-236h-103v236z" />
    <glyph glyph-name="cedilla" unicode="&#xb8;" horiz-adv-x="602" 
d="M246 -150v150h45v-119q73 -3 122.5 -37.5t49.5 -107.5q0 -71 -51 -113.5t-140 -42.5q-59 0 -139 25l8 41q69 -21 119 -21q39 0 67.5 12t42 31.5t19.5 37.5t6 36q0 41 -33 74.5t-116 33.5z" />
    <glyph glyph-name="onesuperior" unicode="&#xb9;" horiz-adv-x="421" 
d="M240 1153h131v-47h-320v47h131v598l-123 -12v41l154 28h27v-655z" />
    <glyph glyph-name="ordmasculine" unicode="&#xba;" horiz-adv-x="550" 
d="M276 1354q-165 0 -165 -217q0 -219 165 -219q164 0 164 219q0 217 -164 217zM276 870q-117 0 -171 71t-54 196q0 266 225 266q224 0 224 -266q0 -267 -224 -267z" />
    <glyph glyph-name="guillemotright" unicode="&#xbb;" horiz-adv-x="1495" 
d="M137 860l502 -315v-66l-502 -315v106l395 242l-395 240v108zM854 860l502 -315v-66l-502 -315v106l395 242l-395 240v108z" />
    <glyph glyph-name="onequarter" unicode="&#xbc;" horiz-adv-x="1638" 
d="M1268 1393l-758 -1393h-41l758 1393h41zM342 743h131v-47h-319v47h131v598l-123 -12v41l153 29h27v-656zM1055 254h268v383h-2q-89 -180 -266 -383zM1323 47v160h-330v47q226 246 316 448h71v-448h105v-47h-105v-160h74v-47h-205v47h74z" />
    <glyph glyph-name="onehalf" unicode="&#xbd;" horiz-adv-x="1638" 
d="M1182 1393l-758 -1393h-41l758 1393h41zM342 743h131v-47h-319v47h131v598l-123 -12v41l153 29h27v-656zM1438 127h47v-127h-443v57q359 243 359 430q0 53 -17.5 89t-46 51.5t-51.5 21.5t-47 6q-74 0 -147 -37v-73h-50v110q107 52 209 52q104 0 157.5 -58.5t53.5 -146.5
q0 -210 -338 -449v-2h314v76z" />
    <glyph glyph-name="threequarters" unicode="&#xbe;" horiz-adv-x="1638" 
d="M1288 1393l-758 -1393h-41l758 1393h41zM154 733v113h47v-80q74 -33 161 -33q58 0 96.5 15.5t55 41t22 46t5.5 43.5q0 64 -47 102.5t-144 38.5h-84v49h82q83 0 129.5 43.5t46.5 104.5q0 22 -6.5 43t-22.5 43.5t-50.5 36.5t-82.5 14q-74 0 -145 -33v-80h-47v113
q85 49 203 49q99 0 153 -48.5t54 -133.5q0 -64 -40 -107.5t-102 -62.5v-2q74 -11 118 -58.5t44 -116.5q0 -91 -58 -139.5t-175 -48.5q-131 0 -213 47zM1055 254h268v383h-2q-89 -180 -266 -383zM1323 47v160h-330v47q226 246 316 448h71v-448h105v-47h-105v-160h74v-47h-205
v47h74z" />
    <glyph glyph-name="questiondown" unicode="&#xbf;" horiz-adv-x="1024" 
d="M885 -72v-239q-192 -78 -369 -78q-87 0 -155 21t-109.5 54t-68 79.5t-36.5 92t-10 95.5q0 77 22.5 138.5t58 102t79 74t87 61t79 55t58 65t22.5 83.5v62h92v-62q0 -56 -21.5 -102t-56 -78t-76 -61.5t-83.5 -60t-76.5 -65.5t-56 -86.5t-21.5 -115.5q0 -68 23 -118
t54.5 -75.5t76.5 -40.5t77 -18.5t68 -3.5q102 0 256 57v164h86zM639 788h-102v236h102v-236z" />
    <glyph glyph-name="Agrave" unicode="&#xc0;" horiz-adv-x="1433" 
d="M676 1495l-166 287h94l133 -287h-61zM473 1393h334l465 -1307h110v-86h-415v86h186l-121 342h-616l-129 -342h174v-86h-410v86h129l455 1219h-162v88zM733 1294h-2l-291 -784h572z" />
    <glyph glyph-name="Aacute" unicode="&#xc1;" horiz-adv-x="1433" 
d="M932 1782l-166 -287h-61l133 287h94zM473 1393h334l465 -1307h110v-86h-415v86h186l-121 342h-616l-129 -342h174v-86h-410v86h129l455 1219h-162v88zM733 1294h-2l-291 -784h572z" />
    <glyph glyph-name="Acircumflex" unicode="&#xc2;" horiz-adv-x="1433" 
d="M719 1720l-189 -225h-61l213 287h76l213 -287h-62zM473 1393h334l465 -1307h110v-86h-415v86h186l-121 342h-616l-129 -342h174v-86h-410v86h129l455 1219h-162v88zM733 1294h-2l-291 -784h572z" />
    <glyph glyph-name="Atilde" unicode="&#xc3;" horiz-adv-x="1433" 
d="M621 1653q-44 0 -76 -18t-107 -93l-35 29q67 88 113.5 123t99.5 35q33 0 73.5 -20t71.5 -43.5t66 -43.5t58 -20t40 5t42.5 28.5t50.5 66.5l33 -33q-67 -134 -154 -137q-15 -2 -43 6q-28 9 -111 62t-122 53zM473 1393h334l465 -1307h110v-86h-415v86h186l-121 342h-616
l-129 -342h174v-86h-410v86h129l455 1219h-162v88zM733 1294h-2l-291 -784h572z" />
    <glyph glyph-name="Adieresis" unicode="&#xc4;" horiz-adv-x="1433" 
d="M416 1782h92v-226h-92v226zM948 1782h92v-226h-92v226zM473 1393h334l465 -1307h110v-86h-415v86h186l-121 342h-616l-129 -342h174v-86h-410v86h129l455 1219h-162v88zM733 1294h-2l-291 -784h572z" />
    <glyph glyph-name="Aring" unicode="&#xc5;" horiz-adv-x="1433" 
d="M549 1679q0 72 51.5 124t124.5 52q72 0 124 -52t52 -124q0 -73 -52 -124.5t-124 -51.5q-73 0 -124.5 51.5t-51.5 124.5zM594 1679q0 -55 38 -93t93 -38t93 38t38 93t-38 93t-93 38t-93 -38t-38 -93zM473 1393h334l465 -1307h110v-86h-415v86h186l-121 342h-616l-129 -342
h174v-86h-410v86h129l455 1219h-162v88zM733 1294h-2l-291 -784h572z" />
    <glyph glyph-name="AE" unicode="&#xc6;" horiz-adv-x="1875" 
d="M811 1305h-162v88h1108v-252h-86v164h-655v-537h639v-88h-639v-594h655v164h86v-250h-850v606h-366q-192 -347 -316 -567h131l-10 -39h-326v86h119zM903 1292l-323 -598h327v598h-4z" />
    <glyph glyph-name="Ccedilla" unicode="&#xc7;" horiz-adv-x="1249" 
d="M662 -150v130q-130 3 -227 42.5t-157 103.5t-97 159t-50.5 195.5t-13.5 226.5q0 123 14.5 221.5t53 191.5t101 155.5t164 100t236.5 37.5q233 0 461 -67v-246h-88v178q-198 47 -365 47q-94 0 -168.5 -23t-124.5 -67t-84.5 -99.5t-53 -128t-26.5 -144t-8 -156.5
q0 -90 8 -165t26.5 -150.5t53 -132.5t84.5 -101.5t124.5 -68t168.5 -23.5q169 0 365 49v176h88v-246q-219 -62 -438 -65v-99q45 -2 81 -15t62.5 -46.5t26.5 -83.5q0 -71 -51 -113.5t-138 -42.5q-58 0 -141 25l10 41q69 -21 117 -21q40 0 68.5 12t42 31.5t19 37.5t5.5 36
q0 41 -33 74.5t-116 33.5z" />
    <glyph glyph-name="Egrave" unicode="&#xc8;" horiz-adv-x="1167" 
d="M598 1495l-166 287h94l133 -287h-61zM51 1393h998v-252h-86v164h-656v-537h639v-88h-639v-594h656v164h86v-250h-998v86h148v1219h-148v88z" />
    <glyph glyph-name="Eacute" unicode="&#xc9;" horiz-adv-x="1167" 
d="M803 1782l-166 -287h-62l134 287h94zM51 1393h998v-252h-86v164h-656v-537h639v-88h-639v-594h656v164h86v-250h-998v86h148v1219h-148v88z" />
    <glyph glyph-name="Ecircumflex" unicode="&#xca;" horiz-adv-x="1167" 
d="M627 1720l-189 -225h-61l213 287h76l213 -287h-62zM51 1393h998v-252h-86v164h-656v-537h639v-88h-639v-594h656v164h86v-250h-998v86h148v1219h-148v88z" />
    <glyph glyph-name="Edieresis" unicode="&#xcb;" horiz-adv-x="1167" 
d="M287 1782h92v-226h-92v226zM819 1782h92v-226h-92v226zM51 1393h998v-252h-86v164h-656v-537h639v-88h-639v-594h656v164h86v-250h-998v86h148v1219h-148v88z" />
    <glyph glyph-name="Igrave" unicode="&#xcc;" horiz-adv-x="505" 
d="M229 1495l-166 287h95l133 -287h-62zM51 86h148v1219h-148v88h404v-88h-148v-1219h148v-86h-404v86z" />
    <glyph glyph-name="Iacute" unicode="&#xcd;" horiz-adv-x="505" 
d="M449 1782l-166 -287h-62l133 287h95zM51 86h148v1219h-148v88h404v-88h-148v-1219h148v-86h-404v86z" />
    <glyph glyph-name="Icircumflex" unicode="&#xce;" horiz-adv-x="505" 
d="M252 1720l-189 -225h-61l213 287h76l213 -287h-62zM51 86h148v1219h-148v88h404v-88h-148v-1219h148v-86h-404v86z" />
    <glyph glyph-name="Idieresis" unicode="&#xcf;" horiz-adv-x="505" 
d="M-59 1782h92v-226h-92v226zM473 1782h92v-226h-92v226zM51 86h148v1219h-148v88h404v-88h-148v-1219h148v-86h-404v86z" />
    <glyph glyph-name="Eth" unicode="&#xd0;" horiz-adv-x="1351" 
d="M51 1393h623q559 0 559 -686q0 -707 -559 -707h-623v86h148v588h-148v65h148v566h-148v88zM307 86h367q446 0 446 621q0 101 -11.5 184.5t-42 162.5t-79.5 132.5t-128.5 86t-184.5 32.5h-367v-566h219v-65h-219v-588z" />
    <glyph glyph-name="Ntilde" unicode="&#xd1;" horiz-adv-x="1413" 
d="M621 1653q-44 0 -76 -18t-107 -93l-35 29q67 88 113.5 123t99.5 35q33 0 73.5 -20t71.5 -43.5t66 -43.5t58 -20t40 5t42.5 28.5t50.5 66.5l33 -33q-67 -134 -154 -137q-15 -2 -43 6q-28 9 -111 62t-122 53zM963 1393h399v-88h-150v-1305h-108l-801 1194h-4v-1108h152v-86
h-400v86h148v1219h-148v88h254l805 -1207h4v1119h-151v88z" />
    <glyph glyph-name="Ograve" unicode="&#xd2;" horiz-adv-x="1372" 
d="M686 1495l-166 287h94l134 -287h-62zM686 1325q-82 0 -148.5 -18t-113.5 -48.5t-82 -77t-56.5 -97.5t-34.5 -116t-17.5 -126.5t-4.5 -134.5t4.5 -135.5t17.5 -129.5t34.5 -120.5t56.5 -102.5t82 -81.5t113.5 -52t148.5 -19.5q95 0 169 24.5t123 71.5t82 104.5t50 134
t24 148t7 158.5q0 73 -4.5 134.5t-17.5 126.5t-34 116t-56 97.5t-81.5 77t-113 48.5t-148.5 18zM686 -20q-135 0 -236.5 39t-164 103.5t-101 160.5t-53 197.5t-14.5 226.5q0 123 14.5 221.5t53 191.5t101 155.5t164 100t236.5 37.5t236.5 -37.5t163.5 -100t100.5 -155.5
t52.5 -191.5t14 -221.5q0 -125 -14 -226.5t-52.5 -197.5t-100.5 -160.5t-163.5 -103.5t-236.5 -39z" />
    <glyph glyph-name="Oacute" unicode="&#xd3;" horiz-adv-x="1372" 
d="M885 1782l-166 -287h-62l134 287h94zM686 1325q-82 0 -148.5 -18t-113.5 -48.5t-82 -77t-56.5 -97.5t-34.5 -116t-17.5 -126.5t-4.5 -134.5t4.5 -135.5t17.5 -129.5t34.5 -120.5t56.5 -102.5t82 -81.5t113.5 -52t148.5 -19.5q95 0 169 24.5t123 71.5t82 104.5t50 134
t24 148t7 158.5q0 73 -4.5 134.5t-17.5 126.5t-34 116t-56 97.5t-81.5 77t-113 48.5t-148.5 18zM686 -20q-135 0 -236.5 39t-164 103.5t-101 160.5t-53 197.5t-14.5 226.5q0 123 14.5 221.5t53 191.5t101 155.5t164 100t236.5 37.5t236.5 -37.5t163.5 -100t100.5 -155.5
t52.5 -191.5t14 -221.5q0 -125 -14 -226.5t-52.5 -197.5t-100.5 -160.5t-163.5 -103.5t-236.5 -39z" />
    <glyph glyph-name="Ocircumflex" unicode="&#xd4;" horiz-adv-x="1372" 
d="M686 1720l-188 -225h-62l213 287h76l213 -287h-61zM686 1325q-82 0 -148.5 -18t-113.5 -48.5t-82 -77t-56.5 -97.5t-34.5 -116t-17.5 -126.5t-4.5 -134.5t4.5 -135.5t17.5 -129.5t34.5 -120.5t56.5 -102.5t82 -81.5t113.5 -52t148.5 -19.5q95 0 169 24.5t123 71.5
t82 104.5t50 134t24 148t7 158.5q0 73 -4.5 134.5t-17.5 126.5t-34 116t-56 97.5t-81.5 77t-113 48.5t-148.5 18zM686 -20q-135 0 -236.5 39t-164 103.5t-101 160.5t-53 197.5t-14.5 226.5q0 123 14.5 221.5t53 191.5t101 155.5t164 100t236.5 37.5t236.5 -37.5t163.5 -100
t100.5 -155.5t52.5 -191.5t14 -221.5q0 -125 -14 -226.5t-52.5 -197.5t-100.5 -160.5t-163.5 -103.5t-236.5 -39z" />
    <glyph glyph-name="Otilde" unicode="&#xd5;" horiz-adv-x="1372" 
d="M578 1653q-44 0 -76 -18t-107 -93l-35 29q67 88 113.5 123t99.5 35q33 0 73.5 -20t71.5 -43.5t66 -43.5t58 -20t40 5t42.5 28.5t50.5 66.5l33 -33q-67 -134 -154 -137q-15 -2 -43 6q-28 9 -111 62t-122 53zM686 1325q-82 0 -148.5 -18t-113.5 -48.5t-82 -77t-56.5 -97.5
t-34.5 -116t-17.5 -126.5t-4.5 -134.5t4.5 -135.5t17.5 -129.5t34.5 -120.5t56.5 -102.5t82 -81.5t113.5 -52t148.5 -19.5q95 0 169 24.5t123 71.5t82 104.5t50 134t24 148t7 158.5q0 73 -4.5 134.5t-17.5 126.5t-34 116t-56 97.5t-81.5 77t-113 48.5t-148.5 18zM686 -20
q-135 0 -236.5 39t-164 103.5t-101 160.5t-53 197.5t-14.5 226.5q0 123 14.5 221.5t53 191.5t101 155.5t164 100t236.5 37.5t236.5 -37.5t163.5 -100t100.5 -155.5t52.5 -191.5t14 -221.5q0 -125 -14 -226.5t-52.5 -197.5t-100.5 -160.5t-163.5 -103.5t-236.5 -39z" />
    <glyph glyph-name="Odieresis" unicode="&#xd6;" horiz-adv-x="1372" 
d="M379 1782h92v-226h-92v226zM911 1782h93v-226h-93v226zM686 1325q-82 0 -148.5 -18t-113.5 -48.5t-82 -77t-56.5 -97.5t-34.5 -116t-17.5 -126.5t-4.5 -134.5t4.5 -135.5t17.5 -129.5t34.5 -120.5t56.5 -102.5t82 -81.5t113.5 -52t148.5 -19.5q95 0 169 24.5t123 71.5
t82 104.5t50 134t24 148t7 158.5q0 73 -4.5 134.5t-17.5 126.5t-34 116t-56 97.5t-81.5 77t-113 48.5t-148.5 18zM686 -20q-135 0 -236.5 39t-164 103.5t-101 160.5t-53 197.5t-14.5 226.5q0 123 14.5 221.5t53 191.5t101 155.5t164 100t236.5 37.5t236.5 -37.5t163.5 -100
t100.5 -155.5t52.5 -191.5t14 -221.5q0 -125 -14 -226.5t-52.5 -197.5t-100.5 -160.5t-163.5 -103.5t-236.5 -39z" />
    <glyph glyph-name="multiply" unicode="&#xd7;" horiz-adv-x="1077" 
d="M891 834l-291 -291l291 -291l-62 -62l-290 291l-291 -291l-62 62l291 291l-291 291l62 61l291 -291l290 291z" />
    <glyph glyph-name="Oslash" unicode="&#xd8;" horiz-adv-x="1372" 
d="M686 -20q-282 0 -418 165l-157 -200l-39 32l164 205q-119 176 -119 525q0 123 14.5 221.5t53 191.5t101 155.5t164 100t236.5 37.5q265 0 406 -151l168 211l40 -31l-174 -217q127 -167 127 -518q0 -125 -14 -226.5t-52.5 -197.5t-100.5 -160.5t-163.5 -103.5t-236.5 -39z
M686 72q82 0 148.5 19t113 51t81.5 80.5t56 101t34 119.5t17.5 129t4.5 135q0 288 -88 426l-717 -906q110 -155 350 -155zM686 1321q-82 0 -148.5 -18t-113.5 -48t-82 -76t-56.5 -96.5t-34.5 -115.5t-17.5 -126t-4.5 -134q0 -287 82 -428l717 901q-111 141 -342 141z" />
    <glyph glyph-name="Ugrave" unicode="&#xd9;" horiz-adv-x="1392" 
d="M653 1495l-166 287h95l133 -287h-62zM936 1393h405v-88h-149v-813q0 -264 -121.5 -388t-374.5 -124t-375 124t-122 388v813h-148v88h404v-88h-148v-813q0 -43 2 -74.5t10.5 -79t23.5 -82t44.5 -72.5t70.5 -62t104.5 -40t142.5 -16q74 0 133.5 16t98.5 40t67.5 61.5
t43.5 73t24 81.5t11 79.5t2 74.5v813h-149v88z" />
    <glyph glyph-name="Uacute" unicode="&#xda;" horiz-adv-x="1392" 
d="M895 1782l-166 -287h-61l133 287h94zM936 1393h405v-88h-149v-813q0 -264 -121.5 -388t-374.5 -124t-375 124t-122 388v813h-148v88h404v-88h-148v-813q0 -43 2 -74.5t10.5 -79t23.5 -82t44.5 -72.5t70.5 -62t104.5 -40t142.5 -16q74 0 133.5 16t98.5 40t67.5 61.5
t43.5 73t24 81.5t11 79.5t2 74.5v813h-149v88z" />
    <glyph glyph-name="Ucircumflex" unicode="&#xdb;" horiz-adv-x="1392" 
d="M709 1720l-189 -225h-61l213 287h76l213 -287h-62zM936 1393h405v-88h-149v-813q0 -264 -121.5 -388t-374.5 -124t-375 124t-122 388v813h-148v88h404v-88h-148v-813q0 -43 2 -74.5t10.5 -79t23.5 -82t44.5 -72.5t70.5 -62t104.5 -40t142.5 -16q74 0 133.5 16t98.5 40
t67.5 61.5t43.5 73t24 81.5t11 79.5t2 74.5v813h-149v88z" />
    <glyph glyph-name="Udieresis" unicode="&#xdc;" horiz-adv-x="1392" 
d="M383 1782h92v-226h-92v226zM915 1782h93v-226h-93v226zM936 1393h405v-88h-149v-813q0 -264 -121.5 -388t-374.5 -124t-375 124t-122 388v813h-148v88h404v-88h-148v-813q0 -43 2 -74.5t10.5 -79t23.5 -82t44.5 -72.5t70.5 -62t104.5 -40t142.5 -16q74 0 133.5 16
t98.5 40t67.5 61.5t43.5 73t24 81.5t11 79.5t2 74.5v813h-149v88z" />
    <glyph glyph-name="Yacute" unicode="&#xdd;" horiz-adv-x="1351" 
d="M899 1782l-166 -287h-61l133 287h94zM729 86h150v-86h-406v86h150v385l-457 834h-115v88h453v-88h-221l399 -727h4l395 727h-217v88h436v-88h-112l-459 -834v-385z" />
    <glyph glyph-name="Thorn" unicode="&#xde;" horiz-adv-x="1269" 
d="M307 1079h445q191 0 295 -106.5t104 -276.5q0 -180 -103 -282.5t-296 -102.5h-445v-311h-256v86h148v1219h-148v88h256v-314zM307 993v-594h434q144 0 222.5 76.5t78.5 220.5q0 134 -80.5 215.5t-220.5 81.5h-434z" />
    <glyph glyph-name="germandbls" unicode="&#xdf;" horiz-adv-x="1320" 
d="M219 86v860h-168v70l168 8q0 94 24 166.5t64 118t97.5 74.5t118.5 40t132 11q189 0 291.5 -81t102.5 -227q0 -61 -20 -112t-50 -83.5t-64.5 -62t-64.5 -49.5t-50 -43.5t-20 -46.5q0 -24 18.5 -43.5t36.5 -28.5t46 -20q177 -58 254 -136t77 -198q0 -86 -33 -151t-89 -101
t-122 -53.5t-141 -17.5q-139 0 -264 40l15 82q124 -41 241 -41q77 0 134 21t85 48.5t44.5 65t20 60.5t3.5 45q0 47 -17.5 87.5t-42 65.5t-61 47.5t-63.5 33.5t-61.5 23.5t-43.5 16.5q-76 31 -106.5 62.5t-30.5 81.5q0 30 19 58.5t47 50t61 50.5t61 58t47 74.5t19 99.5
q0 58 -20.5 102.5t-50.5 70t-70.5 41.5t-75.5 21t-70 5q-84 0 -145.5 -24t-95 -59.5t-53.5 -88.5t-25.5 -98.5t-5.5 -102.5v-977h-250v86h147z" />
    <glyph glyph-name="agrave" unicode="&#xe0;" horiz-adv-x="1095" 
d="M264 782h-88v224q184 38 367 38q180 0 266 -74t86 -259v-625h149v-86h-251v102h-5q-78 -61 -153 -90t-168 -30q-56 -3 -109 6q-110 15 -175.5 82.5t-71.5 173.5q-3 42 4 90q35 239 422 239h256v134q0 127 -62 188t-209 61q-115 0 -258 -24v-150zM793 172v334h-242
q-186 0 -264 -58t-78 -172q0 -97 70.5 -156t201.5 -59q181 0 312 111zM543 1147l-166 287h94l133 -287h-61z" />
    <glyph glyph-name="aacute" unicode="&#xe1;" horiz-adv-x="1095" 
d="M264 782h-88v224q184 38 367 38q180 0 266 -74t86 -259v-625h149v-86h-251v102h-5q-78 -61 -153 -90t-168 -30q-56 -3 -109 6q-110 15 -175.5 82.5t-71.5 173.5q-3 42 4 90q35 239 422 239h256v134q0 127 -62 188t-209 61q-115 0 -258 -24v-150zM793 172v334h-242
q-186 0 -264 -58t-78 -172q0 -97 70.5 -156t201.5 -59q181 0 312 111zM725 1434l-166 -287h-61l133 287h94z" />
    <glyph glyph-name="acircumflex" unicode="&#xe2;" horiz-adv-x="1095" 
d="M264 782h-88v224q184 38 367 38q180 0 266 -74t86 -259v-625h149v-86h-251v102h-5q-78 -61 -153 -90t-168 -30q-56 -3 -109 6q-110 15 -175.5 82.5t-71.5 173.5q-3 42 4 90q35 239 422 239h256v134q0 127 -62 188t-209 61q-115 0 -258 -24v-150zM793 172v334h-242
q-186 0 -264 -58t-78 -172q0 -97 70.5 -156t201.5 -59q181 0 312 111zM551 1372l-189 -225h-61l213 287h76l213 -287h-62z" />
    <glyph glyph-name="atilde" unicode="&#xe3;" horiz-adv-x="1095" 
d="M264 782h-88v224q184 38 367 38q180 0 266 -74t86 -259v-625h149v-86h-251v102h-5q-78 -61 -153 -90t-168 -30q-56 -3 -109 6q-110 15 -175.5 82.5t-71.5 173.5q-3 42 4 90q35 239 422 239h256v134q0 127 -62 188t-209 61q-115 0 -258 -24v-150zM793 172v334h-242
q-186 0 -264 -58t-78 -172q0 -97 70.5 -156t201.5 -59q181 0 312 111zM449 1305q-44 0 -76 -18t-107 -93l-35 29q67 88 113.5 122.5t99.5 34.5q42 0 94.5 -32t99.5 -63.5t75 -31.5q22 0 39.5 5.5t43 29t50.5 66.5l33 -33q-67 -134 -154 -137q-15 -2 -43 6q-28 9 -111 62
t-122 53z" />
    <glyph glyph-name="adieresis" unicode="&#xe4;" horiz-adv-x="1095" 
d="M264 782h-88v224q184 38 367 38q180 0 266 -74t86 -259v-625h149v-86h-251v102h-5q-78 -61 -153 -90t-168 -30q-56 -3 -109 6q-110 15 -175.5 82.5t-71.5 173.5q-3 42 4 90q35 239 422 239h256v134q0 127 -62 188t-209 61q-115 0 -258 -24v-150zM793 172v334h-242
q-186 0 -264 -58t-78 -172q0 -97 70.5 -156t201.5 -59q181 0 312 111zM238 1434h92v-226h-92v226zM770 1434h92v-226h-92v226z" />
    <glyph glyph-name="aring" unicode="&#xe5;" horiz-adv-x="1095" 
d="M264 782h-88v224q184 38 367 38q180 0 266 -74t86 -259v-625h149v-86h-251v102h-5q-78 -61 -153 -90t-168 -30q-56 -3 -109 6q-110 15 -175.5 82.5t-71.5 173.5q-3 42 4 90q35 239 422 239h256v134q0 127 -62 188t-209 61q-115 0 -258 -24v-150zM793 172v334h-242
q-186 0 -264 -58t-78 -172q0 -97 70.5 -156t201.5 -59q181 0 312 111zM377 1331q0 72 51.5 124t124.5 52q72 0 124 -52t52 -124q0 -73 -52 -124.5t-124 -51.5q-73 0 -124.5 51.5t-51.5 124.5zM422 1331q0 -55 38 -93t93 -38t93 38t38 93t-38 93t-93 38t-93 -38t-38 -93z" />
    <glyph glyph-name="ae" unicode="&#xe6;" horiz-adv-x="1761" 
d="M522 956q-134 0 -258 -24v-150h-88v224q201 38 363 38q158 0 233 -60.5t94 -207.5q91 268 404 268q87 0 155 -20.5t110.5 -54t70.5 -80t40 -94.5t14 -102t-3 -99t-15 -88h-739q3 -440 395 -440q188 0 320 40l14 -83q-155 -43 -348 -43q-298 0 -414 192
q-173 -192 -426 -192q-155 0 -246.5 76.5t-91.5 211.5q0 85 31.5 145.5t92 95t138.5 49.5t181 15h244v127q0 131 -61 193.5t-210 62.5zM481 61q107 0 199.5 42t161.5 112q-49 109 -49 291h-250q-95 0 -161 -16t-103 -47.5t-53.5 -71.5t-16.5 -95q0 -97 70.5 -156t201.5 -59z
M1264 963q-335 0 -361 -388h641q10 45 11 89t-6 88.5t-28.5 82t-54 66.5t-84.5 45.5t-118 16.5z" />
    <glyph glyph-name="ccedilla" unicode="&#xe7;" horiz-adv-x="1013" 
d="M225 512q0 -96 20 -174t62 -140.5t115 -97t172 -34.5q163 0 317 40l21 -83q-171 -43 -334 -43v-99q72 -4 122 -38t50 -107q0 -71 -51.5 -113.5t-138.5 -42.5q-60 0 -140 25l9 41q69 -21 116 -21q40 0 68.5 12t42 31.5t19 37.5t5.5 36q0 108 -149 108v132
q-116 5 -201 45.5t-135.5 112t-74 164t-23.5 208.5q0 120 26 214.5t81 167t148.5 111.5t221.5 39q167 0 338 -43v-219h-88v148q-111 26 -250 26q-80 0 -143 -23t-105 -62.5t-69.5 -96t-39.5 -121.5t-12 -141z" />
    <glyph glyph-name="egrave" unicode="&#xe8;" horiz-adv-x="1085" 
d="M967 506h-742q3 -440 398 -440q187 0 319 40l14 -83q-155 -43 -348 -43q-491 0 -491 532q0 120 26 215t81.5 167t149 111t220.5 39q87 0 155 -20.5t110.5 -54t71 -79.5t40.5 -94.5t14 -102.5t-3 -99t-15 -88zM588 963q-337 0 -363 -388h643q10 45 11 89t-6 88.5t-28.5 82
t-54 66.5t-84.5 45.5t-118 16.5zM563 1147l-166 287h95l133 -287h-62z" />
    <glyph glyph-name="eacute" unicode="&#xe9;" horiz-adv-x="1085" 
d="M967 506h-742q3 -440 398 -440q187 0 319 40l14 -83q-155 -43 -348 -43q-491 0 -491 532q0 120 26 215t81.5 167t149 111t220.5 39q87 0 155 -20.5t110.5 -54t71 -79.5t40.5 -94.5t14 -102.5t-3 -99t-15 -88zM588 963q-337 0 -363 -388h643q10 45 11 89t-6 88.5t-28.5 82
t-54 66.5t-84.5 45.5t-118 16.5zM807 1434l-166 -287h-61l133 287h94z" />
    <glyph glyph-name="ecircumflex" unicode="&#xea;" horiz-adv-x="1085" 
d="M967 506h-742q3 -440 398 -440q187 0 319 40l14 -83q-155 -43 -348 -43q-491 0 -491 532q0 120 26 215t81.5 167t149 111t220.5 39q87 0 155 -20.5t110.5 -54t71 -79.5t40.5 -94.5t14 -102.5t-3 -99t-15 -88zM588 963q-337 0 -363 -388h643q10 45 11 89t-6 88.5t-28.5 82
t-54 66.5t-84.5 45.5t-118 16.5zM590 1372l-189 -225h-61l213 287h76l213 -287h-62z" />
    <glyph glyph-name="edieresis" unicode="&#xeb;" horiz-adv-x="1085" 
d="M967 506h-742q3 -440 398 -440q187 0 319 40l14 -83q-155 -43 -348 -43q-491 0 -491 532q0 120 26 215t81.5 167t149 111t220.5 39q87 0 155 -20.5t110.5 -54t71 -79.5t40.5 -94.5t14 -102.5t-3 -99t-15 -88zM588 963q-337 0 -363 -388h643q10 45 11 89t-6 88.5t-28.5 82
t-54 66.5t-84.5 45.5t-118 16.5zM268 1434h92v-226h-92v226zM801 1434h92v-226h-92v226z" />
    <glyph glyph-name="igrave" unicode="&#xec;" horiz-adv-x="501" 
d="M51 936v88h250v-938h150v-86h-400v86h148v850h-148zM193 1147l-166 287h94l133 -287h-61z" />
    <glyph glyph-name="iacute" unicode="&#xed;" horiz-adv-x="501" 
d="M51 936v88h250v-938h150v-86h-400v86h148v850h-148zM451 1434l-166 -287h-62l133 287h95z" />
    <glyph glyph-name="icircumflex" unicode="&#xee;" horiz-adv-x="501" 
d="M238 1372l-189 -225h-61l213 287h75l213 -287h-61zM51 936v88h250v-938h150v-86h-400v86h148v850h-148z" />
    <glyph glyph-name="idieresis" unicode="&#xef;" horiz-adv-x="501" 
d="M51 936v88h250v-938h150v-86h-400v86h148v850h-148zM-68 1434h93v-226h-93v226zM465 1434h92v-226h-92v226z" />
    <glyph glyph-name="eth" unicode="&#xf0;" horiz-adv-x="1126" 
d="M774 1303l160 159l41 -41l-154 -155q187 -197 187 -652q0 -634 -461 -634q-186 0 -308 127.5t-122 343.5q0 229 112 355t312 126q106 0 199.5 -58.5t160.5 -158.5l4 2q-12 328 -149 481l-166 -166l-41 43l156 158q-105 92 -261 92q-134 0 -268 -45l-16 80q78 28 140 40.5
t153 12.5q194 0 321 -110zM899 625q-62 96 -149.5 156.5t-184.5 60.5q-80 0 -142 -25t-98.5 -63.5t-60 -92t-31.5 -104t-8 -106.5q0 -180 96 -282.5t234 -102.5q86 0 150 31.5t102 82t60 125.5t28.5 151t3.5 169z" />
    <glyph glyph-name="ntilde" unicode="&#xf1;" horiz-adv-x="1208" 
d="M762 0v86h143v604q0 266 -246 266q-169 0 -358 -155v-715h143v-86h-393v86h148v850h-148v88h250v-154h4q190 174 395 174q308 0 308 -333v-625h149v-86h-395zM506 1305q-43 0 -75 -18t-107 -93l-35 29q67 88 113.5 122.5t99.5 34.5q42 0 94 -32t99 -63.5t75 -31.5
q22 0 39.5 5.5t43 29t50.5 66.5l33 -33q-67 -134 -154 -137q-15 -2 -43 6q-28 9 -111 62t-122 53z" />
    <glyph glyph-name="ograve" unicode="&#xf2;" horiz-adv-x="1126" 
d="M563 956q-94 0 -162 -35t-105 -98t-54 -139.5t-17 -171.5q0 -96 17 -172.5t54 -140t105 -98.5t162 -35t162 35t105 98.5t54 140t17 172.5q0 95 -17 171.5t-54 139.5t-105 98t-162 35zM563 -20q-119 0 -206.5 38.5t-139 110.5t-76 167t-24.5 216q0 120 24.5 215t76 167
t139 111t206.5 39t206.5 -39t139 -111t75.5 -167t24 -215q0 -121 -24 -215.5t-75.5 -167t-139 -111t-206.5 -38.5zM551 1147l-166 287h94l133 -287h-61z" />
    <glyph glyph-name="oacute" unicode="&#xf3;" horiz-adv-x="1126" 
d="M563 956q-94 0 -162 -35t-105 -98t-54 -139.5t-17 -171.5q0 -96 17 -172.5t54 -140t105 -98.5t162 -35t162 35t105 98.5t54 140t17 172.5q0 95 -17 171.5t-54 139.5t-105 98t-162 35zM563 -20q-119 0 -206.5 38.5t-139 110.5t-76 167t-24.5 216q0 120 24.5 215t76 167
t139 111t206.5 39t206.5 -39t139 -111t75.5 -167t24 -215q0 -121 -24 -215.5t-75.5 -167t-139 -111t-206.5 -38.5zM760 1434l-166 -287h-62l134 287h94z" />
    <glyph glyph-name="ocircumflex" unicode="&#xf4;" horiz-adv-x="1126" 
d="M563 956q-94 0 -162 -35t-105 -98t-54 -139.5t-17 -171.5q0 -96 17 -172.5t54 -140t105 -98.5t162 -35t162 35t105 98.5t54 140t17 172.5q0 95 -17 171.5t-54 139.5t-105 98t-162 35zM563 -20q-119 0 -206.5 38.5t-139 110.5t-76 167t-24.5 216q0 120 24.5 215t76 167
t139 111t206.5 39t206.5 -39t139 -111t75.5 -167t24 -215q0 -121 -24 -215.5t-75.5 -167t-139 -111t-206.5 -38.5zM561 1372l-188 -225h-62l213 287h76l213 -287h-61z" />
    <glyph glyph-name="otilde" unicode="&#xf5;" horiz-adv-x="1126" 
d="M563 956q-94 0 -162 -35t-105 -98t-54 -139.5t-17 -171.5q0 -96 17 -172.5t54 -140t105 -98.5t162 -35t162 35t105 98.5t54 140t17 172.5q0 95 -17 171.5t-54 139.5t-105 98t-162 35zM563 -20q-119 0 -206.5 38.5t-139 110.5t-76 167t-24.5 216q0 120 24.5 215t76 167
t139 111t206.5 39t206.5 -39t139 -111t75.5 -167t24 -215q0 -121 -24 -215.5t-75.5 -167t-139 -111t-206.5 -38.5zM457 1305q-44 0 -76 -18t-107 -93l-34 29q67 88 113.5 122.5t99.5 34.5q42 0 94 -32t99 -63.5t75 -31.5q22 0 39.5 5.5t43 29t50.5 66.5l33 -33
q-67 -134 -154 -137q-15 -2 -43 6q-28 9 -111 62t-122 53z" />
    <glyph glyph-name="odieresis" unicode="&#xf6;" horiz-adv-x="1126" 
d="M563 956q-94 0 -162 -35t-105 -98t-54 -139.5t-17 -171.5q0 -96 17 -172.5t54 -140t105 -98.5t162 -35t162 35t105 98.5t54 140t17 172.5q0 95 -17 171.5t-54 139.5t-105 98t-162 35zM563 -20q-119 0 -206.5 38.5t-139 110.5t-76 167t-24.5 216q0 120 24.5 215t76 167
t139 111t206.5 39t206.5 -39t139 -111t75.5 -167t24 -215q0 -121 -24 -215.5t-75.5 -167t-139 -111t-206.5 -38.5zM250 1434h92v-226h-92v226zM782 1434h92v-226h-92v226z" />
    <glyph glyph-name="divide" unicode="&#xf7;" horiz-adv-x="1024" 
d="M137 575h748v-65h-748v65zM465 338h92v-225h-92v225zM465 973h92v-225h-92v225z" />
    <glyph glyph-name="oslash" unicode="&#xf8;" horiz-adv-x="1126" 
d="M563 -20q-209 0 -317 124l-135 -159l-39 32l137 162q-92 128 -92 373q0 120 24.5 215t76 167t139 111t206.5 39q204 0 316 -122l137 157l39 -30l-142 -164q95 -135 95 -373q0 -121 -24 -215.5t-75.5 -167t-139 -111t-206.5 -38.5zM563 66q94 0 162 35t105 98.5t54 140
t17 172.5q0 177 -63 283l-527 -617q84 -112 252 -112zM563 956q-94 0 -162 -35t-105 -98t-54 -139.5t-17 -171.5q0 -178 62 -283l528 617q-86 110 -252 110z" />
    <glyph glyph-name="ugrave" unicode="&#xf9;" horiz-adv-x="1208" 
d="M51 936v88h250v-692q0 -121 57.5 -193.5t188.5 -72.5q166 0 358 157v713h-194v88h297v-938h149v-86h-252v154h-4q-190 -174 -395 -174q-307 0 -307 331v625h-148zM561 1147l-166 287h94l134 -287h-62z" />
    <glyph glyph-name="uacute" unicode="&#xfa;" horiz-adv-x="1208" 
d="M51 936v88h250v-692q0 -121 57.5 -193.5t188.5 -72.5q166 0 358 157v713h-194v88h297v-938h149v-86h-252v154h-4q-190 -174 -395 -174q-307 0 -307 331v625h-148zM770 1434l-166 -287h-61l133 287h94z" />
    <glyph glyph-name="ucircumflex" unicode="&#xfb;" horiz-adv-x="1208" 
d="M51 936v88h250v-692q0 -121 57.5 -193.5t188.5 -72.5q166 0 358 157v713h-194v88h297v-938h149v-86h-252v154h-4q-190 -174 -395 -174q-307 0 -307 331v625h-148zM573 1372l-188 -225h-61l213 287h75l213 -287h-61z" />
    <glyph glyph-name="udieresis" unicode="&#xfc;" horiz-adv-x="1208" 
d="M51 936v88h250v-692q0 -121 57.5 -193.5t188.5 -72.5q166 0 358 157v713h-194v88h297v-938h149v-86h-252v154h-4q-190 -174 -395 -174q-307 0 -307 331v625h-148zM260 1434h92v-226h-92v226zM793 1434h92v-226h-92v226z" />
    <glyph glyph-name="yacute" unicode="&#xfd;" horiz-adv-x="1187" 
d="M754 936v88h381v-88h-99l-397 -1020q-66 -170 -154.5 -258t-212.5 -88q-68 0 -120 12l10 84q58 -10 92 -10q36 0 69 11.5t57.5 28t48.5 45.5t39.5 52t34 61.5t27 59.5t23.5 59l-399 963h-103v88h398v-88h-181l346 -852h4l314 852h-178zM803 1434l-166 -287h-62l134 287
h94z" />
    <glyph glyph-name="thorn" unicode="&#xfe;" horiz-adv-x="1146" 
d="M51 1346v88h250v-512h4q63 56 153 89t187 33q105 0 180.5 -40t119 -114t63.5 -167t20 -211t-21 -212t-65.5 -167t-121 -113t-181.5 -40q-95 0 -183 32.5t-151 87.5h-4v-424h150v-86h-400v86h148v1670h-148zM922 512q0 94 -15.5 170t-49.5 139.5t-97.5 99t-151.5 35.5
q-91 0 -172.5 -33.5t-134.5 -74.5v-672q51 -42 133 -76t174 -34q71 0 126 24t90 64.5t57.5 99t31.5 121.5t9 137z" />
    <glyph glyph-name="ydieresis" unicode="&#xff;" horiz-adv-x="1187" 
d="M754 936v88h381v-88h-99l-397 -1020q-66 -170 -154.5 -258t-212.5 -88q-68 0 -120 12l10 84q58 -10 92 -10q36 0 69 11.5t57.5 28t48.5 45.5t39.5 52t34 61.5t27 59.5t23.5 59l-399 963h-103v88h398v-88h-181l346 -852h4l314 852h-178zM293 1434h92v-226h-92v226z
M825 1434h93v-226h-93v226z" />
    <glyph glyph-name="Amacron" unicode="&#x100;" horiz-adv-x="1433" 
d="M481 1649h482v-78h-482v78zM473 1393h334l465 -1307h110v-86h-415v86h186l-121 342h-616l-129 -342h174v-86h-410v86h129l455 1219h-162v88zM733 1294h-2l-291 -784h572z" />
    <glyph glyph-name="amacron" unicode="&#x101;" horiz-adv-x="1095" 
d="M264 782h-88v224q184 38 367 38q180 0 266 -74t86 -259v-625h149v-86h-251v102h-5q-78 -61 -153 -90t-168 -30q-56 -3 -109 6q-110 15 -175.5 82.5t-71.5 173.5q-3 42 4 90q35 239 422 239h256v134q0 127 -62 188t-209 61q-115 0 -258 -24v-150zM793 172v334h-242
q-186 0 -264 -58t-78 -172q0 -97 70.5 -156t201.5 -59q181 0 312 111zM303 1300h481v-77h-481v77z" />
    <glyph glyph-name="Abreve" unicode="&#x102;" horiz-adv-x="1433" 
d="M723 1606q175 0 223 196h49q-21 -134 -94 -198t-178 -64q-104 0 -176.5 64t-93.5 198h51q8 -35 22 -66t38.5 -62t65.5 -49.5t93 -18.5zM473 1393h334l465 -1307h110v-86h-415v86h186l-121 342h-616l-129 -342h174v-86h-410v86h129l455 1219h-162v88zM733 1294h-2
l-291 -784h572z" />
    <glyph glyph-name="abreve" unicode="&#x103;" horiz-adv-x="1095" 
d="M264 782h-88v224q184 38 367 38q180 0 266 -74t86 -259v-625h149v-86h-251v102h-5q-78 -61 -153 -90t-168 -30q-56 -3 -109 6q-110 15 -175.5 82.5t-71.5 173.5q-3 42 4 90q35 239 422 239h256v134q0 127 -62 188t-209 61q-115 0 -258 -24v-150zM793 172v334h-242
q-186 0 -264 -58t-78 -172q0 -97 70.5 -156t201.5 -59q181 0 312 111zM557 1257q53 0 94.5 18.5t66.5 50t39 62t23 66.5h49q-21 -134 -94 -198t-178 -64q-104 0 -176.5 64t-93.5 198h51q8 -35 22 -66t38.5 -62.5t65.5 -50t93 -18.5z" />
    <glyph glyph-name="Aogonek" unicode="&#x104;" horiz-adv-x="1433" 
d="M1337 -313l9 -33q-76 -60 -175 -60q-64 0 -110.5 34.5t-46.5 101.5q0 139 174 270h-221v86h186l-121 342h-616l-129 -342h174v-86h-410v86h129l455 1219h-162v88h334l465 -1307h110v-86h-135q-68 -52 -115 -121t-47 -125q0 -53 30.5 -82.5t86.5 -29.5q19 0 36 2.5t33.5 9
t24.5 10t23.5 13t17.5 10.5zM733 1294h-2l-291 -784h572z" />
    <glyph glyph-name="aogonek" unicode="&#x105;" horiz-adv-x="1095" 
d="M946 -313l8 -33q-76 -60 -174 -60q-64 0 -110.5 34.5t-46.5 101.5q0 139 170 270v102h-5q-84 -64 -163 -93t-181 -29q-155 0 -246.5 76.5t-91.5 211.5q0 305 431 305h256v134q0 127 -62 188t-209 61q-134 0 -258 -24v-150h-88v224q184 38 367 38q180 0 266 -74t86 -259
v-625h149v-86h-188q-68 -52 -115 -121t-47 -125q0 -53 30.5 -82.5t86.5 -29.5q19 0 36 2.5t33.5 9t24.5 10t23.5 13t17.5 10.5zM793 172v334h-250q-95 0 -161 -16t-103 -47.5t-53.5 -71.5t-16.5 -95q0 -97 70.5 -156t201.5 -59q181 0 312 111z" />
    <glyph glyph-name="Cacute" unicode="&#x106;" horiz-adv-x="1249" 
d="M913 1782l-165 -287h-62l133 287h94zM1059 291h88v-246q-231 -65 -461 -65q-135 0 -236.5 38t-164 102t-101 159.5t-53 197.5t-14.5 230q0 123 14.5 221.5t53 191.5t101 155.5t164 100t236.5 37.5q233 0 461 -67v-246h-88v178q-198 47 -365 47q-94 0 -168.5 -23
t-124.5 -67t-84.5 -99.5t-53 -128t-26.5 -144t-8 -156.5q0 -90 8 -165t26.5 -150.5t53 -132.5t84.5 -101.5t124.5 -68t168.5 -23.5q169 0 365 49v176z" />
    <glyph glyph-name="cacute" unicode="&#x107;" horiz-adv-x="1013" 
d="M932 782h-88v148q-111 26 -250 26q-80 0 -143 -23t-105 -62.5t-69.5 -96t-39.5 -121.5t-12 -141q0 -96 20 -174t62 -140.5t115 -97t172 -34.5q163 0 317 40l21 -83q-171 -43 -338 -43q-477 0 -477 532q0 120 26 214.5t81 167t148.5 111.5t221.5 39q167 0 338 -43v-219z
M762 1434l-166 -287h-61l133 287h94z" />
    <glyph glyph-name="Ccircumflex" unicode="&#x108;" horiz-adv-x="1249" 
d="M729 1720l-188 -225h-62l213 287h76l213 -287h-61zM1059 291h88v-246q-231 -65 -461 -65q-135 0 -236.5 38t-164 102t-101 159.5t-53 197.5t-14.5 230q0 123 14.5 221.5t53 191.5t101 155.5t164 100t236.5 37.5q233 0 461 -67v-246h-88v178q-198 47 -365 47
q-94 0 -168.5 -23t-124.5 -67t-84.5 -99.5t-53 -128t-26.5 -144t-8 -156.5q0 -90 8 -165t26.5 -150.5t53 -132.5t84.5 -101.5t124.5 -68t168.5 -23.5q169 0 365 49v176z" />
    <glyph glyph-name="ccircumflex" unicode="&#x109;" horiz-adv-x="1013" 
d="M932 782h-88v148q-111 26 -250 26q-80 0 -143 -23t-105 -62.5t-69.5 -96t-39.5 -121.5t-12 -141q0 -96 20 -174t62 -140.5t115 -97t172 -34.5q163 0 317 40l21 -83q-171 -43 -338 -43q-477 0 -477 532q0 120 26 214.5t81 167t148.5 111.5t221.5 39q167 0 338 -43v-219z
M563 1372l-188 -225h-62l213 287h76l213 -287h-61z" />
    <glyph glyph-name="Cdotaccent" unicode="&#x10a;" horiz-adv-x="1249" 
d="M664 1782h92v-226h-92v226zM1059 291h88v-246q-231 -65 -461 -65q-135 0 -236.5 38t-164 102t-101 159.5t-53 197.5t-14.5 230q0 123 14.5 221.5t53 191.5t101 155.5t164 100t236.5 37.5q233 0 461 -67v-246h-88v178q-198 47 -365 47q-94 0 -168.5 -23t-124.5 -67
t-84.5 -99.5t-53 -128t-26.5 -144t-8 -156.5q0 -90 8 -165t26.5 -150.5t53 -132.5t84.5 -101.5t124.5 -68t168.5 -23.5q169 0 365 49v176z" />
    <glyph glyph-name="cdotaccent" unicode="&#x10b;" horiz-adv-x="1013" 
d="M932 782h-88v148q-111 26 -250 26q-80 0 -143 -23t-105 -62.5t-69.5 -96t-39.5 -121.5t-12 -141q0 -96 20 -174t62 -140.5t115 -97t172 -34.5q163 0 317 40l21 -83q-171 -43 -338 -43q-477 0 -477 532q0 120 26 214.5t81 167t148.5 111.5t221.5 39q167 0 338 -43v-219z
M502 1434h92v-226h-92v226z" />
    <glyph glyph-name="Ccaron" unicode="&#x10c;" horiz-adv-x="1249" 
d="M522 1782l189 -226l190 226h62l-213 -287h-76l-213 287h61zM1059 291h88v-246q-231 -65 -461 -65q-135 0 -236.5 38t-164 102t-101 159.5t-53 197.5t-14.5 230q0 123 14.5 221.5t53 191.5t101 155.5t164 100t236.5 37.5q233 0 461 -67v-246h-88v178q-198 47 -365 47
q-94 0 -168.5 -23t-124.5 -67t-84.5 -99.5t-53 -128t-26.5 -144t-8 -156.5q0 -90 8 -165t26.5 -150.5t53 -132.5t84.5 -101.5t124.5 -68t168.5 -23.5q169 0 365 49v176z" />
    <glyph glyph-name="ccaron" unicode="&#x10d;" horiz-adv-x="1013" 
d="M932 782h-88v148q-111 26 -250 26q-80 0 -143 -23t-105 -62.5t-69.5 -96t-39.5 -121.5t-12 -141q0 -96 20 -174t62 -140.5t115 -97t172 -34.5q163 0 317 40l21 -83q-171 -43 -338 -43q-477 0 -477 532q0 120 26 214.5t81 167t148.5 111.5t221.5 39q167 0 338 -43v-219z
M401 1434l189 -226l190 226h62l-213 -287h-76l-213 287h61z" />
    <glyph glyph-name="Dcaron" unicode="&#x10e;" horiz-adv-x="1351" 
d="M444 1782l189 -226l190 226h62l-213 -287h-76l-213 287h61zM51 1393h623q559 0 559 -686q0 -707 -559 -707h-623v86h148v1219h-148v88zM307 86h367q446 0 446 621q0 101 -11.5 184.5t-42 162.5t-79.5 132.5t-128.5 86t-184.5 32.5h-367v-1219z" />
    <glyph glyph-name="dcaron" unicode="&#x10f;" horiz-adv-x="1146" 
d="M696 1346v88h250v-1348h150v-86h-252v102h-4q-62 -56 -151.5 -89t-186.5 -33q-105 0 -181 40t-119.5 113.5t-64 167t-20.5 211.5q0 117 21 211t65.5 167.5t121 113.5t181.5 40q96 0 184.5 -32.5t149.5 -87.5h4v422h-148zM225 512q0 -94 15.5 -170t49.5 -140.5t97 -100
t150 -35.5q93 0 175.5 34.5t131.5 75.5v672q-50 40 -132 74t-175 34q-87 0 -150 -35.5t-97 -99t-49.5 -139.5t-15.5 -170zM1188 1290h-41l31 219h-37v191h102v-191z" />
    <glyph glyph-name="Dcroat" unicode="&#x110;" horiz-adv-x="1351" 
d="M51 1393h623q559 0 559 -686q0 -707 -559 -707h-623v86h148v588h-148v65h148v566h-148v88zM307 86h367q446 0 446 621q0 101 -11.5 184.5t-42 162.5t-79.5 132.5t-128.5 86t-184.5 32.5h-367v-566h219v-65h-219v-588z" />
    <glyph glyph-name="dcroat" unicode="&#x111;" horiz-adv-x="1146" 
d="M844 1434h102v-193h133v-65h-133v-1090h150v-86h-252v102h-4q-155 -122 -344 -122q-127 0 -213 66.5t-126 184t-40 281.5q0 117 21 211t65.5 167.5t121 113.5t181.5 40q96 0 184.5 -32.5t149.5 -87.5h4v252h-209v65h209v193zM225 512q0 -94 15.5 -170t49.5 -140.5
t97 -100t150 -35.5q93 0 175.5 34.5t131.5 75.5v672q-50 40 -132 74t-175 34q-87 0 -150 -35.5t-97 -99t-49.5 -139.5t-15.5 -170z" />
    <glyph glyph-name="Emacron" unicode="&#x112;" horiz-adv-x="1167" 
d="M356 1649h482v-78h-482v78zM51 1393h998v-252h-86v164h-656v-537h639v-88h-639v-594h656v164h86v-250h-998v86h148v1219h-148v88z" />
    <glyph glyph-name="emacron" unicode="&#x113;" horiz-adv-x="1085" 
d="M967 506h-742q3 -440 398 -440q187 0 319 40l14 -83q-155 -43 -348 -43q-491 0 -491 532q0 120 26 215t81.5 167t149 111t220.5 39q87 0 155 -20.5t110.5 -54t71 -79.5t40.5 -94.5t14 -102.5t-3 -99t-15 -88zM588 963q-337 0 -363 -388h643q10 45 11 89t-6 88.5t-28.5 82
t-54 66.5t-84.5 45.5t-118 16.5zM338 1300h481v-77h-481v77z" />
    <glyph glyph-name="Ebreve" unicode="&#x114;" horiz-adv-x="1167" 
d="M631 1606q175 0 223 196h49q-21 -134 -94 -198t-178 -64q-104 0 -177 64t-94 198h52q8 -35 22 -66t38.5 -62t65.5 -49.5t93 -18.5zM51 1393h998v-252h-86v164h-656v-537h639v-88h-639v-594h656v164h86v-250h-998v86h148v1219h-148v88z" />
    <glyph glyph-name="ebreve" unicode="&#x115;" horiz-adv-x="1085" 
d="M967 506h-742q3 -440 398 -440q187 0 319 40l14 -83q-155 -43 -348 -43q-491 0 -491 532q0 120 26 215t81.5 167t149 111t220.5 39q87 0 155 -20.5t110.5 -54t71 -79.5t40.5 -94.5t14 -102.5t-3 -99t-15 -88zM588 963q-337 0 -363 -388h643q10 45 11 89t-6 88.5t-28.5 82
t-54 66.5t-84.5 45.5t-118 16.5zM586 1257q53 0 94.5 18.5t66.5 50t39 62t23 66.5h49q-21 -134 -94 -198t-178 -64q-104 0 -177 64t-94 198h52q8 -35 22 -66t38.5 -62.5t65.5 -50t93 -18.5z" />
    <glyph glyph-name="Edotaccent" unicode="&#x116;" horiz-adv-x="1167" 
d="M551 1782h92v-226h-92v226zM51 1393h998v-252h-86v164h-656v-537h639v-88h-639v-594h656v164h86v-250h-998v86h148v1219h-148v88z" />
    <glyph glyph-name="edotaccent" unicode="&#x117;" horiz-adv-x="1085" 
d="M967 506h-742q3 -440 398 -440q187 0 319 40l14 -83q-155 -43 -348 -43q-491 0 -491 532q0 120 26 215t81.5 167t149 111t220.5 39q87 0 155 -20.5t110.5 -54t71 -79.5t40.5 -94.5t14 -102.5t-3 -99t-15 -88zM588 963q-337 0 -363 -388h643q10 45 11 89t-6 88.5t-28.5 82
t-54 66.5t-84.5 45.5t-118 16.5zM506 1434h92v-226h-92v226z" />
    <glyph glyph-name="Eogonek" unicode="&#x118;" horiz-adv-x="1167" 
d="M51 1393h998v-252h-86v164h-656v-537h639v-88h-639v-594h656v164h86v-250q-67 -52 -113.5 -121t-46.5 -125q0 -53 29.5 -82.5t85.5 -29.5q20 0 37.5 2.5t33 9t24 10.5t23 12.5t17.5 10.5l8 -33q-76 -60 -174 -60q-64 0 -111 34.5t-47 101.5q0 136 174 270h-938v86h148
v1219h-148v88z" />
    <glyph glyph-name="eogonek" unicode="&#x119;" horiz-adv-x="1085" 
d="M1047 -291l8 -31q-75 -59 -174 -59q-64 0 -111 34t-47 101q0 126 149 250q-115 -24 -264 -24q-491 0 -491 532q0 120 26 215t81.5 167t149 111t220.5 39q87 0 155 -20.5t110.5 -54t71 -79.5t40.5 -94.5t14 -102.5t-3 -99t-15 -88h-740q3 -440 396 -440q187 0 319 40
l14 -83q-67 -49 -113 -118.5t-46 -127.5q0 -53 29 -83t85 -30q20 0 37.5 2.5t33.5 9t24 10.5t23.5 13t17.5 10zM588 963q-335 0 -361 -388h641q10 45 11 89t-6 88.5t-28.5 82t-54 66.5t-84.5 45.5t-118 16.5z" />
    <glyph glyph-name="Ecaron" unicode="&#x11a;" horiz-adv-x="1167" 
d="M420 1782l188 -226l191 226h61l-213 -287h-76l-213 287h62zM51 1393h998v-252h-86v164h-656v-537h639v-88h-639v-594h656v164h86v-250h-998v86h148v1219h-148v88z" />
    <glyph glyph-name="ecaron" unicode="&#x11b;" horiz-adv-x="1085" 
d="M967 506h-742q3 -440 398 -440q187 0 319 40l14 -83q-155 -43 -348 -43q-491 0 -491 532q0 120 26 215t81.5 167t149 111t220.5 39q87 0 155 -20.5t110.5 -54t71 -79.5t40.5 -94.5t14 -102.5t-3 -99t-15 -88zM588 963q-337 0 -363 -388h643q10 45 11 89t-6 88.5t-28.5 82
t-54 66.5t-84.5 45.5t-118 16.5zM387 1434l188 -226l191 226h61l-213 -287h-75l-213 287h61z" />
    <glyph glyph-name="Gcircumflex" unicode="&#x11c;" horiz-adv-x="1269" 
d="M723 1720l-188 -225h-62l213 287h76l213 -287h-62zM229 707q0 -102 14 -191t47.5 -172t85.5 -142t133.5 -94.5t184.5 -35.5q196 0 344 100v416h-317v88h426v-572q-103 -56 -212.5 -90t-248.5 -34q-126 0 -224.5 38.5t-162.5 104.5t-105.5 160t-59 198t-17.5 226
q0 123 14.5 221.5t53 191.5t101 155.5t164 100t236.5 37.5q233 0 461 -67v-246h-88v178q-198 47 -365 47q-94 0 -168.5 -23t-124.5 -67t-84.5 -99.5t-53 -128t-26.5 -144t-8 -156.5z" />
    <glyph glyph-name="gcircumflex" unicode="&#x11d;" horiz-adv-x="1136" 
d="M172 -150q0 -206 338 -206q125 0 220 27t152.5 85t57.5 140q0 137 -213 147l-387 20q-85 -52 -126.5 -98.5t-41.5 -114.5zM543 438q132 0 210 70t78 188q0 122 -79 198.5t-209 76.5q-146 0 -221.5 -74.5t-75.5 -200.5q0 -121 79.5 -189.5t217.5 -68.5zM276 82v4
q-91 49 -73.5 148.5t116.5 171.5v4q-81 40 -127.5 112.5t-46.5 173.5q0 162 105 255t293 93q63 0 137 -20h338v-68h-230v-2q142 -77 142 -258q0 -160 -108.5 -247t-278.5 -87q-87 0 -166 29q-46 -45 -66 -99t0 -94.5t80 -43.5l369 -19q287 -16 287 -223
q0 -161 -139.5 -251.5t-426.5 -90.5q-399 0 -399 266q0 141 194 246zM571 1372l-188 -225h-61l213 287h75l213 -287h-61z" />
    <glyph glyph-name="Gbreve" unicode="&#x11e;" horiz-adv-x="1269" 
d="M709 1606q175 0 223 196h49q-21 -134 -94 -198t-178 -64q-104 0 -177 64t-94 198h51q8 -35 22 -66t39 -62t66 -49.5t93 -18.5zM229 707q0 -102 14 -191t47.5 -172t85.5 -142t133.5 -94.5t184.5 -35.5q196 0 344 100v416h-317v88h426v-572q-103 -56 -212.5 -90t-248.5 -34
q-126 0 -224.5 38.5t-162.5 104.5t-105.5 160t-59 198t-17.5 226q0 123 14.5 221.5t53 191.5t101 155.5t164 100t236.5 37.5q233 0 461 -67v-246h-88v178q-198 47 -365 47q-94 0 -168.5 -23t-124.5 -67t-84.5 -99.5t-53 -128t-26.5 -144t-8 -156.5z" />
    <glyph glyph-name="gbreve" unicode="&#x11f;" horiz-adv-x="1136" 
d="M172 -150q0 -206 338 -206q125 0 220 27t152.5 85t57.5 140q0 137 -213 147l-387 20q-85 -52 -126.5 -98.5t-41.5 -114.5zM543 438q132 0 210 70t78 188q0 122 -79 198.5t-209 76.5q-146 0 -221.5 -74.5t-75.5 -200.5q0 -121 79.5 -189.5t217.5 -68.5zM276 82v4
q-91 49 -73.5 148.5t116.5 171.5v4q-81 40 -127.5 112.5t-46.5 173.5q0 162 105 255t293 93q63 0 137 -20h338v-68h-230v-2q142 -77 142 -258q0 -160 -108.5 -247t-278.5 -87q-87 0 -166 29q-46 -45 -66 -99t0 -94.5t80 -43.5l369 -19q287 -16 287 -223
q0 -161 -139.5 -251.5t-426.5 -90.5q-399 0 -399 266q0 141 194 246zM586 1257q53 0 94.5 18.5t66.5 50t39 62t23 66.5h49q-21 -134 -94 -198t-178 -64q-104 0 -177 64t-94 198h52q8 -35 22 -66t38.5 -62.5t65.5 -50t93 -18.5z" />
    <glyph glyph-name="Gdotaccent" unicode="&#x120;" horiz-adv-x="1269" 
d="M662 1782h92v-226h-92v226zM229 707q0 -102 14 -191t47.5 -172t85.5 -142t133.5 -94.5t184.5 -35.5q196 0 344 100v416h-317v88h426v-572q-103 -56 -212.5 -90t-248.5 -34q-126 0 -224.5 38.5t-162.5 104.5t-105.5 160t-59 198t-17.5 226q0 123 14.5 221.5t53 191.5
t101 155.5t164 100t236.5 37.5q233 0 461 -67v-246h-88v178q-198 47 -365 47q-94 0 -168.5 -23t-124.5 -67t-84.5 -99.5t-53 -128t-26.5 -144t-8 -156.5z" />
    <glyph glyph-name="gdotaccent" unicode="&#x121;" horiz-adv-x="1136" 
d="M172 -150q0 -206 338 -206q125 0 220 27t152.5 85t57.5 140q0 137 -213 147l-387 20q-85 -52 -126.5 -98.5t-41.5 -114.5zM543 438q132 0 210 70t78 188q0 122 -79 198.5t-209 76.5q-146 0 -221.5 -74.5t-75.5 -200.5q0 -121 79.5 -189.5t217.5 -68.5zM276 82v4
q-91 49 -73.5 148.5t116.5 171.5v4q-81 40 -127.5 112.5t-46.5 173.5q0 162 105 255t293 93q63 0 137 -20h338v-68h-230v-2q142 -77 142 -258q0 -160 -108.5 -247t-278.5 -87q-87 0 -166 29q-46 -45 -66 -99t0 -94.5t80 -43.5l369 -19q287 -16 287 -223
q0 -161 -139.5 -251.5t-426.5 -90.5q-399 0 -399 266q0 141 194 246zM477 1434h92v-226h-92v226z" />
    <glyph glyph-name="Gcommaaccent" unicode="&#x122;" horiz-adv-x="1269" 
d="M229 707q0 -102 14 -191t47.5 -172t85.5 -142t133.5 -94.5t184.5 -35.5q196 0 344 100v416h-317v88h426v-572q-103 -56 -212.5 -90t-248.5 -34q-126 0 -224.5 38.5t-162.5 104.5t-105.5 160t-59 198t-17.5 226q0 123 14.5 221.5t53 191.5t101 155.5t164 100t236.5 37.5
q233 0 461 -67v-246h-88v178q-198 47 -365 47q-94 0 -168.5 -23t-124.5 -67t-84.5 -99.5t-53 -128t-26.5 -144t-8 -156.5zM684 -492h-41l31 220h-37v190h102v-190z" />
    <glyph glyph-name="gcommaaccent" unicode="&#x123;" horiz-adv-x="1136" 
d="M172 -150q0 -206 338 -206q125 0 220 27t152.5 85t57.5 140q0 137 -213 147l-387 20q-85 -52 -126.5 -98.5t-41.5 -114.5zM543 438q132 0 210 70t78 188q0 122 -79 198.5t-209 76.5q-146 0 -221.5 -74.5t-75.5 -200.5q0 -121 79.5 -189.5t217.5 -68.5zM276 82v4
q-91 49 -73.5 148.5t116.5 171.5v4q-81 40 -127.5 112.5t-46.5 173.5q0 162 105 255t293 93q63 0 137 -20h338v-68h-230v-2q142 -77 142 -258q0 -160 -108.5 -247t-278.5 -87q-87 0 -166 29q-46 -45 -66 -99t0 -94.5t80 -43.5l369 -19q287 -16 287 -223
q0 -161 -139.5 -251.5t-426.5 -90.5q-399 0 -399 266q0 141 194 246zM526 1741h41l-30 -266h34v-236h-102v236z" />
    <glyph glyph-name="Hcircumflex" unicode="&#x124;" horiz-adv-x="1392" 
d="M694 1720l-188 -225h-62l213 287h76l213 -287h-61zM936 86h149v594h-778v-594h148v-86h-404v86h148v1219h-148v88h404v-88h-148v-537h778v537h-149v88h405v-88h-149v-1219h149v-86h-405v86z" />
    <glyph glyph-name="hcircumflex" unicode="&#x125;" horiz-adv-x="1208" 
d="M762 0v86h143v604q0 266 -246 266q-169 0 -358 -155v-715h143v-86h-393v86h148v1260h-148v88h250v-564h4q190 174 395 174q308 0 308 -333v-625h149v-86h-395zM236 1761l-189 -225h-61l213 287h75l213 -287h-61z" />
    <glyph glyph-name="Hbar" unicode="&#x126;" horiz-adv-x="1392" 
d="M936 86h149v594h-778v-594h148v-86h-404v86h148v981h-133v41h133v197h-148v88h404v-88h-148v-197h778v197h-149v88h405v-88h-149v-197h133v-41h-133v-981h149v-86h-405v86zM307 768h778v299h-778v-299z" />
    <glyph glyph-name="hbar" unicode="&#x127;" horiz-adv-x="1208" 
d="M762 0v86h143v604q0 266 -246 266q-169 0 -358 -155v-715h143v-86h-393v86h148v1090h-133v65h133v193h102v-193h211v-65h-211v-306h4q181 164 375 172q63 0 92 -4q236 -34 236 -327v-625h149v-86h-395z" />
    <glyph glyph-name="Itilde" unicode="&#x128;" horiz-adv-x="505" 
d="M147 1653q-43 0 -75 -18t-107 -93l-35 29q67 88 113.5 123t99.5 35q33 0 73.5 -20t71.5 -43.5t66 -43.5t58 -20t40 5t42.5 28.5t50.5 66.5l33 -33q-67 -134 -154 -137q-15 -2 -43 6q-27 9 -111 62t-123 53zM51 86h148v1219h-148v88h404v-88h-148v-1219h148v-86h-404v86z
" />
    <glyph glyph-name="itilde" unicode="&#x129;" horiz-adv-x="501" 
d="M51 936v88h250v-938h150v-86h-400v86h148v850h-148zM135 1305q-43 0 -75 -18t-107 -93l-35 29q67 88 113.5 122.5t99.5 34.5q42 0 94 -32t99 -63.5t75 -31.5q22 0 39.5 5.5t43 29t50.5 66.5l33 -33q-33 -66 -69.5 -101t-83.5 -36q-15 -2 -43 6q-27 9 -111 62t-123 53z
" />
    <glyph glyph-name="Imacron" unicode="&#x12a;" horiz-adv-x="505" 
d="M12 1649h482v-78h-482v78zM51 86h148v1219h-148v88h404v-88h-148v-1219h148v-86h-404v86z" />
    <glyph glyph-name="imacron" unicode="&#x12b;" horiz-adv-x="501" 
d="M51 936v88h250v-938h150v-86h-400v86h148v850h-148zM-2 1300h481v-77h-481v77z" />
    <glyph glyph-name="Ibreve" unicode="&#x12c;" horiz-adv-x="505" 
d="M252 1606q175 0 223 196h49q-21 -134 -94 -198t-178 -64q-104 0 -176.5 64t-93.5 198h51q8 -35 22 -66t38.5 -62t65.5 -49.5t93 -18.5zM51 86h148v1219h-148v88h404v-88h-148v-1219h148v-86h-404v86z" />
    <glyph glyph-name="ibreve" unicode="&#x12d;" horiz-adv-x="501" 
d="M51 936v88h250v-938h150v-86h-400v86h148v850h-148zM240 1257q53 0 94.5 18.5t66.5 50t39 62t23 66.5h49q-21 -134 -94 -198t-178 -64q-104 0 -177 64t-94 198h51q8 -35 22 -66t39 -62.5t66 -50t93 -18.5z" />
    <glyph glyph-name="Iogonek" unicode="&#x12e;" horiz-adv-x="505" 
d="M393 -313l8 -33q-76 -60 -174 -60q-64 0 -110.5 34.5t-46.5 101.5q0 139 174 270h-193v86h148v1219h-148v88h404v-88h-148v-1219h148v-86h-152q-68 -52 -115 -121t-47 -125q0 -53 30.5 -82.5t86.5 -29.5q19 0 36 2.5t33.5 9t24.5 10t23.5 13t17.5 10.5z" />
    <glyph glyph-name="iogonek" unicode="&#x12f;" horiz-adv-x="501" 
d="M377 -313l8 -33q-76 -60 -174 -60q-64 0 -111 34.5t-47 101.5q0 136 174 270h-176v86h148v850h-148v88h250v-938h150v-86h-164q-67 -52 -113.5 -121t-46.5 -125q0 -53 29.5 -82.5t85.5 -29.5q20 0 37.5 2.5t33 9t24 10.5t23 12.5t17.5 10.5zM199 1434h102v-232h-102v232z
" />
    <glyph glyph-name="Idotaccent" unicode="&#x130;" horiz-adv-x="505" 
d="M207 1782h92v-226h-92v226zM51 86h148v1219h-148v88h404v-88h-148v-1219h148v-86h-404v86z" />
    <glyph glyph-name="dotlessi" unicode="&#x131;" horiz-adv-x="501" 
d="M51 936v88h250v-938h150v-86h-400v86h148v850h-148z" />
    <glyph glyph-name="IJ" unicode="&#x132;" horiz-adv-x="1167" 
d="M51 86h148v1219h-148v88h404v-88h-148v-1219h148v-86h-404v86zM711 1393h405v-88h-149v-977q0 -192 -71 -270t-216 -78q-86 0 -160 12l10 88q64 -10 125 -10q113 0 159 61t46 197v977h-149v88z" />
    <glyph glyph-name="ij" unicode="&#x133;" horiz-adv-x="880" 
d="M51 936v88h250v-938h150v-86h-400v86h148v850h-148zM199 1434h102v-232h-102v232zM471 936v88h270v-1196q0 -141 -61.5 -199.5t-208.5 -58.5q-73 0 -149 12l12 82q61 -10 117 -10q108 0 148 41.5t40 146.5v1094h-168zM639 1434h102v-232h-102v232z" />
    <glyph glyph-name="Jcircumflex" unicode="&#x134;" horiz-adv-x="690" 
d="M436 1720l-188 -225h-62l213 287h76l213 -287h-61zM236 1393h403v-88h-147v-977q0 -192 -71 -270t-216 -78q-85 0 -162 12l10 88q66 -10 125 -10q113 0 159 61t46 197v977h-147v88z" />
    <glyph glyph-name="jcircumflex" unicode="&#x135;" horiz-adv-x="460" 
d="M51 936v88h271v-1196q0 -141 -62 -199.5t-209 -58.5q-73 0 -149 12l12 82q61 -10 117 -10q108 0 148 41.5t40 146.5v1094h-168zM256 1372l-188 -225h-62l213 287h76l213 -287h-62z" />
    <glyph glyph-name="Kcommaaccent" unicode="&#x136;" horiz-adv-x="1392" 
d="M668 -477h-41l30 219h-36v190h102v-190zM51 1393h404v-88h-148v-742l713 742h-176v88h477v-88h-172l-465 -484l494 -735h163v-86h-481v86h182l-440 659l-295 -301v-358h148v-86h-404v86h148v1219h-148v88z" />
    <glyph glyph-name="kcommaaccent" unicode="&#x137;" horiz-adv-x="1228" 
d="M51 1346v88h250v-928l567 430h-141v88h430v-88h-168l-338 -256l375 -594h152v-86h-430v86h151l-334 537l-264 -199v-338h150v-86h-400v86h148v1260h-148zM616 -492h-41l31 220h-37v190h103v-190z" />
    <glyph glyph-name="kgreenlandic" unicode="&#x138;" horiz-adv-x="1228" 
d="M51 936v88h250v-518l567 430h-137v88h426v-88h-168l-338 -256l375 -594h152v-86h-430v86h151l-334 537l-264 -199v-338h150v-86h-400v86h148v850h-148z" />
    <glyph glyph-name="Lacute" unicode="&#x139;" horiz-adv-x="1126" 
d="M457 1782l-166 -287h-62l133 287h95zM956 250h88v-250h-993v86h148v1219h-148v88h404v-88h-148v-1219h649v164z" />
    <glyph glyph-name="lacute" unicode="&#x13a;" horiz-adv-x="593" 
d="M51 1346v88h250v-1348h150v-86h-400v86h148v1260h-148zM432 1823l-166 -287h-61l133 287h94z" />
    <glyph glyph-name="Lcommaaccent" unicode="&#x13b;" horiz-adv-x="1126" 
d="M594 -487h-41l31 219h-37v190h102v-190zM956 250h88v-250h-993v86h148v1219h-148v88h404v-88h-148v-1219h649v164z" />
    <glyph glyph-name="lcommaaccent" unicode="&#x13c;" horiz-adv-x="593" 
d="M51 1346v88h250v-1348h150v-86h-400v86h148v1260h-148zM246 -492h-41l31 220h-37v190h102v-190z" />
    <glyph glyph-name="Lcaron" unicode="&#x13d;" horiz-adv-x="1126" 
d="M666 983h-41l30 219h-37v191h103v-191zM956 250h88v-250h-993v86h148v1219h-148v88h404v-88h-148v-1219h649v164z" />
    <glyph glyph-name="lcaron" unicode="&#x13e;" horiz-adv-x="593" 
d="M51 1346v88h250v-1348h150v-86h-400v86h148v1260h-148zM481 1290h-41l31 219h-37v191h103v-191z" />
    <glyph glyph-name="Ldot" unicode="&#x13f;" horiz-adv-x="1126" 
d="M588 829h92v-225h-92v225zM956 250h88v-250h-993v86h148v1219h-148v88h404v-88h-148v-1219h649v164z" />
    <glyph glyph-name="ldot" unicode="&#x140;" horiz-adv-x="546" 
d="M51 1346v88h250v-1348h150v-86h-400v86h148v1260h-148zM434 850h92v-225h-92v225z" />
    <glyph glyph-name="Lslash" unicode="&#x141;" horiz-adv-x="1126" 
d="M51 678l148 43v584h-148v88h404v-88h-148v-553l148 45v-58l-148 -43v-610h649v164h88v-250h-993v86h148v578l-148 -41v55z" />
    <glyph glyph-name="lslash" unicode="&#x142;" horiz-adv-x="593" 
d="M51 1346v88h250v-672l150 45v-57l-150 -45v-619h150v-86h-400v86h148v590l-148 -43v55l148 43v615h-148z" />
    <glyph glyph-name="Nacute" unicode="&#x143;" horiz-adv-x="1413" 
d="M911 1782l-166 -287h-61l133 287h94zM963 1393h399v-88h-150v-1305h-108l-801 1194h-4v-1108h152v-86h-400v86h148v1219h-148v88h254l805 -1207h4v1119h-151v88z" />
    <glyph glyph-name="nacute" unicode="&#x144;" horiz-adv-x="1208" 
d="M762 0v86h143v604q0 266 -246 266q-169 0 -358 -155v-715h143v-86h-393v86h148v850h-148v88h250v-154h4q190 174 395 174q308 0 308 -333v-625h149v-86h-395zM776 1434l-166 -287h-61l133 287h94z" />
    <glyph glyph-name="Ncommaaccent" unicode="&#x145;" horiz-adv-x="1413" 
d="M700 -492h-41l31 220h-37v190h103v-190zM963 1393h399v-88h-150v-1305h-108l-801 1194h-4v-1108h152v-86h-400v86h148v1219h-148v88h254l805 -1207h4v1119h-151v88z" />
    <glyph glyph-name="ncommaaccent" unicode="&#x146;" horiz-adv-x="1208" 
d="M762 0v86h143v604q0 266 -246 266q-169 0 -358 -155v-715h143v-86h-393v86h148v850h-148v88h250v-154h4q190 174 395 174q308 0 308 -333v-625h149v-86h-395zM604 -492h-41l31 220h-37v190h102v-190z" />
    <glyph glyph-name="Ncaron" unicode="&#x147;" horiz-adv-x="1413" 
d="M516 1782l189 -226l190 226h61l-213 -287h-75l-213 287h61zM963 1393h399v-88h-150v-1305h-108l-801 1194h-4v-1108h152v-86h-400v86h148v1219h-148v88h254l805 -1207h4v1119h-151v88z" />
    <glyph glyph-name="ncaron" unicode="&#x148;" horiz-adv-x="1208" 
d="M762 0v86h143v604q0 266 -246 266q-169 0 -358 -155v-715h143v-86h-393v86h148v850h-148v88h250v-154h4q190 174 395 174q308 0 308 -333v-625h149v-86h-395zM418 1434l188 -226l191 226h61l-213 -287h-76l-213 287h62z" />
    <glyph glyph-name="napostrophe" unicode="&#x149;" horiz-adv-x="1208" 
d="M762 0v86h143v604q0 266 -246 266q-169 0 -358 -155v-715h143v-86h-393v86h148v850h-148v88h250v-154h4q190 174 395 174q308 0 308 -333v-625h149v-86h-395zM242 1190h-41l30 219h-36v190h102v-190z" />
    <glyph glyph-name="Eng" unicode="&#x14a;" horiz-adv-x="1413" 
d="M1212 1305v-1387q0 -185 -60.5 -262.5t-190.5 -83.5q-35 -3 -76 0q-67 0 -119 10l10 92q64 -10 125 -10q113 0 159 61t46 197l-14 98l-789 1166h-4v-1100h152v-86h-400v86h148v1219h-148v88h256l803 -1196h4v1108h-151v88h399v-88h-150z" />
    <glyph glyph-name="eng" unicode="&#x14b;" horiz-adv-x="1146" 
d="M905 -92v782q0 266 -246 266q-169 0 -358 -155v-715h143v-86h-393v86h148v850h-148v88h250v-154h4q190 174 395 174q308 0 308 -333v-803q0 -184 -62 -261t-209 -77q-73 0 -149 12l12 82q61 -10 117 -10q110 0 149 60.5t39 193.5z" />
    <glyph glyph-name="Omacron" unicode="&#x14c;" horiz-adv-x="1372" 
d="M446 1649h482v-78h-482v78zM686 1325q-82 0 -148.5 -18t-113.5 -48.5t-82 -77t-56.5 -97.5t-34.5 -116t-17.5 -126.5t-4.5 -134.5t4.5 -135.5t17.5 -129.5t34.5 -120.5t56.5 -102.5t82 -81.5t113.5 -52t148.5 -19.5q95 0 169 24.5t123 71.5t82 104.5t50 134t24 148
t7 158.5q0 73 -4.5 134.5t-17.5 126.5t-34 116t-56 97.5t-81.5 77t-113 48.5t-148.5 18zM686 -20q-135 0 -236.5 39t-164 103.5t-101 160.5t-53 197.5t-14.5 226.5q0 123 14.5 221.5t53 191.5t101 155.5t164 100t236.5 37.5t236.5 -37.5t163.5 -100t100.5 -155.5
t52.5 -191.5t14 -221.5q0 -125 -14 -226.5t-52.5 -197.5t-100.5 -160.5t-163.5 -103.5t-236.5 -39z" />
    <glyph glyph-name="omacron" unicode="&#x14d;" horiz-adv-x="1126" 
d="M563 956q-94 0 -162 -35t-105 -98t-54 -139.5t-17 -171.5q0 -96 17 -172.5t54 -140t105 -98.5t162 -35t162 35t105 98.5t54 140t17 172.5q0 95 -17 171.5t-54 139.5t-105 98t-162 35zM563 -20q-119 0 -206.5 38.5t-139 110.5t-76 167t-24.5 216q0 120 24.5 215t76 167
t139 111t206.5 39t206.5 -39t139 -111t75.5 -167t24 -215q0 -121 -24 -215.5t-75.5 -167t-139 -111t-206.5 -38.5zM322 1300h481v-77h-481v77z" />
    <glyph glyph-name="Obreve" unicode="&#x14e;" horiz-adv-x="1372" 
d="M686 1606q175 0 223 196h49q-21 -134 -94 -198t-178 -64q-104 0 -176.5 64t-93.5 198h51q8 -35 22 -66t38.5 -62t65.5 -49.5t93 -18.5zM686 1325q-82 0 -148.5 -18t-113.5 -48.5t-82 -77t-56.5 -97.5t-34.5 -116t-17.5 -126.5t-4.5 -134.5t4.5 -135.5t17.5 -129.5
t34.5 -120.5t56.5 -102.5t82 -81.5t113.5 -52t148.5 -19.5q95 0 169 24.5t123 71.5t82 104.5t50 134t24 148t7 158.5q0 73 -4.5 134.5t-17.5 126.5t-34 116t-56 97.5t-81.5 77t-113 48.5t-148.5 18zM686 -20q-135 0 -236.5 39t-164 103.5t-101 160.5t-53 197.5t-14.5 226.5
q0 123 14.5 221.5t53 191.5t101 155.5t164 100t236.5 37.5t236.5 -37.5t163.5 -100t100.5 -155.5t52.5 -191.5t14 -221.5q0 -125 -14 -226.5t-52.5 -197.5t-100.5 -160.5t-163.5 -103.5t-236.5 -39z" />
    <glyph glyph-name="obreve" unicode="&#x14f;" horiz-adv-x="1126" 
d="M563 956q-94 0 -162 -35t-105 -98t-54 -139.5t-17 -171.5q0 -96 17 -172.5t54 -140t105 -98.5t162 -35t162 35t105 98.5t54 140t17 172.5q0 95 -17 171.5t-54 139.5t-105 98t-162 35zM563 -20q-119 0 -206.5 38.5t-139 110.5t-76 167t-24.5 216q0 120 24.5 215t76 167
t139 111t206.5 39t206.5 -39t139 -111t75.5 -167t24 -215q0 -121 -24 -215.5t-75.5 -167t-139 -111t-206.5 -38.5zM561 1257q53 0 94.5 18.5t66.5 50t39 62t23 66.5h50q-21 -134 -94.5 -198t-178.5 -64q-104 0 -176.5 64t-93.5 198h51q8 -35 22 -66t38.5 -62.5t65.5 -50
t93 -18.5z" />
    <glyph glyph-name="Ohungarumlaut" unicode="&#x150;" horiz-adv-x="1372" 
d="M692 1782l-166 -287h-61l133 287h94zM1040 1782l-166 -287h-61l133 287h94zM686 1325q-82 0 -148.5 -18t-113.5 -48.5t-82 -77t-56.5 -97.5t-34.5 -116t-17.5 -126.5t-4.5 -134.5t4.5 -135.5t17.5 -129.5t34.5 -120.5t56.5 -102.5t82 -81.5t113.5 -52t148.5 -19.5
q95 0 169 24.5t123 71.5t82 104.5t50 134t24 148t7 158.5q0 73 -4.5 134.5t-17.5 126.5t-34 116t-56 97.5t-81.5 77t-113 48.5t-148.5 18zM686 -20q-135 0 -236.5 39t-164 103.5t-101 160.5t-53 197.5t-14.5 226.5q0 123 14.5 221.5t53 191.5t101 155.5t164 100t236.5 37.5
t236.5 -37.5t163.5 -100t100.5 -155.5t52.5 -191.5t14 -221.5q0 -125 -14 -226.5t-52.5 -197.5t-100.5 -160.5t-163.5 -103.5t-236.5 -39z" />
    <glyph glyph-name="ohungarumlaut" unicode="&#x151;" horiz-adv-x="1126" 
d="M563 956q-94 0 -162 -35t-105 -98t-54 -139.5t-17 -171.5q0 -96 17 -172.5t54 -140t105 -98.5t162 -35t162 35t105 98.5t54 140t17 172.5q0 95 -17 171.5t-54 139.5t-105 98t-162 35zM563 -20q-119 0 -206.5 38.5t-139 110.5t-76 167t-24.5 216q0 120 24.5 215t76 167
t139 111t206.5 39t206.5 -39t139 -111t75.5 -167t24 -215q0 -121 -24 -215.5t-75.5 -167t-139 -111t-206.5 -38.5zM582 1434l-166 -287h-62l133 287h95zM930 1434l-166 -287h-62l134 287h94z" />
    <glyph glyph-name="OE" unicode="&#x152;" horiz-adv-x="2113" 
d="M686 1325q-82 0 -148.5 -18t-113.5 -48.5t-82 -77t-56.5 -97.5t-34.5 -116t-17.5 -126.5t-4.5 -134.5t4.5 -135.5t17.5 -129.5t34.5 -120.5t56.5 -102.5t82 -81.5t113.5 -52t148.5 -19.5q95 0 169 24.5t123 72t82 106t50 137t24 153t7 166.5q0 102 -10 183t-40 161.5
t-79 134.5t-132 87.5t-194 33.5zM1997 0h-871v326q-41 -165 -145 -255.5t-295 -90.5q-136 0 -237.5 39t-164 103t-101 160t-52.5 197.5t-14 227.5q0 123 14.5 221.5t53 191.5t101 155.5t164 100t236.5 37.5q100 0 177 -25t128.5 -72t84 -105.5t52.5 -135.5v318h869v-252h-88
v164h-656v-537h641v-88h-641v-594h656v164h88v-250z" />
    <glyph glyph-name="oe" unicode="&#x153;" horiz-adv-x="1869" 
d="M1751 506h-739q1 -100 21.5 -177.5t65 -138t121.5 -92.5t185 -32q189 0 321 40l15 -83q-158 -43 -348 -43q-358 0 -437 311q-75 -311 -393 -311q-119 0 -206.5 38.5t-139 110.5t-76 167t-24.5 216q0 120 24.5 215t76 167t139 111t206.5 39q317 0 393 -313q79 313 422 313
q87 0 155 -20.5t110.5 -54t71 -79.5t40.5 -94.5t14 -102.5t-3 -99t-15 -88zM563 956q-94 0 -162 -35t-105 -98t-54 -139.5t-17 -171.5q0 -96 17 -172.5t54 -140t105 -98.5t162 -35q92 0 159.5 34t105.5 96t55.5 140t17.5 176q0 95 -17 171.5t-54 139.5t-105 98t-162 35z
M1372 963q-334 0 -360 -388h641q9 53 11.5 107t-15.5 104.5t-49 90t-90 63t-138 23.5z" />
    <glyph glyph-name="Racute" unicode="&#x154;" horiz-adv-x="1331" 
d="M791 1782l-166 -287h-62l133 287h95zM51 1393h701q190 0 294.5 -112.5t104.5 -285.5q0 -155 -90.5 -260.5t-245.5 -120.5l356 -528h109v-86h-424v86h180l-338 512h-391v-512h148v-86h-404v86h148v1219h-148v88zM307 1305v-619h420q143 0 229 83t86 226q0 136 -81 223
t-220 87h-434z" />
    <glyph glyph-name="racute" unicode="&#x155;" horiz-adv-x="819" 
d="M51 936v88h250v-164h4q88 79 195.5 131.5t220.5 52.5v-98q-113 0 -227 -48t-193 -107v-705h180v-86h-430v86h148v850h-148zM485 1434l-166 -287h-61l133 287h94z" />
    <glyph glyph-name="Rcommaaccent" unicode="&#x156;" horiz-adv-x="1331" 
d="M649 -479h-41l31 219h-37v190h103v-190zM51 1393h701q190 0 294.5 -112.5t104.5 -285.5q0 -155 -90.5 -260.5t-245.5 -120.5l356 -528h109v-86h-424v86h180l-338 512h-391v-512h148v-86h-404v86h148v1219h-148v88zM307 1305v-619h420q143 0 229 83t86 226q0 136 -81 223
t-220 87h-434z" />
    <glyph glyph-name="rcommaaccent" unicode="&#x157;" horiz-adv-x="819" 
d="M51 936v88h250v-164h4q88 79 195.5 131.5t220.5 52.5v-98q-113 0 -227 -48t-193 -107v-705h180v-86h-430v86h148v850h-148zM246 -492h-41l31 220h-37v190h102v-190z" />
    <glyph glyph-name="Rcaron" unicode="&#x158;" horiz-adv-x="1331" 
d="M451 1782l188 -226l190 226h62l-213 -287h-76l-213 287h62zM51 1393h701q190 0 294.5 -112.5t104.5 -285.5q0 -155 -90.5 -260.5t-245.5 -120.5l356 -528h109v-86h-424v86h180l-338 512h-391v-512h148v-86h-404v86h148v1219h-148v88zM307 1305v-619h420q143 0 229 83
t86 226q0 136 -81 223t-220 87h-434z" />
    <glyph glyph-name="rcaron" unicode="&#x159;" horiz-adv-x="819" 
d="M51 936v88h250v-164h4q88 79 195.5 131.5t220.5 52.5v-98q-113 0 -227 -48t-193 -107v-705h180v-86h-430v86h148v850h-148zM223 1434l189 -226l190 226h62l-213 -287h-76l-213 287h61z" />
    <glyph glyph-name="Sacute" unicode="&#x15a;" horiz-adv-x="1187" 
d="M819 1782l-166 -287h-61l133 287h94zM117 297h88v-174q202 -51 389 -51q97 0 170 25.5t113 68t59.5 91t19.5 101.5q0 43 -14.5 80.5t-34.5 63.5t-55.5 50.5t-62.5 38.5t-72 29.5t-68 21.5t-65 17q-86 21 -160.5 53t-143 80t-108 118.5t-39.5 154.5q0 91 34.5 159.5
t97.5 109t143.5 60t179.5 19.5q225 0 450 -67v-250h-86v176q-201 49 -364 49q-96 0 -165 -20.5t-106.5 -57.5t-54 -80.5t-16.5 -95.5q0 -58 29.5 -107.5t69.5 -81t100.5 -59t103 -40.5t96.5 -27q424 -94 424 -383q0 -187 -130.5 -288t-344.5 -101q-246 0 -477 65v252z" />
    <glyph glyph-name="sacute" unicode="&#x15b;" horiz-adv-x="983" 
d="M864 782h-86v148q-136 31 -297 31q-69 0 -120.5 -16t-76.5 -37t-39.5 -50t-17 -45.5t-2.5 -32.5q0 -28 5.5 -50t22.5 -46t46 -43.5t79.5 -37.5t119.5 -32q191 -40 283.5 -105t92.5 -192q0 -140 -90 -217t-262 -77q-245 0 -416 43v217h89v-146q129 -31 317 -31
q59 0 105 12t73 32.5t45 42t25 47.5t9.5 41t2.5 30q0 35 -10.5 61.5t-39.5 54.5t-87 50.5t-146 40.5q-67 13 -117 27.5t-99 38.5t-80 55t-50.5 77t-19.5 105q0 127 90 196.5t262 69.5q218 0 389 -43v-219zM711 1434l-166 -287h-62l133 287h95z" />
    <glyph glyph-name="Scircumflex" unicode="&#x15c;" horiz-adv-x="1187" 
d="M608 1720l-188 -225h-62l213 287h76l213 -287h-61zM117 297h88v-174q202 -51 389 -51q97 0 170 25.5t113 68t59.5 91t19.5 101.5q0 43 -14.5 80.5t-34.5 63.5t-55.5 50.5t-62.5 38.5t-72 29.5t-68 21.5t-65 17q-86 21 -160.5 53t-143 80t-108 118.5t-39.5 154.5
q0 91 34.5 159.5t97.5 109t143.5 60t179.5 19.5q225 0 450 -67v-250h-86v176q-201 49 -364 49q-96 0 -165 -20.5t-106.5 -57.5t-54 -80.5t-16.5 -95.5q0 -58 29.5 -107.5t69.5 -81t100.5 -59t103 -40.5t96.5 -27q424 -94 424 -383q0 -187 -130.5 -288t-344.5 -101
q-246 0 -477 65v252z" />
    <glyph glyph-name="scircumflex" unicode="&#x15d;" horiz-adv-x="983" 
d="M864 782h-86v148q-136 31 -297 31q-69 0 -120.5 -16t-76.5 -37t-39.5 -50t-17 -45.5t-2.5 -32.5q0 -28 5.5 -50t22.5 -46t46 -43.5t79.5 -37.5t119.5 -32q191 -40 283.5 -105t92.5 -192q0 -140 -90 -217t-262 -77q-245 0 -416 43v217h89v-146q129 -31 317 -31
q59 0 105 12t73 32.5t45 42t25 47.5t9.5 41t2.5 30q0 35 -10.5 61.5t-39.5 54.5t-87 50.5t-146 40.5q-67 13 -117 27.5t-99 38.5t-80 55t-50.5 77t-19.5 105q0 127 90 196.5t262 69.5q218 0 389 -43v-219zM502 1372l-189 -225h-61l213 287h76l213 -287h-62z" />
    <glyph glyph-name="Scedilla" unicode="&#x15e;" horiz-adv-x="1187" 
d="M561 -150v130q-249 7 -444 65v252h88v-174q202 -51 389 -51q97 0 170 25.5t113 68t59.5 91t19.5 101.5q0 43 -14.5 80.5t-34.5 63.5t-55.5 50.5t-62.5 38.5t-72 29.5t-68 21.5t-65 17q-86 21 -160.5 53t-143 80t-108 118.5t-39.5 154.5q0 91 34.5 159.5t97.5 109
t143.5 60t179.5 19.5q225 0 450 -67v-250h-86v176q-201 49 -364 49q-96 0 -165 -20.5t-106.5 -57.5t-54 -80.5t-16.5 -95.5q0 -58 29.5 -107.5t69.5 -81t100.5 -59t103 -40.5t96.5 -27q424 -94 424 -383q0 -184 -127 -285t-336 -104v-99q73 -3 122.5 -37.5t49.5 -107.5
q0 -71 -51 -113.5t-139 -42.5q-59 0 -139 25l8 41q69 -21 118 -21q39 0 67.5 12t42.5 31.5t20 37.5t6 36q0 41 -33.5 74.5t-116.5 33.5z" />
    <glyph glyph-name="scedilla" unicode="&#x15f;" horiz-adv-x="983" 
d="M481 -150v130q-222 6 -375 43v217h89v-146q129 -31 317 -31q59 0 105 12t73 32.5t45 42t25 47.5t9.5 41t2.5 30q0 35 -10.5 61.5t-39.5 54.5t-87 50.5t-146 40.5q-67 13 -117 27.5t-99 38.5t-80 55t-50.5 77t-19.5 105q0 127 90 196.5t262 69.5q218 0 389 -43v-219h-86
v148q-136 31 -297 31q-69 0 -120.5 -16t-76.5 -37t-39.5 -50t-17 -45.5t-2.5 -32.5q0 -28 5.5 -50t22.5 -46t46 -43.5t79.5 -37.5t119.5 -32q191 -40 283.5 -105t92.5 -192q0 -140 -88 -216.5t-258 -77.5v-99q72 -4 122 -38t50 -107q0 -71 -51.5 -113.5t-138.5 -42.5
q-59 0 -139 25l8 41q69 -21 117 -21q40 0 68.5 12t42 31.5t19 37.5t5.5 36q0 42 -33 75t-117 33z" />
    <glyph glyph-name="Scaron" unicode="&#x160;" horiz-adv-x="1187" 
d="M403 1782l189 -226l190 226h62l-213 -287h-76l-213 287h61zM117 297h88v-174q202 -51 389 -51q97 0 170 25.5t113 68t59.5 91t19.5 101.5q0 43 -14.5 80.5t-34.5 63.5t-55.5 50.5t-62.5 38.5t-72 29.5t-68 21.5t-65 17q-86 21 -160.5 53t-143 80t-108 118.5t-39.5 154.5
q0 91 34.5 159.5t97.5 109t143.5 60t179.5 19.5q225 0 450 -67v-250h-86v176q-201 49 -364 49q-96 0 -165 -20.5t-106.5 -57.5t-54 -80.5t-16.5 -95.5q0 -58 29.5 -107.5t69.5 -81t100.5 -59t103 -40.5t96.5 -27q424 -94 424 -383q0 -187 -130.5 -288t-344.5 -101
q-246 0 -477 65v252z" />
    <glyph glyph-name="scaron" unicode="&#x161;" horiz-adv-x="983" 
d="M864 782h-86v148q-136 31 -297 31q-69 0 -120.5 -16t-76.5 -37t-39.5 -50t-17 -45.5t-2.5 -32.5q0 -28 5.5 -50t22.5 -46t46 -43.5t79.5 -37.5t119.5 -32q191 -40 283.5 -105t92.5 -192q0 -140 -90 -217t-262 -77q-245 0 -416 43v217h89v-146q129 -31 317 -31
q59 0 105 12t73 32.5t45 42t25 47.5t9.5 41t2.5 30q0 35 -10.5 61.5t-39.5 54.5t-87 50.5t-146 40.5q-67 13 -117 27.5t-99 38.5t-80 55t-50.5 77t-19.5 105q0 127 90 196.5t262 69.5q218 0 389 -43v-219zM319 1434l189 -226l190 226h62l-213 -287h-76l-213 287h61z" />
    <glyph glyph-name="Tcommaaccent" unicode="&#x162;" horiz-adv-x="1187" 
d="M588 -492h-41l31 220h-37v190h102v-190zM113 1393h962v-252h-88v164h-340v-1219h150v-86h-406v86h150v1219h-342v-164h-86v252z" />
    <glyph glyph-name="tcommaaccent" unicode="&#x163;" horiz-adv-x="768" 
d="M219 303v643h-168v70l168 8l14 287h89v-287h317v-78h-317v-629q0 -132 42.5 -193t157.5 -61q47 0 117 11l10 -82q-73 -12 -157 -12q-144 0 -208.5 71.5t-64.5 251.5zM365 -492h-41l30 220h-37v190h103v-190z" />
    <glyph glyph-name="Tcaron" unicode="&#x164;" horiz-adv-x="1187" 
d="M403 1782l189 -226l190 226h62l-213 -287h-76l-213 287h61zM113 1393h962v-252h-88v164h-340v-1219h150v-86h-406v86h150v1219h-342v-164h-86v252z" />
    <glyph glyph-name="tcaron" unicode="&#x165;" horiz-adv-x="768" 
d="M219 303v643h-168v70l168 8l14 287h89v-287h317v-78h-317v-629q0 -132 42.5 -193t157.5 -61q47 0 117 11l10 -82q-73 -12 -157 -12q-144 0 -208.5 71.5t-64.5 251.5zM614 1249h-41l31 219h-37v191h103v-191z" />
    <glyph glyph-name="Tbar" unicode="&#x166;" horiz-adv-x="1187" 
d="M113 1393h962v-252h-88v164h-340v-637h191v-66h-191v-516h150v-86h-406v86h150v516h-191v66h191v637h-342v-164h-86v252z" />
    <glyph glyph-name="tbar" unicode="&#x167;" horiz-adv-x="768" 
d="M219 526h-123v68h123v352h-168v70l168 8l14 287h89v-287h317v-78h-317v-352h296v-68h-296v-209q0 -132 42.5 -193t157.5 -61q47 0 117 11l10 -82q-73 -12 -157 -12q-144 0 -208.5 71.5t-64.5 251.5v223z" />
    <glyph glyph-name="Utilde" unicode="&#x168;" horiz-adv-x="1392" 
d="M586 1653q-44 0 -76 -18t-107 -93l-34 29q67 88 113.5 123t99.5 35q33 0 73.5 -20t71.5 -43.5t65.5 -43.5t57.5 -20t40 5t42.5 28.5t50.5 66.5l33 -33q-67 -134 -154 -137q-15 -2 -43 6q-28 9 -111 62t-122 53zM936 1393h405v-88h-149v-813q0 -264 -121.5 -388
t-374.5 -124t-375 124t-122 388v813h-148v88h404v-88h-148v-813q0 -43 2 -74.5t10.5 -79t23.5 -82t44.5 -72.5t70.5 -62t104.5 -40t142.5 -16q74 0 133.5 16t98.5 40t67.5 61.5t43.5 73t24 81.5t11 79.5t2 74.5v813h-149v88z" />
    <glyph glyph-name="utilde" unicode="&#x169;" horiz-adv-x="1208" 
d="M51 936v88h250v-692q0 -121 57.5 -193.5t188.5 -72.5q166 0 358 157v713h-194v88h297v-938h149v-86h-252v154h-4q-190 -174 -395 -174q-307 0 -307 331v625h-148zM498 1305q-44 0 -76 -18t-107 -93l-34 29q67 88 113.5 122.5t99.5 34.5q42 0 94 -32t99 -63.5t75 -31.5
q22 0 39.5 5.5t43 29t50.5 66.5l33 -33q-67 -134 -154 -137q-15 -2 -43 6q-28 9 -111 62t-122 53z" />
    <glyph glyph-name="Umacron" unicode="&#x16a;" horiz-adv-x="1392" 
d="M455 1649h481v-78h-481v78zM936 1393h405v-88h-149v-813q0 -264 -121.5 -388t-374.5 -124t-375 124t-122 388v813h-148v88h404v-88h-148v-813q0 -43 2 -74.5t10.5 -79t23.5 -82t44.5 -72.5t70.5 -62t104.5 -40t142.5 -16q74 0 133.5 16t98.5 40t67.5 61.5t43.5 73
t24 81.5t11 79.5t2 74.5v813h-149v88z" />
    <glyph glyph-name="umacron" unicode="&#x16b;" horiz-adv-x="1208" 
d="M51 936v88h250v-692q0 -121 57.5 -193.5t188.5 -72.5q166 0 358 157v713h-194v88h297v-938h149v-86h-252v154h-4q-190 -174 -395 -174q-307 0 -307 331v625h-148zM342 1300h481v-77h-481v77z" />
    <glyph glyph-name="Ubreve" unicode="&#x16c;" horiz-adv-x="1392" 
d="M694 1606q53 0 94.5 18.5t67 49.5t39.5 62t23 66h49q-21 -134 -94.5 -198t-178.5 -64q-104 0 -176.5 64t-93.5 198h51q8 -35 22 -66t38.5 -62t65.5 -49.5t93 -18.5zM936 1393h405v-88h-149v-813q0 -264 -121.5 -388t-374.5 -124t-375 124t-122 388v813h-148v88h404v-88
h-148v-813q0 -43 2 -74.5t10.5 -79t23.5 -82t44.5 -72.5t70.5 -62t104.5 -40t142.5 -16q74 0 133.5 16t98.5 40t67.5 61.5t43.5 73t24 81.5t11 79.5t2 74.5v813h-149v88z" />
    <glyph glyph-name="ubreve" unicode="&#x16d;" horiz-adv-x="1208" 
d="M51 936v88h250v-692q0 -121 57.5 -193.5t188.5 -72.5q166 0 358 157v713h-194v88h297v-938h149v-86h-252v154h-4q-190 -174 -395 -174q-307 0 -307 331v625h-148zM600 1257q53 0 94.5 18.5t66.5 50t39 62t23 66.5h49q-21 -134 -94 -198t-178 -64q-104 0 -176.5 64
t-93.5 198h51q8 -35 22 -66t38.5 -62.5t65.5 -50t93 -18.5z" />
    <glyph glyph-name="Uring" unicode="&#x16e;" horiz-adv-x="1392" 
d="M524 1679q0 72 51.5 124t124.5 52q72 0 124.5 -52t52.5 -124q0 -73 -52.5 -124.5t-124.5 -51.5q-74 0 -125 51.5t-51 124.5zM569 1679q0 -55 37.5 -93t93.5 -38t93.5 38t37.5 93t-37.5 93t-93.5 38t-93.5 -38t-37.5 -93zM936 1393h405v-88h-149v-813q0 -264 -121.5 -388
t-374.5 -124t-375 124t-122 388v813h-148v88h404v-88h-148v-813q0 -43 2 -74.5t10.5 -79t23.5 -82t44.5 -72.5t70.5 -62t104.5 -40t142.5 -16q74 0 133.5 16t98.5 40t67.5 61.5t43.5 73t24 81.5t11 79.5t2 74.5v813h-149v88z" />
    <glyph glyph-name="uring" unicode="&#x16f;" horiz-adv-x="1208" 
d="M51 936v88h250v-692q0 -121 57.5 -193.5t188.5 -72.5q166 0 358 157v713h-194v88h297v-938h149v-86h-252v154h-4q-190 -174 -395 -174q-307 0 -307 331v625h-148zM428 1331q0 72 51.5 124t124.5 52q72 0 124 -52t52 -124q0 -73 -52 -124.5t-124 -51.5q-74 0 -125 51.5
t-51 124.5zM473 1331q0 -55 37.5 -93t93.5 -38t93.5 38t37.5 93t-37.5 93t-93.5 38t-93.5 -38t-37.5 -93z" />
    <glyph glyph-name="Uhungarumlaut" unicode="&#x170;" horiz-adv-x="1392" 
d="M711 1782l-166 -287h-62l133 287h95zM1059 1782l-166 -287h-62l134 287h94zM936 1393h405v-88h-149v-813q0 -264 -121.5 -388t-374.5 -124t-375 124t-122 388v813h-148v88h404v-88h-148v-813q0 -43 2 -74.5t10.5 -79t23.5 -82t44.5 -72.5t70.5 -62t104.5 -40t142.5 -16
q74 0 133.5 16t98.5 40t67.5 61.5t43.5 73t24 81.5t11 79.5t2 74.5v813h-149v88z" />
    <glyph glyph-name="uhungarumlaut" unicode="&#x171;" horiz-adv-x="1208" 
d="M51 936v88h250v-692q0 -121 57.5 -193.5t188.5 -72.5q166 0 358 157v713h-194v88h297v-938h149v-86h-252v154h-4q-190 -174 -395 -174q-307 0 -307 331v625h-148zM614 1434l-165 -287h-62l133 287h94zM963 1434l-166 -287h-62l133 287h95z" />
    <glyph glyph-name="Uogonek" unicode="&#x172;" horiz-adv-x="1392" 
d="M936 1393h405v-88h-149v-813q0 -256 -114 -380t-353 -132q-59 -49 -97 -111t-38 -115t29.5 -82.5t85.5 -29.5q19 0 36 2.5t33.5 9t24.5 10t23.5 13t17.5 10.5l8 -33q-76 -60 -174 -60q-64 0 -111 34.5t-47 101.5q0 130 150 252q-240 6 -353.5 130t-113.5 380v813h-148v88
h404v-88h-148v-813q0 -43 2 -74.5t10.5 -79t23.5 -82t44.5 -72.5t70.5 -62t104.5 -40t142.5 -16q74 0 133.5 16t98.5 40t67.5 61.5t43.5 73t24 81.5t11 79.5t2 74.5v813h-149v88z" />
    <glyph glyph-name="uogonek" unicode="&#x173;" horiz-adv-x="1208" 
d="M1008 86h149v-86h-188q-68 -52 -115 -121t-47 -125q0 -53 30.5 -82.5t86.5 -29.5q19 0 36 2.5t33.5 9t24.5 10t23.5 13t17.5 10.5l8 -33q-76 -60 -174 -60q-64 0 -111 34.5t-47 101.5q0 139 170 270v154h-4q-190 -174 -395 -174q-307 0 -307 331v625h-148v88h250v-692
q0 -121 57.5 -193.5t188.5 -72.5q166 0 358 157v713h-194v88h297v-938z" />
    <glyph glyph-name="Wcircumflex" unicode="&#x174;" horiz-adv-x="2007" 
d="M997 1720l-188 -225h-61l213 287h75l213 -287h-61zM51 1393h445v-88h-220l328 -1174h2l346 1262h119l350 -1262h2l322 1174h-219v88h430v-88h-105l-364 -1315h-146l-335 1210h-5l-331 -1210h-146l-368 1315h-105v88z" />
    <glyph glyph-name="wcircumflex" unicode="&#x175;" horiz-adv-x="1658" 
d="M1225 936v88h381v-88h-99l-297 -946h-108l-273 856h-4l-258 -856h-108l-309 946h-99v88h398v-88h-191l262 -819h4l269 907h86l278 -913h4l246 825h-182zM831 1372l-188 -225h-61l213 287h75l213 -287h-61z" />
    <glyph glyph-name="Ycircumflex" unicode="&#x176;" horiz-adv-x="1351" 
d="M686 1720l-188 -225h-62l213 287h76l213 -287h-61zM729 86h150v-86h-406v86h150v385l-457 834h-115v88h453v-88h-221l399 -727h4l395 727h-217v88h436v-88h-112l-459 -834v-385z" />
    <glyph glyph-name="ycircumflex" unicode="&#x177;" horiz-adv-x="1187" 
d="M754 936v88h381v-88h-99l-397 -1020q-66 -170 -154.5 -258t-212.5 -88q-68 0 -120 12l10 84q58 -10 92 -10q36 0 69 11.5t57.5 28t48.5 45.5t39.5 52t34 61.5t27 59.5t23.5 59l-399 963h-103v88h398v-88h-181l346 -852h4l314 852h-178zM606 1372l-188 -225h-62l213 287
h76l213 -287h-61z" />
    <glyph glyph-name="Ydieresis" unicode="&#x178;" horiz-adv-x="1351" 
d="M371 1782h92v-226h-92v226zM903 1782h92v-226h-92v226zM729 86h150v-86h-406v86h150v385l-457 834h-115v88h453v-88h-221l399 -727h4l395 727h-217v88h436v-88h-112l-459 -834v-385z" />
    <glyph glyph-name="Zacute" unicode="&#x179;" horiz-adv-x="1146" 
d="M768 1782l-166 -287h-61l133 287h94zM127 1393h897v-82l-786 -1221v-4h735v164h86v-250h-957v82l791 1218v5h-678v-164h-88v252z" />
    <glyph glyph-name="zacute" unicode="&#x17a;" horiz-adv-x="962" 
d="M86 1024h786v-82l-667 -856v-4h604v158h86v-240h-821v82l671 856v4h-571v-160h-88v242zM653 1434l-166 -287h-61l133 287h94z" />
    <glyph glyph-name="Zdotaccent" unicode="&#x17b;" horiz-adv-x="1146" 
d="M518 1782h92v-226h-92v226zM127 1393h897v-82l-786 -1221v-4h735v164h86v-250h-957v82l791 1218v5h-678v-164h-88v252z" />
    <glyph glyph-name="zdotaccent" unicode="&#x17c;" horiz-adv-x="962" 
d="M86 1024h786v-82l-667 -856v-4h604v158h86v-240h-821v82l671 856v4h-571v-160h-88v242zM418 1434h92v-226h-92v226z" />
    <glyph glyph-name="Zcaron" unicode="&#x17d;" horiz-adv-x="1146" 
d="M403 1782l189 -226l190 226h62l-213 -287h-76l-213 287h61zM127 1393h897v-82l-786 -1221v-4h735v164h86v-250h-957v82l791 1218v5h-678v-164h-88v252z" />
    <glyph glyph-name="zcaron" unicode="&#x17e;" horiz-adv-x="962" 
d="M86 1024h786v-82l-667 -856v-4h604v158h86v-240h-821v82l671 856v4h-571v-160h-88v242zM326 1434l188 -226l191 226h61l-213 -287h-76l-213 287h62z" />
    <glyph glyph-name="longs" unicode="&#x17f;" horiz-adv-x="577" 
d="M219 -92v1202q0 180 64.5 252t208.5 72q41 0 147 -13l-10 -82q-93 11 -117 11q-110 0 -150 -60.5t-40 -193.5v-1188q0 -184 -62 -261t-209 -77q-73 0 -149 12l12 82q61 -10 117 -10q110 0 149 60.5t39 193.5z" />
    <glyph glyph-name="florin" unicode="&#x192;" horiz-adv-x="942" 
d="M373 -92v1038h-168v70l168 8v86q0 180 64 252t208 72q42 0 148 -13l-11 -82q-94 11 -116 11q-110 0 -150.5 -60.5t-40.5 -193.5v-72h307v-78h-307v-1038q0 -184 -61.5 -261t-208.5 -77q-73 0 -150 12l13 82q61 -10 116 -10q110 0 149.5 60.5t39.5 193.5z" />
    <glyph glyph-name="AEacute" unicode="&#x1fc;" horiz-adv-x="1875" 
d="M1180 1782l-166 -287h-62l133 287h95zM811 1305h-162v88h1108v-252h-86v164h-655v-537h639v-88h-639v-594h655v164h86v-250h-850v606h-366q-192 -347 -316 -567h131l-10 -39h-326v86h119zM903 1292l-323 -598h327v598h-4z" />
    <glyph glyph-name="aeacute" unicode="&#x1fd;" horiz-adv-x="1761" 
d="M1096 1434l-166 -287h-62l133 287h95zM522 956q-134 0 -258 -24v-150h-88v224q201 38 363 38q158 0 233 -60.5t94 -207.5q91 268 404 268q87 0 155 -20.5t110.5 -54t70.5 -80t40 -94.5t14 -102t-3 -99t-15 -88h-739q3 -440 395 -440q188 0 320 40l14 -83
q-155 -43 -348 -43q-298 0 -414 192q-173 -192 -426 -192q-155 0 -246.5 76.5t-91.5 211.5q0 85 31.5 145.5t92 95t138.5 49.5t181 15h244v127q0 131 -61 193.5t-210 62.5zM481 61q107 0 199.5 42t161.5 112q-49 109 -49 291h-250q-95 0 -161 -16t-103 -47.5t-53.5 -71.5
t-16.5 -95q0 -97 70.5 -156t201.5 -59zM1264 963q-335 0 -361 -388h641q10 45 11 89t-6 88.5t-28.5 82t-54 66.5t-84.5 45.5t-118 16.5z" />
    <glyph glyph-name="Oslashacute" unicode="&#x1fe;" horiz-adv-x="1372" 
d="M870 1782l-165 -287h-62l133 287h94zM686 -20q-282 0 -418 165l-157 -200l-39 32l164 205q-119 176 -119 525q0 123 14.5 221.5t53 191.5t101 155.5t164 100t236.5 37.5q265 0 406 -151l168 211l40 -31l-174 -217q127 -167 127 -518q0 -125 -14 -226.5t-52.5 -197.5
t-100.5 -160.5t-163.5 -103.5t-236.5 -39zM686 72q82 0 148.5 19t113 51t81.5 80.5t56 101t34 119.5t17.5 129t4.5 135q0 288 -88 426l-717 -906q110 -155 350 -155zM686 1321q-82 0 -148.5 -18t-113.5 -48t-82 -76t-56.5 -96.5t-34.5 -115.5t-17.5 -126t-4.5 -134
q0 -287 82 -428l717 901q-111 141 -342 141z" />
    <glyph glyph-name="oslashacute" unicode="&#x1ff;" horiz-adv-x="1126" 
d="M756 1434l-166 -287h-62l134 287h94zM563 -20q-209 0 -317 124l-135 -159l-39 32l137 162q-92 128 -92 373q0 120 24.5 215t76 167t139 111t206.5 39q204 0 316 -122l137 157l39 -30l-142 -164q95 -135 95 -373q0 -121 -24 -215.5t-75.5 -167t-139 -111t-206.5 -38.5z
M563 66q94 0 162 35t105 98.5t54 140t17 172.5q0 177 -63 283l-527 -617q84 -112 252 -112zM563 956q-94 0 -162 -35t-105 -98t-54 -139.5t-17 -171.5q0 -178 62 -283l528 617q-86 110 -252 110z" />
    <glyph glyph-name="Scommaaccent" unicode="&#x218;" horiz-adv-x="1187" 
d="M596 -492h-41l31 220h-37v190h102v-190zM117 297h88v-174q202 -51 389 -51q97 0 170 25.5t113 68t59.5 91t19.5 101.5q0 43 -14.5 80.5t-34.5 63.5t-55.5 50.5t-62.5 38.5t-72 29.5t-68 21.5t-65 17q-86 21 -160.5 53t-143 80t-108 118.5t-39.5 154.5q0 91 34.5 159.5
t97.5 109t143.5 60t179.5 19.5q225 0 450 -67v-250h-86v176q-201 49 -364 49q-96 0 -165 -20.5t-106.5 -57.5t-54 -80.5t-16.5 -95.5q0 -58 29.5 -107.5t69.5 -81t100.5 -59t103 -40.5t96.5 -27q424 -94 424 -383q0 -187 -130.5 -288t-344.5 -101q-246 0 -477 65v252z" />
    <glyph glyph-name="scommaaccent" unicode="&#x219;" horiz-adv-x="983" 
d="M864 782h-86v148q-136 31 -297 31q-69 0 -120.5 -16t-76.5 -37t-39.5 -50t-17 -45.5t-2.5 -32.5q0 -28 5.5 -50t22.5 -46t46 -43.5t79.5 -37.5t119.5 -32q191 -40 283.5 -105t92.5 -192q0 -140 -90 -217t-262 -77q-245 0 -416 43v217h89v-146q129 -31 317 -31
q59 0 105 12t73 32.5t45 42t25 47.5t9.5 41t2.5 30q0 35 -10.5 61.5t-39.5 54.5t-87 50.5t-146 40.5q-67 13 -117 27.5t-99 38.5t-80 55t-50.5 77t-19.5 105q0 127 90 196.5t262 69.5q218 0 389 -43v-219zM449 -492h-41l30 220h-37v190h103v-190z" />
    <glyph glyph-name="uni021A" unicode="&#x21a;" horiz-adv-x="1187" 
d="M588 -485h-41l31 219h-37v190h102v-190zM113 1393h962v-252h-88v164h-340v-1219h150v-86h-406v86h150v1219h-342v-164h-86v252z" />
    <glyph glyph-name="uni021B" unicode="&#x21b;" horiz-adv-x="768" 
d="M219 303v643h-168v70l168 8l14 287h89v-287h317v-78h-317v-629q0 -132 42.5 -193t157.5 -61q47 0 117 11l10 -82q-73 -12 -157 -12q-144 0 -208.5 71.5t-64.5 251.5zM387 -496h-41l31 220h-37v190h102v-190z" />
    <glyph glyph-name="circumflex" unicode="&#x2c6;" horiz-adv-x="860" 
d="M428 1372l-188 -225h-62l213 287h76l213 -287h-62z" />
    <glyph glyph-name="caron" unicode="&#x2c7;" horiz-adv-x="860" 
d="M240 1434l188 -226l190 226h62l-213 -287h-76l-213 287h62z" />
    <glyph glyph-name="uni02C9" unicode="&#x2c9;" horiz-adv-x="901" 
d="M147 1300h605v-77h-605v77z" />
    <glyph glyph-name="breve" unicode="&#x2d8;" horiz-adv-x="835" 
d="M418 1257q53 0 94.5 18.5t66.5 50t39 62t23 66.5h49q-21 -134 -94 -198t-178 -64q-104 0 -177 64t-94 198h52q8 -35 22 -66t38.5 -62.5t65.5 -50t93 -18.5z" />
    <glyph glyph-name="dotaccent" unicode="&#x2d9;" horiz-adv-x="512" 
d="M178 1434h92v-226h-92v226z" />
    <glyph glyph-name="ring" unicode="&#x2da;" horiz-adv-x="614" 
d="M131 1331q0 72 51.5 124t124.5 52q72 0 124 -52t52 -124q0 -73 -52 -124.5t-124 -51.5q-73 0 -124.5 51.5t-51.5 124.5zM176 1331q0 -55 38 -93t93 -38t93 38t38 93t-38 93t-93 38t-93 -38t-38 -93z" />
    <glyph glyph-name="ogonek" unicode="&#x2db;" horiz-adv-x="643" 
d="M496 -313l8 -33q-76 -60 -174 -60q-64 0 -111 34.5t-47 101.5q0 139 174 270h60q-68 -52 -115 -121t-47 -125q0 -53 30 -82.5t86 -29.5q19 0 36 2.5t34 9t24 10t24 13.5t18 10z" />
    <glyph glyph-name="tilde" unicode="&#x2dc;" horiz-adv-x="921" 
d="M358 1305q-43 0 -75 -18t-107 -93l-35 29q67 88 113.5 122.5t99.5 34.5q42 0 94.5 -32t99.5 -63.5t75 -31.5q22 0 39.5 5.5t43 29t50.5 66.5l32 -33q-33 -66 -69.5 -101t-83.5 -36q-15 -2 -43 6q-27 9 -111 62t-123 53z" />
    <glyph glyph-name="hungarumlaut" unicode="&#x2dd;" horiz-adv-x="942" 
d="M385 1434l-166 -287h-61l133 287h94zM733 1434l-166 -287h-61l133 287h94z" />
    <glyph glyph-name="uni037E" unicode="&#x37e;" horiz-adv-x="378" 
d="M137 629h103v-236h-103v236z" />
    <glyph glyph-name="tonos" unicode="&#x384;" horiz-adv-x="593" 
d="M385 1393l-166 -287h-61l133 287h94z" />
    <glyph glyph-name="dieresistonos" unicode="&#x385;" horiz-adv-x="1228" 
d="M754 1495l-187 -348h-61l147 348h101zM178 1434h92v-226h-92v226zM956 1434h93v-226h-93v226z" />
    <glyph glyph-name="anoteleia" unicode="&#x387;" horiz-adv-x="983" 
d="M178 1434h92v-226h-92v226zM711 1434h92v-226h-92v226z" />
    <glyph glyph-name="uni03BC" unicode="&#x3bc;" horiz-adv-x="1208" 
d="M51 936v88h250v-692q0 -121 57.5 -193.5t188.5 -72.5q166 0 358 157v713h-194v88h297v-938h149v-86h-252v154h-4q-170 -156 -348 -164q-189 -9 -252 123v-142q0 -201 -42 -289.5t-163 -105.5q-37 -6 -82 -6q-65 3 -133 12l13 82q61 -10 116 -10q109 0 149 60.5t40 193.5
v1028h-148z" />
    <glyph glyph-name="pi" unicode="&#x3c0;" horiz-adv-x="1208" 
d="M762 86h143v850h-604v-850h143v-86h-393v86h148v850h-148v88h1106v-88h-149v-850h149v-86h-395v86z" />
    <glyph glyph-name="uni03C2" unicode="&#x3c2;" horiz-adv-x="1050" 
d="M205 510q0 138 98 233l-160 185l17 16l162 -184q90 74 204 74q113 0 203 -74l160 184l18 -16l-159 -183q102 -96 102 -235q0 -68 -26.5 -129t-73.5 -105l155 -176l-18 -18l-158 178q-88 -72 -203 -72q-116 0 -204 72l-156 -178l-19 18l156 176q-98 95 -98 234zM229 510
q0 -122 87.5 -209.5t209.5 -87.5t210.5 88t88.5 209q0 122 -88.5 210.5t-210.5 88.5q-121 0 -209 -88.5t-88 -210.5z" />
    <glyph glyph-name="sigma" unicode="&#x3c3;" horiz-adv-x="1050" 
d="M205 510q0 138 98 233l-160 185l17 16l162 -184q90 74 204 74q113 0 203 -74l160 184l18 -16l-159 -183q102 -96 102 -235q0 -68 -26.5 -129t-73.5 -105l155 -176l-18 -18l-158 178q-88 -72 -203 -72q-116 0 -204 72l-156 -178l-19 18l156 176q-98 95 -98 234zM229 510
q0 -122 87.5 -209.5t209.5 -87.5t210.5 88t88.5 209q0 122 -88.5 210.5t-210.5 88.5q-121 0 -209 -88.5t-88 -210.5z" />
    <glyph glyph-name="Wgrave" unicode="&#x1e80;" horiz-adv-x="2007" 
d="M977 1495l-166 287h94l133 -287h-61zM51 1393h445v-88h-220l328 -1174h2l346 1262h119l350 -1262h2l322 1174h-219v88h430v-88h-105l-364 -1315h-146l-335 1210h-5l-331 -1210h-146l-368 1315h-105v88z" />
    <glyph glyph-name="wgrave" unicode="&#x1e81;" horiz-adv-x="1658" 
d="M1225 936v88h381v-88h-99l-297 -946h-108l-273 856h-4l-258 -856h-108l-309 946h-99v88h398v-88h-191l262 -819h4l269 907h86l278 -913h4l246 825h-182zM795 1147l-166 287h94l133 -287h-61z" />
    <glyph glyph-name="Wacute" unicode="&#x1e82;" horiz-adv-x="2007" 
d="M1212 1782l-165 -287h-62l133 287h94zM51 1393h445v-88h-220l328 -1174h2l346 1262h119l350 -1262h2l322 1174h-219v88h430v-88h-105l-364 -1315h-146l-335 1210h-5l-331 -1210h-146l-368 1315h-105v88z" />
    <glyph glyph-name="wacute" unicode="&#x1e83;" horiz-adv-x="1658" 
d="M1225 936v88h381v-88h-99l-297 -946h-108l-273 856h-4l-258 -856h-108l-309 946h-99v88h398v-88h-191l262 -819h4l269 907h86l278 -913h4l246 825h-182zM1032 1430l-166 -287h-61l133 287h94z" />
    <glyph glyph-name="Wdieresis" unicode="&#x1e84;" horiz-adv-x="2007" 
d="M696 1782h92v-226h-92v226zM1229 1782h92v-226h-92v226zM51 1393h445v-88h-220l328 -1174h2l346 1262h119l350 -1262h2l322 1174h-219v88h430v-88h-105l-364 -1315h-146l-335 1210h-5l-331 -1210h-146l-368 1315h-105v88z" />
    <glyph glyph-name="wdieresis" unicode="&#x1e85;" horiz-adv-x="1658" 
d="M1225 936v88h381v-88h-99l-297 -946h-108l-273 856h-4l-258 -856h-108l-309 946h-99v88h398v-88h-191l262 -819h4l269 907h86l278 -913h4l246 825h-182zM520 1434h92v-226h-92v226zM1053 1434h92v-226h-92v226z" />
    <glyph glyph-name="Ygrave" unicode="&#x1ef2;" horiz-adv-x="1351" 
d="M666 1495l-166 287h94l133 -287h-61zM729 86h150v-86h-406v86h150v385l-457 834h-115v88h453v-88h-221l399 -727h4l395 727h-217v88h436v-88h-112l-459 -834v-385z" />
    <glyph glyph-name="ygrave" unicode="&#x1ef3;" horiz-adv-x="1187" 
d="M754 936v88h381v-88h-99l-397 -1020q-66 -170 -154.5 -258t-212.5 -88q-68 0 -120 12l10 84q58 -10 92 -10q36 0 69 11.5t57.5 28t48.5 45.5t39.5 52t34 61.5t27 59.5t23.5 59l-399 963h-103v88h398v-88h-181l346 -852h4l314 852h-178zM565 1147l-166 287h95l133 -287
h-62z" />
    <glyph glyph-name="figuredash" unicode="&#x2012;" horiz-adv-x="1228" 
d="M137 586h953v-86h-953v86z" />
    <glyph glyph-name="endash" unicode="&#x2013;" horiz-adv-x="1228" 
d="M137 586h953v-86h-953v86z" />
    <glyph glyph-name="emdash" unicode="&#x2014;" horiz-adv-x="1433" 
d="M137 586h1157v-86h-1157v86z" />
    <glyph glyph-name="quoteleft" unicode="&#x2018;" horiz-adv-x="378" 
d="M195 1393h41l-31 -267h35v-235h-103v235z" />
    <glyph glyph-name="quoteright" unicode="&#x2019;" horiz-adv-x="378" 
d="M184 891h-41l31 266h-37v236h103v-236z" />
    <glyph glyph-name="quotesinglbase" unicode="&#x201a;" horiz-adv-x="378" 
d="M184 -266h-41l31 266h-37v236h103v-236z" />
    <glyph glyph-name="quotedblleft" unicode="&#x201c;" horiz-adv-x="829" 
d="M645 1393h41l-31 -267h35v-235h-102v235zM195 1393h41l-31 -267h35v-235h-103v235z" />
    <glyph glyph-name="quotedblright" unicode="&#x201d;" horiz-adv-x="829" 
d="M184 891h-41l31 266h-37v236h103v-236zM635 891h-41l31 266h-37v236h102v-236z" />
    <glyph glyph-name="quotedblbase" unicode="&#x201e;" horiz-adv-x="829" 
d="M184 -266h-41l31 266h-37v236h103v-236zM635 -266h-41l31 266h-37v236h102v-236z" />
    <glyph glyph-name="dagger" unicode="&#x2020;" horiz-adv-x="1187" 
d="M1049 926l-406 6l4 -932h-106l4 932l-408 -6v98l408 -6l-4 416h106l-4 -416l406 6v-98z" />
    <glyph glyph-name="daggerdbl" unicode="&#x2021;" horiz-adv-x="1187" 
d="M545 522v389l-408 -6v99l408 -7l-4 437h106l-4 -437l406 7v-99l-406 6v-389l406 4v-96l-406 4l4 -434h-106l4 434l-408 -4v96z" />
    <glyph glyph-name="bullet" unicode="&#x2022;" horiz-adv-x="471" 
d="M137 629h103v-236h-103v236z" />
    <glyph glyph-name="onedotenleader" unicode="&#x2024;" horiz-adv-x="378" 
d="M137 236h103v-236h-103v236z" />
    <glyph glyph-name="twodotenleader" unicode="&#x2025;" horiz-adv-x="788" 
d="M137 236h103v-236h-103v236zM547 236h102v-236h-102v236z" />
    <glyph glyph-name="ellipsis" unicode="&#x2026;" horiz-adv-x="1280" 
d="M178 236h103v-236h-103v236zM588 236h102v-236h-102v236zM997 236h103v-236h-103v236z" />
    <glyph glyph-name="perthousand" unicode="&#x2030;" horiz-adv-x="2273" 
d="M1192 1393l-758 -1393h-72l758 1393h72zM371 825q-126 0 -195.5 72.5t-69.5 198.5q0 127 69 198.5t196 71.5q128 0 196 -71.5t68 -198.5q0 -126 -68.5 -198.5t-195.5 -72.5zM371 879q97 0 147.5 57t50.5 160t-50.5 160t-147.5 57q-96 0 -146.5 -57t-50.5 -160t50.5 -160
t146.5 -57zM1184 25q-126 0 -195 72.5t-69 199.5q0 126 69 198t195 72q127 0 195.5 -72t68.5 -198q0 -128 -68.5 -200t-195.5 -72zM1184 80q97 0 147.5 57t50.5 160t-50.5 160t-147.5 57q-96 0 -146.5 -57t-50.5 -160t50.5 -160t146.5 -57zM1901 25q-126 0 -195.5 72.5
t-69.5 199.5q0 126 69.5 198t195.5 72q127 0 195.5 -72t68.5 -198q0 -128 -68.5 -200t-195.5 -72zM1901 80q97 0 147.5 57t50.5 160t-50.5 160t-147.5 57q-96 0 -146.5 -57t-50.5 -160t50.5 -160t146.5 -57z" />
    <glyph glyph-name="guilsinglleft" unicode="&#x2039;" horiz-adv-x="778" 
d="M137 545l502 315v-108l-393 -240l393 -242v-106l-502 315v66z" />
    <glyph glyph-name="guilsinglright" unicode="&#x203a;" horiz-adv-x="778" 
d="M137 860l502 -315v-66l-502 -315v106l395 242l-395 240v108z" />
    <glyph glyph-name="exclamdbl" unicode="&#x203c;" horiz-adv-x="788" 
d="M137 236h103v-236h-103v236zM137 1434h103l-4 -983h-93zM547 236h102v-236h-102v236zM547 1434h102l-4 -983h-92z" />
    <glyph glyph-name="fraction" unicode="&#x2044;" horiz-adv-x="1105" 
d="M977 1393l-758 -1393h-92l758 1393h92z" />
    <glyph glyph-name="zerosuperior" unicode="&#x2070;" horiz-adv-x="571" 
d="M287 1763q-52 0 -88 -24.5t-54.5 -69.5t-26 -95t-7.5 -114q0 -317 176 -317q174 0 174 317q0 303 -174 303zM287 1096q-68 0 -115.5 28t-73 80t-36.5 114t-11 142q0 352 236 352q67 0 114.5 -27.5t72.5 -78t35.5 -110.5t10.5 -136q0 -63 -6 -114.5t-22.5 -99t-42 -80
t-67 -51.5t-95.5 -19z" />
    <glyph glyph-name="foursuperior" unicode="&#x2074;" horiz-adv-x="591" 
d="M111 1360h270v383h-2q-97 -191 -268 -383zM381 1153v160h-330v47q221 241 316 448h69v-448h105v-47h-105v-160h74v-47h-203v47h74z" />
    <glyph glyph-name="fivesuperior" unicode="&#x2075;" horiz-adv-x="548" 
d="M469 1802v-129h-47v78h-279l-16 -289h2q62 80 164 80q97 0 151 -57t54 -160q0 -109 -65 -169t-175 -60q-102 0 -207 51v106h47v-75q79 -35 158 -35q83 0 132.5 48t49.5 132q0 70 -39 120t-125 50q-92 0 -155 -84l-43 4l18 389h375z" />
    <glyph glyph-name="sixsuperior" unicode="&#x2076;" horiz-adv-x="550" 
d="M109 1468l2 -2q32 49 78.5 78t99.5 29q100 0 155.5 -63.5t55.5 -178.5q0 -108 -61 -171.5t-154 -63.5q-234 0 -234 317q0 109 22 188.5t61.5 124.5t88 65.5t109.5 20.5q73 0 147 -24v-115h-49v78q-46 12 -94 12q-65 0 -112 -31.5t-70.5 -81t-33.5 -94.5t-11 -88z
M113 1417q-1 -46 2 -83t13.5 -74t28.5 -61.5t49 -40t73 -15.5q68 0 114.5 50t46.5 138q0 35 -7.5 66t-24.5 60.5t-51.5 47t-82.5 17.5q-89 0 -161 -105z" />
    <glyph glyph-name="sevensuperior" unicode="&#x2077;" horiz-adv-x="503" 
d="M51 1802h402v-43q-227 -358 -275 -653h-63q22 141 103 323.5t171 319.5v2h-291v-78h-47v129z" />
    <glyph glyph-name="eightsuperior" unicode="&#x2078;" horiz-adv-x="571" 
d="M340 1475v-2q87 -36 133.5 -79t46.5 -112q0 -88 -61.5 -137t-173.5 -49q-110 0 -172 48t-62 134q0 124 180 186v2q-77 29 -118 69.5t-41 104.5q0 81 59.5 126.5t157.5 45.5q94 0 152.5 -45t58.5 -122q0 -64 -39.5 -101.5t-120.5 -68.5zM111 1282q0 -62 42 -102.5
t136 -40.5q91 0 132.5 39t41.5 100q0 34 -15 61t-45.5 46.5t-56 30.5t-67.5 26q-76 -24 -122 -61.5t-46 -98.5zM285 1767q-24 0 -48.5 -5.5t-50 -18.5t-41.5 -39t-16 -62q0 -57 44 -91.5t120 -55.5q72 25 110.5 57t38.5 86q0 69 -49.5 99t-107.5 30z" />
    <glyph glyph-name="ninesuperior" unicode="&#x2079;" horiz-adv-x="550" 
d="M442 1440l-2 2q-32 -49 -78 -77t-100 -28q-99 0 -155 62.5t-56 177.5q0 108 61 171.5t156 63.5q232 0 232 -317q0 -110 -21.5 -189.5t-61 -124t-88 -65t-108.5 -20.5q-77 0 -147 24v113h47v-76q54 -14 94 -14q65 0 112 31.5t70.5 81.5t33.5 95.5t11 88.5zM438 1491
q1 45 -2 82t-13.5 73.5t-28.5 61t-49 40t-73 15.5q-68 0 -114.5 -49.5t-46.5 -136.5q0 -27 4 -52t15.5 -51t29 -45t47.5 -31t69 -12q93 0 162 105z" />
    <glyph glyph-name="parenleftsuperior" unicode="&#x207d;" horiz-adv-x="315" 
d="M51 1454q0 126 45.5 254.5t126.5 237.5h41q-155 -252 -155 -492q0 -237 155 -491h-41q-81 109 -126.5 238t-45.5 253z" />
    <glyph glyph-name="parenrightsuperior" unicode="&#x207e;" horiz-adv-x="315" 
d="M264 1454q0 -124 -45.5 -253t-126.5 -238h-41q156 256 156 491q0 239 -156 492h41q81 -109 126.5 -237.5t45.5 -254.5z" />
    <glyph glyph-name="nsuperior" unicode="&#x207f;" horiz-adv-x="655" 
d="M406 881v47h69v297q0 129 -121 129q-85 0 -174 -74v-352h70v-47h-199v47h72v415h-72v50h129v-78h2q91 88 197 88q153 0 153 -166v-309h72v-47h-198z" />
    <glyph glyph-name="zeroinferior" unicode="&#x2080;" horiz-adv-x="571" 
d="M287 248q-52 0 -88 -24.5t-54.5 -69.5t-26 -95t-7.5 -114q0 -318 176 -318q174 0 174 318q0 303 -174 303zM287 -420q-55 0 -96.5 19t-68 51.5t-42.5 80.5t-22.5 99.5t-6.5 114.5q0 352 236 352q67 0 114.5 -27.5t72.5 -78t35.5 -110.5t10.5 -136q0 -63 -6 -114.5
t-22.5 -99.5t-42 -80.5t-67 -51.5t-95.5 -19z" />
    <glyph glyph-name="oneinferior" unicode="&#x2081;" horiz-adv-x="421" 
d="M240 -362h131v-48h-320v48h131v598l-123 -13v41l154 29h27v-655z" />
    <glyph glyph-name="twoinferior" unicode="&#x2082;" horiz-adv-x="544" 
d="M444 -283h50v-127h-443v58q359 244 359 430q0 53 -17.5 89t-46 51.5t-51.5 21.5t-47 6q-75 0 -150 -37v-74h-47v111q105 51 209 51q103 0 156 -58.5t53 -146.5q0 -107 -82.5 -217t-255.5 -231v-2h313v75z" />
    <glyph glyph-name="threeinferior" unicode="&#x2083;" horiz-adv-x="548" 
d="M51 -373v113h47v-80q74 -33 162 -33q58 0 96.5 15.5t54.5 41t21.5 46t5.5 43.5q0 64 -46.5 102.5t-143.5 38.5h-84v49h82q83 0 129.5 43.5t46.5 104.5q0 22 -6.5 43t-22.5 43.5t-50.5 36.5t-82.5 14q-74 0 -145 -33v-80h-47v113q85 49 202 49q99 0 153 -48.5t54 -133.5
q0 -64 -39.5 -107.5t-101.5 -62.5v-2q74 -11 118 -58t44 -116q0 -91 -58.5 -140t-175.5 -49q-131 0 -213 47z" />
    <glyph glyph-name="fourinferior" unicode="&#x2084;" horiz-adv-x="591" 
d="M111 -156h270v383h-2q-97 -191 -268 -383zM381 -362v159h-330v47q220 240 316 449h69v-449h105v-47h-105v-159h74v-48h-203v48h74z" />
    <glyph glyph-name="fiveinferior" unicode="&#x2085;" horiz-adv-x="548" 
d="M469 287v-129h-47v78h-279l-16 -289h2q62 80 164 80q97 0 151 -57t54 -160q0 -109 -65 -169.5t-175 -60.5q-102 0 -207 51v107h47v-76q79 -35 158 -35q83 0 132.5 48t49.5 132q0 70 -39 120t-125 50q-93 0 -155 -83l-43 4l18 389h375z" />
    <glyph glyph-name="sixinferior" unicode="&#x2086;" horiz-adv-x="550" 
d="M109 -47l2 -2q32 49 78.5 77.5t99.5 28.5q100 0 155.5 -63t55.5 -178q0 -108 -61 -172t-154 -64q-234 0 -234 318q0 109 22 188.5t61.5 124.5t88 65.5t109.5 20.5q70 0 147 -25v-114h-49v78q-46 12 -94 12q-65 0 -112 -31.5t-70.5 -81t-33.5 -94.5t-11 -88zM113 -98
q-1 -46 2 -83t13.5 -74t28.5 -62t49 -40.5t73 -15.5q68 0 114.5 50.5t46.5 138.5q0 35 -7.5 65.5t-24.5 60t-51.5 47t-82.5 17.5q-90 0 -161 -104z" />
    <glyph glyph-name="seveninferior" unicode="&#x2087;" horiz-adv-x="503" 
d="M51 287h402v-43q-227 -358 -275 -654h-63q22 141 103 323.5t171 319.5v3h-291v-78h-47v129z" />
    <glyph glyph-name="eightinferior" unicode="&#x2088;" horiz-adv-x="571" 
d="M340 -41v-2q87 -36 133.5 -78.5t46.5 -111.5q0 -88 -61.5 -137.5t-173.5 -49.5q-110 0 -172 48t-62 134q0 125 180 187v2q-77 29 -118 69.5t-41 104.5q0 81 59.5 126.5t157.5 45.5q94 0 152.5 -45.5t58.5 -122.5q0 -64 -39.5 -101.5t-120.5 -68.5zM111 -233
q0 -63 42 -103.5t136 -40.5q91 0 132.5 39t41.5 100q0 34 -15 61t-45.5 46.5t-56 30.5t-67.5 26q-76 -24 -122 -61t-46 -98zM285 252q-24 0 -48.5 -5.5t-50 -18.5t-41.5 -39t-16 -62q0 -57 44 -91.5t120 -55.5q72 25 110.5 57t38.5 86q0 69 -49.5 99t-107.5 30z" />
    <glyph glyph-name="nineinferior" unicode="&#x2089;" horiz-adv-x="550" 
d="M442 -76l-2 2q-68 -104 -178 -104q-99 0 -155 62.5t-56 176.5q0 108 61.5 172t155.5 64q232 0 232 -317q0 -88 -14.5 -157.5t-39.5 -114.5t-61 -74t-76.5 -41.5t-87.5 -12.5q-74 0 -147 25v112h47v-75q58 -15 94 -15q65 0 112 31.5t70.5 81.5t33.5 95.5t11 88.5zM438 -25
q1 45 -2 82t-13.5 73.5t-28.5 61.5t-49 40.5t-73 15.5q-68 0 -114.5 -50t-46.5 -137q0 -35 7 -65.5t24 -60t51.5 -47t82.5 -17.5q93 0 162 104z" />
    <glyph glyph-name="parenleftinferior" unicode="&#x208d;" horiz-adv-x="315" 
d="M51 -61q0 126 45.5 254t126.5 237h41q-155 -252 -155 -491q0 -238 155 -492h-41q-80 109 -126 238t-46 254z" />
    <glyph glyph-name="parenrightinferior" unicode="&#x208e;" horiz-adv-x="315" 
d="M264 -61q0 -125 -46 -254t-126 -238h-41q156 256 156 492q0 238 -156 491h41q81 -109 126.5 -237t45.5 -254z" />
    <glyph glyph-name="colonmonetary" unicode="&#x20a1;" horiz-adv-x="1249" 
d="M1059 291h88v-246q-136 -39 -256 -53v-197h-51v191q-77 -6 -154 -6q-58 0 -102 8v-193h-52v199q-98 19 -171.5 66t-119 111.5t-74 152.5t-39.5 179.5t-11 203.5q0 107 11 195.5t39.5 174t74 148t119 109t171.5 65.5v198h52v-192q62 8 102 8q86 0 154 -8v192h51v-196
q126 -18 256 -55v-246h-88v178q-198 47 -365 47q-94 0 -168.5 -23t-124.5 -67t-84.5 -99.5t-53 -128t-26.5 -144t-8 -156.5q0 -90 8 -165t26.5 -150.5t53 -132.5t84.5 -101.5t124.5 -68t168.5 -23.5q169 0 365 49v176z" />
    <glyph glyph-name="franc" unicode="&#x20a3;" horiz-adv-x="1331" 
d="M66 578h137q-4 82 -4 129q0 71 4 106h-137v57h141q10 96 32 174t65 148.5t104.5 118t152.5 75t207 27.5q233 0 461 -67v-246h-88v178q-198 47 -365 47q-94 0 -168.5 -24t-123 -64.5t-82.5 -100.5t-51.5 -124t-26.5 -142h428l-7 -57h-430q-4 -35 -4 -106q0 -43 4 -129h437
l-7 -56h-419q9 -80 27 -144.5t52.5 -124t83 -100t121.5 -64t166 -23.5q169 0 365 49v176h88v-246q-231 -65 -461 -65q-114 0 -204 27t-151 74t-104 116.5t-66 148t-34 176.5h-143v56z" />
    <glyph glyph-name="lira" unicode="&#x20a4;" horiz-adv-x="1331" 
d="M66 578h137q-4 82 -4 129q0 71 4 106h-137v57h141q10 96 32 174t65 148.5t104.5 118t152.5 75t207 27.5q233 0 461 -67v-246h-88v178q-198 47 -365 47q-94 0 -168.5 -24t-123 -64.5t-82.5 -100.5t-51.5 -124t-26.5 -142h428l-7 -57h-430q-4 -35 -4 -106q0 -43 4 -129h437
l-7 -56h-419q9 -80 27 -144.5t52.5 -124t83 -100t121.5 -64t166 -23.5q169 0 365 49v176h88v-246q-231 -65 -461 -65q-114 0 -204 27t-151 74t-104 116.5t-66 148t-34 176.5h-143v56z" />
    <glyph glyph-name="peseta" unicode="&#x20a7;" horiz-adv-x="1331" 
d="M66 578h137q-4 82 -4 129q0 71 4 106h-137v57h141q10 96 32 174t65 148.5t104.5 118t152.5 75t207 27.5q233 0 461 -67v-246h-88v178q-198 47 -365 47q-94 0 -168.5 -24t-123 -64.5t-82.5 -100.5t-51.5 -124t-26.5 -142h428l-7 -57h-430q-4 -35 -4 -106q0 -43 4 -129h437
l-7 -56h-419q9 -80 27 -144.5t52.5 -124t83 -100t121.5 -64t166 -23.5q169 0 365 49v176h88v-246q-231 -65 -461 -65q-114 0 -204 27t-151 74t-104 116.5t-66 148t-34 176.5h-143v56z" />
    <glyph glyph-name="Euro" unicode="&#x20ac;" horiz-adv-x="1331" 
d="M66 578h137q-4 82 -4 129q0 71 4 106h-137v57h141q10 96 32 174t65 148.5t104.5 118t152.5 75t207 27.5q233 0 461 -67v-246h-88v178q-198 47 -365 47q-94 0 -168.5 -24t-123 -64.5t-82.5 -100.5t-51.5 -124t-26.5 -142h428l-7 -57h-430q-4 -35 -4 -106q0 -43 4 -129h437
l-7 -56h-419q9 -80 27 -144.5t52.5 -124t83 -100t121.5 -64t166 -23.5q169 0 365 49v176h88v-246q-231 -65 -461 -65q-114 0 -204 27t-151 74t-104 116.5t-66 148t-34 176.5h-143v56z" />
    <glyph glyph-name="litre" unicode="&#x2113;" horiz-adv-x="919" 
d="M86 319l-25 23l193 203v497q0 209 82 310q85 102 205 102q90 0 143 -55t53 -148q0 -106 -63 -229q-62 -126 -264 -360v-345q0 -155 47 -217q45 -59 123 -59q72 0 131 59q63 57 110 211h37q-44 -172 -139 -260q-74 -71 -182 -71q-89 0 -159.5 49.5t-101.5 134.5
q-22 68 -22 219v106zM410 1112v-395q274 318 274 495q0 85 -39 134t-98 49q-58 0 -98 -58q-39 -56 -39 -225z" />
    <glyph glyph-name="afii61352" unicode="&#x2116;" horiz-adv-x="2138" 
d="M1776 717q-165 0 -253.5 92.5t-88.5 255.5t88.5 255.5t253.5 92.5t253.5 -92.5t88.5 -255.5t-88.5 -255.5t-253.5 -92.5zM1434 594h684v-68h-684v68zM1776 778q128 0 197 76t69 211t-69 210t-197 75q-129 0 -198 -75t-69 -210t69 -211t198 -76zM963 1393h399v-88h-150
v-1305h-112l-797 1186h-4v-1100h152v-86h-400v86h148v1219h-148v88h256l803 -1196h4v1108h-151v88z" />
    <glyph glyph-name="trademark" unicode="&#x2122;" horiz-adv-x="1638" 
d="M45 1393h586v-162h-58v100h-202v-586h108v-57h-282v57h108v586h-203v-100h-57v162zM1399 1393h194v-58h-108v-590h108v-57h-282v57h104v521h-2l-242 -578h-51l-235 578h-4v-521h106v-57h-274v57h106v590h-106v58h194l242 -594h2z" />
    <glyph glyph-name="Omega" unicode="&#x2126;" horiz-adv-x="1372" 
d="M686 1413q120 0 216.5 -32t161.5 -88t108 -134.5t62 -168t19 -191.5q0 -99 -26 -189.5t-75 -164.5t-127.5 -122t-176.5 -59v-188h405v-76h-483v315q96 4 169.5 45.5t116.5 110t64 151.5t21 177q0 84 -13.5 157t-46.5 141.5t-83.5 117t-130 77.5t-181.5 29t-181.5 -29
t-130.5 -77.5t-84.5 -117t-47 -141.5t-13.5 -157q0 -75 13 -142.5t42 -129t71.5 -107.5t106 -74t140.5 -31v-315h-485v76h407v188q-79 8 -146 41.5t-114.5 84.5t-81 116.5t-49.5 139.5t-16 153q0 102 19.5 191.5t62.5 168t108 134.5t162 88t217 32z" />
    <glyph glyph-name="estimated" unicode="&#x212e;" horiz-adv-x="1507" 
d="M1446 715h-1081v-482q167 -159 389 -159q334 0 516 321l94 -53q-132 -187 -266 -274q-137 -88 -344 -88q-314 0 -500 210q-193 205 -193 525q0 322 193 530q194 209 500 209q278 0 479 -186q201 -192 213 -553zM365 813h778v387q-169 158 -391 158q-226 0 -387 -158v-387
z" />
    <glyph glyph-name="onethird" unicode="&#x2153;" horiz-adv-x="1638" 
d="M1192 1393l-758 -1393h-41l758 1393h41zM342 743h131v-47h-319v47h131v598l-123 -12v41l153 29h27v-656zM1038 37v113h47v-80q74 -33 162 -33q178 0 178 145q0 64 -47 103t-143 39h-84v49h82q83 0 129.5 43t46.5 104q0 22 -6.5 43t-22.5 43.5t-50.5 36.5t-82.5 14
q-79 0 -145 -32v-80h-47v112q84 50 202 50q99 0 153 -48.5t54 -134.5q0 -64 -40 -107.5t-103 -62.5v-2q75 -10 119.5 -57.5t44.5 -116.5q0 -90 -59 -139t-175 -49q-131 0 -213 47z" />
    <glyph glyph-name="twothirds" unicode="&#x2154;" horiz-adv-x="1638" 
d="M1233 1393l-758 -1393h-41l758 1393h41zM1038 37v113h47v-80q74 -33 162 -33q178 0 178 145q0 64 -47 103t-143 39h-84v49h82q83 0 129.5 43t46.5 104q0 22 -6.5 43t-22.5 43.5t-50.5 36.5t-82.5 14q-79 0 -145 -32v-80h-47v112q84 50 202 50q99 0 153 -48.5t54 -134.5
q0 -64 -40 -107.5t-103 -62.5v-2q75 -10 119.5 -57.5t44.5 -116.5q0 -90 -59 -139t-175 -49q-131 0 -213 47zM547 823h49v-127h-442v58q358 244 358 430q0 53 -17.5 89t-46 51.5t-51.5 21.5t-47 6q-74 0 -149 -37v-74h-47v111q105 51 208 51t156 -58.5t53 -146.5
q0 -107 -82.5 -217t-255.5 -231v-2h314v75z" />
    <glyph glyph-name="oneeighth" unicode="&#x215b;" horiz-adv-x="1638" 
d="M1192 1393l-758 -1393h-41l758 1393h41zM342 743h131v-47h-319v47h131v598l-123 -12v41l153 29h27v-656zM1303 369v-2q87 -36 134.5 -79t47.5 -112q0 -88 -63 -137t-175 -49q-109 0 -171 48t-62 134q0 125 182 186v2q-77 29 -119.5 70t-42.5 105q0 80 60 126t157 46
q95 0 154 -45.5t59 -122.5q0 -64 -40 -101.5t-121 -68.5zM1073 176q0 -62 42 -102.5t136 -40.5q91 0 132.5 39t41.5 100q0 34 -15 61t-45.5 46.5t-56 30.5t-67.5 26q-168 -55 -168 -160zM1247 662q-24 0 -48 -5.5t-49.5 -18.5t-41.5 -39t-16 -62q0 -103 163 -148
q74 25 113 57t39 86q0 37 -16 64t-41.5 40.5t-51 19.5t-51.5 6z" />
    <glyph glyph-name="threeeighths" unicode="&#x215c;" horiz-adv-x="1638" 
d="M1212 1393l-757 -1393h-41l757 1393h41zM1303 369v-2q87 -36 134.5 -79t47.5 -112q0 -88 -63 -137t-175 -49q-109 0 -171 48t-62 134q0 125 182 186v2q-77 29 -119.5 70t-42.5 105q0 80 60 126t157 46q95 0 154 -45.5t59 -122.5q0 -64 -40 -101.5t-121 -68.5zM1073 176
q0 -62 42 -102.5t136 -40.5q91 0 132.5 39t41.5 100q0 34 -15 61t-45.5 46.5t-56 30.5t-67.5 26q-168 -55 -168 -160zM1247 662q-24 0 -48 -5.5t-49.5 -18.5t-41.5 -39t-16 -62q0 -103 163 -148q74 25 113 57t39 86q0 37 -16 64t-41.5 40.5t-51 19.5t-51.5 6zM154 733v113
h47v-80q74 -33 161 -33q58 0 96.5 15.5t55 41t22 46t5.5 43.5q0 64 -47 102.5t-144 38.5h-84v49h82q83 0 129.5 43.5t46.5 104.5q0 22 -6.5 43t-22.5 43.5t-50.5 36.5t-82.5 14q-74 0 -145 -33v-80h-47v113q85 49 203 49q99 0 153 -48.5t54 -133.5q0 -64 -40 -107.5
t-102 -62.5v-2q74 -11 118 -58.5t44 -116.5q0 -91 -58 -139.5t-175 -48.5q-131 0 -213 47z" />
    <glyph glyph-name="fiveeighths" unicode="&#x215d;" horiz-adv-x="1638" 
d="M1212 1393l-757 -1393h-41l757 1393h41zM1303 369v-2q87 -36 134.5 -79t47.5 -112q0 -88 -63 -137t-175 -49q-109 0 -171 48t-62 134q0 125 182 186v2q-77 29 -119.5 70t-42.5 105q0 80 60 126t157 46q95 0 154 -45.5t59 -122.5q0 -64 -40 -101.5t-121 -68.5zM1073 176
q0 -62 42 -102.5t136 -40.5q91 0 132.5 39t41.5 100q0 34 -15 61t-45.5 46.5t-56 30.5t-67.5 26q-168 -55 -168 -160zM1247 662q-24 0 -48 -5.5t-49.5 -18.5t-41.5 -39t-16 -62q0 -103 163 -148q74 25 113 57t39 86q0 37 -16 64t-41.5 40.5t-51 19.5t-51.5 6zM571 1393v-129
h-47v77h-278l-17 -288h2q62 80 164 80q97 0 151 -57.5t54 -160.5q0 -109 -65 -169t-175 -60q-101 0 -206 51v107h47v-76q79 -35 157 -35q83 0 133 48t50 132q0 70 -39 120t-125 50q-93 0 -156 -84l-43 5l19 389h374z" />
    <glyph glyph-name="seveneighths" unicode="&#x215e;" horiz-adv-x="1638" 
d="M1114 1393l-758 -1393h-41l758 1393h41zM1303 369v-2q87 -36 134.5 -79t47.5 -112q0 -88 -63 -137t-175 -49q-109 0 -171 48t-62 134q0 125 182 186v2q-77 29 -119.5 70t-42.5 105q0 80 60 126t157 46q95 0 154 -45.5t59 -122.5q0 -64 -40 -101.5t-121 -68.5zM1073 176
q0 -62 42 -102.5t136 -40.5q91 0 132.5 39t41.5 100q0 34 -15 61t-45.5 46.5t-56 30.5t-67.5 26q-168 -55 -168 -160zM1247 662q-24 0 -48 -5.5t-49.5 -18.5t-41.5 -39t-16 -62q0 -103 163 -148q74 25 113 57t39 86q0 37 -16 64t-41.5 40.5t-51 19.5t-51.5 6zM154 1393h401
v-43q-226 -356 -274 -654h-64q22 141 103.5 323t171.5 320v2h-291v-77h-47v129z" />
    <glyph glyph-name="partialdiff" unicode="&#x2202;" horiz-adv-x="1173" 
d="M944 715l6 2q4 47 4.5 95.5t-5.5 110t-20 116t-43 108.5t-69 92t-103 62t-141 24q-134 0 -276 -45l-2 80q79 27 143.5 40t155.5 13q78 0 144 -17t124.5 -55.5t98.5 -100.5t66 -150.5t27 -206.5t-18 -269q-88 -634 -551 -634q-186 0 -289 127.5t-73 343.5
q32 229 161.5 355t329.5 126q106 0 191.5 -58.5t138.5 -158.5zM928 625q-49 97 -127 157t-176 60q-80 0 -145.5 -25t-107.5 -63.5t-72.5 -92t-45.5 -104t-23 -106.5q-25 -180 56.5 -282.5t220.5 -102.5q86 0 154.5 31.5t113 82t76.5 125.5t49 151t27 169z" />
    <glyph glyph-name="Delta" unicode="&#x2206;" horiz-adv-x="1286" 
d="M602 1454l582 -1454h-1082zM586 1282l-420 -1231h905z" />
    <glyph glyph-name="product" unicode="&#x220f;" horiz-adv-x="1392" 
d="M936 86h149v1219h-778v-1219h148v-86h-404v86h148v1219h-148v88h1290v-88h-149v-1219h149v-86h-405v86z" />
    <glyph glyph-name="summation" unicode="&#x2211;" horiz-adv-x="1064" 
d="M963 250v-250h-881v82l391 610l-391 619v82h881v-252h-89v164h-657v-5l391 -606l-389 -604v-4h655v164h89z" />
    <glyph glyph-name="minus" unicode="&#x2212;" horiz-adv-x="1024" 
d="M137 586h748v-86h-748v86z" />
    <glyph glyph-name="uni2215" unicode="&#x2215;" horiz-adv-x="1105" 
d="M977 1393l-758 -1393h-92l758 1393h92z" />
    <glyph glyph-name="uni2219" unicode="&#x2219;" horiz-adv-x="378" 
d="M137 629h103v-236h-103v236z" />
    <glyph glyph-name="radical" unicode="&#x221a;" horiz-adv-x="1638" 
d="M178 731v68h420l262 -688h4l500 1323h111l-555 -1444h-121l-293 741h-328z" />
    <glyph glyph-name="infinity" unicode="&#x221e;" horiz-adv-x="1392" 
d="M360 281q51 0 100 22.5t85 58t62 72t42 72.5q-36 92 -117 162.5t-167 70.5q-121 0 -182.5 -66.5t-61.5 -162.5q0 -95 59 -162t180 -67zM688 459q-45 -100 -135 -171t-209 -71q-134 0 -213.5 80.5t-79.5 214.5q0 132 85.5 213.5t232.5 81.5q76 0 144 -40.5t109.5 -92.5
t75.5 -117q26 49 57.5 90t74.5 79t99 59.5t118 21.5q135 0 214.5 -80.5t79.5 -214.5q0 -128 -83 -211.5t-228 -83.5q-97 0 -190.5 62.5t-151.5 179.5zM1032 743q-51 0 -100 -23t-86.5 -60.5t-65 -75.5t-45.5 -76q37 -90 120.5 -157.5t172.5 -67.5q120 0 182 66.5t62 162.5
q0 95 -60 163t-180 68z" />
    <glyph glyph-name="integral" unicode="&#x222b;" horiz-adv-x="737" 
d="M317 -92v1218q0 180 63.5 251t207.5 71q72 0 149 -12l-10 -82q-64 10 -119 10q-110 0 -149 -60.5t-39 -193.5v-1202q0 -184 -63 -261t-210 -77q-71 0 -147 12l10 82q64 -10 117 -10q110 0 150 60.5t40 193.5z" />
    <glyph glyph-name="approxequal" unicode="&#x2248;" horiz-adv-x="1024" 
d="M358 772q-25 0 -42.5 -4.5t-53.5 -30t-86 -75.5l-35 28q67 88 113.5 123t99.5 35q52 0 195.5 -63.5t175.5 -63.5q23 0 40 5t42.5 28.5t50.5 66.5l33 -33q-34 -68 -68.5 -102t-85.5 -35q-5 -1 -43 4q-33 8 -165 62.5t-171 54.5zM358 362q-25 0 -42.5 -4.5t-53.5 -30
t-86 -75.5l-35 29q67 88 113.5 122.5t99.5 34.5q52 0 195.5 -63.5t175.5 -63.5q22 0 39.5 5.5t43 29t50.5 66.5l33 -33q-34 -68 -68.5 -102t-85.5 -35q-5 -1 -43 4q-33 8 -164.5 62t-171.5 54z" />
    <glyph glyph-name="notequal" unicode="&#x2260;" horiz-adv-x="1024" 
d="M137 381h260l176 324h-436v86h484l243 448h51l-243 -448h213v-86h-260l-176 -324h436v-86h-484l-243 -449h-52l244 449h-213v86z" />
    <glyph glyph-name="lessequal" unicode="&#x2264;" horiz-adv-x="983" 
d="M137 647l707 336v-78l-598 -287l598 -286v-76l-707 336v55zM137 143h707v-67h-707v67z" />
    <glyph glyph-name="greaterequal" unicode="&#x2265;" horiz-adv-x="983" 
d="M137 983l707 -336v-55l-707 -336v76l600 286l-600 287v78zM137 143h707v-67h-707v67z" />
    <glyph glyph-name="lozenge" unicode="&#x25ca;" horiz-adv-x="966" 
d="M469 -61l-408 766l408 765h29l407 -765l-407 -766h-29zM147 705l336 -629l334 629l-334 626z" />
    <glyph glyph-name="undercommaaccent" unicode="&#xf005;" horiz-adv-x="471" 
d="M184 -492h-41l31 220h-37v190h103v-190z" />
    <glyph glyph-name="Abreve.small" unicode="&#xf66d;" horiz-adv-x="1294" 
d="M662 1421q53 0 94.5 18.5t66.5 50t39 62t23 66.5h49q-21 -134 -94 -198t-178 -64q-104 0 -177 64t-94 198h51q8 -35 22 -66t39 -62.5t66 -50t93 -18.5zM420 1198h313l416 -1114h98v-84h-381v84h166l-104 285h-547l-111 -285h152v-84h-375v84h117l401 1030h-145v84z
M664 1098h-5l-253 -652h501z" />
    <glyph glyph-name="Amacron.small" unicode="&#xf66e;" horiz-adv-x="1294" 
d="M422 1464h481v-78h-481v78zM420 1198h313l416 -1114h98v-84h-381v84h166l-104 285h-547l-111 -285h152v-84h-375v84h117l401 1030h-145v84zM664 1098h-5l-253 -652h501z" />
    <glyph glyph-name="AEacute.small" unicode="&#xf670;" horiz-adv-x="1693" 
d="M723 1114h-145v84h1009v-227h-84v143h-579v-450h571v-84h-571v-496h579v143h84v-227h-770v508h-334l-293 -508h-170v84h107zM813 1104l-287 -512h291v512h-4zM1116 1597l-166 -286h-61l133 286h94z" />
    <glyph glyph-name="Cacute.small" unicode="&#xf671;" horiz-adv-x="1128" 
d="M950 258h86v-221q-209 -57 -415 -57q-103 0 -184 22t-136.5 64.5t-94.5 98t-60.5 128.5t-30.5 148.5t-9 166.5q0 106 13 191t48 166t91 135t148.5 86.5t214.5 32.5q213 0 415 -58v-221h-86v154q-178 41 -321 41q-99 0 -173.5 -30t-119.5 -78t-72.5 -118.5t-37 -142
t-9.5 -158.5q0 -94 9.5 -168.5t37 -146.5t72.5 -120t119 -77.5t174 -29.5q166 0 321 40v152zM848 1597l-166 -286h-61l133 286h94z" />
    <glyph glyph-name="Ccaron.small" unicode="&#xf672;" horiz-adv-x="1128" 
d="M950 258h86v-221q-209 -57 -415 -57q-103 0 -184 22t-136.5 64.5t-94.5 98t-60.5 128.5t-30.5 148.5t-9 166.5q0 106 13 191t48 166t91 135t148.5 86.5t214.5 32.5q213 0 415 -58v-221h-86v154q-178 41 -321 41q-99 0 -173.5 -30t-119.5 -78t-72.5 -118.5t-37 -142
t-9.5 -158.5q0 -94 9.5 -168.5t37 -146.5t72.5 -120t119 -77.5t174 -29.5q166 0 321 40v152zM479 1597l189 -225l190 225h62l-213 -286h-76l-213 286h61z" />
    <glyph glyph-name="Ccircumflex.small" unicode="&#xf673;" horiz-adv-x="1128" 
d="M950 258h86v-221q-209 -57 -415 -57q-103 0 -184 22t-136.5 64.5t-94.5 98t-60.5 128.5t-30.5 148.5t-9 166.5q0 106 13 191t48 166t91 135t148.5 86.5t214.5 32.5q213 0 415 -58v-221h-86v154q-178 41 -321 41q-99 0 -173.5 -30t-119.5 -78t-72.5 -118.5t-37 -142
t-9.5 -158.5q0 -94 9.5 -168.5t37 -146.5t72.5 -120t119 -77.5t174 -29.5q166 0 321 40v152zM649 1516l-188 -226h-62l213 287h76l213 -287h-61z" />
    <glyph glyph-name="Cdotaccent.small" unicode="&#xf674;" horiz-adv-x="1128" 
d="M950 258h86v-221q-209 -57 -415 -57q-103 0 -184 22t-136.5 64.5t-94.5 98t-60.5 128.5t-30.5 148.5t-9 166.5q0 106 13 191t48 166t91 135t148.5 86.5t214.5 32.5q213 0 415 -58v-221h-86v154q-178 41 -321 41q-99 0 -173.5 -30t-119.5 -78t-72.5 -118.5t-37 -142
t-9.5 -158.5q0 -94 9.5 -168.5t37 -146.5t72.5 -120t119 -77.5t174 -29.5q166 0 321 40v152zM578 1597h92v-225h-92v225z" />
    <glyph glyph-name="Dcaron.small" unicode="&#xf675;" horiz-adv-x="1220" 
d="M47 1198h561q506 0 506 -590q0 -608 -506 -608h-561v84h133v1030h-133v84zM285 84h323q398 0 398 524q0 85 -10.5 156t-38 137.5t-71.5 112t-114.5 73t-163.5 27.5h-323v-1030zM406 1597l188 -225l190 225h62l-213 -286h-76l-213 286h62z" />
    <glyph glyph-name="Ebreve.small" unicode="&#xf677;" horiz-adv-x="1054" 
d="M47 1198h901v-227h-84v143h-579v-450h571v-84h-571v-496h579v143h84v-227h-901v84h133v1030h-133v84zM559 1421q53 0 94.5 18.5t66.5 50t39 62t23 66.5h49q-21 -134 -94 -198t-178 -64q-104 0 -176.5 64t-93.5 198h51q8 -35 22 -66t38.5 -62.5t65.5 -50t93 -18.5z" />
    <glyph glyph-name="Ecaron.small" unicode="&#xf678;" horiz-adv-x="1054" 
d="M47 1198h901v-227h-84v143h-579v-450h571v-84h-571v-496h579v143h84v-227h-901v84h133v1030h-133v84zM362 1597l189 -225l190 225h62l-213 -286h-76l-213 286h61z" />
    <glyph glyph-name="Edotaccent.small" unicode="&#xf679;" horiz-adv-x="1054" 
d="M47 1198h901v-227h-84v143h-579v-450h571v-84h-571v-496h579v143h84v-227h-901v84h133v1030h-133v84zM465 1597h92v-225h-92v225z" />
    <glyph glyph-name="Emacron.small" unicode="&#xf67a;" horiz-adv-x="1054" 
d="M47 1198h901v-227h-84v143h-579v-450h571v-84h-571v-496h579v143h84v-227h-901v84h133v1030h-133v84zM315 1464h482v-78h-482v78z" />
    <glyph glyph-name="Gbreve.small" unicode="&#xf67d;" horiz-adv-x="1146" 
d="M217 608q0 -87 12.5 -162.5t42.5 -146t76 -120t117.5 -79.5t163.5 -30q170 0 303 86v340h-281v86h385v-498q-97 -47 -193.5 -75.5t-221.5 -28.5q-115 0 -204.5 33.5t-147 90t-95 138t-53 171t-15.5 195.5t13 191t48 166t91 135t148.5 86.5t214.5 32.5q213 0 415 -58v-221
h-86v154q-178 41 -321 41q-99 0 -173.5 -30t-119.5 -78t-72.5 -118.5t-37 -142t-9.5 -158.5zM653 1421q53 0 94.5 18.5t67 50t39.5 62.5t23 66h49q-21 -134 -94.5 -198t-178.5 -64q-104 0 -176.5 64t-93.5 198h51q8 -35 22 -66t38.5 -62.5t65.5 -50t93 -18.5z" />
    <glyph glyph-name="Gcircumflex.small" unicode="&#xf67e;" horiz-adv-x="1146" 
d="M217 608q0 -87 12.5 -162.5t42.5 -146t76 -120t117.5 -79.5t163.5 -30q170 0 303 86v340h-281v86h385v-498q-97 -47 -193.5 -75.5t-221.5 -28.5q-115 0 -204.5 33.5t-147 90t-95 138t-53 171t-15.5 195.5t13 191t48 166t91 135t148.5 86.5t214.5 32.5q213 0 415 -58v-221
h-86v154q-178 41 -321 41q-99 0 -173.5 -30t-119.5 -78t-72.5 -118.5t-37 -142t-9.5 -158.5zM651 1516l-188 -226h-62l213 287h76l213 -287h-61z" />
    <glyph glyph-name="Gcommaaccent.small" unicode="&#xf67f;" horiz-adv-x="1146" 
d="M217 608q0 -87 12.5 -162.5t42.5 -146t76 -120t117.5 -79.5t163.5 -30q170 0 303 86v340h-281v86h385v-498q-97 -47 -193.5 -75.5t-221.5 -28.5q-115 0 -204.5 33.5t-147 90t-95 138t-53 171t-15.5 195.5t13 191t48 166t91 135t148.5 86.5t214.5 32.5q213 0 415 -58v-221
h-86v154q-178 41 -321 41q-99 0 -173.5 -30t-119.5 -78t-72.5 -118.5t-37 -142t-9.5 -158.5zM637 -492h-41l31 220h-37v190h102v-190z" />
    <glyph glyph-name="Gdotaccent.small" unicode="&#xf680;" horiz-adv-x="1146" 
d="M217 608q0 -87 12.5 -162.5t42.5 -146t76 -120t117.5 -79.5t163.5 -30q170 0 303 86v340h-281v86h385v-498q-97 -47 -193.5 -75.5t-221.5 -28.5q-115 0 -204.5 33.5t-147 90t-95 138t-53 171t-15.5 195.5t13 191t48 166t91 135t148.5 86.5t214.5 32.5q213 0 415 -58v-221
h-86v154q-178 41 -321 41q-99 0 -173.5 -30t-119.5 -78t-72.5 -118.5t-37 -142t-9.5 -158.5zM575 1597h93v-225h-93v225z" />
    <glyph glyph-name="Hcircumflex.small" unicode="&#xf682;" horiz-adv-x="1257" 
d="M840 84h133v496h-688v-496h133v-84h-371v84h133v1030h-133v84h371v-84h-133v-450h688v450h-133v84h370v-84h-133v-1030h133v-84h-370v84zM647 1516l-188 -226h-62l213 287h76l213 -287h-61z" />
    <glyph glyph-name="Ibreve.small" unicode="&#xf683;" horiz-adv-x="464" 
d="M47 84h133v1030h-133v84h371v-84h-133v-1030h133v-84h-371v84zM231 1421q53 0 94.5 18.5t67 50t39.5 62.5t23 66h49q-21 -134 -94.5 -198t-178.5 -64q-104 0 -176.5 64t-93.5 198h51q8 -35 22 -66t38.5 -62.5t65.5 -50t93 -18.5z" />
    <glyph glyph-name="Imacron.small" unicode="&#xf685;" horiz-adv-x="464" 
d="M47 84h133v1030h-133v84h371v-84h-133v-1030h133v-84h-371v84zM-10 1464h481v-78h-481v78z" />
    <glyph glyph-name="Itilde.small" unicode="&#xf687;" horiz-adv-x="464" 
d="M47 84h133v1030h-133v84h371v-84h-133v-1030h133v-84h-371v84zM127 1468q-44 0 -75.5 -17.5t-106.5 -92.5l-35 28q67 88 113.5 123t99.5 35q42 0 94 -32t99 -63.5t75 -31.5q22 0 39.5 5.5t43 29t50.5 66.5l33 -33q-67 -134 -154 -137q-15 -2 -43 6q-27 9 -110.5 61.5
t-122.5 52.5z" />
    <glyph glyph-name="Jcircumflex.small" unicode="&#xf688;" horiz-adv-x="630" 
d="M213 1198h371v-84h-133v-829q0 -167 -65.5 -236t-197.5 -69q-80 0 -147 12l10 84q60 -8 113 -8q98 0 140 52t42 165v829h-133v84zM395 1516l-188 -226h-62l213 287h76l213 -287h-61z" />
    <glyph glyph-name="Kcommaaccent.small" unicode="&#xf689;" horiz-adv-x="1257" 
d="M47 1198h371v-84h-133v-625l626 625h-153v84h434v-84h-152l-417 -412l444 -618h143v-84h-438v84h158l-387 549l-258 -254v-295h133v-84h-371v84h133v1030h-133v84zM610 -492h-41l31 220h-37v190h103v-190z" />
    <glyph glyph-name="Lacute.small" unicode="&#xf68a;" horiz-adv-x="1017" 
d="M858 227h86v-227h-897v84h133v1030h-133v84h371v-84h-133v-1030h573v143zM428 1597l-166 -286h-61l133 286h94z" />
    <glyph glyph-name="Lcaron.small" unicode="&#xf68b;" horiz-adv-x="1017" 
d="M858 227h86v-227h-897v84h133v1030h-133v84h371v-84h-133v-1030h573v143zM649 788h-41l31 220h-37v190h103v-190z" />
    <glyph glyph-name="Lcommaaccent.small" unicode="&#xf68c;" horiz-adv-x="1017" 
d="M858 227h86v-227h-897v84h133v1030h-133v84h371v-84h-133v-1030h573v143zM522 -492h-41l31 220h-37v190h103v-190z" />
    <glyph glyph-name="Ldot.small" unicode="&#xf68d;" horiz-adv-x="1017" 
d="M858 227h86v-227h-897v84h133v1030h-133v84h371v-84h-133v-1030h573v143zM561 803h92v-225h-92v225z" />
    <glyph glyph-name="Nacute.small" unicode="&#xf68e;" horiz-adv-x="1275" 
d="M864 1198h365v-84h-133v-1114h-95l-718 1014l-4 -4v-926h133v-84h-365v84h133v1030h-133v84h223l725 -1024l4 4v936h-135v84zM864 1597l-166 -286h-61l133 286h94z" />
    <glyph glyph-name="Ncaron.small" unicode="&#xf68f;" horiz-adv-x="1275" 
d="M864 1198h365v-84h-133v-1114h-95l-718 1014l-4 -4v-926h133v-84h-365v84h133v1030h-133v84h223l725 -1024l4 4v936h-135v84zM457 1597l188 -225l191 225h61l-213 -286h-76l-213 286h62z" />
    <glyph glyph-name="Ncommaaccent.small" unicode="&#xf690;" horiz-adv-x="1275" 
d="M864 1198h365v-84h-133v-1114h-95l-718 1014l-4 -4v-926h133v-84h-365v84h133v1030h-133v84h223l725 -1024l4 4v936h-135v84zM647 -492h-41l31 220h-37v190h102v-190z" />
    <glyph glyph-name="Obreve.small" unicode="&#xf691;" horiz-adv-x="1239" 
d="M621 1135q-100 0 -174.5 -30t-117.5 -77.5t-69 -119t-34.5 -141.5t-8.5 -159t8.5 -160.5t34.5 -146t69 -123.5t117.5 -80.5t174.5 -31.5t174 31.5t117 81t69 123t34.5 145.5t8.5 161q0 88 -8.5 158.5t-34.5 142t-69 119t-117 77.5t-174 30zM621 -20q-122 0 -214.5 33.5
t-148.5 89.5t-91 139t-48 170.5t-13 195.5q0 106 13 191t48 166t91 135t148.5 86.5t214.5 32.5t213.5 -32.5t147.5 -86.5t90.5 -135t47.5 -166t13 -191q0 -108 -13 -195.5t-47.5 -170.5t-90.5 -139t-147.5 -89.5t-213.5 -33.5zM616 1421q53 0 94.5 18.5t67 50t39.5 62.5
t23 66h49q-21 -134 -94.5 -198t-178.5 -64q-104 0 -176.5 64t-93.5 198h51q8 -35 22 -66t38.5 -62.5t65.5 -50t93 -18.5z" />
    <glyph glyph-name="Ohungarumlaut.small" unicode="&#xf692;" horiz-adv-x="1239" 
d="M621 1135q-100 0 -174.5 -30t-117.5 -77.5t-69 -119t-34.5 -141.5t-8.5 -159t8.5 -160.5t34.5 -146t69 -123.5t117.5 -80.5t174.5 -31.5t174 31.5t117 81t69 123t34.5 145.5t8.5 161q0 88 -8.5 158.5t-34.5 142t-69 119t-117 77.5t-174 30zM621 -20q-122 0 -214.5 33.5
t-148.5 89.5t-91 139t-48 170.5t-13 195.5q0 106 13 191t48 166t91 135t148.5 86.5t214.5 32.5t213.5 -32.5t147.5 -86.5t90.5 -135t47.5 -166t13 -191q0 -108 -13 -195.5t-47.5 -170.5t-90.5 -139t-147.5 -89.5t-213.5 -33.5zM651 1597l-166 -286h-61l133 286h94zM999 1597
l-165 -286h-62l133 286h94z" />
    <glyph glyph-name="Omacron.small" unicode="&#xf693;" horiz-adv-x="1239" 
d="M621 1135q-100 0 -174.5 -30t-117.5 -77.5t-69 -119t-34.5 -141.5t-8.5 -159t8.5 -160.5t34.5 -146t69 -123.5t117.5 -80.5t174.5 -31.5t174 31.5t117 81t69 123t34.5 145.5t8.5 161q0 88 -8.5 158.5t-34.5 142t-69 119t-117 77.5t-174 30zM621 -20q-122 0 -214.5 33.5
t-148.5 89.5t-91 139t-48 170.5t-13 195.5q0 106 13 191t48 166t91 135t148.5 86.5t214.5 32.5t213.5 -32.5t147.5 -86.5t90.5 -135t47.5 -166t13 -191q0 -108 -13 -195.5t-47.5 -170.5t-90.5 -139t-147.5 -89.5t-213.5 -33.5zM377 1464h481v-78h-481v78z" />
    <glyph glyph-name="Oslashacute.small" unicode="&#xf694;" horiz-adv-x="1239" 
d="M850 1597l-166 -286h-61l133 286h94zM621 -20q-247 0 -375 141l-144 -168l-36 29l147 174q-107 150 -107 452q0 106 13 191t48 166t91 135t148.5 86.5t214.5 32.5q233 0 364 -134l152 183l37 -29l-156 -186q115 -142 115 -445q0 -108 -13 -195.5t-47.5 -170.5t-90.5 -139
t-147.5 -89.5t-213.5 -33.5zM621 70q100 0 174 31t117 80t69 122t34.5 144.5t8.5 160.5q0 235 -78 355l-635 -760q98 -133 310 -133zM621 1128q-72 0 -131 -15t-100.5 -41t-72.5 -65t-50 -81.5t-30.5 -97.5t-15.5 -106.5t-4 -113.5q0 -239 72 -356l633 756q-98 120 -301 120
z" />
    <glyph glyph-name="Racute.small" unicode="&#xf695;" horiz-adv-x="1202" 
d="M739 1597l-166 -286h-61l133 286h94zM47 1198h633q171 0 265.5 -96.5t94.5 -247.5q0 -133 -79.5 -224t-217.5 -106l316 -440h96v-84h-389v84h168l-295 426h-354v-426h131v-84h-369v84h133v1030h-133v84zM285 1114v-520h370q126 0 202.5 70t76.5 190q0 113 -71 186.5
t-193 73.5h-385z" />
    <glyph glyph-name="Rcaron.small" unicode="&#xf696;" horiz-adv-x="1202" 
d="M403 1597l189 -225l190 225h62l-213 -286h-76l-213 286h61zM47 1198h633q171 0 265.5 -96.5t94.5 -247.5q0 -133 -79.5 -224t-217.5 -106l316 -440h96v-84h-389v84h168l-295 426h-354v-426h131v-84h-369v84h133v1030h-133v84zM285 1114v-520h370q126 0 202.5 70t76.5 190
q0 113 -71 186.5t-193 73.5h-385z" />
    <glyph glyph-name="Rcommaaccent.small" unicode="&#xf697;" horiz-adv-x="1202" 
d="M612 -492h-41l31 220h-37v190h103v-190zM47 1198h633q171 0 265.5 -96.5t94.5 -247.5q0 -133 -79.5 -224t-217.5 -106l316 -440h96v-84h-389v84h168l-295 426h-354v-426h131v-84h-369v84h133v1030h-133v84zM285 1114v-520h370q126 0 202.5 70t76.5 190q0 113 -71 186.5
t-193 73.5h-385z" />
    <glyph glyph-name="Sacute.small" unicode="&#xf698;" horiz-adv-x="1073" 
d="M106 264h84v-149q195 -45 347 -45q85 0 150 21.5t100.5 57t53 76t17.5 84.5q0 40 -14 74t-43 59t-56 42.5t-71 33t-69.5 22.5t-68.5 18l-12 3q-79 19 -145.5 46.5t-128 69t-96.5 101.5t-35 133q0 156 114 232t299 76q204 0 406 -58v-227h-84v156q-169 38 -322 38
q-84 0 -145 -17.5t-94.5 -48.5t-48.5 -67.5t-15 -79.5q0 -180 357 -262q381 -81 381 -334q0 -163 -118 -251t-312 -88q-215 0 -431 59v225zM731 1597l-166 -286h-61l133 286h94z" />
    <glyph glyph-name="Scircumflex.small" unicode="&#xf69a;" horiz-adv-x="1073" 
d="M106 264h84v-149q195 -45 347 -45q85 0 150 21.5t100.5 57t53 76t17.5 84.5q0 40 -14 74t-43 59t-56 42.5t-71 33t-69.5 22.5t-68.5 18l-12 3q-79 19 -145.5 46.5t-128 69t-96.5 101.5t-35 133q0 156 114 232t299 76q204 0 406 -58v-227h-84v156q-169 38 -322 38
q-84 0 -145 -17.5t-94.5 -48.5t-48.5 -67.5t-15 -79.5q0 -180 357 -262q381 -81 381 -334q0 -163 -118 -251t-312 -88q-215 0 -431 59v225zM565 1516l-188 -226h-62l213 287h76l213 -287h-61z" />
    <glyph glyph-name="Scommaaccent.small" unicode="&#xf69b;" horiz-adv-x="1073" 
d="M106 264h84v-149q195 -45 347 -45q85 0 150 21.5t100.5 57t53 76t17.5 84.5q0 40 -14 74t-43 59t-56 42.5t-71 33t-69.5 22.5t-68.5 18l-12 3q-79 19 -145.5 46.5t-128 69t-96.5 101.5t-35 133q0 156 114 232t299 76q204 0 406 -58v-227h-84v156q-169 38 -322 38
q-84 0 -145 -17.5t-94.5 -48.5t-48.5 -67.5t-15 -79.5q0 -180 357 -262q381 -81 381 -334q0 -163 -118 -251t-312 -88q-215 0 -431 59v225zM543 -492h-41l30 220h-36v190h102v-190z" />
    <glyph glyph-name="Tcaron.small" unicode="&#xf69d;" horiz-adv-x="1073" 
d="M100 1198h875v-227h-88v143h-297v-1030h131v-84h-369v84h131v1030h-297v-143h-86v227zM346 1597l189 -225l190 225h61l-213 -286h-75l-213 286h61z" />
    <glyph glyph-name="Tcommaaccent.small" unicode="&#xf69e;" horiz-adv-x="1073" 
d="M100 1198h875v-227h-88v143h-297v-1030h131v-84h-369v84h131v1030h-297v-143h-86v227zM532 -492h-40l30 220h-37v190h103v-190z" />
    <glyph glyph-name="Ubreve.small" unicode="&#xf69f;" horiz-adv-x="1257" 
d="M840 1198h370v-84h-133v-692q0 -227 -110.5 -334.5t-337.5 -107.5t-338 107.5t-111 334.5v692h-133v84h371v-84h-133v-692q0 -36 1.5 -63t9.5 -66t21.5 -68t39.5 -60.5t62 -52t91.5 -33.5t124.5 -13q90 0 155.5 25t100 60.5t54 88t24 92.5t4.5 90v692h-133v84zM627 1421
q53 0 94.5 18.5t66.5 50t39 62t23 66.5h49q-21 -134 -94 -198t-178 -64q-104 0 -177 64t-94 198h52q8 -35 22 -66t38.5 -62.5t65.5 -50t93 -18.5z" />
    <glyph glyph-name="Uhungarumlaut.small" unicode="&#xf6a0;" horiz-adv-x="1257" 
d="M840 1198h370v-84h-133v-692q0 -227 -110.5 -334.5t-337.5 -107.5t-338 107.5t-111 334.5v692h-133v84h371v-84h-133v-692q0 -36 1.5 -63t9.5 -66t21.5 -68t39.5 -60.5t62 -52t91.5 -33.5t124.5 -13q90 0 155.5 25t100 60.5t54 88t24 92.5t4.5 90v692h-133v84zM682 1597
l-166 -286h-61l133 286h94zM1030 1597l-166 -286h-61l133 286h94z" />
    <glyph glyph-name="Umacron.small" unicode="&#xf6a1;" horiz-adv-x="1257" 
d="M840 1198h370v-84h-133v-692q0 -227 -110.5 -334.5t-337.5 -107.5t-338 107.5t-111 334.5v692h-133v84h371v-84h-133v-692q0 -36 1.5 -63t9.5 -66t21.5 -68t39.5 -60.5t62 -52t91.5 -33.5t124.5 -13q90 0 155.5 25t100 60.5t54 88t24 92.5t4.5 90v692h-133v84zM387 1464
h481v-78h-481v78z" />
    <glyph glyph-name="Uring.small" unicode="&#xf6a3;" horiz-adv-x="1257" 
d="M840 1198h370v-84h-133v-692q0 -227 -110.5 -334.5t-337.5 -107.5t-338 107.5t-111 334.5v692h-133v84h371v-84h-133v-692q0 -36 1.5 -63t9.5 -66t21.5 -68t39.5 -60.5t62 -52t91.5 -33.5t124.5 -13q90 0 155.5 25t100 60.5t54 88t24 92.5t4.5 90v692h-133v84zM453 1495
q0 72 51.5 124t124.5 52q72 0 124 -52t52 -124q0 -73 -52 -124.5t-124 -51.5q-73 0 -124.5 51.5t-51.5 124.5zM498 1495q0 -55 38 -93t93 -38t93 38t38 93t-38 93t-93 38t-93 -38t-38 -93z" />
    <glyph glyph-name="Utilde.small" unicode="&#xf6a4;" horiz-adv-x="1257" 
d="M840 1198h370v-84h-133v-692q0 -227 -110.5 -334.5t-337.5 -107.5t-338 107.5t-111 334.5v692h-133v84h371v-84h-133v-692q0 -36 1.5 -63t9.5 -66t21.5 -68t39.5 -60.5t62 -52t91.5 -33.5t124.5 -13q90 0 155.5 25t100 60.5t54 88t24 92.5t4.5 90v692h-133v84zM524 1468
q-44 0 -75.5 -17.5t-106.5 -92.5l-35 28q67 88 113.5 123t99.5 35q42 0 94 -32t99 -63.5t75 -31.5q16 0 29.5 3t31 12.5t36 31t37.5 54.5l32 -33q-33 -66 -69.5 -101t-83.5 -36q-15 -2 -43 6q-27 9 -111 61.5t-123 52.5z" />
    <glyph glyph-name="Wacute.small" unicode="&#xf6a5;" horiz-adv-x="1810" 
d="M47 1198h408v-84h-199l293 -987h2l303 1071h117l311 -1071h2l287 987h-199v84h391v-84h-94l-321 -1122h-144l-295 1020h-4l-295 -1020h-141l-328 1122h-94v84zM1106 1597l-166 -286h-61l133 286h94z" />
    <glyph glyph-name="Wcircumflex.small" unicode="&#xf6a6;" horiz-adv-x="1810" 
d="M47 1198h408v-84h-199l293 -987h2l303 1071h117l311 -1071h2l287 987h-199v84h391v-84h-94l-321 -1122h-144l-295 1020h-4l-295 -1020h-141l-328 1122h-94v84zM903 1516l-188 -226h-62l213 287h76l213 -287h-61z" />
    <glyph glyph-name="Wdieresis.small" unicode="&#xf6a7;" horiz-adv-x="1810" 
d="M47 1198h408v-84h-199l293 -987h2l303 1071h117l311 -1071h2l287 987h-199v84h391v-84h-94l-321 -1122h-144l-295 1020h-4l-295 -1020h-141l-328 1122h-94v84zM592 1597h92v-225h-92v225zM1124 1597h93v-225h-93v225z" />
    <glyph glyph-name="Wgrave.small" unicode="&#xf6a8;" horiz-adv-x="1810" 
d="M47 1198h408v-84h-199l293 -987h2l303 1071h117l311 -1071h2l287 987h-199v84h391v-84h-94l-321 -1122h-144l-295 1020h-4l-295 -1020h-141l-328 1122h-94v84zM887 1311l-166 286h94l133 -286h-61z" />
    <glyph glyph-name="Ycircumflex.small" unicode="&#xf6a9;" horiz-adv-x="1220" 
d="M664 84h131v-84h-369v84h131v322l-407 708h-103v84h414v-84h-193l348 -608h5l342 608h-189v84h400v-84h-101l-409 -708v-322zM608 1516l-188 -226h-62l213 287h76l213 -287h-61z" />
    <glyph glyph-name="Ygrave.small" unicode="&#xf6aa;" horiz-adv-x="1220" 
d="M664 84h131v-84h-369v84h131v322l-407 708h-103v84h414v-84h-193l348 -608h5l342 608h-189v84h400v-84h-101l-409 -708v-322zM596 1311l-166 286h94l133 -286h-61z" />
    <glyph glyph-name="Zacute.small" unicode="&#xf6ab;" horiz-adv-x="1036" 
d="M117 1198h809v-80l-701 -1030v-4h647v143h84v-227h-864v80l707 1030v2h-598v-141h-84v227zM702 1597l-165 -286h-62l133 286h94z" />
    <glyph glyph-name="Zdotaccent.small" unicode="&#xf6ac;" horiz-adv-x="1036" 
d="M117 1198h809v-80l-701 -1030v-4h647v143h84v-227h-864v80l707 1030v2h-598v-141h-84v227zM471 1597h92v-225h-92v225z" />
    <glyph glyph-name="Idotaccent.small" unicode="&#xf6ad;" horiz-adv-x="464" 
d="M47 84h133v1030h-133v84h371v-84h-133v-1030h133v-84h-371v84zM184 1597h92v-225h-92v225z" />
    <glyph glyph-name="dotlessj" unicode="&#xf6be;" horiz-adv-x="460" 
d="M51 936v88h271v-1196q0 -141 -62 -199.5t-209 -58.5q-73 0 -149 12l12 82q61 -10 117 -10q108 0 148 41.5t40 146.5v1094h-168z" />
    <glyph glyph-name="commaaccent" unicode="&#xf6c3;" horiz-adv-x="471" 
d="M184 -492h-41l31 220h-37v190h103v-190z" />
    <glyph glyph-name="Acute" unicode="&#xf6c9;" horiz-adv-x="593" 
d="M385 1782l-166 -287h-61l133 287h94z" />
    <glyph glyph-name="Caron" unicode="&#xf6ca;" horiz-adv-x="860" 
d="M240 1782l188 -226l190 226h62l-213 -287h-76l-213 287h62z" />
    <glyph glyph-name="Dieresis" unicode="&#xf6cb;" horiz-adv-x="983" 
d="M178 1782h92v-226h-92v226zM711 1782h92v-226h-92v226z" />
    <glyph glyph-name="DieresisAcute" unicode="&#xf6cc;" horiz-adv-x="1290" 
d="M754 1843l-187 -348h-61l147 348h101zM178 1782h92v-226h-92v226zM956 1782h93v-226h-93v226z" />
    <glyph glyph-name="DieresisGrave" unicode="&#xf6cd;" horiz-adv-x="1290" 
d="M707 1495l-187 348h101l147 -348h-61zM956 1782h93v-226h-93v226zM178 1782h92v-226h-92v226z" />
    <glyph glyph-name="Grave" unicode="&#xf6ce;" horiz-adv-x="593" 
d="M369 1495l-166 287h94l133 -287h-61z" />
    <glyph glyph-name="Hungarumlaut" unicode="&#xf6cf;" horiz-adv-x="942" 
d="M385 1782l-166 -287h-61l133 287h94zM733 1782l-166 -287h-61l133 287h94z" />
    <glyph glyph-name="Macron" unicode="&#xf6d0;" horiz-adv-x="778" 
d="M147 1649h482v-78h-482v78z" />
    <glyph glyph-name="cyrBreve" unicode="&#xf6d1;" horiz-adv-x="835" 
d="M418 1606q175 0 223 196h49q-21 -134 -94 -198t-178 -64q-104 0 -177 64t-94 198h52q8 -35 22 -66t38.5 -62t65.5 -49.5t93 -18.5z" />
    <glyph glyph-name="cyrFlex" unicode="&#xf6d2;" horiz-adv-x="860" 
d="M428 1720l-188 -225h-62l213 287h76l213 -287h-62z" />
    <glyph glyph-name="dblGrave" unicode="&#xf6d3;" horiz-adv-x="942" 
d="M719 1495l-166 287h94l133 -287h-61zM371 1495l-166 287h94l133 -287h-61z" />
    <glyph glyph-name="cyrbreve" unicode="&#xf6d4;" horiz-adv-x="835" 
d="M418 1257q53 0 94.5 18.5t66.5 50t39 62t23 66.5h49q-21 -134 -94 -198t-178 -64q-104 0 -177 64t-94 198h52q8 -35 22 -66t38.5 -62.5t65.5 -50t93 -18.5z" />
    <glyph glyph-name="cyrflex" unicode="&#xf6d5;" horiz-adv-x="860" 
d="M428 1372l-188 -225h-62l213 287h76l213 -287h-62z" />
    <glyph glyph-name="dblgrave" unicode="&#xf6d6;" horiz-adv-x="942" 
d="M719 1147l-166 287h94l133 -287h-61zM371 1147l-166 287h94l133 -287h-61z" />
    <glyph glyph-name="dieresisacute" unicode="&#xf6d7;" horiz-adv-x="1290" 
d="M754 1495l-187 -348h-61l147 348h101zM178 1434h92v-226h-92v226zM956 1434h93v-226h-93v226z" />
    <glyph glyph-name="dieresisgrave" unicode="&#xf6d8;" horiz-adv-x="1290" 
d="M707 1147l-187 348h101l147 -348h-61zM956 1434h93v-226h-93v226zM178 1434h92v-226h-92v226z" />
    <glyph glyph-name="rupiah" unicode="&#xf6dd;" horiz-adv-x="2396" 
d="M1290 936v88h250v-102h4q63 56 153 89t187 33q105 0 180.5 -40t119 -114t63.5 -167t20 -211t-21 -212t-65.5 -167t-121 -113t-181.5 -40q-95 0 -183 32.5t-151 87.5h-4v-424h150v-86h-400v86h148v324h-582v86h180l-338 512h-391v-512h148v-86h-404v86h148v1219h-148v88
h701q190 0 294.5 -112.5t104.5 -285.5q0 -155 -90.5 -260.5t-245.5 -120.5l356 -528h267v850h-148zM2161 512q0 94 -15.5 170t-49.5 139.5t-97.5 99t-151.5 35.5q-91 0 -172.5 -33.5t-134.5 -74.5v-672q51 -42 133 -76t174 -34q71 0 126 24t90 64.5t57.5 99t31.5 121.5
t9 137zM307 1305v-619h420q143 0 229 83t86 226q0 136 -81 223t-220 87h-434z" />
    <glyph glyph-name="threequartersemdash" unicode="&#xf6de;" horiz-adv-x="1433" 
d="M137 586h1157v-86h-1157v86z" />
    <glyph glyph-name="asuperior" unicode="&#xf6e9;" horiz-adv-x="573" 
d="M133 1270h-49v112q115 21 186 21q91 0 135 -37t44 -129v-309h73v-47h-131v51h-2q-78 -59 -158 -62q-37 0 -53 2q-56 9 -89 42.5t-36 86.5v48q17 120 213 120h125v64q0 62 -30.5 91.5t-102.5 29.5q-51 0 -125 -13v-71zM391 969v164h-117q-92 0 -130 -28t-38 -85
q0 -47 35.5 -76t98.5 -29q88 0 151 54z" />
    <glyph glyph-name="bsuperior" unicode="&#xf6ea;" horiz-adv-x="593" 
d="M51 1548v49h129v-256h2q65 62 168 62q193 0 193 -266q0 -123 -46.5 -195t-148.5 -72t-168 60h-2l-12 -49h-115v47h72v620h-72zM481 1137q0 217 -151 217q-82 0 -150 -54v-327q69 -55 150 -55q151 0 151 219z" />
    <glyph glyph-name="dsuperior" unicode="&#xf6eb;" horiz-adv-x="593" 
d="M340 1548v49h129v-669h74v-47h-131v51h-2q-69 -62 -166 -62q-193 0 -193 267q0 123 46.5 194.5t148.5 71.5q97 0 164 -60h2v205h-72zM111 1137q0 -219 151 -219q45 0 86 17.5t64 37.5v327q-22 19 -63 36.5t-87 17.5q-151 0 -151 -217z" />
    <glyph glyph-name="esuperior" unicode="&#xf6ec;" horiz-adv-x="540" 
d="M479 1133h-366q3 -215 192 -215q93 0 162 20l6 -45q-75 -23 -174 -23q-248 0 -248 267q0 266 240 266q60 0 102 -19.5t61.5 -48t27.5 -67t6 -70.5t-9 -65zM289 1358q-161 0 -176 -189h311q9 32 5 65.5t-16 61t-44 45t-80 17.5z" />
    <glyph glyph-name="isuperior" unicode="&#xf6ed;" horiz-adv-x="305" 
d="M51 1343v50h129v-465h74v-47h-203v47h72v415h-72zM123 1597h57v-116h-57v116z" />
    <glyph glyph-name="lsuperior" unicode="&#xf6ee;" horiz-adv-x="305" 
d="M51 1548v49h129v-669h74v-47h-203v47h72v620h-72z" />
    <glyph glyph-name="msuperior" unicode="&#xf6ef;" horiz-adv-x="962" 
d="M381 881v47h72v299q0 127 -121 127q-30 0 -63 -14.5t-47 -25.5t-42 -34v-352h70v-47h-199v47h72v415h-72v50h129v-78h2q80 84 162 86q18 2 51 -2q81 -15 105 -90q90 94 186 94q154 0 154 -166v-309h71v-47h-198v47h69v297q0 129 -120 129q-73 0 -156 -78q4 -28 4 -49
v-299h70v-47h-199z" />
    <glyph glyph-name="osuperior" unicode="&#xf6f0;" horiz-adv-x="550" 
d="M276 1354q-165 0 -165 -217q0 -219 165 -219q164 0 164 219q0 217 -164 217zM276 870q-117 0 -171 71t-54 196q0 266 225 266q224 0 224 -266q0 -267 -224 -267z" />
    <glyph glyph-name="rsuperior" unicode="&#xf6f1;" horiz-adv-x="440" 
d="M51 1343v50h129v-82h2q96 92 207 92v-53q-57 0 -114.5 -24t-94.5 -54v-344h88v-47h-217v47h72v415h-72z" />
    <glyph glyph-name="ssuperior" unicode="&#xf6f2;" horiz-adv-x="489" 
d="M432 1270h-47v71q-67 15 -145 15q-41 0 -69 -10.5t-38.5 -27t-14 -27.5t-3.5 -21q0 -36 27 -61t106 -42q95 -19 142.5 -51.5t47.5 -97.5q0 -71 -45.5 -109.5t-132.5 -38.5q-121 0 -209 23v111h47v-72q63 -14 156 -14q41 0 69.5 12t39.5 30.5t14.5 31t3.5 24.5
q0 35 -28 58.5t-109 39.5q-89 17 -137 51t-48 103q0 65 45 100t132 35q96 0 196 -23v-110z" />
    <glyph glyph-name="tsuperior" unicode="&#xf6f3;" horiz-adv-x="403" 
d="M133 1032v318h-82v39l82 4l6 143h51v-143h158v-43h-158v-310q0 -64 21.5 -93t77.5 -29q32 0 57 4l6 -45q-44 -7 -82 -7q-73 0 -105 36t-32 126z" />
    <glyph glyph-name="Brevesmall" unicode="&#xf6f4;" horiz-adv-x="835" 
d="M418 1421q53 0 94.5 18.5t66.5 50t39 62t23 66.5h49q-21 -134 -94 -198t-178 -64q-104 0 -177 64t-94 198h52q8 -35 22 -66t38.5 -62.5t65.5 -50t93 -18.5z" />
    <glyph glyph-name="Caronsmall" unicode="&#xf6f5;" horiz-adv-x="860" 
d="M240 1597l188 -225l190 225h62l-213 -286h-76l-213 286h62z" />
    <glyph glyph-name="Circumflexsmall" unicode="&#xf6f6;" horiz-adv-x="860" 
d="M428 1516l-188 -226h-62l213 287h76l213 -287h-62z" />
    <glyph glyph-name="Dotaccentsmall" unicode="&#xf6f7;" horiz-adv-x="512" 
d="M178 1597h92v-225h-92v225z" />
    <glyph glyph-name="Hungarumlautsmall" unicode="&#xf6f8;" horiz-adv-x="942" 
d="M385 1597l-166 -286h-61l133 286h94zM733 1597l-166 -286h-61l133 286h94z" />
    <glyph glyph-name="Lslashsmall" unicode="&#xf6f9;" horiz-adv-x="1017" 
d="M47 584l133 37v493h-133v84h371v-84h-133v-463l133 35v-53l-133 -37v-512h573v143h86v-227h-897v84h133v481l-133 -37v56z" />
    <glyph glyph-name="OEsmall" unicode="&#xf6fa;" horiz-adv-x="1904" 
d="M621 1130q-100 0 -174.5 -29.5t-117.5 -76t-69 -117.5t-34.5 -140.5t-8.5 -158.5q0 -74 6 -134.5t21.5 -125t45 -112.5t72.5 -87.5t109 -60t150 -20.5q100 0 174 31.5t117 81t69 125t34.5 149.5t8.5 168q0 71 -6.5 130t-22.5 118.5t-46 104.5t-73 81t-108 54.5t-147 18.5
zM1798 0h-760v270q-105 -290 -417 -290q-122 0 -214.5 33.5t-149 89t-91 138.5t-47.5 170.5t-13 196.5q0 106 13 191t48 166t91 135t148.5 86.5t214.5 32.5q170 0 272 -77.5t145 -207.5v264h760v-227h-84v143h-581v-450h573v-84h-573v-496h581v143h84v-227z" />
    <glyph glyph-name="Ogoneksmall" unicode="&#xf6fb;" horiz-adv-x="643" 
d="M496 -313l8 -33q-76 -60 -174 -60q-64 0 -111 34.5t-47 101.5q0 139 174 270h60q-68 -52 -115 -121t-47 -125q0 -53 30 -82.5t86 -29.5q19 0 36 2.5t34 9t24 10t24 13.5t18 10z" />
    <glyph glyph-name="Ringsmall" unicode="&#xf6fc;" horiz-adv-x="614" 
d="M131 1495q0 72 51.5 124t124.5 52q72 0 124 -52t52 -124q0 -73 -52 -124.5t-124 -51.5q-73 0 -124.5 51.5t-51.5 124.5zM176 1495q0 -55 38 -93t93 -38t93 38t38 93t-38 93t-93 38t-93 -38t-38 -93z" />
    <glyph glyph-name="Scaronsmall" unicode="&#xf6fd;" horiz-adv-x="1073" 
d="M106 264h84v-149q195 -45 347 -45q85 0 150 21.5t100.5 57t53 76t17.5 84.5q0 40 -14 74t-43 59t-56 42.5t-71 33t-69.5 22.5t-68.5 18l-12 3q-79 19 -145.5 46.5t-128 69t-96.5 101.5t-35 133q0 156 114 232t299 76q204 0 406 -58v-227h-84v156q-169 38 -322 38
q-84 0 -145 -17.5t-94.5 -48.5t-48.5 -67.5t-15 -79.5q0 -180 357 -262q381 -81 381 -334q0 -163 -118 -251t-312 -88q-215 0 -431 59v225zM362 1597l189 -225l190 225h62l-213 -286h-76l-213 286h61z" />
    <glyph glyph-name="Tildesmall" unicode="&#xf6fe;" horiz-adv-x="921" 
d="M358 1468q-44 0 -75.5 -17.5t-106.5 -92.5l-35 28q67 88 113.5 123t99.5 35q42 0 94.5 -32t99.5 -63.5t75 -31.5q22 0 39.5 5.5t43 29t50.5 66.5l32 -33q-33 -66 -69.5 -101t-83.5 -36q-15 -2 -43 6q-27 9 -111 61.5t-123 52.5z" />
    <glyph glyph-name="Zcaronsmall" unicode="&#xf6ff;" horiz-adv-x="1036" 
d="M117 1198h809v-80l-701 -1030v-4h647v143h84v-227h-864v80l707 1030v2h-598v-141h-84v227zM328 1597l188 -225l191 225h61l-213 -286h-76l-213 286h62z" />
    <glyph glyph-name="exclamsmall" unicode="&#xf721;" horiz-adv-x="378" 
d="M137 236h103v-236h-103v236zM137 1229h103l-4 -778h-93z" />
    <glyph glyph-name="dollaroldstyle" unicode="&#xf724;" horiz-adv-x="1044" 
d="M553 -266h-61v205h61v-205zM553 1085h-61v205h61v-205zM889 782h-88v148q-136 31 -297 31q-69 0 -120.5 -16t-76.5 -37t-39.5 -50t-17 -45.5t-2.5 -32.5q0 -35 10 -62t37 -55.5t83.5 -51.5t141.5 -40q94 -20 158.5 -42.5t117 -56.5t78 -83t25.5 -115q0 -140 -90.5 -217
t-263.5 -77q-243 0 -414 43v217h86v-146q129 -31 318 -31q70 0 122 18t78 42t41 56t18 51.5t3 37.5q0 35 -11 61.5t-40 54.5t-87.5 50.5t-146.5 40.5q-85 16 -144.5 36t-113.5 54t-81.5 87t-27.5 126q0 127 91 196.5t264 69.5q218 0 389 -43v-219z" />
    <glyph glyph-name="ampersandsmall" unicode="&#xf726;" horiz-adv-x="1853" 
d="M1284 303v203h-1036q5 -198 108.5 -319t286.5 -121q86 0 155.5 17t159.5 52l15 -82q-169 -73 -344 -73q-223 0 -357.5 147.5t-134.5 384.5q0 236 130 384t347 148q73 0 133 -17t99.5 -46.5t70.5 -68.5t46 -82t25 -88.5t8.5 -87.5t-3.5 -79h291l14 449h88v-449h318v-69
h-318v-189q0 -132 43 -193t158 -61q47 0 117 11l10 -82q-74 -12 -158 -12q-144 0 -208 71.5t-64 251.5zM608 963q-159 0 -254 -110.5t-106 -277.5h641q9 44 9.5 89t-9 89t-32 81.5t-55.5 66.5t-82.5 45.5t-111.5 16.5z" />
    <glyph glyph-name="questionsmall" unicode="&#xf73f;" horiz-adv-x="983" 
d="M205 1102v-121h-88v180q199 88 377 88q189 0 279.5 -80t90.5 -202q0 -71 -22 -124.5t-58 -84.5t-79 -55t-85.5 -43t-78.5 -40t-58 -55t-22 -80v-55h-92v62q0 57 21.5 98.5t56 66t76 44.5t83.5 40t76.5 45t56 67.5t21.5 100.5q0 93 -75 148t-216 55q-42 0 -90.5 -8.5
t-80.5 -17.5t-62 -19zM362 0v236h103v-236h-103z" />
    <glyph glyph-name="Gravesmall" unicode="&#xf760;" horiz-adv-x="593" 
d="M369 1311l-166 286h94l133 -286h-61z" />
    <glyph glyph-name="Asmall" unicode="&#xf761;" horiz-adv-x="1294" 
d="M420 1198h313l416 -1114h98v-84h-381v84h166l-104 285h-547l-111 -285h152v-84h-375v84h117l401 1030h-145v84zM664 1098h-5l-253 -652h501z" />
    <glyph glyph-name="Bsmall" unicode="&#xf762;" horiz-adv-x="1165" 
d="M807 614v-4q122 -24 187 -103t65 -192q0 -148 -91.5 -231.5t-265.5 -83.5h-655v84h133v1030h-133v84h619q172 0 264 -82.5t92 -218.5q0 -109 -55.5 -183t-159.5 -100zM662 567h-377v-483h403q125 0 193.5 62.5t68.5 179.5q0 111 -73.5 176t-214.5 65zM913 883
q0 104 -68 167.5t-190 63.5h-370v-461h370q125 0 191.5 59t66.5 171z" />
    <glyph glyph-name="Csmall" unicode="&#xf763;" horiz-adv-x="1128" 
d="M950 258h86v-221q-209 -57 -415 -57q-103 0 -184 22t-136.5 64.5t-94.5 98t-60.5 128.5t-30.5 148.5t-9 166.5q0 106 13 191t48 166t91 135t148.5 86.5t214.5 32.5q213 0 415 -58v-221h-86v154q-178 41 -321 41q-99 0 -173.5 -30t-119.5 -78t-72.5 -118.5t-37 -142
t-9.5 -158.5q0 -94 9.5 -168.5t37 -146.5t72.5 -120t119 -77.5t174 -29.5q166 0 321 40v152z" />
    <glyph glyph-name="Dsmall" unicode="&#xf764;" horiz-adv-x="1220" 
d="M47 1198h561q506 0 506 -590q0 -608 -506 -608h-561v84h133v1030h-133v84zM285 84h323q398 0 398 524q0 85 -10.5 156t-38 137.5t-71.5 112t-114.5 73t-163.5 27.5h-323v-1030z" />
    <glyph glyph-name="Esmall" unicode="&#xf765;" horiz-adv-x="1054" 
d="M47 1198h901v-227h-84v143h-579v-450h571v-84h-571v-496h579v143h84v-227h-901v84h133v1030h-133v84z" />
    <glyph glyph-name="Fsmall" unicode="&#xf766;" horiz-adv-x="1026" 
d="M47 1198h883v-227h-84v143h-561v-485h553v-84h-553v-461h133v-84h-371v84h133v1030h-133v84z" />
    <glyph glyph-name="Gsmall" unicode="&#xf767;" horiz-adv-x="1146" 
d="M217 608q0 -87 12.5 -162.5t42.5 -146t76 -120t117.5 -79.5t163.5 -30q170 0 303 86v340h-281v86h385v-498q-97 -47 -193.5 -75.5t-221.5 -28.5q-115 0 -204.5 33.5t-147 90t-95 138t-53 171t-15.5 195.5t13 191t48 166t91 135t148.5 86.5t214.5 32.5q213 0 415 -58v-221
h-86v154q-178 41 -321 41q-99 0 -173.5 -30t-119.5 -78t-72.5 -118.5t-37 -142t-9.5 -158.5z" />
    <glyph glyph-name="Hsmall" unicode="&#xf768;" horiz-adv-x="1257" 
d="M840 84h133v496h-688v-496h133v-84h-371v84h133v1030h-133v84h371v-84h-133v-450h688v450h-133v84h370v-84h-133v-1030h133v-84h-370v84z" />
    <glyph glyph-name="Ismall" unicode="&#xf769;" horiz-adv-x="464" 
d="M47 84h133v1030h-133v84h371v-84h-133v-1030h133v-84h-371v84z" />
    <glyph glyph-name="Jsmall" unicode="&#xf76a;" horiz-adv-x="630" 
d="M213 1198h371v-84h-133v-829q0 -167 -65.5 -236t-197.5 -69q-80 0 -147 12l10 84q60 -8 113 -8q98 0 140 52t42 165v829h-133v84z" />
    <glyph glyph-name="Ksmall" unicode="&#xf76b;" horiz-adv-x="1257" 
d="M47 1198h371v-84h-133v-625l626 625h-153v84h434v-84h-152l-417 -412l444 -618h143v-84h-438v84h158l-387 549l-258 -254v-295h133v-84h-371v84h133v1030h-133v84z" />
    <glyph glyph-name="Lsmall" unicode="&#xf76c;" horiz-adv-x="1017" 
d="M858 227h86v-227h-897v84h133v1030h-133v84h371v-84h-133v-1030h573v143z" />
    <glyph glyph-name="Msmall" unicode="&#xf76d;" horiz-adv-x="1552" 
d="M1251 1198h254v-84h-133v-1030h133v-84h-366v84h129v928h-4l-457 -1012h-62l-462 1012h-4v-928h129v-84h-361v84h133v1030h-133v84h256l477 -1038h4z" />
    <glyph glyph-name="Nsmall" unicode="&#xf76e;" horiz-adv-x="1275" 
d="M864 1198h365v-84h-133v-1114h-95l-718 1014l-4 -4v-926h133v-84h-365v84h133v1030h-133v84h223l725 -1024l4 4v936h-135v84z" />
    <glyph glyph-name="Osmall" unicode="&#xf76f;" horiz-adv-x="1239" 
d="M621 1135q-100 0 -174.5 -30t-117.5 -77.5t-69 -119t-34.5 -141.5t-8.5 -159t8.5 -160.5t34.5 -146t69 -123.5t117.5 -80.5t174.5 -31.5t174 31.5t117 81t69 123t34.5 145.5t8.5 161q0 88 -8.5 158.5t-34.5 142t-69 119t-117 77.5t-174 30zM621 -20q-122 0 -214.5 33.5
t-148.5 89.5t-91 139t-48 170.5t-13 195.5q0 106 13 191t48 166t91 135t148.5 86.5t214.5 32.5t213.5 -32.5t147.5 -86.5t90.5 -135t47.5 -166t13 -191q0 -108 -13 -195.5t-47.5 -170.5t-90.5 -139t-147.5 -89.5t-213.5 -33.5z" />
    <glyph glyph-name="Psmall" unicode="&#xf770;" horiz-adv-x="1146" 
d="M47 1198h633q172 0 266 -92t94 -242q0 -158 -93 -247t-267 -89h-395v-444h133v-84h-371v84h133v1030h-133v84zM285 1114v-500h385q125 0 194.5 64.5t69.5 185.5q0 112 -70.5 181t-193.5 69h-385z" />
    <glyph glyph-name="Qsmall" unicode="&#xf771;" horiz-adv-x="1239" 
d="M106 608q0 106 13 191t48 166t91 135t148.5 86.5t214.5 32.5t213.5 -32.5t147.5 -86.5t90.5 -135t47.5 -166t13 -191q0 -102 -13 -186t-44.5 -160t-81 -128t-127.5 -83.5t-179 -34.5q37 -56 160 -79t262 -9v-98q-174 -18 -314.5 19.5t-203.5 132.5q-115 4 -201.5 39.5
t-140 91.5t-86.5 137t-45.5 167t-12.5 191zM621 1135q-100 0 -174.5 -30t-117.5 -77.5t-69 -119t-34.5 -141.5t-8.5 -159q0 -74 6 -134.5t21.5 -125t45 -112.5t72.5 -87.5t109 -60t150 -20.5q100 0 174 31t117 80.5t69 123t34.5 145t8.5 160.5q0 88 -8.5 158.5t-34.5 142
t-69 119t-117 77.5t-174 30z" />
    <glyph glyph-name="Rsmall" unicode="&#xf772;" horiz-adv-x="1202" 
d="M47 1198h633q171 0 265.5 -96.5t94.5 -247.5q0 -133 -79.5 -224t-217.5 -106l316 -440h96v-84h-389v84h168l-295 426h-354v-426h131v-84h-369v84h133v1030h-133v84zM285 1114v-520h370q126 0 202.5 70t76.5 190q0 113 -71 186.5t-193 73.5h-385z" />
    <glyph glyph-name="Ssmall" unicode="&#xf773;" horiz-adv-x="1073" 
d="M106 264h84v-149q195 -45 347 -45q85 0 150 21.5t100.5 57t53 76t17.5 84.5q0 40 -14 74t-43 59t-56 42.5t-71 33t-69.5 22.5t-68.5 18l-12 3q-79 19 -145.5 46.5t-128 69t-96.5 101.5t-35 133q0 156 114 232t299 76q204 0 406 -58v-227h-84v156q-169 38 -322 38
q-84 0 -145 -17.5t-94.5 -48.5t-48.5 -67.5t-15 -79.5q0 -180 357 -262q381 -81 381 -334q0 -163 -118 -251t-312 -88q-215 0 -431 59v225z" />
    <glyph glyph-name="Tsmall" unicode="&#xf774;" horiz-adv-x="1073" 
d="M100 1198h875v-227h-88v143h-297v-1030h131v-84h-369v84h131v1030h-297v-143h-86v227z" />
    <glyph glyph-name="Usmall" unicode="&#xf775;" horiz-adv-x="1257" 
d="M840 1198h370v-84h-133v-692q0 -227 -110.5 -334.5t-337.5 -107.5t-338 107.5t-111 334.5v692h-133v84h371v-84h-133v-692q0 -36 1.5 -63t9.5 -66t21.5 -68t39.5 -60.5t62 -52t91.5 -33.5t124.5 -13q90 0 155.5 25t100 60.5t54 88t24 92.5t4.5 90v692h-133v84z" />
    <glyph glyph-name="Vsmall" unicode="&#xf776;" horiz-adv-x="1275" 
d="M827 1198h402v-84h-99l-417 -1122h-133l-435 1122h-98v84h408v-84h-195l389 -1012h2l371 1012h-195v84z" />
    <glyph glyph-name="Wsmall" unicode="&#xf777;" horiz-adv-x="1810" 
d="M47 1198h408v-84h-199l293 -987h2l303 1071h117l311 -1071h2l287 987h-199v84h391v-84h-94l-321 -1122h-144l-295 1020h-4l-295 -1020h-141l-328 1122h-94v84z" />
    <glyph glyph-name="Xsmall" unicode="&#xf778;" horiz-adv-x="1294" 
d="M838 1198h391v-84h-131l-369 -489l406 -541h112v-84h-424v84h174l-356 483l-356 -483h159v-84h-397v84h123l408 541l-365 489h-147v84h419v-84h-133l316 -430l315 430h-145v84z" />
    <glyph glyph-name="Ysmall" unicode="&#xf779;" horiz-adv-x="1220" 
d="M664 84h131v-84h-369v84h131v322l-407 708h-103v84h414v-84h-193l348 -608h5l342 608h-189v84h400v-84h-101l-409 -708v-322z" />
    <glyph glyph-name="Zsmall" unicode="&#xf77a;" horiz-adv-x="1036" 
d="M117 1198h809v-80l-701 -1030v-4h647v143h84v-227h-864v80l707 1030v2h-598v-141h-84v227z" />
    <glyph glyph-name="exclamdownsmall" unicode="&#xf7a1;" horiz-adv-x="378" 
d="M240 993h-103v236h103v-236zM240 0h-103l6 778h93z" />
    <glyph glyph-name="centoldstyle" unicode="&#xf7a2;" horiz-adv-x="1044" 
d="M635 -266h-62v205h62v-205zM635 1085h-62v205h62v-205zM864 782v144q-120 30 -250 30q-78 0 -141 -26.5t-104.5 -70.5t-70 -102.5t-40.5 -119.5t-12 -125q0 -125 40.5 -224t125.5 -160.5t202 -61.5q71 0 138.5 12t181.5 53l18 -86q-95 -35 -168.5 -50t-169.5 -15
q-232 0 -354.5 145t-122.5 387q0 113 28 208t84 168.5t149.5 114.5t215.5 41q180 0 338 -43v-219h-88z" />
    <glyph glyph-name="Dieresissmall" unicode="&#xf7a8;" horiz-adv-x="983" 
d="M178 1597h92v-225h-92v225zM711 1597h92v-225h-92v225z" />
    <glyph glyph-name="Macronsmall" unicode="&#xf7af;" horiz-adv-x="778" 
d="M147 1464h482v-78h-482v78z" />
    <glyph glyph-name="Acutesmall" unicode="&#xf7b4;" horiz-adv-x="593" 
d="M385 1597l-166 -286h-61l133 286h94z" />
    <glyph glyph-name="Cedillasmall" unicode="&#xf7b8;" horiz-adv-x="602" 
d="M246 -150v150h45v-119q73 -3 122.5 -37.5t49.5 -107.5q0 -71 -51 -113.5t-140 -42.5q-59 0 -139 25l8 41q69 -21 119 -21q39 0 67.5 12t42 31.5t19.5 37.5t6 36q0 41 -33 74.5t-116 33.5z" />
    <glyph glyph-name="questiondownsmall" unicode="&#xf7bf;" horiz-adv-x="983" 
d="M778 127v121h86v-180q-191 -88 -375 -88q-98 0 -172 22.5t-116.5 62.5t-63 89t-20.5 106q0 71 22.5 125t58 85t79 54.5t86.5 42.5t78.5 40t58 54.5t22.5 79.5v58h92v-62q0 -50 -17 -88.5t-44.5 -62t-62.5 -44t-71.5 -34.5t-71.5 -35t-62.5 -45t-44.5 -63.5t-17 -90.5
q0 -95 74 -148.5t217 -53.5q42 0 90.5 8.5t80.5 17.5t63 19zM618 1229v-236h-102v236h102z" />
    <glyph glyph-name="Agravesmall" unicode="&#xf7e0;" horiz-adv-x="1294" 
d="M600 1311l-166 286h94l134 -286h-62zM420 1198h313l416 -1114h98v-84h-381v84h166l-104 285h-547l-111 -285h152v-84h-375v84h117l401 1030h-145v84zM664 1098h-5l-253 -652h501z" />
    <glyph glyph-name="Aacutesmall" unicode="&#xf7e1;" horiz-adv-x="1294" 
d="M852 1597l-166 -286h-61l133 286h94zM420 1198h313l416 -1114h98v-84h-381v84h166l-104 285h-547l-111 -285h152v-84h-375v84h117l401 1030h-145v84zM664 1098h-5l-253 -652h501z" />
    <glyph glyph-name="Acircumflexsmall" unicode="&#xf7e2;" horiz-adv-x="1294" 
d="M643 1516l-188 -226h-62l213 287h76l213 -287h-61zM420 1198h313l416 -1114h98v-84h-381v84h166l-104 285h-547l-111 -285h152v-84h-375v84h117l401 1030h-145v84zM664 1098h-5l-253 -652h501z" />
    <glyph glyph-name="Atildesmall" unicode="&#xf7e3;" horiz-adv-x="1294" 
d="M557 1468q-44 0 -75.5 -17.5t-106.5 -92.5l-35 28q67 88 113.5 123t99.5 35q42 0 94 -32t99 -63.5t75 -31.5q22 0 39.5 5.5t43 29t50.5 66.5l33 -33q-33 -66 -69.5 -101t-83.5 -36q-15 -2 -43 6q-27 9 -111 61.5t-123 52.5zM420 1198h313l416 -1114h98v-84h-381v84h166
l-104 285h-547l-111 -285h152v-84h-375v84h117l401 1030h-145v84zM664 1098h-5l-253 -652h501z" />
    <glyph glyph-name="Adieresissmall" unicode="&#xf7e4;" horiz-adv-x="1294" 
d="M350 1597h92v-225h-92v225zM883 1597h92v-225h-92v225zM420 1198h313l416 -1114h98v-84h-381v84h166l-104 285h-547l-111 -285h152v-84h-375v84h117l401 1030h-145v84zM664 1098h-5l-253 -652h501z" />
    <glyph glyph-name="Aringsmall" unicode="&#xf7e5;" horiz-adv-x="1294" 
d="M487 1495q0 72 52 124t125 52q72 0 124 -52t52 -124q0 -73 -52 -124.5t-124 -51.5q-74 0 -125.5 51.5t-51.5 124.5zM532 1495q0 -55 38 -93t94 -38t93.5 38t37.5 93t-37.5 93t-93.5 38t-94 -38t-38 -93zM420 1198h313l416 -1114h98v-84h-381v84h166l-104 285h-547
l-111 -285h152v-84h-375v84h117l401 1030h-145v84zM664 1098h-5l-253 -652h501z" />
    <glyph glyph-name="AEsmall" unicode="&#xf7e6;" horiz-adv-x="1693" 
d="M723 1114h-145v84h1009v-227h-84v143h-579v-450h571v-84h-571v-496h579v143h84v-227h-770v508h-334l-293 -508h-170v84h107zM813 1104l-287 -512h291v512h-4z" />
    <glyph glyph-name="Ccedillasmall" unicode="&#xf7e7;" horiz-adv-x="1128" 
d="M598 -129v111q-117 3 -205 37.5t-142 89.5t-87 136.5t-45.5 168t-12.5 194.5q0 106 13 191t48 166t91 135t148.5 86.5t214.5 32.5q213 0 415 -58v-221h-86v154q-178 41 -321 41q-99 0 -173.5 -30t-119.5 -78t-72.5 -118.5t-37 -142t-9.5 -158.5q0 -93 9.5 -167.5
t37 -146.5t72.5 -120t119 -77t174 -29q166 0 321 38v152h86v-219q-200 -54 -395 -57v-82q65 -4 109.5 -34t44.5 -93q0 -60 -46 -96.5t-124 -36.5q-63 0 -127 20l6 37q72 -14 106 -14q64 0 91.5 30.5t27.5 65.5t-29 63t-102 29z" />
    <glyph glyph-name="Egravesmall" unicode="&#xf7e8;" horiz-adv-x="1054" 
d="M47 1198h901v-227h-84v143h-579v-450h571v-84h-571v-496h579v143h84v-227h-901v84h133v1030h-133v84zM504 1311l-166 286h94l133 -286h-61z" />
    <glyph glyph-name="Eacutesmall" unicode="&#xf7e9;" horiz-adv-x="1054" 
d="M47 1198h901v-227h-84v143h-579v-450h571v-84h-571v-496h579v143h84v-227h-901v84h133v1030h-133v84zM707 1597l-166 -286h-62l133 286h95z" />
    <glyph glyph-name="Ecircumflexsmall" unicode="&#xf7ea;" horiz-adv-x="1054" 
d="M47 1198h901v-227h-84v143h-579v-450h571v-84h-571v-496h579v143h84v-227h-901v84h133v1030h-133v84zM545 1516l-189 -226h-61l213 287h76l213 -287h-62z" />
    <glyph glyph-name="Edieresissmall" unicode="&#xf7eb;" horiz-adv-x="1054" 
d="M47 1198h901v-227h-84v143h-579v-450h571v-84h-571v-496h579v143h84v-227h-901v84h133v1030h-133v84zM236 1597h92v-225h-92v225zM768 1597h92v-225h-92v225z" />
    <glyph glyph-name="Igravesmall" unicode="&#xf7ec;" horiz-adv-x="464" 
d="M47 84h133v1030h-133v84h371v-84h-133v-1030h133v-84h-371v84zM209 1311l-166 286h94l133 -286h-61z" />
    <glyph glyph-name="Iacutesmall" unicode="&#xf7ed;" horiz-adv-x="464" 
d="M47 84h133v1030h-133v84h371v-84h-133v-1030h133v-84h-371v84zM428 1597l-166 -286h-61l133 286h94z" />
    <glyph glyph-name="Icircumflexsmall" unicode="&#xf7ee;" horiz-adv-x="464" 
d="M47 84h133v1030h-133v84h371v-84h-133v-1030h133v-84h-371v84zM229 1516l-188 -226h-61l213 287h75l213 -287h-61z" />
    <glyph glyph-name="Idieresissmall" unicode="&#xf7ef;" horiz-adv-x="464" 
d="M47 84h133v1030h-133v84h371v-84h-133v-1030h133v-84h-371v84zM-82 1597h92v-225h-92v225zM451 1597h92v-225h-92v225z" />
    <glyph glyph-name="Ntildesmall" unicode="&#xf7f1;" horiz-adv-x="1275" 
d="M864 1198h365v-84h-133v-1114h-95l-718 1014l-4 -4v-926h133v-84h-365v84h133v1030h-133v84h223l725 -1024l4 4v936h-135v84zM563 1468q-44 0 -75.5 -17.5t-106.5 -92.5l-35 28q67 88 113.5 123t99.5 35q42 0 94 -32t99 -63.5t75 -31.5q16 0 29.5 3t31 12.5t36 31
t37.5 54.5l32 -33q-33 -66 -69.5 -101t-83.5 -36q-15 -2 -43 6q-27 9 -111 61.5t-123 52.5z" />
    <glyph glyph-name="Ogravesmall" unicode="&#xf7f2;" horiz-adv-x="1239" 
d="M621 1135q-100 0 -174.5 -30t-117.5 -77.5t-69 -119t-34.5 -141.5t-8.5 -159t8.5 -160.5t34.5 -146t69 -123.5t117.5 -80.5t174.5 -31.5t174 31.5t117 81t69 123t34.5 145.5t8.5 161q0 88 -8.5 158.5t-34.5 142t-69 119t-117 77.5t-174 30zM621 -20q-122 0 -214.5 33.5
t-148.5 89.5t-91 139t-48 170.5t-13 195.5q0 106 13 191t48 166t91 135t148.5 86.5t214.5 32.5t213.5 -32.5t147.5 -86.5t90.5 -135t47.5 -166t13 -191q0 -108 -13 -195.5t-47.5 -170.5t-90.5 -139t-147.5 -89.5t-213.5 -33.5zM582 1311l-166 286h94l133 -286h-61z" />
    <glyph glyph-name="Oacutesmall" unicode="&#xf7f3;" horiz-adv-x="1239" 
d="M621 1135q-100 0 -174.5 -30t-117.5 -77.5t-69 -119t-34.5 -141.5t-8.5 -159t8.5 -160.5t34.5 -146t69 -123.5t117.5 -80.5t174.5 -31.5t174 31.5t117 81t69 123t34.5 145.5t8.5 161q0 88 -8.5 158.5t-34.5 142t-69 119t-117 77.5t-174 30zM621 -20q-122 0 -214.5 33.5
t-148.5 89.5t-91 139t-48 170.5t-13 195.5q0 106 13 191t48 166t91 135t148.5 86.5t214.5 32.5t213.5 -32.5t147.5 -86.5t90.5 -135t47.5 -166t13 -191q0 -108 -13 -195.5t-47.5 -170.5t-90.5 -139t-147.5 -89.5t-213.5 -33.5zM823 1597l-166 -286h-61l133 286h94z" />
    <glyph glyph-name="Ocircumflexsmall" unicode="&#xf7f4;" horiz-adv-x="1239" 
d="M621 1135q-100 0 -174.5 -30t-117.5 -77.5t-69 -119t-34.5 -141.5t-8.5 -159t8.5 -160.5t34.5 -146t69 -123.5t117.5 -80.5t174.5 -31.5t174 31.5t117 81t69 123t34.5 145.5t8.5 161q0 88 -8.5 158.5t-34.5 142t-69 119t-117 77.5t-174 30zM621 -20q-122 0 -214.5 33.5
t-148.5 89.5t-91 139t-48 170.5t-13 195.5q0 106 13 191t48 166t91 135t148.5 86.5t214.5 32.5t213.5 -32.5t147.5 -86.5t90.5 -135t47.5 -166t13 -191q0 -108 -13 -195.5t-47.5 -170.5t-90.5 -139t-147.5 -89.5t-213.5 -33.5zM616 1516l-188 -226h-61l213 287h75l213 -287
h-61z" />
    <glyph glyph-name="Otildesmall" unicode="&#xf7f5;" horiz-adv-x="1239" 
d="M621 1135q-100 0 -174.5 -30t-117.5 -77.5t-69 -119t-34.5 -141.5t-8.5 -159t8.5 -160.5t34.5 -146t69 -123.5t117.5 -80.5t174.5 -31.5t174 31.5t117 81t69 123t34.5 145.5t8.5 161q0 88 -8.5 158.5t-34.5 142t-69 119t-117 77.5t-174 30zM621 -20q-122 0 -214.5 33.5
t-148.5 89.5t-91 139t-48 170.5t-13 195.5q0 106 13 191t48 166t91 135t148.5 86.5t214.5 32.5t213.5 -32.5t147.5 -86.5t90.5 -135t47.5 -166t13 -191q0 -108 -13 -195.5t-47.5 -170.5t-90.5 -139t-147.5 -89.5t-213.5 -33.5zM514 1468q-44 0 -75.5 -17.5t-106.5 -92.5
l-35 28q67 88 113.5 123t99.5 35q42 0 94 -32t99 -63.5t75 -31.5q22 0 39.5 5.5t43 29t50.5 66.5l33 -33q-33 -66 -69.5 -101t-83.5 -36q-15 -2 -43 6q-27 9 -111 61.5t-123 52.5z" />
    <glyph glyph-name="Odieresissmall" unicode="&#xf7f6;" horiz-adv-x="1239" 
d="M621 1135q-100 0 -174.5 -30t-117.5 -77.5t-69 -119t-34.5 -141.5t-8.5 -159t8.5 -160.5t34.5 -146t69 -123.5t117.5 -80.5t174.5 -31.5t174 31.5t117 81t69 123t34.5 145.5t8.5 161q0 88 -8.5 158.5t-34.5 142t-69 119t-117 77.5t-174 30zM621 -20q-122 0 -214.5 33.5
t-148.5 89.5t-91 139t-48 170.5t-13 195.5q0 106 13 191t48 166t91 135t148.5 86.5t214.5 32.5t213.5 -32.5t147.5 -86.5t90.5 -135t47.5 -166t13 -191q0 -108 -13 -195.5t-47.5 -170.5t-90.5 -139t-147.5 -89.5t-213.5 -33.5zM305 1597h92v-225h-92v225zM838 1597h92v-225
h-92v225z" />
    <glyph glyph-name="Oslashsmall" unicode="&#xf7f8;" horiz-adv-x="1239" 
d="M621 -20q-247 0 -375 141l-144 -168l-36 29l147 174q-107 150 -107 452q0 106 13 191t48 166t91 135t148.5 86.5t214.5 32.5q233 0 364 -134l152 183l37 -29l-156 -186q115 -142 115 -445q0 -108 -13 -195.5t-47.5 -170.5t-90.5 -139t-147.5 -89.5t-213.5 -33.5zM621 70
q100 0 174 31t117 80t69 122t34.5 144.5t8.5 160.5q0 235 -78 355l-635 -760q98 -133 310 -133zM621 1128q-72 0 -131 -15t-100.5 -41t-72.5 -65t-50 -81.5t-30.5 -97.5t-15.5 -106.5t-4 -113.5q0 -239 72 -356l633 756q-98 120 -301 120z" />
    <glyph glyph-name="Ugravesmall" unicode="&#xf7f9;" horiz-adv-x="1257" 
d="M840 1198h370v-84h-133v-692q0 -227 -110.5 -334.5t-337.5 -107.5t-338 107.5t-111 334.5v692h-133v84h371v-84h-133v-692q0 -36 1.5 -63t9.5 -66t21.5 -68t39.5 -60.5t62 -52t91.5 -33.5t124.5 -13q90 0 155.5 25t100 60.5t54 88t24 92.5t4.5 90v692h-133v84zM616 1311
l-165 286h94l133 -286h-62z" />
    <glyph glyph-name="Uacutesmall" unicode="&#xf7fa;" horiz-adv-x="1257" 
d="M840 1198h370v-84h-133v-692q0 -227 -110.5 -334.5t-337.5 -107.5t-338 107.5t-111 334.5v692h-133v84h371v-84h-133v-692q0 -36 1.5 -63t9.5 -66t21.5 -68t39.5 -60.5t62 -52t91.5 -33.5t124.5 -13q90 0 155.5 25t100 60.5t54 88t24 92.5t4.5 90v692h-133v84zM854 1597
l-166 -286h-61l133 286h94z" />
    <glyph glyph-name="Ucircumflexsmall" unicode="&#xf7fb;" horiz-adv-x="1257" 
d="M840 1198h370v-84h-133v-692q0 -227 -110.5 -334.5t-337.5 -107.5t-338 107.5t-111 334.5v692h-133v84h371v-84h-133v-692q0 -36 1.5 -63t9.5 -66t21.5 -68t39.5 -60.5t62 -52t91.5 -33.5t124.5 -13q90 0 155.5 25t100 60.5t54 88t24 92.5t4.5 90v692h-133v84zM627 1516
l-189 -226h-61l213 287h76l213 -287h-62z" />
    <glyph glyph-name="Udieresissmall" unicode="&#xf7fc;" horiz-adv-x="1257" 
d="M840 1198h370v-84h-133v-692q0 -227 -110.5 -334.5t-337.5 -107.5t-338 107.5t-111 334.5v692h-133v84h371v-84h-133v-692q0 -36 1.5 -63t9.5 -66t21.5 -68t39.5 -60.5t62 -52t91.5 -33.5t124.5 -13q90 0 155.5 25t100 60.5t54 88t24 92.5t4.5 90v692h-133v84zM315 1597
h93v-225h-93v225zM848 1597h92v-225h-92v225z" />
    <glyph glyph-name="Yacutesmall" unicode="&#xf7fd;" horiz-adv-x="1220" 
d="M664 84h131v-84h-369v84h131v322l-407 708h-103v84h414v-84h-193l348 -608h5l342 608h-189v84h400v-84h-101l-409 -708v-322zM829 1597l-165 -286h-62l133 286h94z" />
    <glyph glyph-name="Ydieresissmall" unicode="&#xf7ff;" horiz-adv-x="1220" 
d="M664 84h131v-84h-369v84h131v322l-407 708h-103v84h414v-84h-193l348 -608h5l342 608h-189v84h400v-84h-101l-409 -708v-322zM297 1597h92v-225h-92v225zM829 1597h93v-225h-93v225z" />
    <glyph glyph-name="Breve" horiz-adv-x="835" 
d="M418 1606q175 0 223 196h49q-21 -134 -94 -198t-178 -64q-104 0 -177 64t-94 198h52q8 -35 22 -66t38.5 -62t65.5 -49.5t93 -18.5z" />
    <glyph glyph-name="Cedilla" horiz-adv-x="602" 
d="M246 -150v150h45v-119q73 -3 122.5 -37.5t49.5 -107.5q0 -71 -51 -113.5t-140 -42.5q-59 0 -139 25l8 41q69 -21 119 -21q39 0 67.5 12t42 31.5t19.5 37.5t6 36q0 41 -33 74.5t-116 33.5z" />
    <glyph glyph-name="Circumflex" horiz-adv-x="860" 
d="M428 1720l-188 -225h-62l213 287h76l213 -287h-62z" />
    <glyph glyph-name="commaaccent.cap" horiz-adv-x="471" 
d="M184 -492h-41l31 220h-37v190h103v-190z" />
    <glyph glyph-name="Dotaccent" horiz-adv-x="512" 
d="M178 1782h92v-226h-92v226z" />
    <glyph glyph-name="Ogonek" horiz-adv-x="643" 
d="M496 -313l8 -33q-76 -60 -174 -60q-64 0 -111 34.5t-47 101.5q0 139 174 270h60q-68 -52 -115 -121t-47 -125q0 -53 30 -82.5t86 -29.5q19 0 36 2.5t34 9t24 10t24 13.5t18 10z" />
    <glyph glyph-name="Ring" horiz-adv-x="614" 
d="M131 1679q0 72 51.5 124t124.5 52q72 0 124 -52t52 -124q0 -73 -52 -124.5t-124 -51.5q-73 0 -124.5 51.5t-51.5 124.5zM176 1679q0 -55 38 -93t93 -38t93 38t38 93t-38 93t-93 38t-93 -38t-38 -93z" />
    <glyph glyph-name="Tilde" horiz-adv-x="921" 
d="M358 1653q-43 0 -75 -18t-107 -93l-35 29q67 88 113.5 123t99.5 35q33 0 73.5 -20t71.5 -43.5t66 -43.5t58 -20t40 5t42.5 28.5t50.5 66.5l32 -33q-33 -66 -69.5 -101t-83.5 -36q-15 -2 -43 6q-27 9 -111 62t-123 53z" />
    <glyph glyph-name="commaaccent.small" horiz-adv-x="471" 
d="M184 -492h-41l31 220h-37v190h103v-190z" />
    <glyph glyph-name="DieresisAcute.small" horiz-adv-x="1290" 
d="M754 1659l-187 -348h-61l147 348h101zM178 1597h92v-225h-92v225zM956 1597h93v-225h-93v225z" />
    <glyph glyph-name="DieresisGrave.small" horiz-adv-x="1290" 
d="M707 1311l-187 348h101l147 -348h-61zM956 1597h93v-225h-93v225zM178 1597h92v-225h-92v225z" />
    <glyph glyph-name="dblGrave.small" horiz-adv-x="942" 
d="M719 1311l-166 286h94l133 -286h-61zM371 1311l-166 286h94l133 -286h-61z" />
    <glyph glyph-name="middot" horiz-adv-x="512" 
d="M178 748h92v-226h-92v226z" />
    <glyph glyph-name="Aogonek.small" horiz-adv-x="1294" 
d="M1202 -268l8 -29q-66 -51 -157 -51q-58 0 -101 30t-43 87q0 124 150 231h-193v84h166l-104 285h-547l-111 -285h152v-84h-375v84h117l401 1030h-145v84h313l416 -1114h98v-84h-125q-60 -42 -100.5 -100.5t-40.5 -108.5q0 -96 102 -96q21 0 41.5 4.5t30.5 9t27.5 13.5
t19.5 10zM664 1098h-5l-253 -652h501z" />
    <glyph glyph-name="Dcroat.small" horiz-adv-x="1220" 
d="M47 1198h561q506 0 506 -590q0 -608 -506 -608h-561v84h133v491h-133v66h133v473h-133v84zM285 84h323q398 0 398 524q0 85 -10.5 156t-38 137.5t-71.5 112t-114.5 73t-163.5 27.5h-323v-473h198v-66h-198v-491z" />
    <glyph glyph-name="Eogonek.small" horiz-adv-x="1054" 
d="M47 1198h901v-227h-84v143h-579v-450h571v-84h-571v-496h579v143h84v-227q-59 -43 -100 -101.5t-41 -107.5q0 -46 26.5 -71t77.5 -25q21 0 40.5 4.5t30.5 9t27 13t21 10.5l8 -29q-66 -51 -157 -51q-59 0 -102.5 30t-43.5 87q0 120 158 231h-846v84h133v1030h-133v84z" />
    <glyph glyph-name="Hbar.small" horiz-adv-x="1257" 
d="M840 84h133v496h-688v-496h133v-84h-371v84h133v827h-119v35h119v168h-133v84h371v-84h-133v-168h688v168h-133v84h370v-84h-133v-168h119v-35h-119v-827h133v-84h-370v84zM285 653h688v258h-688v-258z" />
    <glyph glyph-name="Iogonek.small" horiz-adv-x="464" 
d="M358 -268l11 -29q-66 -51 -160 -51q-59 0 -102.5 30t-43.5 87q0 121 154 231h-170v84h133v1030h-133v84h371v-84h-133v-1030h133v-84h-139q-60 -44 -102 -102t-42 -107q0 -46 27 -71t78 -25q21 0 41.5 4.5t30.5 9t26.5 13.5t19.5 10z" />
    <glyph glyph-name="IJ.small" horiz-adv-x="1064" 
d="M47 84h133v1030h-133v84h371v-84h-133v-1030h133v-84h-371v84zM647 1198h371v-84h-133v-827q0 -168 -65 -237.5t-197 -69.5q-79 0 -150 12l12 84q60 -8 111 -8q99 0 140.5 52t41.5 167v827h-131v84z" />
    <glyph glyph-name="Scedilla.small" horiz-adv-x="1073" 
d="M504 -129v109q-213 7 -398 59v225h84v-149q195 -45 347 -45q85 0 150 21.5t100.5 57t53 76t17.5 84.5q0 40 -14 74t-43 59t-56 42.5t-71 33t-69.5 22.5t-68.5 18l-12 3q-79 19 -145.5 46.5t-128 69t-96.5 101.5t-35 133q0 156 114 232t299 76q204 0 406 -58v-227h-84v156
q-169 38 -322 38q-84 0 -145 -17.5t-94.5 -48.5t-48.5 -67.5t-15 -79.5q0 -180 357 -262q381 -81 381 -334q0 -160 -114.5 -248t-303.5 -91v-80q65 -3 109 -33.5t44 -93.5q0 -61 -45.5 -97t-126.5 -36q-57 0 -127 20l11 37q68 -14 102 -14q65 0 93 30.5t28 65.5t-29.5 63
t-103.5 29z" />
    <glyph glyph-name="Tbar.small" horiz-adv-x="1073" 
d="M100 1198h875v-227h-88v143h-297v-534h168v-66h-168v-430h131v-84h-369v84h131v430h-168v66h168v534h-297v-143h-86v227z" />
    <glyph glyph-name="Uogonek.small" horiz-adv-x="1257" 
d="M840 1198h370v-84h-133v-692q0 -219 -103.5 -326.5t-318.5 -115.5q-52 -40 -85 -92.5t-33 -96.5q0 -96 104 -96q20 0 39.5 4.5t30.5 9t28 13l21 10.5l6 -29q-63 -51 -158 -51q-58 0 -100.5 30t-42.5 87q0 113 135 213q-215 6 -317.5 113t-102.5 327v692h-133v84h371v-84
h-133v-692q0 -36 1.5 -63t9.5 -66t21.5 -68t39.5 -60.5t62 -52t91.5 -33.5t124.5 -13q90 0 155.5 25t100 60.5t54 88t24 92.5t4.5 90v692h-133v84z" />
    <glyph glyph-name="c_t" horiz-adv-x="1771" 
d="M932 782h-88v148q-111 26 -250 26q-80 0 -143 -23t-105 -62.5t-69.5 -96t-39.5 -121.5t-12 -141q0 -96 20 -174t62 -140.5t115 -97t172 -34.5q163 0 317 40l21 -83q-171 -43 -338 -43q-477 0 -477 532q0 120 26 214.5t81 167t148.5 111.5t221.5 39q167 0 338 -43v-219z
M1223 303v643h-168v70l168 8l14 287h88v-287h317v-78h-317v-629q0 -132 43 -193t158 -61q46 0 116 11l11 -82q-73 -12 -158 -12q-144 0 -208 71.5t-64 251.5z" />
    <glyph glyph-name="s_p" horiz-adv-x="2099" 
d="M864 782h-86v148q-136 31 -297 31q-69 0 -120.5 -16t-76.5 -37t-39.5 -50t-17 -45.5t-2.5 -32.5q0 -28 5.5 -50t22.5 -46t46 -43.5t79.5 -37.5t119.5 -32q191 -40 283.5 -105t92.5 -192q0 -140 -90 -217t-262 -77q-245 0 -416 43v217h89v-146q129 -31 317 -31
q59 0 105 12t73 32.5t45 42t25 47.5t9.5 41t2.5 30q0 35 -10.5 61.5t-39.5 54.5t-87 50.5t-146 40.5q-67 13 -117 27.5t-99 38.5t-80 55t-50.5 77t-19.5 105q0 127 90 196.5t262 69.5q218 0 389 -43v-219zM1004 936v88h249v-102h4q63 56 153 89t187 33q105 0 180.5 -40
t119 -114t63.5 -167t20 -211t-21 -212t-65.5 -167t-121 -113t-181.5 -40q-95 0 -183 32.5t-151 87.5h-4v-424h150v-86h-399v86h147v1260h-147zM1874 512q0 444 -313 444q-91 0 -173 -33.5t-135 -74.5v-672q51 -41 133.5 -75.5t174.5 -34.5q88 0 151 35.5t97.5 100
t49.5 140.5t15 170z" />
    <glyph glyph-name="s_t" horiz-adv-x="1761" 
d="M864 782h-86v148q-136 31 -297 31q-69 0 -120.5 -16t-76.5 -37t-39.5 -50t-17 -45.5t-2.5 -32.5q0 -28 5.5 -50t22.5 -46t46 -43.5t79.5 -37.5t119.5 -32q191 -40 283.5 -105t92.5 -192q0 -140 -90 -217t-262 -77q-245 0 -416 43v217h89v-146q129 -31 317 -31
q59 0 105 12t73 32.5t45 42t25 47.5t9.5 41t2.5 30q0 35 -10.5 61.5t-39.5 54.5t-87 50.5t-146 40.5q-67 13 -117 27.5t-99 38.5t-80 55t-50.5 77t-19.5 105q0 127 90 196.5t262 69.5q218 0 389 -43v-219zM1212 303v643h-168v70l168 8l15 287h88v-287h317v-78h-317v-629
q0 -132 43 -193t158 -61q46 0 116 11l10 -82q-74 -12 -157 -12q-144 0 -208.5 71.5t-64.5 251.5z" />
    <glyph glyph-name="h.superior" horiz-adv-x="655" 
d="M406 881v47h69v297q0 129 -121 129q-85 0 -174 -74v-352h70v-47h-199v47h72v620h-72v49h129v-282h2q91 88 197 88q153 0 153 -166v-309h72v-47h-198z" />
    <glyph glyph-name="Ethsmall" horiz-adv-x="1220" 
d="M47 1198h561q506 0 506 -590q0 -608 -506 -608h-561v84h133v491h-133v66h133v473h-133v84zM285 84h323q398 0 398 524q0 85 -10.5 156t-38 137.5t-71.5 112t-114.5 73t-163.5 27.5h-323v-473h198v-66h-198v-491z" />
    <glyph glyph-name="Thornsmall" horiz-adv-x="1120" 
d="M307 995h297q190 0 295 -106.5t105 -276.5q0 -180 -104 -282.5t-296 -102.5h-297v-227h-256v86h148v1024h-148v88h256v-203zM307 909v-594h287q142 0 220.5 76.5t78.5 220.5q0 134 -80 215.5t-219 81.5h-287z" />
    <glyph glyph-name="Eng.small" horiz-adv-x="1275" 
d="M1096 -16v-109q0 -167 -66.5 -236t-200.5 -69q-75 0 -143 12l10 84q75 -10 117 -10q97 0 137.5 53.5t40.5 165.5v125l-708 1010h-4v-926h133v-84h-365v84h133v1030h-133v84h234l714 -1020h4v936h-135v84h365v-84h-133v-1130z" />
    <glyph glyph-name="longs_h" horiz-adv-x="1843" 
d="M827 82v1208q-143 60 -249 60q-137 0 -196.5 -64t-59.5 -190v-1188q0 -184 -62 -261t-209 -77q-73 0 -149 12l12 82q61 -10 117 -10q110 0 149 60.5t39 193.5v1188q0 178 88.5 258t259.5 80q144 0 285 -60h78v-510h4q190 174 395 174q307 0 307 -331v-625h148v-88h-393
v88h143v604q0 266 -246 266q-162 0 -358 -155v-715h143v-88h-395v88h149z" />
    <glyph glyph-name="longs_l" horiz-adv-x="1228" 
d="M322 1096v-1188q0 -184 -62 -261t-209 -77q-73 0 -149 12l12 82q61 -10 117 -10q110 0 149 60.5t39 193.5v1188q0 178 88.5 258t259.5 80q144 0 285 -60h78v-1288h147v-86h-393v86h143v1204q-143 60 -249 60q-137 0 -196.5 -64t-59.5 -190z" />
    </font>
</defs>
</svg>
